<svg width="188" height="180" viewBox="0 0 188 180" fill="none" xmlns="http://www.w3.org/2000/svg">
<g filter="url(#filter0_f_150_132)">
<circle cx="158.625" cy="94.375" r="19.375" fill="#384BF8" fill-opacity="0.35"/>
</g>
<g filter="url(#filter1_f_150_132)">
<circle cx="37.375" cy="134.375" r="26.875" fill="#F838CD" fill-opacity="0.15"/>
</g>
<g filter="url(#filter2_f_150_132)">
<circle cx="67.125" cy="36.875" r="26.875" fill="#F83838" fill-opacity="0.2"/>
</g>
<g filter="url(#filter3_f_150_132)">
<circle cx="129.875" cy="128.125" r="41.875" fill="#D1F838" fill-opacity="0.1"/>
</g>
<circle cx="88" cy="95" r="84" fill="url(#paint0_linear_150_132)" stroke="url(#paint1_linear_150_132)" stroke-width="2"/>
<circle cx="88.5" cy="94.5" r="69.5" fill="#0F4DBC" fill-opacity="0.8"/>
<g clip-path="url(#clip0_150_132)">
<path d="M110.82 74.9886C110.6 74.724 110.311 74.5274 109.985 74.4213C107.516 73.6042 103.348 72.2731 99.2258 71.1414M110.82 74.9886L110.435 75.3083C110.275 75.1157 110.065 74.9734 109.83 74.8967L109.828 74.896C107.363 74.0802 103.204 72.752 99.0934 71.6236M110.82 74.9886L110.435 75.3083C110.595 75.5005 110.699 75.7348 110.734 75.9847C112.815 91.7862 108.006 103.295 102.286 110.862L102.284 110.864C99.8626 114.101 96.9755 116.953 93.719 119.324C92.4266 120.242 91.2881 120.905 90.4092 121.323L90.4077 121.324C89.9687 121.535 89.621 121.67 89.3629 121.749L89.3544 121.752L89.3461 121.755C89.2744 121.78 89.2013 121.8 89.1272 121.815C89.055 121.801 88.9838 121.781 88.9141 121.756L88.9046 121.753L88.8951 121.75C88.6396 121.671 88.2911 121.535 87.8522 121.324L87.85 121.323C86.9675 120.904 85.8331 120.246 84.5412 119.324C81.2846 116.953 78.3973 114.101 75.9757 110.864L75.9743 110.863C70.2534 103.291 65.4448 91.7863 67.5261 75.9849C67.5616 75.7351 67.6654 75.5009 67.8252 75.3087C67.9854 75.1161 68.1952 74.9735 68.4304 74.8965L68.4322 74.8958C71.776 73.7857 75.1441 72.7525 78.5342 71.797M110.82 74.9886C111.04 75.2532 111.182 75.5751 111.229 75.9174C113.33 91.8643 108.476 103.503 102.685 111.164L78.5342 71.797M99.0934 71.6236C99.0934 71.6236 99.0935 71.6236 99.0935 71.6236L99.2258 71.1414M99.0934 71.6236C94.8711 70.4654 91.0648 69.6313 89.13 69.6313C87.1989 69.6313 83.3887 70.4655 79.1664 71.6236L78.5342 71.797V71.797M99.0934 71.6236L99.2258 71.1414M99.2258 71.1414L78.5342 71.797M77.8913 66.7046L77.8928 66.7042C81.9962 65.5757 86.4343 64.5381 89.13 64.5381C91.8255 64.5381 96.2632 65.5756 100.366 66.704C104.588 67.8582 108.842 69.2232 111.341 70.049L111.342 70.0495C112.476 70.4282 113.48 71.1223 114.239 72.0513C114.999 72.9801 115.484 74.1063 115.639 75.3002C117.918 92.6182 112.628 105.476 106.194 113.989C103.466 117.63 100.212 120.838 96.5424 123.503C95.2644 124.432 93.9102 125.249 92.4946 125.945L92.4892 125.947L92.4892 125.947C91.4177 126.458 90.1897 126.917 89.13 126.917C88.0701 126.917 86.8457 126.458 85.7713 125.947L85.7653 125.945L85.7653 125.945C84.3497 125.249 82.9955 124.432 81.7175 123.503C81.7175 123.503 81.7174 123.503 81.7174 123.503L82.0113 123.098C78.382 120.462 75.1642 117.29 72.4655 113.688L77.8913 66.7046ZM77.8913 66.7046C74.2077 67.73 70.5492 68.8452 66.9188 70.0492L66.9178 70.0495C65.7843 70.4282 64.7802 71.1223 64.0204 72.0513C63.2609 72.98 62.7761 74.106 62.6211 75.2998C60.3418 92.618 65.6322 105.476 72.066 113.989L77.8913 66.7046Z" fill="white" stroke="white"/>
<path d="M87.6351 105.817H87.636H90.6244C90.6244 105.817 90.6245 105.817 90.6245 105.817C90.9787 105.818 91.3283 105.738 91.6483 105.586C91.9683 105.433 92.2505 105.211 92.4749 104.936C92.6994 104.661 92.8606 104.34 92.9474 103.995C93.0342 103.65 93.0446 103.29 92.9778 102.941L91.5952 95.7127C92.6335 95.2571 93.5305 94.5213 94.1859 93.5833C94.9241 92.5267 95.3198 91.2652 95.3191 89.9726C95.3185 88.8273 95.0067 87.7039 94.4173 86.7249C93.8278 85.746 92.9832 84.9489 91.9752 84.4216C90.9671 83.8943 89.8346 83.6572 88.7017 83.7367C87.5688 83.8162 86.4798 84.2091 85.5536 84.8719C84.6275 85.5346 83.9 86.4416 83.4499 87.4931C82.9999 88.5446 82.8444 89.7007 83.0001 90.8352C83.1558 91.9697 83.6169 93.0396 84.3336 93.928C84.9596 94.704 85.7598 95.3154 86.6655 95.7127L85.2865 102.941C85.2865 102.941 85.2865 102.941 85.2865 102.941C85.2865 102.941 85.2865 102.941 85.2865 102.941C85.2198 103.29 85.2301 103.649 85.3166 103.994C85.4031 104.338 85.5639 104.659 85.7878 104.934C86.0118 105.209 86.2933 105.432 86.6127 105.584C86.9321 105.737 87.2813 105.817 87.6351 105.817Z" fill="white" stroke="white"/>
</g>
<defs>
<filter id="filter0_f_150_132" x="129.25" y="65" width="58.75" height="58.75" filterUnits="userSpaceOnUse" color-interpolation-filters="sRGB">
<feFlood flood-opacity="0" result="BackgroundImageFix"/>
<feBlend mode="normal" in="SourceGraphic" in2="BackgroundImageFix" result="shape"/>
<feGaussianBlur stdDeviation="5" result="effect1_foregroundBlur_150_132"/>
</filter>
<filter id="filter1_f_150_132" x="0.5" y="97.5" width="73.75" height="73.75" filterUnits="userSpaceOnUse" color-interpolation-filters="sRGB">
<feFlood flood-opacity="0" result="BackgroundImageFix"/>
<feBlend mode="normal" in="SourceGraphic" in2="BackgroundImageFix" result="shape"/>
<feGaussianBlur stdDeviation="5" result="effect1_foregroundBlur_150_132"/>
</filter>
<filter id="filter2_f_150_132" x="30.25" y="0" width="73.75" height="73.75" filterUnits="userSpaceOnUse" color-interpolation-filters="sRGB">
<feFlood flood-opacity="0" result="BackgroundImageFix"/>
<feBlend mode="normal" in="SourceGraphic" in2="BackgroundImageFix" result="shape"/>
<feGaussianBlur stdDeviation="5" result="effect1_foregroundBlur_150_132"/>
</filter>
<filter id="filter3_f_150_132" x="78" y="76.25" width="103.75" height="103.75" filterUnits="userSpaceOnUse" color-interpolation-filters="sRGB">
<feFlood flood-opacity="0" result="BackgroundImageFix"/>
<feBlend mode="normal" in="SourceGraphic" in2="BackgroundImageFix" result="shape"/>
<feGaussianBlur stdDeviation="5" result="effect1_foregroundBlur_150_132"/>
</filter>
<linearGradient id="paint0_linear_150_132" x1="-45.75" y1="-30.625" x2="169.25" y2="167.5" gradientUnits="userSpaceOnUse">
<stop stop-color="#0C56DB" stop-opacity="0.4"/>
<stop offset="1" stop-color="#0C56DB" stop-opacity="0"/>
</linearGradient>
<linearGradient id="paint1_linear_150_132" x1="168.625" y1="175" x2="34.875" y2="35.625" gradientUnits="userSpaceOnUse">
<stop stop-color="#0C56DB" stop-opacity="0.4"/>
<stop offset="1" stop-color="#0C56DB" stop-opacity="0"/>
</linearGradient>
<clipPath id="clip0_150_132">
<rect width="87" height="88" fill="white" transform="translate(45 51)"/>
</clipPath>
</defs>
</svg>
