<svg width="368" height="535" viewBox="0 0 368 535" fill="none" xmlns="http://www.w3.org/2000/svg">
<rect width="368" height="535" rx="20" fill="url(#paint0_radial_277_135)"/>
<path d="M368 190.384C349.09 203.388 326.184 211 301.5 211C236.607 211 184 158.393 184 93.5C184 55.3609 202.171 21.4659 230.328 0H348C359.046 0 368 8.9543 368 20V190.384Z" fill="url(#paint1_linear_277_135)" fill-opacity="0.1"/>
<path d="M368 450.588C361.617 448.899 354.914 448 348 448C304.922 448 270 482.922 270 526C270 529.044 270.174 532.047 270.514 535H348C359.046 535 368 526.046 368 515V450.588Z" fill="white" fill-opacity="0.05"/>
<path d="M0 382.899C1.32488 382.966 2.65849 383 4 383C47.0782 383 82 348.078 82 305C82 261.922 47.0782 227 4 227C2.65849 227 1.32488 227.034 0 227.101V382.899Z" fill="white" fill-opacity="0.05"/>
<defs>
<radialGradient id="paint0_radial_277_135" cx="0" cy="0" r="1" gradientUnits="userSpaceOnUse" gradientTransform="translate(184 267.5) rotate(90) scale(557 383.133)">
<stop stop-color="#2E8EFF"/>
<stop offset="1" stop-color="#064ED0"/>
</radialGradient>
<linearGradient id="paint1_linear_277_135" x1="354" y1="5.99998" x2="234" y2="186" gradientUnits="userSpaceOnUse">
<stop stop-color="white"/>
<stop offset="1" stop-color="white" stop-opacity="0"/>
</linearGradient>
</defs>
</svg>
