<?xml version="1.0" standalone="no"?>
<!-- Generator: Adobe Fireworks 10, Export SVG Extension by Aaron Beall (http://fireworks.abeall.com) . Version: 0.6.1  -->
<!DOCTYPE svg PUBLIC "-//W3C//DTD SVG 1.1//EN" "http://www.w3.org/Graphics/SVG/1.1/DTD/svg11.dtd">
<svg id="Untitled-Page%201" viewBox="0 0 326 326" style="background-color:#ffffff00" version="1.1"
	xmlns="http://www.w3.org/2000/svg" xmlns:xlink="http://www.w3.org/1999/xlink" xml:space="preserve"
	x="0px" y="0px" width="326px" height="326px"
>
	<g id="Layer%201">
		<g>
			<path id="Ellipse" d="M 3 163 C 3 74.6335 74.6333 3 163 3 C 251.3668 3 323 74.6335 323 163 C 323 251.3665 251.3668 323 163 323 C 74.6333 323 3 251.3665 3 163 Z" stroke="#ffffff" stroke-width="3" fill="none"/>
			<g id="890122">
				<g>
					<path d="M 177.2458 166.1338 C 173.9342 156.3121 163.2846 151.0337 153.4595 154.344 C 144.2509 157.4471 138.9334 167.062 141.2012 176.5078 C 147.9596 199.9967 172.6801 221.0754 195.3207 238.9858 C 196.9464 240.2734 199.308 240 200.596 238.3748 C 201.8835 236.7489 201.6097 234.3885 199.9838 233.1006 C 178.2518 215.9105 154.5602 195.7849 148.4175 174.436 C 146.6984 168.4556 150.1547 162.2142 156.1372 160.4955 C 162.1198 158.7775 168.3628 162.2325 170.082 168.213 C 174.1821 182.4756 194.5699 200.1016 213.9662 215.4451 C 215.5921 216.7323 217.9537 216.4585 219.2417 214.8333 C 220.5291 213.2079 220.2554 210.847 218.6295 209.5592 C 208.3871 201.475 181.2635 180.0208 177.2458 166.1338 L 177.2458 166.1338 Z" fill="#ffffff"/>
					<path d="M 205.7063 156.4574 C 197.5435 131.4386 171.0968 117.3062 145.7523 124.4183 C 119.8406 131.8513 104.8624 158.8748 112.2977 184.7777 C 112.3029 184.7958 112.3082 184.8146 112.3135 184.8326 C 118.4787 206.2422 105.2623 212.1797 101.0496 213.4858 C 99.0714 214.1082 97.9719 216.2146 98.5939 218.1926 C 99.2161 220.1698 101.3242 221.2692 103.3023 220.6475 C 114.7841 217.0592 125.9354 204.9884 119.5297 182.7531 C 113.2148 160.8423 125.8643 137.9625 147.7826 131.6499 C 147.7942 131.6466 147.8058 131.6433 147.817 131.6399 C 169.4888 125.5505 192.0688 137.8284 198.73 159.3248 C 198.8187 159.6174 198.945 159.8975 199.1056 160.1577 C 199.496 160.8037 200.2996 162.1626 224.4343 181.7401 C 226.0433 183.0479 228.4088 182.8042 229.7171 181.1953 C 231.0255 179.5868 230.782 177.222 229.1726 175.9149 C 220.4018 168.7983 207.5836 158.2212 205.7063 156.4574 L 205.7063 156.4574 Z" fill="#ffffff"/>
					<path d="M 191.6938 161.9822 C 186.5079 144.0806 167.8179 133.74 149.8896 138.8539 C 132.2859 144.2869 122.0684 162.5983 126.6934 180.4264 C 134.2778 214.957 128.6082 222.929 113.0488 227.7932 C 111.0705 228.4153 109.9713 230.5225 110.5933 232.5004 C 111.2153 234.4778 113.3234 235.577 115.3017 234.9547 C 137.0411 228.1992 141.7644 213.9957 134.0746 178.8121 C 130.3389 164.8606 138.2371 150.439 152.007 146.0679 C 165.9594 142.1082 180.4911 150.1577 184.5297 164.0839 C 186.0317 169.2031 190.0191 176.2296 220.7697 200.5594 C 222.3956 201.8462 224.7571 201.5728 226.045 199.9471 C 227.3326 198.3224 227.0588 195.9609 225.4329 194.6737 C 197.5209 172.6045 192.745 165.6156 191.6938 161.9822 L 191.6938 161.9822 Z" fill="#ffffff"/>
					<path d="M 202.0265 214.229 C 189.3207 204.5901 168.0545 188.4661 162.8207 170.2848 C 162.2138 168.3026 160.114 167.1875 158.1312 167.7942 C 156.1971 168.3861 155.0793 170.4038 155.6039 172.3563 C 161.5214 192.9399 184.0341 210.0103 197.4832 220.2118 C 200.2166 222.1792 202.848 224.2842 205.3679 226.5178 C 206.8595 227.9576 209.2365 227.9164 210.6772 226.426 C 212.0828 224.9712 212.0828 222.665 210.6772 221.2109 C 207.9274 218.7223 205.0392 216.3914 202.0265 214.229 L 202.0265 214.229 Z" fill="#ffffff"/>
					<path d="M 181.7063 240.3378 C 177.9114 233.2999 170.9214 228.5535 162.9782 227.6208 C 150.2124 227.6208 148.2377 249.3156 147.9596 253.6619 C 147.8311 255.7306 149.4046 257.5115 151.474 257.6405 L 151.7144 257.6405 C 153.7004 257.6445 155.346 256.1013 155.4692 254.1202 C 155.9422 246.3879 158.9008 235.1281 162.9782 235.1281 C 168.5428 235.1281 172.4925 240.4879 175.6615 244.7891 C 176.7084 246.2813 177.8547 247.7007 179.0932 249.0381 C 180.5844 250.4786 182.9617 250.4366 184.4022 248.9457 C 185.8079 247.4917 185.8079 245.1853 184.4022 243.7307 C 183.4311 242.6595 182.5305 241.5255 181.7063 240.3378 L 181.7063 240.3378 Z" fill="#ffffff"/>
					<path d="M 147.7871 207.7134 C 147.0813 205.7642 144.9285 204.7562 142.9788 205.4615 C 141.145 206.125 140.1245 208.0826 140.631 209.9652 C 143.8451 220.0015 137.5296 239.6989 128.0305 242.7843 C 126.0515 243.4038 124.9496 245.5093 125.5687 247.4877 C 126.1881 249.4663 128.2946 250.5676 130.2735 249.9486 C 130.2994 249.9406 130.3251 249.9321 130.351 249.9233 C 144.7983 245.2695 151.7668 220.182 147.7871 207.7134 L 147.7871 207.7134 Z" fill="#ffffff"/>
					<path d="M 227.9638 156.4871 C 223.2707 154.9862 219.5834 148.9803 215.3104 142.1268 C 206.2694 127.5187 193.8715 107.5132 159.2236 107.5132 C 123.9889 107.5549 95.4359 136.098 95.3947 171.3203 C 95.3947 173.3939 97.0759 175.0741 99.1495 175.0741 C 101.2231 175.0741 102.9043 173.3939 102.9043 171.3203 C 102.9374 140.2404 128.1328 115.0532 159.2239 115.0201 C 189.689 115.0201 200.3597 132.2407 208.9356 146.0833 C 213.9818 154.228 218.337 161.2614 225.6512 163.6338 C 227.6164 164.295 229.746 163.2393 230.4081 161.2753 C 231.0703 159.3104 230.014 157.1819 228.049 156.5201 C 228.0233 156.5111 227.9976 156.5031 227.9715 156.4946 L 227.9638 156.4871 L 227.9638 156.4871 Z" fill="#ffffff"/>
					<path d="M 102.9039 201.3473 C 104.9775 201.3473 106.6586 199.6671 106.6583 197.594 C 106.6583 197.0103 106.5221 196.4342 106.2605 195.9126 C 104.6582 192.9104 103.5258 189.6803 102.9039 186.3341 C 102.9039 184.2615 101.2227 182.5808 99.149 182.5808 C 97.0754 182.5808 95.3943 184.2615 95.3943 186.3341 C 95.9969 190.8608 97.4036 195.2437 99.5468 199.2759 C 100.1839 200.5457 101.4832 201.3473 102.9039 201.3473 L 102.9039 201.3473 Z" fill="#ffffff"/>
					<path d="M 100.9517 121.9789 C 102.7222 123.0577 105.0328 122.4982 106.1119 120.7278 C 106.1141 120.7245 106.1161 120.7212 106.118 120.7178 C 109.3771 115.3427 125.4318 100.0066 155.4692 100.0066 C 184.3347 100.0066 204.8727 114.6219 208.5747 120.7178 C 209.6508 122.49 211.9606 123.0549 213.7336 121.9789 C 215.5066 120.9032 216.0712 118.5941 214.9952 116.8215 L 214.9952 116.8215 C 209.8436 108.339 187.0983 92.5 155.4692 92.5 C 121.835 92.5 103.8053 110.0588 99.6902 116.8292 C 98.6184 118.5997 99.1829 120.9032 100.9517 121.9789 L 100.9517 121.9789 Z" fill="#ffffff"/>
					<path d="M 123.179 92.1692 C 124.8984 91.4188 126.3553 90.6683 127.7371 89.9174 C 133.384 87.0724 137.4465 84.9933 155.4688 84.9933 C 167.6378 84.3226 179.8091 86.2701 191.1602 90.7058 C 192.5947 91.2389 194.0366 91.772 195.5458 92.2891 C 195.9393 92.4261 196.3531 92.4971 196.7698 92.4993 C 198.8434 92.5033 200.5274 90.8257 200.5313 88.7533 C 200.5339 87.1461 199.514 85.7163 197.9937 85.1957 C 196.5366 84.6929 195.155 84.1824 193.7736 83.6943 C 181.5877 78.9435 168.5325 76.8276 155.4692 77.4862 C 135.6148 77.4862 130.6435 80.0383 124.3355 83.274 C 123.0667 83.927 121.715 84.6182 120.1379 85.3234 C 118.2113 86.0892 117.27 88.2719 118.0355 90.1974 C 118.8015 92.124 120.9846 93.0649 122.9114 92.2996 C 123.0099 92.2605 123.1067 92.2172 123.2015 92.1692 L 123.179 92.1692 L 123.179 92.1692 Z" fill="#ffffff"/>
					<path d="M 223.2252 142.4344 C 223.9309 144.3838 226.0837 145.3916 228.0335 144.6863 C 229.8675 144.0222 230.8879 142.0658 230.3813 140.1826 C 228.251 134.6682 225.6086 129.365 222.4892 124.3435 C 221.4026 122.5774 219.0897 122.0261 217.3229 123.1123 C 215.5562 124.1984 215.0047 126.5107 216.0913 128.2767 C 218.8864 132.7744 221.274 137.5126 223.2252 142.4344 L 223.2252 142.4344 Z" fill="#ffffff"/>
				</g>
				<path d="M 197.6262 239.7969 C 196.7811 239.7964 195.9609 239.5109 195.2984 238.9858 C 172.658 221.0679 147.96 199.9967 141.2017 176.5078 C 138.7816 166.4297 144.993 156.299 155.0748 153.8793 C 164.5242 151.6124 174.1423 156.9282 177.2462 166.1338 C 181.241 180.0135 208.3645 201.475 218.5472 209.5526 C 220.2126 210.7882 220.5605 213.1385 219.3246 214.8035 C 218.0888 216.4678 215.7371 216.816 214.0721 215.5803 C 214.0107 215.5345 213.95 215.4868 213.8912 215.4377 C 194.4949 200.094 174.0919 182.4756 169.9996 168.2058 C 168.2805 162.2269 162.0389 158.7734 156.0587 160.4922 C 150.0782 162.2109 146.6238 168.4501 148.3429 174.4282 C 154.4856 195.7773 178.1772 215.9032 199.9019 233.0935 C 201.5278 234.3804 201.8019 236.7412 200.5146 238.366 C 199.8015 239.2666 198.7153 239.7909 197.5663 239.7891 L 197.6262 239.7969 L 197.6262 239.7969 Z" fill="#ffffff"/>
				<path d="M 102.153 220.7971 C 100.0793 220.7938 98.4015 219.1104 98.4053 217.0372 C 98.4081 215.4005 99.4722 213.9541 101.0344 213.4633 C 105.2321 212.1494 118.4484 206.2119 112.2984 184.8101 C 104.8465 158.9122 119.8072 131.8787 145.7139 124.4294 C 145.7266 124.4261 145.7396 124.4221 145.7523 124.4183 C 171.0997 117.3018 197.5508 131.4353 205.7141 156.4579 C 207.5838 158.2145 220.4022 168.799 229.173 175.9149 C 230.7421 177.2699 230.9157 179.6401 229.5604 181.2091 C 228.2629 182.7107 226.0204 182.9432 224.442 181.7407 C 200.2996 162.1554 199.4964 160.7966 199.1056 160.1512 C 198.9504 159.8916 198.8268 159.6141 198.7378 159.3254 C 192.0765 137.8251 169.4918 125.5461 147.8173 131.6406 C 125.8942 137.9373 113.2287 160.808 119.5276 182.7233 C 119.5284 182.7261 119.5291 182.7281 119.5297 182.7311 C 125.9276 204.9586 114.7838 217.0366 103.2946 220.625 C 102.9254 220.7415 102.5403 220.7999 102.153 220.7971 L 102.153 220.7971 Z" fill="#ffffff"/>
				<path d="M 114.1678 235.1281 C 112.0942 235.1238 110.4162 233.4402 110.4201 231.3676 C 110.423 229.7308 111.4871 228.2845 113.0493 227.7932 C 128.6085 222.929 134.2703 214.942 126.6859 180.4264 C 122.0649 162.5989 132.2809 144.2902 149.8822 138.8539 C 167.8109 133.7533 186.4938 144.0878 191.6938 161.9822 C 192.7375 165.6079 197.5062 172.5968 225.3732 194.6517 C 227.0385 195.8868 227.3866 198.2377 226.1508 199.9026 C 224.9149 201.5673 222.5631 201.915 220.8981 200.6794 C 220.8365 200.6338 220.776 200.5859 220.7172 200.5369 C 189.9291 176.1998 185.9417 169.1659 184.4772 164.0613 C 180.4532 150.1205 165.9041 142.0631 151.9471 146.0453 C 138.1618 150.4197 130.2629 164.8657 134.0222 178.8274 C 141.7493 214.0189 137.0259 228.1842 115.2491 234.9697 C 114.8986 235.0758 114.5341 235.1293 114.1678 235.1281 L 114.1678 235.1281 Z" fill="#ffffff"/>
				<path d="M 208.0341 227.6208 C 207.0376 227.6226 206.0811 227.2286 205.3758 226.5249 C 202.855 224.2897 200.2236 222.1825 197.4911 220.2118 C 184.0417 210.0103 161.5291 192.9399 155.6116 172.3563 C 155.0048 170.3746 156.1199 168.2756 158.1028 167.6688 C 160.0856 167.062 162.1849 168.1772 162.7921 170.1589 C 162.8047 170.2007 162.8168 170.2424 162.8281 170.2843 C 168.0844 188.4655 189.3207 204.5901 202.0265 214.229 C 205.041 216.3947 207.9315 218.7278 210.6846 221.2175 C 212.1486 222.6853 212.145 225.0621 210.6761 226.5255 C 209.9746 227.2253 209.025 227.6193 208.0341 227.6208 L 208.0341 227.6208 Z" fill="#ffffff"/>
				<path d="M 151.7144 257.6479 L 151.474 257.6479 C 149.4046 257.5192 147.8311 255.7377 147.9596 253.6689 C 148.23 249.3226 150.2124 227.6285 162.9782 227.6285 C 170.938 228.5535 177.9455 233.3032 181.7514 240.3525 C 182.5706 241.5426 183.4685 242.676 184.4396 243.7455 C 185.8803 245.2365 185.8388 247.6127 184.3474 249.0531 C 182.8922 250.4583 180.5855 250.4583 179.1304 249.0531 C 177.8897 247.7206 176.7431 246.3032 175.6988 244.8116 C 172.4999 240.4879 168.55 235.1281 162.9781 235.1281 C 158.9078 235.1281 155.9418 246.3879 155.4688 254.1281 C 155.346 256.1084 153.7004 257.6517 151.7144 257.6479 L 151.7144 257.6479 Z" fill="#ffffff"/>
				<path d="M 129.1865 250.1414 C 127.1128 250.1451 125.4285 248.4683 125.4246 246.3951 C 125.4216 244.7623 126.4751 243.3147 128.0302 242.8152 C 137.5218 239.7299 143.7997 220.0319 140.6307 209.9955 C 139.8883 208.0601 140.8562 205.8895 142.7924 205.1473 C 144.7283 204.4052 146.8998 205.3729 147.6422 207.308 C 147.6967 207.4504 147.7424 207.5956 147.7794 207.7437 C 151.7668 220.2122 144.7757 245.2771 130.3428 249.9917 C 129.9675 250.1012 129.5776 250.1517 129.1865 250.1414 L 129.1865 250.1414 Z" fill="#ffffff"/>
				<path d="M 99.1495 175.0741 C 97.0759 175.0741 95.3947 173.3939 95.3947 171.3203 C 95.4362 136.098 123.9889 107.5549 159.2236 107.5135 C 193.8715 107.5135 206.2691 127.5192 215.3179 142.1274 C 219.5909 149.0111 223.2776 154.9636 227.9711 156.4877 C 229.9501 157.1071 231.0522 159.2125 230.433 161.191 C 229.814 163.1688 227.7072 164.271 225.7283 163.652 C 225.7022 163.6437 225.6766 163.6349 225.6509 163.6266 C 218.3367 161.2543 213.9814 154.2202 208.9351 146.076 C 200.3594 132.2412 189.689 115.0201 159.2236 115.0201 C 128.1326 115.0537 102.937 140.241 102.9039 171.3209 C 102.9039 173.3939 101.2231 175.0741 99.1495 175.0741 L 99.1495 175.0741 Z" fill="#ffffff"/>
				<path d="M 102.9039 201.3473 C 101.4804 201.3501 100.1776 200.5479 99.5398 199.2753 C 97.3973 195.2437 95.9935 190.8604 95.3947 186.3341 C 95.3947 184.2611 97.0759 182.5802 99.1495 182.5802 C 101.2231 182.5802 102.9043 184.2611 102.9043 186.3341 C 103.5279 189.6792 104.66 192.9093 106.2609 195.9126 C 107.1899 197.7656 106.4399 200.0208 104.5861 200.9496 C 104.0637 201.2109 103.4877 201.3473 102.9039 201.3473 L 102.9039 201.3473 Z" fill="#ffffff"/>
				<path d="M 211.7888 122.5267 C 210.4744 122.5275 209.2556 121.8413 208.5747 120.7178 C 204.8801 114.6219 184.3347 100.0066 155.4692 100.0066 C 125.4321 100.0066 109.3771 115.3427 106.1106 120.7178 C 105.0989 122.5267 102.8113 123.1743 101.0013 122.1626 C 99.1914 121.1515 98.5441 118.8643 99.556 117.0547 C 99.6005 116.9756 99.6479 116.8981 99.6979 116.8215 C 103.8053 110.0588 121.8355 92.5 155.4695 92.5 C 187.0987 92.5 209.8444 108.339 214.9955 116.8292 C 216.0697 118.6025 215.5024 120.9105 213.7287 121.9839 C 213.1433 122.3381 212.4727 122.5258 211.7888 122.5267 L 211.7888 122.5267 Z" fill="#ffffff"/>
				<path d="M 196.7701 92.5 C 196.3538 92.5004 195.9402 92.4321 195.5463 92.2975 C 194.0442 91.7792 192.5876 91.2389 191.1534 90.7134 C 179.8046 86.278 167.6363 84.327 155.4692 84.9938 C 137.4468 84.9938 133.3844 87.0724 127.775 89.9476 C 126.3933 90.6608 124.9291 91.4044 123.2169 92.2001 C 121.3176 93.0397 119.0967 92.1808 118.2569 90.2815 C 117.4171 88.3828 118.2759 86.163 120.1757 85.3234 C 121.7601 84.6097 123.1042 83.9198 124.381 83.2664 C 130.6437 80.0391 135.6224 77.4862 155.4695 77.4862 C 168.529 76.8203 181.5814 78.9287 193.7668 83.6722 C 195.1484 84.183 196.5305 84.7007 197.9869 85.1737 C 199.9614 85.807 201.0483 87.9208 200.4147 89.8942 C 199.9079 91.4717 198.4269 92.5308 196.7701 92.5 L 196.7701 92.5 Z" fill="#ffffff"/>
				<path d="M 226.8073 145.0466 C 225.1743 145.0457 223.7292 143.9897 223.2325 142.4344 C 221.2818 137.5027 218.8945 132.7545 216.0986 128.2469 C 215.012 126.4811 215.5632 124.1686 217.3303 123.0826 C 219.097 121.9965 221.41 122.5471 222.4966 124.3137 L 222.4966 124.3137 C 225.6132 129.3359 228.2528 134.6384 230.3813 140.153 C 231.0117 142.1274 229.9213 144.2395 227.9458 144.8695 C 227.578 144.9867 227.1937 145.0466 226.8073 145.0466 L 226.8073 145.0466 Z" fill="#ffffff"/>
			</g>
		</g>
	</g>
</svg>