<?xml version="1.0" standalone="no"?>
<!-- Generator: Adobe Fireworks 10, Export SVG Extension by Aaron Beall (http://fireworks.abeall.com) . Version: 0.6.1  -->
<!DOCTYPE svg PUBLIC "-//W3C//DTD SVG 1.1//EN" "http://www.w3.org/Graphics/SVG/1.1/DTD/svg11.dtd">
<svg id="Untitled-Page%201" viewBox="0 0 934 372" style="background-color:#ffffff00" version="1.1"
	xmlns="http://www.w3.org/2000/svg" xmlns:xlink="http://www.w3.org/1999/xlink" xml:space="preserve"
	x="0px" y="0px" width="934px" height="372px"
>
	<g id="Layer%201">
		<g>
			<path d="M 604.1349 311.0609 C 621.2635 309.051 645.2939 318.1531 668.2258 301.1352 C 685.0767 288.7259 678.7218 249.6076 649.717 248.897 C 658.0035 245.4725 662.9736 245.5898 668.7772 239.2081 C 678.1705 229.2803 682.0381 196.1895 642.5331 196.1895 L 604.1349 196.1895 L 604.1349 311.0609 ZM 631.7594 246.1809 L 619.6053 246.7719 L 619.6053 204.2248 C 679.5508 202.6907 662.1489 246.1809 631.7594 246.1809 ZM 619.8831 302.9061 L 619.8831 253.6252 C 643.64 253.6252 661.8711 253.271 661.8711 278.5612 C 661.8711 287.0702 651.9265 308.3427 619.8831 302.9061 Z" fill="#4178b5"/>
			<path d="M 272.0969 309.8789 C 278.4496 309.051 275.9644 309.5247 284.8043 309.5247 C 284.8043 281.2794 282.8706 251.9716 282.8706 223.609 C 292.8152 233.889 358.56 302.1978 370.4384 311.0609 C 370.4384 272.7704 372.6478 234.3626 372.6478 196.1895 L 359.9424 196.1895 C 359.9424 224.3174 361.8741 252.6799 361.8741 281.0447 C 351.9316 270.88 282.8706 196.309 274.3084 193.708 C 274.3084 232.8264 272.0969 270.88 272.0969 309.8789 L 272.0969 309.8789 Z" fill="#4178b5"/>
			<path d="M 128.4532 311.0609 C 137.2931 311.0609 138.3979 311.0609 139.7782 311.0609 C 139.7782 311.0609 141.1586 310.9457 143.9214 304.3271 C 154.9708 278.0875 159.3918 267.3339 159.9431 267.2166 C 165.191 265.7977 181.7661 266.1519 201.102 266.1519 C 201.6554 266.1519 213.5338 296.0528 218.5061 308.5816 L 235.6325 308.5816 C 229.5555 294.8708 190.0526 212.4991 181.2149 193.708 C 151.381 261.78 142.8167 277.9723 128.4532 311.0609 L 128.4532 311.0609 ZM 179.8345 221.1254 C 182.8709 230.345 196.4074 255.3983 196.9587 258.5903 L 162.706 258.5903 L 179.8345 221.1254 Z" fill="#4178b5"/>
			<path d="M 0 253.6252 C 0 318.8616 100.2753 327.3705 102.7626 291.09 C 93.6449 295.4597 99.4484 303.4993 57.7339 303.4993 C 6.077 303.4993 2.7629 201.1545 66.2982 201.1545 C 82.0443 201.1545 90.3307 212.8533 100.551 216.1626 C 101.9335 210.2523 102.7626 208.8356 102.7626 201.1545 C 91.9889 198.3167 80.1104 193.708 66.2982 193.708 C 31.7677 193.708 0 213.918 0 253.6252 L 0 253.6252 Z" fill="#4178b5"/>
			<path d="M 880.375 268.6354 C 880.6528 283.1699 879.8239 296.2875 877.6144 312.243 C 877.6144 312.243 884.5204 311.6541 895.2941 311.7693 C 895.2941 270.7606 890.0463 265.915 904.9609 242.5153 C 911.3158 232.3527 929.8247 205.2895 933.9658 196.1895 L 920.9827 196.1895 C 912.1448 215.9258 901.3712 233.061 891.1488 251.1437 C 884.7939 245.7072 863.5243 206.4716 858.8276 196.1895 L 839.7676 196.1895 C 848.054 216.6341 883.14 244.4078 880.375 268.6354 L 880.375 268.6354 Z" fill="#4178b5"/>
			<path d="M 482.0388 58.8635 L 496.9536 56.382 C 491.4321 47.5167 463.2542 39.4814 452.7562 35.4637 C 430.9352 26.8353 426.792 26.4811 398.3384 26.4811 C 402.2061 45.7458 399.4432 32.9823 438.6683 44.4464 L 482.0388 58.8635 Z" fill="#78b324"/>
			<path d="M 368.5046 56.382 L 368.5046 61.3449 C 387.5648 61.8186 454.4143 76.353 460.4934 76.353 C 464.3589 76.353 466.017 70.6818 466.8461 66.4272 C 451.9292 57.9183 409.6635 56.0279 392.8127 52.8359 C 375.4106 49.4093 380.9365 52.9554 368.5046 56.382 L 368.5046 56.382 Z" fill="#78b324"/>
			<path d="M 346.9572 91.3633 C 351.1026 97.745 344.1943 96.6824 368.5046 96.3282 L 420.4371 97.1539 C 439.773 94.4357 437.5657 94.9094 441.1555 88.8818 C 434.8028 85.2184 375.6864 81.5549 358.8356 85.101 C 348.3397 87.3456 351.6539 84.0363 346.9572 91.3633 L 346.9572 91.3633 Z" fill="#78b324"/>
			<path d="M 325.6876 133.7909 C 348.891 133.7909 346.6816 128.7085 362.4276 124.3367 C 386.7357 117.7181 396.4047 127.0529 396.4047 103.7726 C 378.7249 103.7726 369.885 107.9097 355.7971 111.4537 C 344.7477 114.2915 328.7261 120.3169 325.6876 133.7909 L 325.6876 133.7909 Z" fill="#78b324"/>
			<path d="M 443.3649 171.2535 C 462.4251 171.2535 462.7029 110.7454 462.7029 93.8447 C 451.1001 101.0543 456.3481 97.1539 447.5082 130.9531 C 445.5744 137.3348 444.194 144.6619 441.9846 152.3451 C 440.6021 158.3727 436.4589 171.2535 443.3649 171.2535 L 443.3649 171.2535 Z" fill="#78b324"/>
			<path d="M 504.693 140.5269 C 509.6631 137.5717 515.4625 131.8983 521.8172 102.8274 C 524.5779 89.5902 528.1721 75.0536 529.0011 61.3449 C 517.1206 65.2452 513.8043 88.5276 511.5948 96.6824 C 510.2144 102.4731 509.3854 106.7277 508.2828 112.0447 C 506.0734 124.3367 503.8596 129.5364 504.693 140.5269 L 504.693 140.5269 Z" fill="#78b324"/>
			<path d="M 437.0123 18.9194 L 522.6463 46.4542 C 521.8172 36.5284 521.5394 36.2916 506.3469 30.3814 C 476.7907 18.7999 464.9124 18.4458 455.519 14.8997 C 444.4697 10.882 441.1555 -0.1085 437.0123 18.9194 L 437.0123 18.9194 Z" fill="#78b324"/>
			<path d="M 404.9668 186.2637 C 413.8068 186.2637 418.7811 164.8718 422.0953 156.2454 C 426.2385 145.1355 432.3156 131.4268 434.8028 118.7806 C 416.5696 119.2543 420.4371 134.145 403.3108 169.6 C 400.5479 175.1538 396.9581 186.2637 404.9668 186.2637 L 404.9668 186.2637 Z" fill="#78b324"/>
			<path d="M 351.3782 168.7721 C 351.6539 190.9897 361.8741 184.9622 370.9897 174.3259 C 383.9728 159.5526 400.5479 153.5271 400.5479 128.828 C 396.1291 132.1351 366.2952 164.0439 351.3782 168.7721 L 351.3782 168.7721 Z" fill="#78b324"/>
			<path d="M 559.1085 113.8177 C 556.8991 60.6366 552.2024 74.1105 550.5485 48.9356 L 544.1937 48.9356 C 544.1937 66.4272 540.6039 67.9635 543.0868 87.3456 C 545.5741 106.6082 545.8519 109.5633 559.1085 113.8177 L 559.1085 113.8177 Z" fill="#78b324"/>
			<path d="M 473.4745 6.5101 C 478.7224 9.3457 548.3348 44.4464 542.5355 28.491 C 539.2192 19.5083 500.5476 7.3358 488.6671 3.4355 C 480.1028 0.4825 478.1711 -3.7719 473.4745 6.5101 L 473.4745 6.5101 Z" fill="#78b324"/>
			<path d="M 486.1799 78.8365 C 483.6969 92.0717 475.1326 140.0531 479.8293 151.2804 C 494.4706 142.1804 489.7739 122.5636 493.3637 97.2714 C 494.4706 89.7097 496.4022 83.5626 496.9536 76.353 C 491.9833 77.6545 491.9833 78.1261 486.1799 78.8365 L 486.1799 78.8365 Z" fill="#78b324"/>
			<path d="M 317.1234 163.6897 C 322.3734 187.561 353.5877 156.3628 364.9127 149.6268 C 373.1991 144.6619 376.2397 145.9634 377.0668 133.7909 C 372.0966 136.5092 367.1221 137.8085 361.3228 140.5269 C 355.7971 143.1256 351.9316 145.0182 346.1281 147.7365 L 317.1234 163.6897 Z" fill="#78b324"/>
			<path d="M 523.1976 175.2711 C 532.3131 173.2634 530.1037 167.4727 550.5485 161.2083 C 565.1855 153.9987 567.9506 154.5897 574.0276 141.2373 C 556.8991 148.3253 525.407 166.0538 523.1976 175.2711 L 523.1976 175.2711 Z" fill="#78b324"/>
			<path d="M 566.8437 140.4094 C 576.5105 134.9729 578.1687 139.1079 580.3824 128.828 C 562.4247 128.828 556.8991 134.4993 540.6039 142.1804 C 533.42 145.6091 533.1422 145.7266 531.2106 153.7618 C 545.5741 153.2903 558.835 144.8987 566.8437 140.4094 L 566.8437 140.4094 Z" fill="#78b324"/>
			<path d="M 556.8991 26.4811 C 556.8991 40.0724 556.6256 39.6009 559.6599 50.5913 C 562.9761 62.0554 561.5958 65.3625 571.8139 66.4272 C 571.8139 18.7999 569.8823 43.0276 565.4633 21.4008 C 560.2154 25.5359 563.2538 24.2365 556.8991 26.4811 L 556.8991 26.4811 Z" fill="#78b324"/>
			<path d="M 518.2274 200.5635 C 525.9626 198.1973 563.8051 163.9265 565.4633 158.7268 L 538.3902 174.6823 C 520.1591 187.7979 519.33 188.5083 518.2274 200.5635 L 518.2274 200.5635 Z" fill="#78b324"/>
			<path d="M 530.3815 220.2976 C 526.2361 228.8087 522.9241 231.2902 522.6463 243.58 C 529.5524 241.4528 530.655 236.0162 534.2491 229.8713 C 540.326 218.644 552.7579 211.0802 552.4802 202.808 C 545.5741 206.4716 532.8687 215.5715 530.3815 220.2976 L 530.3815 220.2976 Z" fill="#78b324"/>
			<path d="M 544.1937 201.1545 L 547.5057 197.7257 C 555.7965 189.9272 556.3478 190.7529 556.8991 181.1814 C 548.6127 183.7802 552.7579 183.8997 546.1254 188.7452 L 525.9626 205.0526 C 518.5009 211.5539 520.7104 204.9353 520.4368 218.644 C 526.2361 218.053 541.4287 204.3442 544.1937 201.1545 L 544.1937 201.1545 Z" fill="#78b324"/>
			<path d="M 569.8823 178.7 C 569.8823 185.0817 575.1301 189.6904 577.8952 195.2443 C 580.9337 201.5087 578.9978 209.5439 580.3824 216.5167 C 593.9168 211.7908 578.7243 177.5179 569.8823 173.735 C 569.6087 173.735 569.8823 178.3436 569.8823 178.7 L 569.8823 178.7 Z" fill="#78b324"/>
			<path d="M 584.5235 143.0082 C 584.8013 148.0906 591.1519 155.8891 592.81 159.7894 C 596.4041 170.6625 594.7459 174.7997 602.2033 179.4083 C 603.3101 167.59 596.9554 155.2981 591.981 146.2002 C 587.0107 136.3896 587.562 139.1079 584.8013 133.7909 C 583.4166 136.8612 584.5235 138.28 584.5235 143.0082 L 584.5235 143.0082 Z" fill="#78b324"/>
			<path d="M 548.3348 253.6252 C 558.835 252.5627 558.2795 245.1161 559.1085 231.7617 C 559.6599 225.2626 559.6599 212.3817 555.2409 206.4716 C 555.2409 213.7985 554.1383 223.3722 552.7579 229.8713 C 551.3776 235.1904 547.2322 248.4255 548.3348 253.6252 L 548.3348 253.6252 Z" fill="#78b324"/>
			<path d="M 576.237 236.1357 C 578.7243 221.3623 570.16 204.1074 565.4633 187.3263 L 564.3564 192.2892 C 563.5317 201.8629 561.8735 231.6443 576.237 236.1357 L 576.237 236.1357 Z" fill="#78b324"/>
			<path d="M 594.1904 122.681 L 588.9424 121.2621 C 591.981 136.2723 593.0878 133.1998 600.823 141.0005 C 609.3873 149.7441 602.2033 151.9909 612.6993 160.7346 C 611.0411 131.0704 605.7932 141.7089 594.1904 122.681 L 594.1904 122.681 Z" fill="#78b324"/>
			<path d="M 583.4166 177.9894 C 587.8398 187.6805 584.8013 192.9996 594.4681 195.9548 C 593.9168 170.0715 580.6559 169.1262 579.2756 150.6894 C 573.7498 157.6643 581.7628 174.4454 583.4166 177.9894 L 583.4166 177.9894 Z" fill="#78b324"/>
			<path d="M 548.3348 223.609 C 541.1552 229.2803 529.8302 254.6899 533.42 263.553 C 546.4032 253.271 548.3348 235.0709 548.3348 223.609 L 548.3348 223.609 Z" fill="#78b324"/>
			<path d="M 595.575 121.2621 C 600.2674 122.681 600.2674 123.272 606.0709 123.7457 C 604.9641 105.4261 583.4166 96.6824 588.3911 111.5732 C 591.4297 120.671 589.7715 112.1642 595.575 121.2621 L 595.575 121.2621 Z" fill="#78b324"/>
			<path d="M 405.8984 314.1334 C 414.7383 314.1334 415.8431 314.1334 417.2256 314.1334 C 417.2256 314.1334 418.606 314.0181 421.3688 307.3996 C 432.4182 281.1642 436.837 270.4106 437.3904 270.2911 C 442.6406 268.8723 459.2136 269.2286 478.5515 269.2286 C 479.1028 269.2286 490.9791 299.1253 495.9535 311.6541 L 513.082 311.6541 C 507.005 297.9432 467.5 215.5737 458.6623 196.7826 C 428.8262 264.8547 420.2641 281.0447 405.8984 314.1334 L 405.8984 314.1334 ZM 457.2797 224.2001 C 460.3182 233.4196 473.8548 258.4728 474.4061 261.6626 L 440.1534 261.6626 L 457.2797 224.2001 Z" fill="#4178b5"/>
			<path d="M 713.1583 314.1334 C 722.0004 314.1334 723.1029 314.1334 724.4876 314.1334 C 724.4876 314.1334 725.8679 314.0181 728.6287 307.3996 C 739.6802 281.1642 744.0991 270.4106 744.6503 270.2911 C 749.8983 268.8723 766.4756 269.2286 785.8093 269.2286 C 786.3649 269.2286 798.241 299.1253 803.2155 311.6541 L 820.3398 311.6541 C 814.2628 297.9432 774.762 215.5737 765.92 196.7826 C 736.0903 264.8547 727.5261 281.0447 713.1583 314.1334 L 713.1583 314.1334 ZM 764.5397 224.2001 C 767.5781 233.4196 781.1168 258.4728 781.6682 261.6626 L 747.4153 261.6626 L 764.5397 224.2001 Z" fill="#4178b5"/>
			<g>
				<path d="M 43.5053 367.9808 C 45.0269 366.2909 45.8046 364.0529 45.8046 361.2668 C 45.8046 356.2885 43.1164 353.1827 37.757 351.9495 L 37.757 351.8354 C 41.6794 350.4195 43.6405 347.6791 43.6405 343.637 C 43.6405 341.0336 42.8797 339.024 41.375 337.6082 C 39.8703 336.1923 37.7739 335.4615 35.1027 335.4615 L 22 335.4615 L 22 336.9231 C 23.2511 337.1743 24.1133 337.631 24.5698 338.2704 C 25.0094 338.9327 25.2461 340.0516 25.2461 341.6046 L 25.2461 364.2813 C 25.2461 365.7885 25.0432 366.8618 24.6374 367.524 C 24.2317 368.2091 23.3525 368.7115 22 369.0769 L 22 370.5385 L 37.3681 370.5385 C 39.9211 370.5385 41.9668 369.6935 43.5053 367.9808 L 43.5053 367.9808 ZM 32.144 336.9231 C 35.4746 336.9231 37.1484 339.3438 37.1484 344.1851 C 37.1484 346.5144 36.7257 348.3185 35.9142 349.5974 C 35.0858 350.899 33.953 351.5385 32.499 351.5385 L 30.6562 351.5385 L 30.6562 336.9231 L 32.144 336.9231 L 32.144 336.9231 ZM 37.8077 355.2151 C 38.8052 356.6995 39.3124 358.6635 39.3124 361.1298 C 39.3124 363.619 38.8559 365.5601 37.9599 366.976 C 37.0638 368.3918 35.8297 369.0769 34.2742 369.0769 C 32.9555 369.0769 32.0257 368.7344 31.4846 368.0265 C 30.9267 367.3414 30.6562 366.1539 30.6562 364.4868 L 30.6562 353 L 33.6149 353 C 35.407 353 36.7933 353.7536 37.8077 355.2151 L 37.8077 355.2151 Z" fill="#c4721f"/>
				<path d="M 60.1414 355.2609 C 59.7695 355.7175 59.2454 355.9231 58.5691 355.9231 L 55.5428 355.9231 L 55.5428 344.2308 L 58.8903 344.2308 C 59.8371 344.2308 60.5134 344.5505 60.953 345.1442 C 61.3756 345.738 61.7307 346.9026 62.035 348.6154 L 63.117 348.6154 L 63.117 342.7692 L 49.0507 342.7692 L 49.0507 344.2308 C 49.896 344.482 50.4539 344.8474 50.7582 345.3269 C 51.0625 345.8065 51.2147 346.6515 51.2147 347.8846 L 51.2147 364.8521 C 51.2147 366.3594 51.0625 367.3641 50.7751 367.8894 C 50.4877 368.4146 49.9129 368.8029 49.0507 369.0769 L 49.0507 370.5385 L 64.199 370.5385 L 64.199 364.6923 L 63.117 364.6923 C 62.3224 367.6154 61.0206 369.0769 59.1947 369.0769 L 58.0957 369.0769 C 57.149 369.0769 56.4896 368.8257 56.1177 368.3005 C 55.7288 367.7981 55.5428 366.9075 55.5428 365.6286 L 55.5428 357.3846 L 58.5691 357.3846 C 59.9555 357.3846 60.7501 358.3666 60.953 360.3077 L 62.035 360.3077 L 62.035 353 L 60.953 353 C 60.7839 354.0734 60.5134 354.8269 60.1414 355.2609 L 60.1414 355.2609 Z" fill="#c4721f"/>
				<path d="M 88.0036 370.5385 L 88.0036 369.0769 C 87.2259 368.9856 86.6004 368.5745 86.127 367.8438 C 85.6536 367.113 85.1295 365.8113 84.5716 363.9159 L 78.4344 342.7692 L 76.4902 342.7692 L 69.5585 363.0938 C 68.8653 365.1262 68.189 366.5878 67.5466 367.4784 C 66.9041 368.369 66.1433 368.8942 65.2811 369.0769 L 65.2811 370.5385 L 71.7732 370.5385 L 71.7732 369.0769 C 70.4207 368.5745 69.7444 367.7296 69.7444 366.4964 C 69.7444 365.9255 69.9135 365.149 70.2516 364.1442 L 71.5534 360.3077 L 79.2798 360.3077 L 80.3787 364.8521 C 80.6154 365.8798 80.7507 366.6106 80.7507 367.0445 C 80.7507 367.5925 80.5647 368.0265 80.1927 368.3234 C 79.8208 368.6202 79.1783 368.8714 78.2654 369.0769 L 78.2654 370.5385 L 88.0036 370.5385 L 88.0036 370.5385 ZM 75.5603 348.5698 L 78.7219 358.8461 L 72.0606 358.8461 L 75.5603 348.5698 L 75.5603 348.5698 Z" fill="#c4721f"/>
				<path d="M 107.4801 342.7692 L 106.398 342.7692 C 106.0599 343.7512 105.6542 344.2308 105.1808 344.2308 C 104.9441 344.2308 104.4876 344.0938 103.8282 343.774 C 102.2729 343.1118 100.8865 342.7692 99.6692 342.7692 C 96.6598 342.7692 94.1407 344.1394 92.1119 346.857 C 90.0831 349.5974 89.0857 352.9771 89.0857 357.0192 C 89.0857 361.0385 90.0324 364.2813 91.9429 366.7933 C 93.8533 369.3052 96.3386 370.5385 99.3987 370.5385 C 102.8139 370.5385 105.502 368.5974 107.4801 364.6923 L 107.4801 363.2308 C 106.398 364.7836 105.3329 365.9026 104.2848 366.5878 C 103.2365 367.2729 102.1038 367.6154 100.8527 367.6154 C 98.5196 367.6154 96.7105 366.5649 95.3918 364.464 C 94.0731 362.363 93.4138 359.3942 93.4138 355.5349 C 93.4138 352.1094 93.9548 349.369 95.0706 347.3137 C 96.1696 345.2584 97.6573 344.2308 99.5339 344.2308 C 101.2415 344.2308 102.6955 345.0073 103.8959 346.5372 C 105.0963 348.0901 105.9247 350.2368 106.398 353 L 107.4801 353 L 107.4801 342.7692 L 107.4801 342.7692 Z" fill="#c4721f"/>
				<path d="M 127.5821 367.7753 C 127.2778 368.3234 126.7199 368.7573 125.8745 369.0769 L 125.8745 370.5385 L 134.5308 370.5385 L 134.5308 369.0769 C 133.6347 368.7573 133.043 368.3461 132.7725 367.8666 C 132.502 367.387 132.3667 366.5649 132.3667 365.3774 L 132.3667 348.5012 C 132.3667 346.9484 132.485 345.9435 132.7556 345.4868 C 133.0261 345.03 133.6178 344.5961 134.5308 344.2308 L 134.5308 342.7692 L 125.8745 342.7692 L 125.8745 344.2308 C 126.7537 344.5505 127.3285 344.9159 127.6159 345.3726 C 127.8864 345.8293 128.0386 346.6058 128.0386 347.7019 L 128.0386 354.4615 L 118.3004 354.4615 L 118.3004 347.5192 C 118.3004 346.5372 118.4356 345.8065 118.7399 345.3497 C 119.0273 344.893 119.6022 344.5048 120.4644 344.2308 L 120.4644 342.7692 L 111.8082 342.7692 L 111.8082 344.2308 C 112.6873 344.5505 113.2622 344.9615 113.5496 345.4411 C 113.8201 345.9207 113.9723 346.7427 113.9723 347.9302 L 113.9723 364.8065 C 113.9723 365.994 113.9046 366.8161 113.7863 367.25 C 113.6679 367.6839 113.4651 368.0493 113.1607 368.3234 C 112.8564 368.5974 112.4168 368.8485 111.8082 369.0769 L 111.8082 370.5385 L 120.4644 370.5385 L 120.4644 369.0769 C 119.5684 368.7115 118.9766 368.2776 118.7061 367.7753 C 118.4356 367.2729 118.3004 366.3594 118.3004 365.0349 L 118.3004 355.9231 L 128.0386 355.9231 L 128.0386 364.4183 C 128.0386 366.1082 127.8864 367.2271 127.5821 367.7753 L 127.5821 367.7753 Z" fill="#c4721f"/>
				<path d="M 163.7455 342.7692 L 162.6635 342.7692 C 162.3253 343.7512 161.9196 344.2308 161.4462 344.2308 C 161.2095 344.2308 160.753 344.0938 160.0937 343.774 C 158.5382 343.1118 157.1519 342.7692 155.9346 342.7692 C 152.9252 342.7692 150.4061 344.1394 148.3773 346.857 C 146.3485 349.5974 145.351 352.9771 145.351 357.0192 C 145.351 361.0385 146.2978 364.2813 148.2083 366.7933 C 150.1187 369.3052 152.604 370.5385 155.6641 370.5385 C 159.0792 370.5385 161.7674 368.5974 163.7455 364.6923 L 163.7455 363.2308 C 162.6635 364.7836 161.5983 365.9026 160.5501 366.5878 C 159.5019 367.2729 158.3692 367.6154 157.1181 367.6154 C 154.7849 367.6154 152.976 366.5649 151.6572 364.464 C 150.3385 362.363 149.6791 359.3942 149.6791 355.5349 C 149.6791 352.1094 150.2202 349.369 151.336 347.3137 C 152.4349 345.2584 153.9227 344.2308 155.7993 344.2308 C 157.5069 344.2308 158.9609 345.0073 160.1613 346.5372 C 161.3616 348.0901 162.1901 350.2368 162.6635 353 L 163.7455 353 L 163.7455 342.7692 L 163.7455 342.7692 Z" fill="#c4721f"/>
				<path d="M 166.9916 342.7692 L 166.9916 344.2308 C 167.8707 344.5505 168.4455 344.9615 168.7329 345.4411 C 169.0034 345.9207 169.1556 346.7427 169.1556 347.9302 L 169.1556 364.8065 C 169.1556 366.3365 169.0204 367.3414 168.7498 367.8209 C 168.4793 368.3234 167.9045 368.7344 166.9916 369.0769 L 166.9916 370.5385 L 182.1399 370.5385 L 182.1399 364.6923 L 181.0579 364.6923 C 180.3478 366.405 179.6885 367.5698 179.046 368.1635 C 178.4036 368.78 177.4906 369.0769 176.3409 369.0769 C 175.2251 369.0769 174.4812 368.8714 174.0755 368.4604 C 173.6697 368.0493 173.4837 367.2957 173.4837 366.1539 L 173.4837 347.839 C 173.4837 346.7427 173.6021 345.9435 173.8726 345.4868 C 174.1431 345.03 174.7348 344.5961 175.6478 344.2308 L 175.6478 342.7692 L 166.9916 342.7692 L 166.9916 342.7692 Z" fill="#c4721f"/>
				<path d="M 207.0266 370.5385 L 207.0266 369.0769 C 206.1305 368.7573 205.5388 368.3461 205.2682 367.8666 C 204.9977 367.4099 204.8625 366.5649 204.8625 365.3774 L 204.8625 348.4555 C 204.8625 346.9255 205.0146 345.8979 205.319 345.3954 C 205.6233 344.893 206.1812 344.5048 207.0266 344.2308 L 207.0266 342.7692 L 198.3703 342.7692 L 198.3703 344.2308 C 199.2495 344.5505 199.8412 344.9387 200.1117 345.3726 C 200.3822 345.8293 200.5344 346.6058 200.5344 347.7019 L 200.5344 363.2308 C 198.5732 366.1539 196.6966 367.6154 194.9044 367.6154 C 193.6196 367.6154 192.6221 367.1815 191.8951 366.268 C 191.1512 365.3774 190.7961 364.1442 190.7961 362.5457 L 190.7961 348.0673 C 190.7961 346.7885 190.9314 345.8979 191.2188 345.4183 C 191.5062 344.9387 192.0811 344.5505 192.9602 344.2308 L 192.9602 342.7692 L 184.304 342.7692 L 184.304 344.2308 C 185.1831 344.5505 185.758 344.9615 186.0454 345.4411 C 186.3159 345.9207 186.468 346.7427 186.468 347.9302 L 186.468 361.7692 C 186.468 364.464 187.1105 366.5878 188.4292 368.1635 C 189.7479 369.762 191.5062 370.5385 193.721 370.5385 C 195.0397 370.5385 196.1894 370.1274 197.153 369.3052 C 198.0998 368.4832 199.2326 366.9302 200.5344 364.6923 L 200.5344 370.5385 L 207.0266 370.5385 L 207.0266 370.5385 Z" fill="#c4721f"/>
				<path d="M 225.8098 368.5745 C 226.9933 367.2729 227.5851 365.5601 227.5851 363.4363 C 227.5851 359.6226 225.8775 357.2476 222.4792 356.3113 L 222.4792 356.22 C 225.1505 355.0552 226.503 352.8173 226.503 349.4832 C 226.503 347.3594 225.8944 345.7151 224.694 344.5276 C 223.4767 343.363 221.803 342.7692 219.6727 342.7692 L 209.1906 342.7692 L 209.1906 344.2308 C 210.0359 344.4363 210.5938 344.7789 210.8982 345.2813 C 211.2025 345.7836 211.3546 346.6515 211.3546 347.839 L 211.3546 365.3774 C 211.3546 366.5192 211.2194 367.3641 210.9489 367.8894 C 210.6784 368.4146 210.0866 368.8029 209.1906 369.0769 L 209.1906 370.5385 L 221.076 370.5385 C 223.0371 370.5385 224.6264 369.899 225.8098 368.5745 L 225.8098 368.5745 ZM 217.1705 344.2308 C 220.5012 344.2308 222.1749 346.1719 222.1749 350.0313 C 222.1749 351.9039 221.7522 353.3425 220.9407 354.3702 C 220.1123 355.4207 218.9796 355.9231 217.5256 355.9231 L 215.6827 355.9231 L 215.6827 344.2308 L 217.1705 344.2308 L 217.1705 344.2308 ZM 221.9382 359.006 C 222.8174 360.0793 223.2569 361.518 223.2569 363.2993 C 223.2569 365.1262 222.8512 366.5421 222.0735 367.5469 C 221.2958 368.5745 220.2137 369.0769 218.8443 369.0769 C 217.6946 369.0769 216.8831 368.8257 216.4098 368.3234 C 215.9194 367.8209 215.6827 366.9531 215.6827 365.7427 L 215.6827 357.3846 L 218.2695 357.3846 C 219.8249 357.3846 221.0591 357.9327 221.9382 359.006 L 221.9382 359.006 Z" fill="#c4721f"/>
				<path d="M 245.6414 346.7656 C 246.1486 348.0901 247.0446 349.7115 248.3295 351.6298 C 243.8662 354.4615 241.6514 358.161 241.6514 362.7284 C 241.6514 365.4688 242.446 367.7067 244.0352 369.4195 C 245.6245 371.1323 247.7039 372 250.24 372 C 253.2832 372 256.2249 370.5613 259.0653 367.7067 C 260.1135 369.3052 261.1279 370.4015 262.0916 371.0409 C 263.0383 371.6802 264.1373 372 265.3714 372 C 268.2794 372 270.4772 370.3101 271.9481 366.8846 L 271.4071 366.1539 C 270.6801 367.1359 269.8855 367.6154 269.0233 367.6154 C 268.0427 367.6154 267.0452 367.2729 266.0308 366.5878 C 265.0164 365.9026 263.7822 364.464 262.3452 362.2945 C 262.8185 361.244 263.4441 359.8281 264.188 358.024 C 265.5236 354.8726 266.538 352.863 267.2481 351.9495 C 267.9582 351.036 268.8035 350.4195 269.7841 350.0769 L 269.7841 348.6154 L 261.1279 348.6154 L 261.1279 350.0769 C 262.5649 350.6707 263.2919 351.881 263.2919 353.7079 C 263.2919 355.3521 262.5649 357.6359 261.1447 360.5132 C 259.6739 358.0469 257.476 354.7813 254.5512 350.6707 C 256.5631 350.0997 258.1692 348.9808 259.3527 347.3365 C 260.5361 345.6923 261.1279 343.774 261.1279 341.6274 C 261.1279 339.2524 260.4516 337.3798 259.116 336.0325 C 257.7804 334.6851 255.9206 334 253.5537 334 C 250.9331 334 248.8367 334.845 247.2644 336.4891 C 245.6752 338.1334 244.8975 340.2344 244.8975 342.7921 C 244.8975 344.1166 245.1342 345.4411 245.6414 346.7656 L 245.6414 346.7656 ZM 250.9331 337.9507 C 251.3389 337.2656 251.8968 336.9231 252.6069 336.9231 C 253.4353 336.9231 254.1623 337.6539 254.7879 339.1154 C 255.3965 340.5769 255.7177 342.2896 255.7177 344.2536 C 255.7177 345.3041 255.4979 346.2404 255.0584 347.0854 C 254.6188 347.9302 254.0609 348.524 253.3677 348.8666 C 251.9476 346.7656 251.0853 345.1671 250.781 344.0253 C 250.4597 342.9063 250.3076 341.8101 250.3076 340.714 C 250.3076 339.5721 250.5105 338.6359 250.9331 337.9507 L 250.9331 337.9507 ZM 247.6025 355.8317 C 247.9745 355.0781 248.6338 354.3016 249.5806 353.4796 C 251.1867 355.3979 253.9932 359.5997 257.9832 366.0854 C 256.5293 367.113 255.0415 367.6154 253.5368 367.6154 C 251.7785 367.6154 250.2569 366.7247 248.972 364.9207 C 247.6871 363.1394 247.0615 361.0156 247.0615 358.5493 C 247.0615 357.4988 247.2306 356.5854 247.6025 355.8317 L 247.6025 355.8317 Z" fill="#c4721f"/>
				<path d="M 308.737 334 C 308.1622 334.982 307.5705 335.4615 306.928 335.4615 C 306.4884 335.4615 305.7784 335.3016 304.8147 334.9591 C 302.9719 334.3198 301.2812 334 299.7258 334 C 295.7696 334 292.5066 335.8497 289.903 339.5036 C 287.2994 343.1575 286.0145 347.7476 286.0145 353.274 C 286.0145 356.7452 286.6062 359.9195 287.7897 362.8425 C 288.9731 365.7656 290.6131 368.0265 292.7095 369.625 C 294.8059 371.2007 297.1898 372 299.8949 372 C 303.9525 372 307.2492 371.3834 309.8191 370.1503 L 309.8191 362.6827 C 309.8191 361.0613 310.0557 359.851 310.5291 359.0745 C 311.0025 358.2981 311.8478 357.75 313.0651 357.3846 L 313.0651 355.9231 L 301.1628 355.9231 L 301.1628 357.3846 C 303.3269 357.8641 304.4089 359.28 304.4089 361.655 L 304.4089 366.839 C 304.4089 369.3052 303.1409 370.5385 300.6218 370.5385 C 297.9844 370.5385 295.9725 369.1226 294.5862 366.2909 C 293.1998 363.4591 292.5066 359.3485 292.5066 353.9363 C 292.5066 348.0901 293.1829 343.5457 294.5355 340.3029 C 295.888 337.0829 297.8153 335.4615 300.3175 335.4615 C 302.1434 335.4615 303.8341 336.2609 305.3557 337.8365 C 306.8773 339.4351 308.0101 341.5589 308.737 344.2308 L 309.8191 344.2308 L 309.8191 334 L 308.737 334 L 308.737 334 Z" fill="#c4721f"/>
				<path d="M 333.6575 346.6971 C 331.5272 344.0938 328.7884 342.7692 325.4746 342.7692 C 322.1778 342.7692 319.4728 344.0938 317.3425 346.6971 C 315.2123 349.3234 314.1472 352.6575 314.1472 356.6766 C 314.1472 360.7188 315.1954 364.03 317.3256 366.6334 C 319.4559 369.2368 322.1609 370.5385 325.4746 370.5385 C 328.7884 370.5385 331.5272 369.2368 333.6575 366.6334 C 335.7877 364.03 336.8698 360.7188 336.8698 356.6766 C 336.8698 352.6575 335.7877 349.3234 333.6575 346.6971 L 333.6575 346.6971 ZM 330.665 365.9026 C 329.4139 368.0265 327.6894 369.0769 325.4746 369.0769 C 323.2091 369.0769 321.4846 368.0265 320.2843 365.8798 C 319.067 363.7332 318.4753 360.7416 318.4753 356.905 C 318.4753 352.7716 319.067 349.6202 320.2674 347.4735 C 321.4509 345.3269 323.1922 344.2308 325.4746 344.2308 C 327.7739 344.2308 329.5323 345.3269 330.7326 347.4735 C 331.933 349.6202 332.5416 352.7488 332.5416 356.8594 C 332.5416 360.7644 331.9161 363.7789 330.665 365.9026 L 330.665 365.9026 Z" fill="#c4721f"/>
				<path d="M 339.0338 342.7692 L 339.0338 344.2308 C 339.9129 344.5505 340.4877 344.9615 340.7751 345.4411 C 341.0457 345.9207 341.1978 346.7427 341.1978 347.9302 L 341.1978 364.8065 C 341.1978 366.3365 341.0626 367.3414 340.7921 367.8209 C 340.5216 368.3234 339.9468 368.7344 339.0338 369.0769 L 339.0338 370.5385 L 354.1822 370.5385 L 354.1822 364.6923 L 353.1002 364.6923 C 352.3901 366.405 351.7307 367.5698 351.0883 368.1635 C 350.4458 368.78 349.5328 369.0769 348.3832 369.0769 C 347.2673 369.0769 346.5234 368.8714 346.1176 368.4604 C 345.7119 368.0493 345.5259 367.2957 345.5259 366.1539 L 345.5259 347.839 C 345.5259 346.7427 345.6443 345.9435 345.9148 345.4868 C 346.1852 345.03 346.777 344.5961 347.6899 344.2308 L 347.6899 342.7692 L 339.0338 342.7692 L 339.0338 342.7692 Z" fill="#c4721f"/>
				<path d="M 368.3837 355.3065 C 367.9949 355.7175 367.4032 355.9231 366.6255 355.9231 L 363.9203 355.9231 L 363.9203 344.2308 L 367.0819 344.2308 C 367.9442 344.2308 368.6373 344.4591 369.1445 344.9159 C 369.6517 345.3726 370.0744 346.1262 370.4125 347.1539 L 371.4946 347.1539 L 371.4946 342.7692 L 357.4282 342.7692 L 357.4282 344.2308 C 358.3074 344.5961 358.8822 345.03 359.1696 345.4868 C 359.4401 345.9664 359.5923 346.7427 359.5923 347.7933 L 359.5923 364.8065 C 359.5923 366.3137 359.4401 367.3641 359.1358 367.9122 C 358.8315 368.4832 358.2736 368.8714 357.4282 369.0769 L 357.4282 370.5385 L 366.0844 370.5385 L 366.0844 369.0769 C 365.2729 368.8942 364.6981 368.5289 364.3938 368.0036 C 364.0725 367.4784 363.9203 366.6334 363.9203 365.4459 L 363.9203 357.3846 L 366.6255 357.3846 C 367.4539 357.3846 368.0794 357.613 368.5021 358.0698 C 368.9079 358.5265 369.1953 359.2573 369.3305 360.3077 L 370.4125 360.3077 L 370.4125 353 L 369.3305 353 C 369.0938 354.119 368.7726 354.8954 368.3837 355.3065 L 368.3837 355.3065 Z" fill="#c4721f"/>
				<path d="M 394.2172 370.5385 L 394.2172 369.0769 C 393.0336 368.8485 392.1883 368.3461 391.6981 367.5698 C 391.2078 366.7933 390.9711 365.6286 390.9711 364.03 L 390.9711 353 C 392.8138 353 394.048 353.2055 394.6736 353.5938 C 395.2822 353.982 395.874 354.6442 396.4489 355.6034 C 397.0237 356.5625 397.869 358.4808 399.0017 361.3354 C 400.6248 365.4916 401.9266 368.5745 402.9241 370.5385 L 410.4475 370.5385 L 410.4475 369.0769 C 409.3148 368.8714 408.4187 368.3234 407.7762 367.4099 C 407.1338 366.4964 406.1533 364.3497 404.8345 360.97 C 403.482 357.4988 402.4507 355.2151 401.7406 354.119 C 401.0305 353.0229 400.3712 352.3606 399.7794 352.1779 L 399.7794 352.0637 C 401.4532 351.4243 402.7549 350.4195 403.668 349.0036 C 404.5809 347.6106 405.0374 345.9435 405.0374 343.9796 C 405.0374 341.2849 404.1414 339.2067 402.3831 337.6995 C 400.6248 336.2151 398.1057 335.4615 394.8257 335.4615 L 382.3148 335.4615 L 382.3148 336.9231 C 383.5659 337.2427 384.4282 337.7224 384.8846 338.3161 C 385.3242 338.9327 385.5609 340.0289 385.5609 341.6046 L 385.5609 364.7151 C 385.5609 367.4099 384.4789 368.8485 382.3148 369.0769 L 382.3148 370.5385 L 394.2172 370.5385 L 394.2172 370.5385 ZM 398.5452 343.9567 C 398.5452 346.5829 398.038 348.5012 397.0405 349.7115 C 396.043 350.9448 394.4538 351.5385 392.2898 351.5385 L 390.9711 351.5385 L 390.9711 336.9231 L 392.8477 336.9231 C 396.6348 336.9231 398.5452 339.2753 398.5452 343.9567 L 398.5452 343.9567 Z" fill="#c4721f"/>
				<path d="M 422.6204 355.2609 C 422.2484 355.7175 421.7242 355.9231 421.048 355.9231 L 418.0217 355.9231 L 418.0217 344.2308 L 421.3692 344.2308 C 422.316 344.2308 422.9922 344.5505 423.4318 345.1442 C 423.8545 345.738 424.2095 346.9026 424.5139 348.6154 L 425.5959 348.6154 L 425.5959 342.7692 L 411.5296 342.7692 L 411.5296 344.2308 C 412.3749 344.482 412.9328 344.8474 413.2371 345.3269 C 413.5415 345.8065 413.6936 346.6515 413.6936 347.8846 L 413.6936 364.8521 C 413.6936 366.3594 413.5415 367.3641 413.2541 367.8894 C 412.9667 368.4146 412.3918 368.8029 411.5296 369.0769 L 411.5296 370.5385 L 426.6779 370.5385 L 426.6779 364.6923 L 425.5959 364.6923 C 424.8013 367.6154 423.4995 369.0769 421.6736 369.0769 L 420.5746 369.0769 C 419.6278 369.0769 418.9685 368.8257 418.5966 368.3005 C 418.2076 367.7981 418.0217 366.9075 418.0217 365.6286 L 418.0217 357.3846 L 421.048 357.3846 C 422.4343 357.3846 423.2289 358.3666 423.4318 360.3077 L 424.5139 360.3077 L 424.5139 353 L 423.4318 353 C 423.2628 354.0734 422.9922 354.8269 422.6204 355.2609 L 422.6204 355.2609 Z" fill="#c4721f"/>
				<path d="M 439.6622 342.7692 C 439.2903 343.7512 438.9521 344.2308 438.6478 344.2308 C 438.3097 344.2308 437.7687 344.0024 436.991 343.5229 C 436.2133 343.0204 435.537 342.7692 434.9791 342.7692 C 433.1701 342.7692 431.6992 343.4771 430.5496 344.8474 C 429.3999 346.2175 428.842 347.9988 428.842 350.1454 C 428.842 351.1731 428.9941 352.1323 429.3323 353.0457 C 429.6704 353.9591 430.1607 354.7584 430.8201 355.4891 C 431.4794 356.22 432.6629 357.4075 434.3704 359.006 C 436.2133 360.7644 437.3798 362.0433 437.8533 362.8198 C 438.3266 363.619 438.5802 364.464 438.5802 365.3317 C 438.5802 366.4279 438.2421 367.3185 437.5827 368.0265 C 436.9065 368.7344 436.0612 369.0769 435.0468 369.0769 C 433.728 369.0769 432.6122 368.4375 431.7161 367.1359 C 430.8032 365.8341 430.2114 364.0529 429.924 361.7692 L 428.842 361.7692 L 428.842 370.5385 L 429.924 370.5385 C 430.1269 369.5793 430.4481 369.0769 430.9046 369.0769 C 431.1751 369.0769 431.6484 369.2596 432.3248 369.5793 C 433.5928 370.2188 434.6917 370.5385 435.6216 370.5385 C 437.3461 370.5385 438.8 369.8762 440.0173 368.5516 C 441.2177 367.2271 441.8263 365.4003 441.8263 363.1166 C 441.8263 361.6094 441.4374 360.1935 440.6766 358.8918 C 440.1694 358.0698 439.6284 357.3846 439.0874 356.8365 C 438.5295 356.2885 437.3967 355.2151 435.7061 353.6166 C 434.0154 352.018 433.0518 351.0132 432.8151 350.6021 C 432.5783 350.1911 432.3924 349.7573 432.274 349.2776 C 432.1387 348.7981 432.0881 348.3185 432.0881 347.8161 C 432.0881 346.8113 432.3755 345.9664 432.9672 345.2813 C 433.5421 344.5961 434.269 344.2308 435.1144 344.2308 C 436.0273 344.2308 436.9234 344.8016 437.8025 345.9207 C 438.6816 347.0625 439.2903 348.4327 439.6622 350.0769 L 440.7443 350.0769 L 440.7443 342.7692 L 439.6622 342.7692 L 439.6622 342.7692 Z" fill="#c4721f"/>
				<path d="M 464.5827 346.6971 C 462.4525 344.0938 459.7136 342.7692 456.3998 342.7692 C 453.103 342.7692 450.3979 344.0938 448.2678 346.6971 C 446.1375 349.3234 445.0724 352.6575 445.0724 356.6766 C 445.0724 360.7188 446.1206 364.03 448.2508 366.6334 C 450.381 369.2368 453.0862 370.5385 456.3998 370.5385 C 459.7136 370.5385 462.4525 369.2368 464.5827 366.6334 C 466.7129 364.03 467.7949 360.7188 467.7949 356.6766 C 467.7949 352.6575 466.7129 349.3234 464.5827 346.6971 L 464.5827 346.6971 ZM 461.5902 365.9026 C 460.3391 368.0265 458.6146 369.0769 456.3998 369.0769 C 454.1343 369.0769 452.4099 368.0265 451.2095 365.8798 C 449.9922 363.7332 449.4005 360.7416 449.4005 356.905 C 449.4005 352.7716 449.9922 349.6202 451.1926 347.4735 C 452.376 345.3269 454.1174 344.2308 456.3998 344.2308 C 458.6992 344.2308 460.4574 345.3269 461.6578 347.4735 C 462.8582 349.6202 463.4668 352.7488 463.4668 356.8594 C 463.4668 360.7644 462.8412 363.7789 461.5902 365.9026 L 461.5902 365.9026 Z" fill="#c4721f"/>
				<path d="M 478.6152 370.5385 L 478.6152 369.0769 C 477.8206 368.9171 477.2626 368.5516 476.9415 367.9808 C 476.6033 367.4327 476.4512 366.5649 476.4512 365.4231 L 476.4512 357.3846 C 477.8375 357.3846 478.7673 357.5445 479.2408 357.8185 C 479.7141 358.0925 480.1537 358.595 480.5933 359.28 C 481.0329 359.988 481.6753 361.381 482.5206 363.482 C 483.7379 366.5421 484.7354 368.8942 485.53 370.5385 L 491.5995 370.5385 L 491.5995 369.0769 C 490.6866 368.9399 489.9596 368.5289 489.4354 367.8666 C 488.9114 367.2271 488.1506 365.6515 487.1531 363.1622 C 486.1387 360.6046 485.3441 358.9146 484.803 358.0469 C 484.2451 357.2019 483.7379 356.6995 483.2645 356.5625 L 483.2645 356.4711 C 484.5833 355.9459 485.5807 355.101 486.257 353.9591 C 486.9333 352.8173 487.2714 351.4243 487.2714 349.8029 C 487.2714 347.5878 486.5952 345.8521 485.2595 344.619 C 483.907 343.3859 481.9965 342.7692 479.4943 342.7692 L 469.959 342.7692 L 469.959 344.2308 C 470.8043 344.482 471.3622 344.8474 471.6666 345.3041 C 471.9708 345.7836 472.123 346.6286 472.123 347.839 L 472.123 365.6971 C 472.123 367.7753 471.396 368.8942 469.959 369.0769 L 469.959 370.5385 L 478.6152 370.5385 L 478.6152 370.5385 ZM 482.9433 349.8485 C 482.9433 351.9495 482.5037 353.5024 481.6584 354.4615 C 480.7961 355.4435 479.4436 355.9231 477.5839 355.9231 L 476.4512 355.9231 L 476.4512 344.2308 L 478.0573 344.2308 C 481.3033 344.2308 482.9433 346.1034 482.9433 349.8485 L 482.9433 349.8485 Z" fill="#c4721f"/>
				<path d="M 503.9583 367.8894 C 503.6539 367.3414 503.5018 366.3823 503.5018 365.0349 L 503.5018 344.2308 L 505.5137 344.2308 C 506.731 344.2308 507.6946 344.5961 508.4047 345.2813 C 509.1148 345.9891 509.639 347.1082 509.994 348.6154 L 511.076 348.6154 L 511.076 342.7692 L 509.994 342.7692 L 507.9651 342.7692 L 494.7103 342.7692 L 492.6816 342.7692 L 491.5995 342.7692 L 491.5995 348.6154 L 492.6816 348.6154 C 493.0197 347.1082 493.5607 345.9891 494.2708 345.2813 C 494.9809 344.5961 495.9445 344.2308 497.1618 344.2308 L 499.1737 344.2308 L 499.1737 364.9891 C 499.1737 366.405 499.0215 367.387 498.7172 367.9122 C 498.4129 368.4375 497.855 368.8257 497.0096 369.0769 L 497.0096 370.5385 L 505.6658 370.5385 L 505.6658 369.0769 C 504.8206 368.8485 504.2626 368.4604 503.9583 367.8894 L 503.9583 367.8894 Z" fill="#c4721f"/>
				<path d="M 519.7322 361.7692 L 533.7986 361.7692 L 533.7986 357.3846 L 519.7322 357.3846 L 519.7322 361.7692 L 519.7322 361.7692 Z" fill="#c4721f"/>
				<path d="M 560.8831 370.5385 C 565.1773 370.5385 568.5925 368.9856 571.1285 365.8798 C 573.6476 362.774 574.9156 358.6406 574.9156 353.4339 C 574.9156 348.0445 573.4954 343.7055 570.672 340.4171 C 567.8486 337.1286 563.9939 335.4615 559.1248 335.4615 L 545.7008 335.4615 L 545.7008 336.9231 C 547.0533 337.4026 547.9325 337.9507 548.3383 338.5445 C 548.7441 339.161 548.9469 340.2344 548.9469 341.7644 L 548.9469 363.5505 C 548.9469 365.5601 548.7441 366.8618 548.3383 367.4555 C 547.9325 368.0493 547.0533 368.5974 545.7008 369.0769 L 545.7008 370.5385 L 560.8831 370.5385 L 560.8831 370.5385 ZM 565.6339 341.2849 C 567.4935 344.1851 568.4234 348.113 568.4234 353.0914 C 568.4234 358.1839 567.5612 362.1118 565.8705 364.8979 C 564.1798 367.6839 561.7791 369.0769 558.7021 369.0769 C 557.1467 369.0769 556.0308 368.7573 555.3546 368.1177 C 554.6783 367.4784 554.3571 366.3594 554.3571 364.8065 L 554.3571 336.9231 L 557.8398 336.9231 C 561.1705 336.9231 563.7741 338.3846 565.6339 341.2849 L 565.6339 341.2849 Z" fill="#c4721f"/>
				<path d="M 596.5899 346.6971 C 594.4597 344.0938 591.7208 342.7692 588.407 342.7692 C 585.1103 342.7692 582.4052 344.0938 580.275 346.6971 C 578.1448 349.3234 577.0797 352.6575 577.0797 356.6766 C 577.0797 360.7188 578.1278 364.03 580.2581 366.6334 C 582.3883 369.2368 585.0933 370.5385 588.407 370.5385 C 591.7208 370.5385 594.4597 369.2368 596.5899 366.6334 C 598.7202 364.03 599.8022 360.7188 599.8022 356.6766 C 599.8022 352.6575 598.7202 349.3234 596.5899 346.6971 L 596.5899 346.6971 ZM 593.5975 365.9026 C 592.3463 368.0265 590.6218 369.0769 588.407 369.0769 C 586.1416 369.0769 584.4171 368.0265 583.2167 365.8798 C 581.9995 363.7332 581.4077 360.7416 581.4077 356.905 C 581.4077 352.7716 581.9995 349.6202 583.1998 347.4735 C 584.3832 345.3269 586.1247 344.2308 588.407 344.2308 C 590.7064 344.2308 592.4647 345.3269 593.6651 347.4735 C 594.8654 349.6202 595.4741 352.7488 595.4741 356.8594 C 595.4741 360.7644 594.8485 363.7789 593.5975 365.9026 L 593.5975 365.9026 Z" fill="#c4721f"/>
				<path d="M 622.9643 342.7692 L 616.9286 361.4724 L 611.4171 342.7692 L 605.2123 342.7692 L 605.2123 344.2308 C 606.1252 344.2765 606.9368 344.893 607.6469 346.0349 L 605.5842 363.2536 C 605.3306 365.3317 604.9249 366.8161 604.3839 367.6839 C 603.8428 368.5516 603.0314 369.0313 601.9662 369.0769 L 601.9662 370.5385 L 608.4584 370.5385 L 608.4584 369.0769 C 607.1396 368.9171 606.4972 367.661 606.4972 365.3089 C 606.4972 364.8065 606.5311 364.2584 606.5987 363.6418 L 608.4584 348.2043 L 615.0351 370.5385 L 615.3056 370.5385 L 622.5247 348.2043 L 624.1816 363.2536 C 624.2492 364.03 624.4183 364.6923 624.6888 365.2404 C 624.6888 366.3365 624.4352 367.1815 623.928 367.7753 C 623.4208 368.369 622.5923 368.8029 621.4427 369.0769 L 621.4427 370.5385 L 632.263 370.5385 L 632.263 369.0769 C 631.164 368.8485 630.3356 368.4146 629.7608 367.7753 C 629.186 367.1359 628.8478 366.2224 628.7125 365.012 L 626.9036 348.5012 C 626.8528 348.0216 626.8359 347.6106 626.8528 347.268 C 626.8528 346.4003 627.0219 345.7151 627.36 345.2356 C 627.6982 344.756 628.2561 344.4135 629.0168 344.2308 L 629.0168 342.7692 L 622.9643 342.7692 L 622.9643 342.7692 Z" fill="#c4721f"/>
				<path d="M 634.4271 342.7692 L 634.4271 344.2308 C 635.3062 344.5505 635.881 344.9615 636.1684 345.4411 C 636.4389 345.9207 636.5911 346.7427 636.5911 347.9302 L 636.5911 364.8065 C 636.5911 366.0168 636.5234 366.839 636.4051 367.25 C 636.2868 367.6839 636.0839 368.0493 635.7796 368.3234 C 635.4752 368.5974 635.0356 368.8485 634.4271 369.0769 L 634.4271 370.5385 L 643.0833 370.5385 L 643.0833 369.0769 C 642.1872 368.7573 641.5954 368.3461 641.325 367.8666 C 641.0544 367.4099 640.9192 366.5649 640.9192 365.3774 L 640.9192 348.4555 C 640.9192 346.9255 641.0544 345.9207 641.3588 345.4183 C 641.663 344.9159 642.2379 344.5276 643.0833 344.2308 L 643.0833 342.7692 L 634.4271 342.7692 L 634.4271 342.7692 Z" fill="#c4721f"/>
				<path d="M 663.1852 345.6466 C 663.4896 346.3317 663.6417 347.5421 663.6417 349.2776 L 663.6417 361.1526 L 651.3337 342.7692 L 646.3293 342.7692 L 646.3293 344.2308 C 646.6506 344.345 646.938 344.5505 647.1746 344.8245 C 647.4113 345.1214 647.8509 345.8065 648.4933 346.857 L 648.4933 364.7609 C 648.4933 366.1539 648.3243 367.1815 647.9861 367.8209 C 647.6481 368.4604 647.0901 368.8942 646.3293 369.0769 L 646.3293 370.5385 L 651.7394 370.5385 L 651.7394 369.0769 C 650.8603 368.8257 650.2855 368.4146 649.998 367.8438 C 649.7106 367.2729 649.5754 366.268 649.5754 364.8521 L 649.5754 348.5012 L 664.3518 370.5385 L 664.7238 370.5385 L 664.7238 348.6154 C 664.7238 345.8521 665.4338 344.3906 666.8878 344.2308 L 666.8878 342.7692 L 661.4777 342.7692 L 661.4777 344.2308 C 662.323 344.5048 662.881 344.9844 663.1852 345.6466 L 663.1852 345.6466 Z" fill="#c4721f"/>
				<path d="M 670.1339 342.7692 L 670.1339 344.2308 C 671.0131 344.5505 671.5879 344.9615 671.8753 345.4411 C 672.1458 345.9207 672.298 346.7427 672.298 347.9302 L 672.298 364.8065 C 672.298 366.0168 672.2303 366.839 672.112 367.25 C 671.9936 367.6839 671.7908 368.0493 671.4864 368.3234 C 671.1821 368.5974 670.7426 368.8485 670.1339 369.0769 L 670.1339 370.5385 L 678.7901 370.5385 L 678.7901 369.0769 C 677.894 368.7573 677.3023 368.3461 677.0318 367.8666 C 676.7614 367.4099 676.626 366.5649 676.626 365.3774 L 676.626 348.4555 C 676.626 346.9255 676.7614 345.9207 677.0656 345.4183 C 677.3699 344.9159 677.9448 344.5276 678.7901 344.2308 L 678.7901 342.7692 L 670.1339 342.7692 L 670.1339 342.7692 Z" fill="#c4721f"/>
				<path d="M 700.4307 342.7692 L 699.3486 342.7692 C 699.0104 343.7512 698.6047 344.2308 698.1313 344.2308 C 697.8947 344.2308 697.4381 344.0938 696.7788 343.774 C 695.2234 343.1118 693.837 342.7692 692.6198 342.7692 C 689.6104 342.7692 687.0912 344.1394 685.0624 346.857 C 683.0337 349.5974 682.0362 352.9771 682.0362 357.0192 C 682.0362 361.0385 682.983 364.2813 684.8934 366.7933 C 686.8038 369.3052 689.2891 370.5385 692.3493 370.5385 C 695.7644 370.5385 698.4526 368.5974 700.4307 364.6923 L 700.4307 363.2308 C 699.3486 364.7836 698.2835 365.9026 697.2353 366.5878 C 696.1871 367.2729 695.0543 367.6154 693.8032 367.6154 C 691.4701 367.6154 689.6611 366.5649 688.3424 364.464 C 687.0237 362.363 686.3643 359.3942 686.3643 355.5349 C 686.3643 352.1094 686.9053 349.369 688.0211 347.3137 C 689.1201 345.2584 690.6078 344.2308 692.4845 344.2308 C 694.1921 344.2308 695.646 345.0073 696.8464 346.5372 C 698.0468 348.0901 698.8752 350.2368 699.3486 353 L 700.4307 353 L 700.4307 342.7692 L 700.4307 342.7692 Z" fill="#c4721f"/>
				<path d="M 725.3173 370.5385 L 725.3173 369.0769 C 724.5395 368.9856 723.914 368.5745 723.4406 367.8438 C 722.9672 367.113 722.4431 365.8113 721.8853 363.9159 L 715.748 342.7692 L 713.8038 342.7692 L 706.8721 363.0938 C 706.1789 365.1262 705.5027 366.5878 704.8602 367.4784 C 704.2178 368.369 703.4569 368.8942 702.5947 369.0769 L 702.5947 370.5385 L 709.0869 370.5385 L 709.0869 369.0769 C 707.7343 368.5745 707.058 367.7296 707.058 366.4964 C 707.058 365.9255 707.2272 365.149 707.5652 364.1442 L 708.8671 360.3077 L 716.5934 360.3077 L 717.6923 364.8521 C 717.929 365.8798 718.0643 366.6106 718.0643 367.0445 C 718.0643 367.5925 717.8784 368.0265 717.5064 368.3234 C 717.1344 368.6202 716.4919 368.8714 715.579 369.0769 L 715.579 370.5385 L 725.3173 370.5385 L 725.3173 370.5385 ZM 712.874 348.5698 L 716.0355 358.8461 L 709.3742 358.8461 L 712.874 348.5698 L 712.874 348.5698 Z" fill="#c4721f"/>
				<path d="M 743.2552 345.6466 C 743.5595 346.3317 743.7117 347.5421 743.7117 349.2776 L 743.7117 361.1526 L 731.4036 342.7692 L 726.3992 342.7692 L 726.3992 344.2308 C 726.7205 344.345 727.0079 344.5505 727.2446 344.8245 C 727.4813 345.1214 727.9209 345.8065 728.5633 346.857 L 728.5633 364.7609 C 728.5633 366.1539 728.3943 367.1815 728.0561 367.8209 C 727.718 368.4604 727.1601 368.8942 726.3992 369.0769 L 726.3992 370.5385 L 731.8094 370.5385 L 731.8094 369.0769 C 730.9302 368.8257 730.3554 368.4146 730.068 367.8438 C 729.7806 367.2729 729.6454 366.268 729.6454 364.8521 L 729.6454 348.5012 L 744.4218 370.5385 L 744.7937 370.5385 L 744.7937 348.6154 C 744.7937 345.8521 745.5038 344.3906 746.9578 344.2308 L 746.9578 342.7692 L 741.5477 342.7692 L 741.5477 344.2308 C 742.393 344.5048 742.9509 344.9844 743.2552 345.6466 L 743.2552 345.6466 Z" fill="#c4721f"/>
				<path d="M 770.7624 370.5385 L 770.7624 369.0769 C 769.5789 368.8485 768.7335 368.3461 768.2433 367.5698 C 767.753 366.7933 767.5162 365.6286 767.5162 364.03 L 767.5162 353 C 769.3591 353 770.5933 353.2055 771.2189 353.5938 C 771.8275 353.982 772.4193 354.6442 772.9941 355.6034 C 773.5689 356.5625 774.4142 358.4808 775.5469 361.3354 C 777.17 365.4916 778.4718 368.5745 779.4693 370.5385 L 786.9927 370.5385 L 786.9927 369.0769 C 785.86 368.8714 784.9639 368.3234 784.3215 367.4099 C 783.679 366.4964 782.6985 364.3497 781.3798 360.97 C 780.0272 357.4988 778.9959 355.2151 778.2858 354.119 C 777.5757 353.0229 776.9164 352.3606 776.3246 352.1779 L 776.3246 352.0637 C 777.9984 351.4243 779.3002 350.4195 780.2132 349.0036 C 781.1262 347.6106 781.5826 345.9435 781.5826 343.9796 C 781.5826 341.2849 780.6866 339.2067 778.9283 337.6995 C 777.17 336.2151 774.6509 335.4615 771.371 335.4615 L 758.86 335.4615 L 758.86 336.9231 C 760.1111 337.2427 760.9734 337.7224 761.4299 338.3161 C 761.8694 338.9327 762.1061 340.0289 762.1061 341.6046 L 762.1061 364.7151 C 762.1061 367.4099 761.0241 368.8485 758.86 369.0769 L 758.86 370.5385 L 770.7624 370.5385 L 770.7624 370.5385 ZM 775.0905 343.9567 C 775.0905 346.5829 774.5833 348.5012 773.5858 349.7115 C 772.5883 350.9448 770.9991 351.5385 768.835 351.5385 L 767.5162 351.5385 L 767.5162 336.9231 L 769.3929 336.9231 C 773.18 336.9231 775.0905 339.2753 775.0905 343.9567 L 775.0905 343.9567 Z" fill="#c4721f"/>
				<path d="M 799.1656 355.2609 C 798.7936 355.7175 798.2695 355.9231 797.5933 355.9231 L 794.567 355.9231 L 794.567 344.2308 L 797.9144 344.2308 C 798.8613 344.2308 799.5375 344.5505 799.9771 345.1442 C 800.3998 345.738 800.7548 346.9026 801.0591 348.6154 L 802.1411 348.6154 L 802.1411 342.7692 L 788.0748 342.7692 L 788.0748 344.2308 C 788.9201 344.482 789.478 344.8474 789.7823 345.3269 C 790.0867 345.8065 790.2389 346.6515 790.2389 347.8846 L 790.2389 364.8521 C 790.2389 366.3594 790.0867 367.3641 789.7993 367.8894 C 789.5118 368.4146 788.937 368.8029 788.0748 369.0769 L 788.0748 370.5385 L 803.2231 370.5385 L 803.2231 364.6923 L 802.1411 364.6923 C 801.3465 367.6154 800.0447 369.0769 798.2188 369.0769 L 797.1198 369.0769 C 796.1731 369.0769 795.5137 368.8257 795.1418 368.3005 C 794.7529 367.7981 794.567 366.9075 794.567 365.6286 L 794.567 357.3846 L 797.5933 357.3846 C 798.9796 357.3846 799.7742 358.3666 799.9771 360.3077 L 801.0591 360.3077 L 801.0591 353 L 799.9771 353 C 799.808 354.0734 799.5375 354.8269 799.1656 355.2609 L 799.1656 355.2609 Z" fill="#c4721f"/>
				<path d="M 805.3872 344.2308 C 806.2664 344.5276 806.8581 344.893 807.1286 345.3497 C 807.3991 345.8065 807.5513 346.6515 807.5513 347.839 L 807.5513 365.0577 C 807.5513 366.405 807.3991 367.3414 807.1117 367.8894 C 806.8243 368.4375 806.2495 368.8257 805.3872 369.0769 L 805.3872 370.5385 L 814.0435 370.5385 L 814.0435 369.0769 C 813.215 368.8942 812.6401 368.5516 812.3359 368.0721 C 812.0316 367.5925 811.8794 366.7933 811.8794 365.6971 L 811.8794 358.8461 L 814.5844 358.8461 C 817.1035 358.8461 819.0816 358.0698 820.5356 356.494 C 821.9727 354.9411 822.6996 352.9315 822.6996 350.4651 C 822.6996 348.1815 822.074 346.3317 820.8399 344.9159 C 819.6057 343.5 817.9151 342.7692 815.7848 342.7692 L 805.3872 342.7692 L 805.3872 344.2308 L 805.3872 344.2308 ZM 817.1373 346.0349 C 817.9489 347.2224 818.3715 348.7981 818.3715 350.7164 C 818.3715 352.8173 817.9489 354.4615 817.1205 355.6262 C 816.2751 356.8137 815.1255 357.3846 813.6545 357.3846 L 811.8794 357.3846 L 811.8794 344.2308 L 813.9082 344.2308 C 815.2438 344.2308 816.3258 344.8474 817.1373 346.0349 L 817.1373 346.0349 Z" fill="#c4721f"/>
				<path d="M 846.5043 370.5385 L 846.5043 369.0769 C 845.6082 368.7573 845.0165 368.3461 844.7458 367.8666 C 844.4755 367.4099 844.3402 366.5649 844.3402 365.3774 L 844.3402 348.4555 C 844.3402 346.9255 844.4923 345.8979 844.7966 345.3954 C 845.1008 344.893 845.6589 344.5048 846.5043 344.2308 L 846.5043 342.7692 L 837.848 342.7692 L 837.848 344.2308 C 838.7272 344.5505 839.3188 344.9387 839.5894 345.3726 C 839.8599 345.8293 840.0121 346.6058 840.0121 347.7019 L 840.0121 363.2308 C 838.0509 366.1539 836.1743 367.6154 834.3821 367.6154 C 833.0972 367.6154 832.0997 367.1815 831.3727 366.268 C 830.6288 365.3774 830.2739 364.1442 830.2739 362.5457 L 830.2739 348.0673 C 830.2739 346.7885 830.4091 345.8979 830.6965 345.4183 C 830.9839 344.9387 831.5587 344.5505 832.4379 344.2308 L 832.4379 342.7692 L 823.7817 342.7692 L 823.7817 344.2308 C 824.6608 344.5505 825.2356 344.9615 825.523 345.4411 C 825.7935 345.9207 825.9457 346.7427 825.9457 347.9302 L 825.9457 361.7692 C 825.9457 364.464 826.5881 366.5878 827.9069 368.1635 C 829.2256 369.762 830.9839 370.5385 833.1987 370.5385 C 834.5174 370.5385 835.6671 370.1274 836.6307 369.3052 C 837.5775 368.4832 838.7103 366.9302 840.0121 364.6923 L 840.0121 370.5385 L 846.5043 370.5385 L 846.5043 370.5385 Z" fill="#c4721f"/>
				<path d="M 865.2876 368.5745 C 866.4709 367.2729 867.0627 365.5601 867.0627 363.4363 C 867.0627 359.6226 865.3551 357.2476 861.9569 356.3113 L 861.9569 356.22 C 864.6282 355.0552 865.9807 352.8173 865.9807 349.4832 C 865.9807 347.3594 865.3721 345.7151 864.1716 344.5276 C 862.9545 343.363 861.2806 342.7692 859.1504 342.7692 L 848.6683 342.7692 L 848.6683 344.2308 C 849.5137 344.4363 850.0715 344.7789 850.3759 345.2813 C 850.6802 345.7836 850.8324 346.6515 850.8324 347.839 L 850.8324 365.3774 C 850.8324 366.5192 850.6971 367.3641 850.4265 367.8894 C 850.156 368.4146 849.5643 368.8029 848.6683 369.0769 L 848.6683 370.5385 L 860.5537 370.5385 C 862.5149 370.5385 864.1041 369.899 865.2876 368.5745 L 865.2876 368.5745 ZM 856.6482 344.2308 C 859.9789 344.2308 861.6526 346.1719 861.6526 350.0313 C 861.6526 351.9039 861.23 353.3425 860.4185 354.3702 C 859.59 355.4207 858.4572 355.9231 857.0032 355.9231 L 855.1604 355.9231 L 855.1604 344.2308 L 856.6482 344.2308 L 856.6482 344.2308 ZM 861.4159 359.006 C 862.295 360.0793 862.7346 361.518 862.7346 363.2993 C 862.7346 365.1262 862.3289 366.5421 861.5511 367.5469 C 860.7734 368.5745 859.6914 369.0769 858.3219 369.0769 C 857.1722 369.0769 856.3608 368.8257 855.8873 368.3234 C 855.3972 367.8209 855.1604 366.9531 855.1604 365.7427 L 855.1604 357.3846 L 857.7471 357.3846 C 859.3025 357.3846 860.5367 357.9327 861.4159 359.006 L 861.4159 359.006 Z" fill="#c4721f"/>
				<path d="M 870.3087 342.7692 L 870.3087 344.2308 C 871.1879 344.5505 871.7627 344.9615 872.0502 345.4411 C 872.3207 345.9207 872.4728 346.7427 872.4728 347.9302 L 872.4728 364.8065 C 872.4728 366.3365 872.3375 367.3414 872.0671 367.8209 C 871.7966 368.3234 871.2218 368.7344 870.3087 369.0769 L 870.3087 370.5385 L 885.4573 370.5385 L 885.4573 364.6923 L 884.3751 364.6923 C 883.665 366.405 883.0057 367.5698 882.3633 368.1635 C 881.7208 368.78 880.8079 369.0769 879.6582 369.0769 C 878.5424 369.0769 877.7985 368.8714 877.3927 368.4604 C 876.9869 368.0493 876.8009 367.2957 876.8009 366.1539 L 876.8009 347.839 C 876.8009 346.7427 876.9193 345.9435 877.1898 345.4868 C 877.4603 345.03 878.052 344.5961 878.965 344.2308 L 878.965 342.7692 L 870.3087 342.7692 L 870.3087 342.7692 Z" fill="#c4721f"/>
				<path d="M 888.7032 342.7692 L 888.7032 344.2308 C 889.5824 344.5505 890.1572 344.9615 890.4447 345.4411 C 890.7152 345.9207 890.8673 346.7427 890.8673 347.9302 L 890.8673 364.8065 C 890.8673 366.0168 890.7997 366.839 890.6814 367.25 C 890.563 367.6839 890.3601 368.0493 890.0558 368.3234 C 889.7516 368.5974 889.3119 368.8485 888.7032 369.0769 L 888.7032 370.5385 L 897.3594 370.5385 L 897.3594 369.0769 C 896.4635 368.7573 895.8717 368.3461 895.6012 367.8666 C 895.3307 367.4099 895.1953 366.5649 895.1953 365.3774 L 895.1953 348.4555 C 895.1953 346.9255 895.3307 345.9207 895.6349 345.4183 C 895.9393 344.9159 896.5142 344.5276 897.3594 344.2308 L 897.3594 342.7692 L 888.7032 342.7692 L 888.7032 342.7692 Z" fill="#c4721f"/>
				<path d="M 919 342.7692 L 917.918 342.7692 C 917.5798 343.7512 917.1741 344.2308 916.7007 344.2308 C 916.464 344.2308 916.0076 344.0938 915.3483 343.774 C 913.7927 343.1118 912.4064 342.7692 911.1892 342.7692 C 908.1798 342.7692 905.6606 344.1394 903.6318 346.857 C 901.603 349.5974 900.6056 352.9771 900.6056 357.0192 C 900.6056 361.0385 901.5524 364.2813 903.4628 366.7933 C 905.3732 369.3052 907.8585 370.5385 910.9187 370.5385 C 914.3339 370.5385 917.022 368.5974 919 364.6923 L 919 363.2308 C 917.918 364.7836 916.8529 365.9026 915.8046 366.5878 C 914.7565 367.2729 913.6238 367.6154 912.3726 367.6154 C 910.0396 367.6154 908.2305 366.5649 906.9117 364.464 C 905.593 362.363 904.9336 359.3942 904.9336 355.5349 C 904.9336 352.1094 905.4747 349.369 906.5906 347.3137 C 907.6895 345.2584 909.1772 344.2308 911.054 344.2308 C 912.7615 344.2308 914.2153 345.0073 915.4158 346.5372 C 916.6162 348.0901 917.4446 350.2368 917.918 353 L 919 353 L 919 342.7692 L 919 342.7692 Z" fill="#c4721f"/>
			</g>
		</g>
	</g>
</svg>