<?xml version="1.0" standalone="no"?>
<!-- Generator: Adobe Fireworks 10, Export SVG Extension by Aaron Beall (http://fireworks.abeall.com) . Version: 0.6.1  -->
<!DOCTYPE svg PUBLIC "-//W3C//DTD SVG 1.1//EN" "http://www.w3.org/Graphics/SVG/1.1/DTD/svg11.dtd">
<svg id="Untitled-Page%201" viewBox="0 0 439 175" style="background-color:#ffffff00" version="1.1"
	xmlns="http://www.w3.org/2000/svg" xmlns:xlink="http://www.w3.org/1999/xlink" xml:space="preserve"
	x="0px" y="0px" width="439px" height="175px"
>
	<g id="Layer%201">
		<g>
			<path d="M 283.9668 146.3324 C 292.0178 145.3869 303.313 149.6688 314.0919 141.6631 C 322.0125 135.8253 319.0255 117.4229 305.3921 117.0887 C 309.287 115.4777 311.6232 115.5329 314.3511 112.5307 C 318.7664 107.8604 320.5842 92.2934 302.0154 92.2934 L 283.9668 92.2934 L 283.9668 146.3324 ZM 296.9513 115.8109 L 291.2385 116.0889 L 291.2385 96.0735 C 319.4151 95.3518 311.2355 115.8109 296.9513 115.8109 ZM 291.369 142.4962 L 291.369 119.313 C 302.5356 119.313 311.105 119.1463 311.105 131.0435 C 311.105 135.0464 306.4307 145.0537 291.369 142.4962 Z" fill="#ffffff"/>
			<path d="M 127.8961 145.7764 C 130.8821 145.3869 129.714 145.6097 133.869 145.6097 C 133.869 132.3223 132.9601 118.535 132.9601 105.1924 C 137.6345 110.0284 168.537 142.1629 174.1204 146.3324 C 174.1204 128.3194 175.1589 110.2512 175.1589 92.2934 L 169.1868 92.2934 C 169.1868 105.5257 170.0948 118.8683 170.0948 132.2119 C 165.4214 127.4301 132.9601 92.3497 128.9355 91.1261 C 128.9355 109.5286 127.8961 127.4301 127.8961 145.7764 L 127.8961 145.7764 Z" fill="#ffffff"/>
			<path d="M 60.378 146.3324 C 64.5331 146.3324 65.0523 146.3324 65.7011 146.3324 C 65.7011 146.3324 66.35 146.2782 67.6487 143.1646 C 72.8423 130.8207 74.9203 125.7619 75.1794 125.7068 C 77.6462 125.0392 85.4371 125.2058 94.5257 125.2058 C 94.7858 125.2058 100.3691 139.2722 102.7063 145.1661 L 110.7563 145.1661 C 107.9 138.7161 89.3321 99.966 85.178 91.1261 C 71.1549 123.1492 67.1294 130.7665 60.378 146.3324 L 60.378 146.3324 ZM 84.5291 104.0241 C 85.9564 108.3612 92.3191 120.147 92.5782 121.6487 L 76.4781 121.6487 L 84.5291 104.0241 Z" fill="#ffffff"/>
			<path d="M 0 119.313 C 0 150.0021 47.1333 154.005 48.3024 136.9375 C 44.0167 138.9931 46.7446 142.7752 27.1372 142.7752 C 2.8564 142.7752 1.2986 94.6291 31.1627 94.6291 C 38.564 94.6291 42.4589 100.1326 47.2628 101.6894 C 47.9127 98.909 48.3024 98.2425 48.3024 94.6291 C 43.2383 93.2942 37.655 91.1261 31.1627 91.1261 C 14.932 91.1261 0 100.6335 0 119.313 L 0 119.313 Z" fill="#ffffff"/>
			<path d="M 413.8102 126.3742 C 413.9409 133.2116 413.5512 139.3826 412.5126 146.8885 C 412.5126 146.8885 415.7587 146.6115 420.8228 146.6656 C 420.8228 127.3739 418.3561 125.0944 425.3666 114.0865 C 428.3536 109.3057 437.0535 96.5744 439 92.2934 L 432.8974 92.2934 C 428.7433 101.578 423.6793 109.6389 418.8743 118.1456 C 415.8873 115.5881 405.8898 97.1304 403.6821 92.2934 L 394.7232 92.2934 C 398.6181 101.9112 415.1099 114.9768 413.8102 126.3742 L 413.8102 126.3742 Z" fill="#ffffff"/>
			<path d="M 226.5768 27.6912 L 233.5873 26.5238 C 230.9921 22.3533 217.7473 18.5733 212.8129 16.6832 C 202.5562 12.6241 200.6087 12.4575 187.2344 12.4575 C 189.0524 21.5202 187.7537 15.5159 206.191 20.9089 L 226.5768 27.6912 Z" fill="#ffffff"/>
			<path d="M 173.2114 26.5238 L 173.2114 28.8585 C 182.1704 29.0813 213.5923 35.9188 216.4497 35.9188 C 218.2666 35.9188 219.046 33.2508 219.4357 31.2494 C 212.4242 27.2465 192.5576 26.3572 184.6371 24.8556 C 176.4575 23.2436 179.0549 24.9118 173.2114 26.5238 L 173.2114 26.5238 Z" fill="#ffffff"/>
			<path d="M 163.0833 42.98 C 165.0318 45.9822 161.7846 45.4823 173.2114 45.3157 L 197.6217 45.7041 C 206.7103 44.4254 205.6728 44.6483 207.3601 41.8127 C 204.3741 40.0893 176.5871 38.3659 168.6666 40.0341 C 163.7331 41.09 165.2909 39.5332 163.0833 42.98 L 163.0833 42.98 Z" fill="#ffffff"/>
			<path d="M 153.0858 62.9393 C 163.9922 62.9393 162.9537 60.5484 170.3549 58.4917 C 181.7807 55.3782 186.3255 59.7695 186.3255 48.8177 C 178.0153 48.8177 173.8602 50.764 167.2383 52.4312 C 162.0447 53.7662 154.514 56.6007 153.0858 62.9393 L 153.0858 62.9393 Z" fill="#ffffff"/>
			<path d="M 208.3986 80.5628 C 217.3577 80.5628 217.4882 52.098 217.4882 44.1474 C 212.0345 47.539 214.5012 45.7041 210.3461 61.6043 C 209.4372 64.6064 208.7883 68.0533 207.7498 71.6677 C 207.1 74.5033 205.1525 80.5628 208.3986 80.5628 L 208.3986 80.5628 Z" fill="#ffffff"/>
			<path d="M 237.2252 66.1081 C 239.5613 64.7179 242.2873 62.049 245.2742 48.3731 C 246.5719 42.1459 248.2613 35.3075 248.6509 28.8585 C 243.0667 30.6933 241.5078 41.646 240.4693 45.4823 C 239.8205 48.2065 239.4308 50.2079 238.9125 52.7092 C 237.874 58.4917 236.8335 60.9378 237.2252 66.1081 L 237.2252 66.1081 Z" fill="#ffffff"/>
			<path d="M 205.4127 8.9003 L 245.6639 21.8535 C 245.2742 17.1841 245.1437 17.0727 238.0026 14.2923 C 224.11 8.8441 218.5267 8.6775 214.1115 7.0093 C 208.9179 5.1192 207.3601 -0.051 205.4127 8.9003 L 205.4127 8.9003 Z" fill="#ffffff"/>
			<path d="M 190.35 87.6241 C 194.5051 87.6241 196.8433 77.5607 198.4011 73.5025 C 200.3486 68.2761 203.205 61.8271 204.3741 55.878 C 195.8038 56.1008 197.6217 63.1059 189.5717 79.7849 C 188.273 82.3976 186.5856 87.6241 190.35 87.6241 L 190.35 87.6241 Z" fill="#ffffff"/>
			<path d="M 165.1613 79.3955 C 165.2909 89.8473 170.0948 87.0118 174.3795 82.0082 C 180.4821 75.0583 188.273 72.2238 188.273 60.6046 C 186.196 62.1604 172.1729 77.1712 165.1613 79.3955 L 165.1613 79.3955 Z" fill="#ffffff"/>
			<path d="M 262.8026 53.5433 C 261.7641 28.5253 259.5565 34.8638 258.7791 23.0208 L 255.7921 23.0208 C 255.7921 31.2494 254.1047 31.9721 255.2718 41.09 C 256.4409 50.1517 256.5715 51.5419 262.8026 53.5433 L 262.8026 53.5433 Z" fill="#ffffff"/>
			<path d="M 222.5513 3.0626 C 225.018 4.3965 257.7385 20.9089 255.0126 13.403 C 253.4539 9.1773 235.2767 3.451 229.6924 1.6162 C 225.6669 0.227 224.7589 -1.7744 222.5513 3.0626 L 222.5513 3.0626 Z" fill="#ffffff"/>
			<path d="M 228.5233 37.0871 C 227.3562 43.3133 223.3307 65.8852 225.5383 71.1669 C 232.4203 66.886 230.2126 57.6576 231.9 45.7594 C 232.4203 42.2022 233.3282 39.3104 233.5873 35.9188 C 231.2512 36.531 231.2512 36.7529 228.5233 37.0871 L 228.5233 37.0871 Z" fill="#ffffff"/>
			<path d="M 149.0602 77.0046 C 151.528 88.2343 166.1999 73.5578 171.523 70.389 C 175.418 68.0533 176.8472 68.6656 177.236 62.9393 C 174.8998 64.218 172.5616 64.8293 169.8357 66.1081 C 167.2383 67.3306 165.4214 68.2209 162.6936 69.4997 L 149.0602 77.0046 Z" fill="#ffffff"/>
			<path d="M 245.923 82.4528 C 250.2077 81.5083 249.1692 78.7842 258.7791 75.8372 C 265.6591 72.4456 266.9587 72.7237 269.8151 66.4423 C 261.7641 69.7767 246.9616 78.1167 245.923 82.4528 L 245.923 82.4528 Z" fill="#ffffff"/>
			<path d="M 266.4384 66.0528 C 270.9822 63.4953 271.7616 65.4406 272.8021 60.6046 C 264.3613 60.6046 261.7641 63.2725 254.1047 66.886 C 250.728 68.4989 250.5974 68.5542 249.6895 72.3342 C 256.4409 72.1124 262.674 68.1647 266.4384 66.0528 L 266.4384 66.0528 Z" fill="#ffffff"/>
			<path d="M 261.7641 12.4575 C 261.7641 18.8513 261.6356 18.6295 263.0618 23.7997 C 264.6205 29.1927 263.9717 30.7485 268.7746 31.2494 C 268.7746 8.8441 267.8667 20.2415 265.7896 10.0676 C 263.3229 12.0128 264.751 11.4016 261.7641 12.4575 L 261.7641 12.4575 Z" fill="#ffffff"/>
			<path d="M 243.5869 94.3511 C 247.2227 93.238 265.0102 77.116 265.7896 74.6699 L 253.0642 82.1758 C 244.4949 88.3458 244.1052 88.68 243.5869 94.3511 L 243.5869 94.3511 Z" fill="#ffffff"/>
			<path d="M 249.2997 103.6346 C 247.3513 107.6385 245.7946 108.8059 245.6639 114.5874 C 248.9101 113.5866 249.4283 111.0291 251.1177 108.1384 C 253.9741 102.8568 259.8176 99.2985 259.687 95.407 C 256.4409 97.1304 250.4689 101.4113 249.2997 103.6346 L 249.2997 103.6346 Z" fill="#ffffff"/>
			<path d="M 255.7921 94.6291 L 257.3488 93.0161 C 261.2458 89.3475 261.5049 89.7359 261.7641 85.2332 C 257.8691 86.4557 259.8176 86.5119 256.7 88.7914 L 247.2227 96.4629 C 243.7155 99.5213 244.754 96.4077 244.6254 102.8568 C 247.3513 102.5787 254.4924 96.1297 255.7921 94.6291 L 255.7921 94.6291 Z" fill="#ffffff"/>
			<path d="M 267.8667 84.0658 C 267.8667 87.068 270.3334 89.2361 271.6331 91.8488 C 273.0613 94.7957 272.1513 98.5758 272.8021 101.856 C 279.1638 99.6328 272.0228 83.5098 267.8667 81.7302 C 267.7381 81.7302 267.8667 83.8982 267.8667 84.0658 L 267.8667 84.0658 Z" fill="#ffffff"/>
			<path d="M 274.7486 67.2754 C 274.8792 69.6663 277.8642 73.3349 278.6436 75.1698 C 280.3329 80.2848 279.5535 82.231 283.0588 84.3991 C 283.579 78.8394 280.592 73.0569 278.2539 68.777 C 275.9177 64.1618 276.1768 65.4406 274.8792 62.9393 C 274.2283 64.3836 274.7486 65.0511 274.7486 67.2754 L 274.7486 67.2754 Z" fill="#ffffff"/>
			<path d="M 257.7385 119.313 C 262.674 118.8131 262.4129 115.31 262.8026 109.0277 C 263.0618 105.9703 263.0618 99.9108 260.9847 97.1304 C 260.9847 100.5772 260.4664 105.081 259.8176 108.1384 C 259.1688 110.6407 257.2203 116.8668 257.7385 119.313 L 257.7385 119.313 Z" fill="#ffffff"/>
			<path d="M 270.8536 111.0853 C 272.0228 104.1355 267.9972 96.0183 265.7896 88.1239 L 265.2693 90.4586 C 264.8817 94.9624 264.1022 108.9724 270.8536 111.0853 L 270.8536 111.0853 Z" fill="#ffffff"/>
			<path d="M 279.2924 57.7128 L 276.8257 57.0453 C 278.2539 64.1066 278.7742 62.6612 282.41 66.3309 C 286.4355 70.4442 283.0588 71.5011 287.9923 75.6144 C 287.2129 61.6595 284.7462 66.6641 279.2924 57.7128 L 279.2924 57.7128 Z" fill="#ffffff"/>
			<path d="M 274.2283 83.7316 C 276.3074 88.2906 274.8792 90.7928 279.4229 92.183 C 279.1638 80.0067 272.9307 79.5621 272.2819 70.8888 C 269.6846 74.17 273.451 82.0644 274.2283 83.7316 L 274.2283 83.7316 Z" fill="#ffffff"/>
			<path d="M 257.7385 105.1924 C 254.3638 107.8604 249.0406 119.8138 250.728 123.9833 C 256.8306 119.1463 257.7385 110.5844 257.7385 105.1924 L 257.7385 105.1924 Z" fill="#ffffff"/>
			<path d="M 279.9432 57.0453 C 282.1488 57.7128 282.1488 57.9908 284.8767 58.2137 C 284.3565 49.5956 274.2283 45.4823 276.5665 52.4874 C 277.9948 56.7673 277.2154 52.7654 279.9432 57.0453 L 279.9432 57.0453 Z" fill="#ffffff"/>
			<path d="M 190.788 147.7778 C 194.9431 147.7778 195.4623 147.7778 196.1121 147.7778 C 196.1121 147.7778 196.761 147.7236 198.0596 144.61 C 203.2532 132.2681 205.3303 127.2093 205.5904 127.1531 C 208.0582 126.4856 215.8481 126.6533 224.9377 126.6533 C 225.1968 126.6533 230.7791 140.7176 233.1173 146.6115 L 241.1684 146.6115 C 238.312 140.1615 219.743 101.4124 215.589 92.5725 C 201.5649 124.5956 197.5403 132.2119 190.788 147.7778 L 190.788 147.7778 ZM 214.9391 105.4705 C 216.3674 109.8076 222.73 121.5934 222.9892 123.094 L 206.8891 123.094 L 214.9391 105.4705 Z" fill="#ffffff"/>
			<path d="M 335.212 147.7778 C 339.368 147.7778 339.8863 147.7778 340.5371 147.7778 C 340.5371 147.7778 341.186 147.7236 342.4836 144.61 C 347.6782 132.2681 349.7553 127.2093 350.0145 127.1531 C 352.4811 126.4856 360.2731 126.6533 369.3607 126.6533 C 369.6218 126.6533 375.2041 140.7176 377.5424 146.6115 L 385.5914 146.6115 C 382.7349 140.1615 364.168 101.4124 360.012 92.5725 C 345.9909 124.5956 341.9654 132.2119 335.212 147.7778 L 335.212 147.7778 ZM 359.3632 105.4705 C 360.7914 109.8076 367.1551 121.5934 367.4142 123.094 L 351.314 123.094 L 359.3632 105.4705 Z" fill="#ffffff"/>
			<g>
				<path d="M 20.4492 173.1092 C 21.1644 172.3143 21.5299 171.2614 21.5299 169.9508 C 21.5299 167.6089 20.2664 166.1478 17.7473 165.5677 L 17.7473 165.5139 C 19.5909 164.8479 20.5127 163.5587 20.5127 161.6572 C 20.5127 160.4325 20.1551 159.4871 19.4479 158.821 C 18.7406 158.155 17.7552 157.8112 16.4996 157.8112 L 10.3409 157.8112 L 10.3409 158.4988 C 10.9289 158.6169 11.3342 158.8318 11.5488 159.1326 C 11.7554 159.4442 11.8666 159.9705 11.8666 160.7011 L 11.8666 171.3689 C 11.8666 172.0779 11.7713 172.5828 11.5806 172.8943 C 11.3898 173.2166 10.9766 173.453 10.3409 173.6249 L 10.3409 174.3125 L 17.5645 174.3125 C 18.7644 174.3125 19.726 173.9149 20.4492 173.1092 L 20.4492 173.1092 ZM 15.1089 158.4988 C 16.6744 158.4988 17.4612 159.6375 17.4612 161.915 C 17.4612 163.0108 17.2625 163.8595 16.881 164.4611 C 16.4917 165.0735 15.9592 165.3743 15.2758 165.3743 L 14.4096 165.3743 L 14.4096 158.4988 L 15.1089 158.4988 L 15.1089 158.4988 ZM 17.7711 167.1039 C 18.24 167.8022 18.4784 168.7261 18.4784 169.8863 C 18.4784 171.0573 18.2638 171.9705 17.8426 172.6366 C 17.4214 173.3026 16.8413 173.6249 16.1102 173.6249 C 15.4904 173.6249 15.0533 173.4637 14.799 173.1307 C 14.5367 172.8084 14.4096 172.2498 14.4096 171.4655 L 14.4096 166.0618 L 15.8003 166.0618 C 16.6426 166.0618 17.2943 166.4164 17.7711 167.1039 L 17.7711 167.1039 Z" fill="#ffffff"/>
				<path d="M 28.2688 167.1254 C 28.094 167.3402 27.8476 167.437 27.5297 167.437 L 26.1073 167.437 L 26.1073 161.9365 L 27.6807 161.9365 C 28.1257 161.9365 28.4436 162.0869 28.6502 162.3662 C 28.8489 162.6456 29.0158 163.1935 29.1588 163.9991 L 29.6674 163.9991 L 29.6674 161.249 L 23.0557 161.249 L 23.0557 161.9365 C 23.453 162.0547 23.7153 162.2266 23.8583 162.4522 C 24.0014 162.6778 24.0729 163.0753 24.0729 163.6554 L 24.0729 171.6374 C 24.0729 172.3465 24.0014 172.8192 23.8663 173.0663 C 23.7312 173.3133 23.461 173.496 23.0557 173.6249 L 23.0557 174.3125 L 30.176 174.3125 L 30.176 171.5622 L 29.6674 171.5622 C 29.2939 172.9373 28.682 173.6249 27.8238 173.6249 L 27.3073 173.6249 C 26.8622 173.6249 26.5523 173.5067 26.3775 173.2596 C 26.1947 173.0233 26.1073 172.6043 26.1073 172.0027 L 26.1073 168.1245 L 27.5297 168.1245 C 28.1814 168.1245 28.5549 168.5865 28.6502 169.4996 L 29.1588 169.4996 L 29.1588 166.0618 L 28.6502 166.0618 C 28.5708 166.5668 28.4436 166.9213 28.2688 167.1254 L 28.2688 167.1254 Z" fill="#ffffff"/>
				<path d="M 41.3651 174.3125 L 41.3651 173.6249 C 40.9996 173.5819 40.7055 173.3885 40.483 173.0448 C 40.2605 172.701 40.0142 172.0887 39.7519 171.197 L 36.8672 161.249 L 35.9533 161.249 L 32.6952 170.8102 C 32.3693 171.7664 32.0515 172.4539 31.7495 172.8729 C 31.4475 173.2919 31.0899 173.5389 30.6846 173.6249 L 30.6846 174.3125 L 33.7362 174.3125 L 33.7362 173.6249 C 33.1005 173.3885 32.7826 172.9911 32.7826 172.4109 C 32.7826 172.1424 32.862 171.7771 33.021 171.3044 L 33.6329 169.4996 L 37.2646 169.4996 L 37.7811 171.6374 C 37.8924 172.1208 37.9559 172.4647 37.9559 172.6688 C 37.9559 172.9266 37.8685 173.1307 37.6937 173.2704 C 37.5189 173.4101 37.2169 173.5282 36.7878 173.6249 L 36.7878 174.3125 L 41.3651 174.3125 L 41.3651 174.3125 ZM 35.5163 163.9777 L 37.0023 168.812 L 33.8713 168.812 L 35.5163 163.9777 L 35.5163 163.9777 Z" fill="#ffffff"/>
				<path d="M 50.5198 161.249 L 50.0112 161.249 C 49.8523 161.7109 49.6615 161.9365 49.439 161.9365 C 49.3278 161.9365 49.1132 161.8721 48.8033 161.7216 C 48.0722 161.4101 47.4205 161.249 46.8484 161.249 C 45.4338 161.249 44.2498 161.8935 43.2962 163.172 C 42.3426 164.4611 41.8737 166.0511 41.8737 167.9526 C 41.8737 169.8434 42.3187 171.3689 43.2167 172.5506 C 44.1147 173.7323 45.2829 174.3125 46.7212 174.3125 C 48.3265 174.3125 49.5901 173.3993 50.5198 171.5622 L 50.5198 170.8747 C 50.0112 171.6052 49.5106 172.1316 49.0179 172.4539 C 48.5251 172.7762 47.9927 172.9373 47.4046 172.9373 C 46.308 172.9373 45.4577 172.4431 44.8379 171.4548 C 44.218 170.4665 43.9081 169.0699 43.9081 167.2543 C 43.9081 165.6429 44.1624 164.3537 44.6868 163.3868 C 45.2034 162.4199 45.9027 161.9365 46.7848 161.9365 C 47.5875 161.9365 48.2708 162.3018 48.8351 163.0215 C 49.3993 163.7521 49.7887 164.7619 50.0112 166.0618 L 50.5198 166.0618 L 50.5198 161.249 L 50.5198 161.249 Z" fill="#ffffff"/>
				<path d="M 59.9685 173.0126 C 59.8255 173.2704 59.5632 173.4745 59.1659 173.6249 L 59.1659 174.3125 L 63.2346 174.3125 L 63.2346 173.6249 C 62.8135 173.4745 62.5353 173.2811 62.4082 173.0555 C 62.281 172.8299 62.2175 172.4431 62.2175 171.8845 L 62.2175 163.9455 C 62.2175 163.215 62.2731 162.7422 62.4002 162.5274 C 62.5274 162.3125 62.8055 162.1084 63.2346 161.9365 L 63.2346 161.249 L 59.1659 161.249 L 59.1659 161.9365 C 59.5791 162.0869 59.8493 162.2588 59.9844 162.4737 C 60.1115 162.6885 60.1831 163.0538 60.1831 163.5695 L 60.1831 166.7494 L 55.6058 166.7494 L 55.6058 163.4835 C 55.6058 163.0215 55.6693 162.6778 55.8123 162.4629 C 55.9474 162.248 56.2177 162.0654 56.6229 161.9365 L 56.6229 161.249 L 52.5542 161.249 L 52.5542 161.9365 C 52.9674 162.0869 53.2376 162.2803 53.3727 162.5059 C 53.4998 162.7315 53.5714 163.1182 53.5714 163.6768 L 53.5714 171.616 C 53.5714 172.1746 53.5396 172.5613 53.4839 172.7654 C 53.4283 172.9696 53.333 173.1414 53.1899 173.2704 C 53.0469 173.3993 52.8403 173.5175 52.5542 173.6249 L 52.5542 174.3125 L 56.6229 174.3125 L 56.6229 173.6249 C 56.2018 173.453 55.9236 173.2489 55.7964 173.0126 C 55.6693 172.7762 55.6058 172.3465 55.6058 171.7234 L 55.6058 167.437 L 60.1831 167.437 L 60.1831 171.4333 C 60.1831 172.2283 60.1115 172.7547 59.9685 173.0126 L 59.9685 173.0126 Z" fill="#ffffff"/>
				<path d="M 76.9667 161.249 L 76.4581 161.249 C 76.2992 161.7109 76.1084 161.9365 75.8859 161.9365 C 75.7747 161.9365 75.5601 161.8721 75.2502 161.7216 C 74.5191 161.4101 73.8674 161.249 73.2953 161.249 C 71.8807 161.249 70.6967 161.8935 69.7431 163.172 C 68.7895 164.4611 68.3206 166.0511 68.3206 167.9526 C 68.3206 169.8434 68.7656 171.3689 69.6636 172.5506 C 70.5616 173.7323 71.7298 174.3125 73.1681 174.3125 C 74.7734 174.3125 76.0369 173.3993 76.9667 171.5622 L 76.9667 170.8747 C 76.4581 171.6052 75.9575 172.1316 75.4648 172.4539 C 74.972 172.7762 74.4396 172.9373 73.8515 172.9373 C 72.7549 172.9373 71.9046 172.4431 71.2848 171.4548 C 70.6649 170.4665 70.355 169.0699 70.355 167.2543 C 70.355 165.6429 70.6093 164.3537 71.1338 163.3868 C 71.6503 162.4199 72.3496 161.9365 73.2317 161.9365 C 74.0344 161.9365 74.7177 162.3018 75.282 163.0215 C 75.8462 163.7521 76.2356 164.7619 76.4581 166.0618 L 76.9667 166.0618 L 76.9667 161.249 L 76.9667 161.249 Z" fill="#ffffff"/>
				<path d="M 78.4925 161.249 L 78.4925 161.9365 C 78.9057 162.0869 79.1759 162.2803 79.311 162.5059 C 79.4381 162.7315 79.5097 163.1182 79.5097 163.6768 L 79.5097 171.616 C 79.5097 172.3357 79.4461 172.8084 79.319 173.034 C 79.1918 173.2704 78.9216 173.4637 78.4925 173.6249 L 78.4925 174.3125 L 85.6128 174.3125 L 85.6128 171.5622 L 85.1042 171.5622 C 84.7704 172.368 84.4605 172.9159 84.1585 173.1952 C 83.8566 173.4852 83.4274 173.6249 82.8871 173.6249 C 82.3625 173.6249 82.0129 173.5282 81.8222 173.3349 C 81.6315 173.1414 81.544 172.7869 81.544 172.2498 L 81.544 163.6339 C 81.544 163.1182 81.5997 162.7422 81.7268 162.5274 C 81.854 162.3125 82.1321 162.1084 82.5612 161.9365 L 82.5612 161.249 L 78.4925 161.249 L 78.4925 161.249 Z" fill="#ffffff"/>
				<path d="M 97.3105 174.3125 L 97.3105 173.6249 C 96.8893 173.4745 96.6111 173.2811 96.484 173.0555 C 96.3568 172.8407 96.2933 172.4431 96.2933 171.8845 L 96.2933 163.924 C 96.2933 163.2042 96.3648 162.7208 96.5078 162.4844 C 96.6509 162.248 96.9131 162.0654 97.3105 161.9365 L 97.3105 161.249 L 93.2417 161.249 L 93.2417 161.9365 C 93.655 162.0869 93.9331 162.2696 94.0602 162.4737 C 94.1874 162.6885 94.2589 163.0538 94.2589 163.5695 L 94.2589 170.8747 C 93.3371 172.2498 92.455 172.9373 91.6126 172.9373 C 91.0087 172.9373 90.5398 172.7332 90.1981 172.3035 C 89.8484 171.8845 89.6815 171.3044 89.6815 170.5524 L 89.6815 163.7413 C 89.6815 163.1398 89.7451 162.7208 89.8802 162.4951 C 90.0153 162.2696 90.2855 162.0869 90.6988 161.9365 L 90.6988 161.249 L 86.63 161.249 L 86.63 161.9365 C 87.0432 162.0869 87.3134 162.2803 87.4485 162.5059 C 87.5757 162.7315 87.6472 163.1182 87.6472 163.6768 L 87.6472 170.1871 C 87.6472 171.4548 87.9492 172.4539 88.569 173.1952 C 89.1888 173.9472 90.0153 174.3125 91.0563 174.3125 C 91.6762 174.3125 92.2166 174.119 92.6696 173.7323 C 93.1146 173.3456 93.647 172.615 94.2589 171.5622 L 94.2589 174.3125 L 97.3105 174.3125 L 97.3105 174.3125 Z" fill="#ffffff"/>
				<path d="M 106.1393 173.3885 C 106.6956 172.7762 106.9738 171.9705 106.9738 170.9714 C 106.9738 169.1773 106.1711 168.06 104.5739 167.6196 L 104.5739 167.5766 C 105.8294 167.0287 106.4652 165.9759 106.4652 164.4074 C 106.4652 163.4083 106.1791 162.6348 105.6148 162.0762 C 105.0427 161.5283 104.256 161.249 103.2547 161.249 L 98.3277 161.249 L 98.3277 161.9365 C 98.725 162.0332 98.9872 162.1944 99.1303 162.4307 C 99.2733 162.667 99.3448 163.0753 99.3448 163.6339 L 99.3448 171.8845 C 99.3448 172.4217 99.2813 172.8192 99.1541 173.0663 C 99.0269 173.3133 98.7488 173.496 98.3277 173.6249 L 98.3277 174.3125 L 103.9142 174.3125 C 104.8361 174.3125 105.5831 174.0116 106.1393 173.3885 L 106.1393 173.3885 ZM 102.0785 161.9365 C 103.6441 161.9365 104.4308 162.8497 104.4308 164.6653 C 104.4308 165.5462 104.2321 166.223 103.8507 166.7064 C 103.4613 167.2006 102.9288 167.437 102.2454 167.437 L 101.3792 167.437 L 101.3792 161.9365 L 102.0785 161.9365 L 102.0785 161.9365 ZM 104.3195 168.8872 C 104.7328 169.3922 104.9394 170.0689 104.9394 170.9069 C 104.9394 171.7664 104.7487 172.4324 104.3831 172.9051 C 104.0175 173.3885 103.509 173.6249 102.8653 173.6249 C 102.3249 173.6249 101.9435 173.5067 101.7209 173.2704 C 101.4905 173.034 101.3792 172.6258 101.3792 172.0564 L 101.3792 168.1245 L 102.5951 168.1245 C 103.3262 168.1245 103.9063 168.3823 104.3195 168.8872 L 104.3195 168.8872 Z" fill="#ffffff"/>
				<path d="M 115.4609 163.129 C 115.6993 163.7521 116.1205 164.5148 116.7245 165.4172 C 114.6265 166.7494 113.5854 168.4897 113.5854 170.6384 C 113.5854 171.9275 113.959 172.9803 114.706 173.786 C 115.453 174.5918 116.4304 175 117.6224 175 C 119.0529 175 120.4356 174.3232 121.7707 172.9803 C 122.2634 173.7323 122.7402 174.248 123.1932 174.5488 C 123.6382 174.8496 124.1547 175 124.7349 175 C 126.1017 175 127.1348 174.205 127.8261 172.5936 L 127.5718 172.2498 C 127.2302 172.7118 126.8566 172.9373 126.4514 172.9373 C 125.9904 172.9373 125.5215 172.7762 125.0447 172.4539 C 124.5679 172.1316 123.9879 171.4548 123.3124 170.4342 C 123.5349 169.9401 123.8289 169.274 124.1785 168.4253 C 124.8063 166.9428 125.2831 165.9974 125.6169 165.5677 C 125.9507 165.1379 126.348 164.8479 126.8089 164.6867 L 126.8089 163.9991 L 122.7402 163.9991 L 122.7402 164.6867 C 123.4156 164.966 123.7573 165.5354 123.7573 166.3948 C 123.7573 167.1683 123.4156 168.2427 122.7481 169.5963 C 122.0568 168.436 121.0237 166.8998 119.6489 164.966 C 120.5945 164.6974 121.3495 164.1711 121.9058 163.3976 C 122.462 162.6241 122.7402 161.7216 122.7402 160.7118 C 122.7402 159.5945 122.4223 158.7136 121.7945 158.0798 C 121.1667 157.446 120.2926 157.1237 119.1801 157.1237 C 117.9482 157.1237 116.9629 157.5211 116.2238 158.2946 C 115.4768 159.0681 115.1113 160.0565 115.1113 161.2597 C 115.1113 161.8828 115.2225 162.5059 115.4609 163.129 L 115.4609 163.129 ZM 117.9482 158.9822 C 118.139 158.6599 118.4012 158.4988 118.735 158.4988 C 119.1244 158.4988 119.4661 158.8426 119.7601 159.5301 C 120.0462 160.2176 120.1972 161.0233 120.1972 161.9473 C 120.1972 162.4415 120.0939 162.8819 119.8873 163.2794 C 119.6807 163.6768 119.4185 163.9562 119.0926 164.1174 C 118.4251 163.129 118.0198 162.377 117.8768 161.8398 C 117.7257 161.3134 117.6542 160.7978 117.6542 160.2821 C 117.6542 159.745 117.7496 159.3045 117.9482 158.9822 L 117.9482 158.9822 ZM 116.3828 167.394 C 116.5576 167.0394 116.8675 166.6742 117.3126 166.2874 C 118.0675 167.1899 119.3866 169.1665 121.2621 172.2176 C 120.5787 172.701 119.8793 172.9373 119.1721 172.9373 C 118.3456 172.9373 117.6304 172.5183 117.0264 171.6697 C 116.4225 170.8317 116.1285 169.8326 116.1285 168.6724 C 116.1285 168.1782 116.2079 167.7485 116.3828 167.394 L 116.3828 167.394 Z" fill="#ffffff"/>
				<path d="M 145.1183 157.1237 C 144.8481 157.5856 144.57 157.8112 144.268 157.8112 C 144.0614 157.8112 143.7276 157.736 143.2747 157.5749 C 142.4084 157.2741 141.6138 157.1237 140.8827 157.1237 C 139.0231 157.1237 137.4894 157.9938 136.2656 159.7127 C 135.0418 161.4316 134.4379 163.5909 134.4379 166.1907 C 134.4379 167.8237 134.716 169.317 135.2723 170.692 C 135.8286 172.0672 136.5994 173.1307 137.5848 173.8827 C 138.5702 174.624 139.6907 175 140.9622 175 C 142.8694 175 144.419 174.7099 145.627 174.1298 L 145.627 170.6169 C 145.627 169.8541 145.7382 169.2848 145.9607 168.9195 C 146.1832 168.5542 146.5805 168.2964 147.1527 168.1245 L 147.1527 167.437 L 141.5582 167.437 L 141.5582 168.1245 C 142.5754 168.3501 143.084 169.0161 143.084 170.1334 L 143.084 172.5721 C 143.084 173.7323 142.4879 174.3125 141.3039 174.3125 C 140.0641 174.3125 139.1185 173.6464 138.4669 172.3143 C 137.8152 170.9821 137.4894 169.0484 137.4894 166.5023 C 137.4894 163.7521 137.8073 161.6142 138.4431 160.0887 C 139.0787 158.5739 139.9847 157.8112 141.1608 157.8112 C 142.0191 157.8112 142.8138 158.1872 143.529 158.9285 C 144.2442 159.6805 144.7766 160.6796 145.1183 161.9365 L 145.627 161.9365 L 145.627 157.1237 L 145.1183 157.1237 L 145.1183 157.1237 Z" fill="#ffffff"/>
				<path d="M 156.8319 163.0968 C 155.8306 161.8721 154.5432 161.249 152.9857 161.249 C 151.436 161.249 150.1646 161.8721 149.1633 163.0968 C 148.1619 164.3322 147.6613 165.9007 147.6613 167.7914 C 147.6613 169.693 148.154 171.2507 149.1553 172.4754 C 150.1566 173.7001 151.428 174.3125 152.9857 174.3125 C 154.5432 174.3125 155.8306 173.7001 156.8319 172.4754 C 157.8332 171.2507 158.3418 169.693 158.3418 167.7914 C 158.3418 165.9007 157.8332 164.3322 156.8319 163.0968 L 156.8319 163.0968 ZM 155.4254 172.1316 C 154.8372 173.1307 154.0267 173.6249 152.9857 173.6249 C 151.9208 173.6249 151.1102 173.1307 150.546 172.1208 C 149.9738 171.111 149.6957 169.7037 149.6957 167.8989 C 149.6957 165.9544 149.9738 164.4719 150.538 163.462 C 151.0943 162.4522 151.9128 161.9365 152.9857 161.9365 C 154.0664 161.9365 154.8929 162.4522 155.4571 163.462 C 156.0213 164.4719 156.3074 165.9436 156.3074 167.8774 C 156.3074 169.7144 156.0134 171.1325 155.4254 172.1316 L 155.4254 172.1316 Z" fill="#ffffff"/>
				<path d="M 159.3589 161.249 L 159.3589 161.9365 C 159.7722 162.0869 160.0424 162.2803 160.1775 162.5059 C 160.3046 162.7315 160.3762 163.1182 160.3762 163.6768 L 160.3762 171.616 C 160.3762 172.3357 160.3126 172.8084 160.1854 173.034 C 160.0583 173.2704 159.7881 173.4637 159.3589 173.6249 L 159.3589 174.3125 L 166.4793 174.3125 L 166.4793 171.5622 L 165.9707 171.5622 C 165.637 172.368 165.327 172.9159 165.025 173.1952 C 164.7231 173.4852 164.2939 173.6249 163.7535 173.6249 C 163.229 173.6249 162.8794 173.5282 162.6887 173.3349 C 162.4979 173.1414 162.4105 172.7869 162.4105 172.2498 L 162.4105 163.6339 C 162.4105 163.1182 162.4662 162.7422 162.5933 162.5274 C 162.7205 162.3125 162.9986 162.1084 163.4277 161.9365 L 163.4277 161.249 L 159.3589 161.249 L 159.3589 161.249 Z" fill="#ffffff"/>
				<path d="M 173.1546 167.1469 C 172.9718 167.3402 172.6937 167.437 172.3281 167.437 L 171.0566 167.437 L 171.0566 161.9365 L 172.5427 161.9365 C 172.9479 161.9365 173.2738 162.0439 173.5122 162.2588 C 173.7506 162.4737 173.9493 162.8282 174.1082 163.3116 L 174.6168 163.3116 L 174.6168 161.249 L 168.0051 161.249 L 168.0051 161.9365 C 168.4183 162.1084 168.6885 162.3125 168.8236 162.5274 C 168.9507 162.753 169.0223 163.1182 169.0223 163.6124 L 169.0223 171.616 C 169.0223 172.325 168.9507 172.8192 168.8077 173.077 C 168.6647 173.3456 168.4024 173.5282 168.0051 173.6249 L 168.0051 174.3125 L 172.0738 174.3125 L 172.0738 173.6249 C 171.6924 173.5389 171.4222 173.3671 171.2792 173.12 C 171.1281 172.8729 171.0566 172.4754 171.0566 171.9167 L 171.0566 168.1245 L 172.3281 168.1245 C 172.7175 168.1245 173.0115 168.2319 173.2102 168.4468 C 173.4009 168.6617 173.5361 169.0054 173.5996 169.4996 L 174.1082 169.4996 L 174.1082 166.0618 L 173.5996 166.0618 C 173.4883 166.5883 173.3374 166.9535 173.1546 167.1469 L 173.1546 167.1469 Z" fill="#ffffff"/>
				<path d="M 185.2973 174.3125 L 185.2973 173.6249 C 184.741 173.5175 184.3436 173.2811 184.1132 172.9159 C 183.8828 172.5506 183.7715 172.0027 183.7715 171.2507 L 183.7715 166.0618 C 184.6377 166.0618 185.2178 166.1585 185.5118 166.3412 C 185.7979 166.5238 186.076 166.8353 186.3463 167.2865 C 186.6165 167.7377 187.0138 168.6401 187.5462 169.983 C 188.3091 171.9383 188.921 173.3885 189.3899 174.3125 L 192.9262 174.3125 L 192.9262 173.6249 C 192.3938 173.5282 191.9725 173.2704 191.6706 172.8407 C 191.3686 172.4109 190.9077 171.4011 190.2878 169.8112 C 189.6521 168.1782 189.1674 167.1039 188.8336 166.5883 C 188.4998 166.0726 188.1899 165.761 187.9117 165.6751 L 187.9117 165.6214 C 188.6985 165.3206 189.3104 164.8479 189.7396 164.1818 C 190.1686 163.5265 190.3832 162.7422 190.3832 161.8184 C 190.3832 160.5507 189.962 159.5731 189.1356 158.864 C 188.3091 158.1657 187.125 157.8112 185.5834 157.8112 L 179.7027 157.8112 L 179.7027 158.4988 C 180.2908 158.6491 180.6961 158.8748 180.9106 159.1541 C 181.1172 159.4442 181.2285 159.9598 181.2285 160.7011 L 181.2285 171.573 C 181.2285 172.8407 180.7199 173.5175 179.7027 173.6249 L 179.7027 174.3125 L 185.2973 174.3125 L 185.2973 174.3125 ZM 187.3317 161.8076 C 187.3317 163.043 187.0933 163.9455 186.6244 164.5148 C 186.1555 165.095 185.4085 165.3743 184.3914 165.3743 L 183.7715 165.3743 L 183.7715 158.4988 L 184.6536 158.4988 C 186.4337 158.4988 187.3317 159.6053 187.3317 161.8076 L 187.3317 161.8076 Z" fill="#ffffff"/>
				<path d="M 198.6479 167.1254 C 198.4731 167.3402 198.2267 167.437 197.9088 167.437 L 196.4863 167.437 L 196.4863 161.9365 L 198.0598 161.9365 C 198.5048 161.9365 198.8227 162.0869 199.0293 162.3662 C 199.228 162.6456 199.3948 163.1935 199.5379 163.9991 L 200.0465 163.9991 L 200.0465 161.249 L 193.4348 161.249 L 193.4348 161.9365 C 193.8321 162.0547 194.0944 162.2266 194.2374 162.4522 C 194.3805 162.6778 194.452 163.0753 194.452 163.6554 L 194.452 171.6374 C 194.452 172.3465 194.3805 172.8192 194.2454 173.0663 C 194.1103 173.3133 193.8401 173.496 193.4348 173.6249 L 193.4348 174.3125 L 200.5551 174.3125 L 200.5551 171.5622 L 200.0465 171.5622 C 199.673 172.9373 199.0611 173.6249 198.2029 173.6249 L 197.6863 173.6249 C 197.2413 173.6249 196.9314 173.5067 196.7565 173.2596 C 196.5737 173.0233 196.4863 172.6043 196.4863 172.0027 L 196.4863 168.1245 L 197.9088 168.1245 C 198.5604 168.1245 198.934 168.5865 199.0293 169.4996 L 199.5379 169.4996 L 199.5379 166.0618 L 199.0293 166.0618 C 198.9499 166.5668 198.8227 166.9213 198.6479 167.1254 L 198.6479 167.1254 Z" fill="#ffffff"/>
				<path d="M 206.6582 161.249 C 206.4834 161.7109 206.3245 161.9365 206.1814 161.9365 C 206.0225 161.9365 205.7682 161.8291 205.4026 161.6035 C 205.037 161.3671 204.7192 161.249 204.457 161.249 C 203.6067 161.249 202.9153 161.582 202.3749 162.2266 C 201.8345 162.8712 201.5723 163.7091 201.5723 164.7189 C 201.5723 165.2024 201.6438 165.6536 201.8027 166.0833 C 201.9617 166.513 202.1921 166.889 202.5021 167.2328 C 202.812 167.5766 203.3683 168.1352 204.1709 168.8872 C 205.037 169.7144 205.5854 170.3161 205.8079 170.6813 C 206.0305 171.0573 206.1497 171.4548 206.1497 171.863 C 206.1497 172.3787 205.9907 172.7977 205.6808 173.1307 C 205.3629 173.4637 204.9656 173.6249 204.4888 173.6249 C 203.8689 173.6249 203.3444 173.3241 202.9232 172.7118 C 202.4941 172.0994 202.2159 171.2614 202.0809 170.1871 L 201.5723 170.1871 L 201.5723 174.3125 L 202.0809 174.3125 C 202.1763 173.8612 202.3272 173.6249 202.5418 173.6249 C 202.6689 173.6249 202.8914 173.7108 203.2094 173.8612 C 203.8054 174.162 204.3219 174.3125 204.759 174.3125 C 205.5695 174.3125 206.2529 174.0009 206.8251 173.3778 C 207.3893 172.7547 207.6754 171.8953 207.6754 170.821 C 207.6754 170.1119 207.4926 169.4459 207.135 168.8335 C 206.8966 168.4468 206.6423 168.1245 206.3881 167.8666 C 206.1258 167.6089 205.5933 167.1039 204.7987 166.3519 C 204.004 165.5999 203.551 165.1272 203.4398 164.9338 C 203.3285 164.7404 203.2411 164.5363 203.1855 164.3107 C 203.1219 164.0851 203.0981 163.8595 203.0981 163.6232 C 203.0981 163.1505 203.2332 162.753 203.5113 162.4307 C 203.7815 162.1084 204.1232 161.9365 204.5206 161.9365 C 204.9496 161.9365 205.3708 162.2051 205.7841 162.7315 C 206.1973 163.2686 206.4834 163.9132 206.6582 164.6867 L 207.1668 164.6867 L 207.1668 161.249 L 206.6582 161.249 L 206.6582 161.249 Z" fill="#ffffff"/>
				<path d="M 218.3718 163.0968 C 217.3705 161.8721 216.0831 161.249 214.5256 161.249 C 212.9759 161.249 211.7044 161.8721 210.7032 163.0968 C 209.7018 164.3322 209.2012 165.9007 209.2012 167.7914 C 209.2012 169.693 209.6939 171.2507 210.6952 172.4754 C 211.6965 173.7001 212.968 174.3125 214.5256 174.3125 C 216.0831 174.3125 217.3705 173.7001 218.3718 172.4754 C 219.3731 171.2507 219.8817 169.693 219.8817 167.7914 C 219.8817 165.9007 219.3731 164.3322 218.3718 163.0968 L 218.3718 163.0968 ZM 216.9652 172.1316 C 216.3771 173.1307 215.5666 173.6249 214.5256 173.6249 C 213.4607 173.6249 212.6501 173.1307 212.0859 172.1208 C 211.5137 171.111 211.2356 169.7037 211.2356 167.8989 C 211.2356 165.9544 211.5137 164.4719 212.0779 163.462 C 212.6342 162.4522 213.4528 161.9365 214.5256 161.9365 C 215.6063 161.9365 216.4327 162.4522 216.997 163.462 C 217.5612 164.4719 217.8473 165.9436 217.8473 167.8774 C 217.8473 169.7144 217.5533 171.1325 216.9652 172.1316 L 216.9652 172.1316 Z" fill="#ffffff"/>
				<path d="M 224.9677 174.3125 L 224.9677 173.6249 C 224.5941 173.5497 224.3318 173.3778 224.1809 173.1092 C 224.022 172.8514 223.9504 172.4431 223.9504 171.906 L 223.9504 168.1245 C 224.6021 168.1245 225.0391 168.1997 225.2617 168.3286 C 225.4841 168.4575 225.6908 168.6939 225.8974 169.0161 C 226.1041 169.3492 226.406 170.0045 226.8033 170.9929 C 227.3755 172.4324 227.8444 173.5389 228.2178 174.3125 L 231.0708 174.3125 L 231.0708 173.6249 C 230.6417 173.5604 230.2999 173.3671 230.0535 173.0555 C 229.8073 172.7547 229.4496 172.0135 228.9808 170.8424 C 228.504 169.6393 228.1304 168.8442 227.8762 168.436 C 227.6139 168.0385 227.3755 167.8022 227.153 167.7377 L 227.153 167.6948 C 227.7728 167.4477 228.2417 167.0502 228.5596 166.513 C 228.8774 165.9759 229.0364 165.3206 229.0364 164.5578 C 229.0364 163.5157 228.7185 162.6992 228.0907 162.1192 C 227.455 161.5391 226.557 161.249 225.3809 161.249 L 220.8989 161.249 L 220.8989 161.9365 C 221.2962 162.0547 221.5585 162.2266 221.7015 162.4415 C 221.8445 162.667 221.9161 163.0645 221.9161 163.6339 L 221.9161 172.0349 C 221.9161 173.0126 221.5743 173.5389 220.8989 173.6249 L 220.8989 174.3125 L 224.9677 174.3125 L 224.9677 174.3125 ZM 227.002 164.5793 C 227.002 165.5677 226.7954 166.2982 226.398 166.7494 C 225.9927 167.2113 225.357 167.437 224.4829 167.437 L 223.9504 167.437 L 223.9504 161.9365 L 224.7054 161.9365 C 226.2311 161.9365 227.002 162.8174 227.002 164.5793 L 227.002 164.5793 Z" fill="#ffffff"/>
				<path d="M 236.8799 173.0663 C 236.7368 172.8084 236.6653 172.3572 236.6653 171.7234 L 236.6653 161.9365 L 237.611 161.9365 C 238.1831 161.9365 238.6361 162.1084 238.9698 162.4307 C 239.3036 162.7637 239.55 163.2901 239.7169 163.9991 L 240.2255 163.9991 L 240.2255 161.249 L 239.7169 161.249 L 238.7632 161.249 L 232.533 161.249 L 231.5793 161.249 L 231.0708 161.249 L 231.0708 163.9991 L 231.5793 163.9991 C 231.7383 163.2901 231.9926 162.7637 232.3264 162.4307 C 232.6602 162.1084 233.1131 161.9365 233.6852 161.9365 L 234.6309 161.9365 L 234.6309 171.7019 C 234.6309 172.368 234.5594 172.8299 234.4164 173.077 C 234.2733 173.3241 234.011 173.5067 233.6137 173.6249 L 233.6137 174.3125 L 237.6825 174.3125 L 237.6825 173.6249 C 237.2852 173.5175 237.0229 173.3349 236.8799 173.0663 L 236.8799 173.0663 Z" fill="#ffffff"/>
				<path d="M 244.2943 170.1871 L 250.9059 170.1871 L 250.9059 168.1245 L 244.2943 168.1245 L 244.2943 170.1871 L 244.2943 170.1871 Z" fill="#ffffff"/>
				<path d="M 263.6367 174.3125 C 265.6552 174.3125 267.2604 173.5819 268.4525 172.1208 C 269.6365 170.6598 270.2325 168.7154 270.2325 166.266 C 270.2325 163.7306 269.565 161.6894 268.2379 160.1425 C 266.9108 158.5955 265.0989 157.8112 262.8102 157.8112 L 256.5004 157.8112 L 256.5004 158.4988 C 257.1362 158.7244 257.5494 158.9822 257.7402 159.2615 C 257.9309 159.5515 258.0262 160.0565 258.0262 160.7763 L 258.0262 171.0251 C 258.0262 171.9705 257.9309 172.5828 257.7402 172.8621 C 257.5494 173.1414 257.1362 173.3993 256.5004 173.6249 L 256.5004 174.3125 L 263.6367 174.3125 L 263.6367 174.3125 ZM 265.8698 160.5507 C 266.7439 161.915 267.181 163.7628 267.181 166.1048 C 267.181 168.5005 266.7756 170.3483 265.981 171.659 C 265.1863 172.9696 264.0579 173.6249 262.6116 173.6249 C 261.8804 173.6249 261.356 173.4745 261.0381 173.1737 C 260.7202 172.8729 260.5692 172.3465 260.5692 171.616 L 260.5692 158.4988 L 262.2062 158.4988 C 263.7718 158.4988 264.9956 159.1863 265.8698 160.5507 L 265.8698 160.5507 Z" fill="#ffffff"/>
				<path d="M 280.4203 163.0968 C 279.419 161.8721 278.1317 161.249 276.574 161.249 C 275.0244 161.249 273.7529 161.8721 272.7516 163.0968 C 271.7504 164.3322 271.2497 165.9007 271.2497 167.7914 C 271.2497 169.693 271.7424 171.2507 272.7437 172.4754 C 273.745 173.7001 275.0165 174.3125 276.574 174.3125 C 278.1317 174.3125 279.419 173.7001 280.4203 172.4754 C 281.4216 171.2507 281.9302 169.693 281.9302 167.7914 C 281.9302 165.9007 281.4216 164.3322 280.4203 163.0968 L 280.4203 163.0968 ZM 279.0137 172.1316 C 278.4257 173.1307 277.6151 173.6249 276.574 173.6249 C 275.5092 173.6249 274.6986 173.1307 274.1344 172.1208 C 273.5622 171.111 273.2841 169.7037 273.2841 167.8989 C 273.2841 165.9544 273.5622 164.4719 274.1265 163.462 C 274.6827 162.4522 275.5012 161.9365 276.574 161.9365 C 277.6548 161.9365 278.4813 162.4522 279.0455 163.462 C 279.6097 164.4719 279.8958 165.9436 279.8958 167.8774 C 279.8958 169.7144 279.6017 171.1325 279.0137 172.1316 L 279.0137 172.1316 Z" fill="#ffffff"/>
				<path d="M 292.8173 161.249 L 289.9803 170.0475 L 287.3896 161.249 L 284.4731 161.249 L 284.4731 161.9365 C 284.9023 161.958 285.2837 162.248 285.6175 162.7852 L 284.6479 170.8854 C 284.5287 171.863 284.338 172.5613 284.0838 172.9696 C 283.8294 173.3778 283.4481 173.6034 282.9474 173.6249 L 282.9474 174.3125 L 285.9989 174.3125 L 285.9989 173.6249 C 285.3791 173.5497 285.0771 172.9588 285.0771 171.8523 C 285.0771 171.616 285.093 171.3581 285.1248 171.0681 L 285.9989 163.8058 L 289.0903 174.3125 L 289.2174 174.3125 L 292.6107 163.8058 L 293.3895 170.8854 C 293.4213 171.2507 293.5007 171.5622 293.6278 171.8201 C 293.6278 172.3357 293.5087 172.7332 293.2703 173.0126 C 293.0319 173.2919 292.6424 173.496 292.1021 173.6249 L 292.1021 174.3125 L 297.188 174.3125 L 297.188 173.6249 C 296.6715 173.5175 296.2821 173.3133 296.0118 173.0126 C 295.7418 172.7118 295.5828 172.282 295.5192 171.7126 L 294.6689 163.9455 C 294.645 163.7198 294.6371 163.5265 294.645 163.3653 C 294.645 162.9571 294.7245 162.6348 294.8834 162.4092 C 295.0424 162.1836 295.3046 162.0225 295.6622 161.9365 L 295.6622 161.249 L 292.8173 161.249 L 292.8173 161.249 Z" fill="#ffffff"/>
				<path d="M 298.2052 161.249 L 298.2052 161.9365 C 298.6184 162.0869 298.8886 162.2803 299.0237 162.5059 C 299.1509 162.7315 299.2224 163.1182 299.2224 163.6768 L 299.2224 171.616 C 299.2224 172.1853 299.1906 172.5721 299.1349 172.7654 C 299.0794 172.9696 298.9839 173.1414 298.8409 173.2704 C 298.6979 173.3993 298.4913 173.5175 298.2052 173.6249 L 298.2052 174.3125 L 302.274 174.3125 L 302.274 173.6249 C 301.8528 173.4745 301.5746 173.2811 301.4475 173.0555 C 301.3203 172.8407 301.2568 172.4431 301.2568 171.8845 L 301.2568 163.924 C 301.2568 163.2042 301.3203 162.7315 301.4634 162.4951 C 301.6064 162.2588 301.8766 162.0762 302.274 161.9365 L 302.274 161.249 L 298.2052 161.249 L 298.2052 161.249 Z" fill="#ffffff"/>
				<path d="M 311.7227 162.6026 C 311.8657 162.9249 311.9373 163.4943 311.9373 164.3107 L 311.9373 169.8971 L 306.152 161.249 L 303.7997 161.249 L 303.7997 161.9365 C 303.9507 161.9902 304.0858 162.0869 304.197 162.2159 C 304.3083 162.3555 304.5149 162.6778 304.817 163.172 L 304.817 171.5945 C 304.817 172.2498 304.7374 172.7332 304.5785 173.034 C 304.4196 173.3349 304.1573 173.5389 303.7997 173.6249 L 303.7997 174.3125 L 306.3427 174.3125 L 306.3427 173.6249 C 305.9295 173.5067 305.6592 173.3133 305.5242 173.0448 C 305.3891 172.7762 305.3256 172.3035 305.3256 171.6374 L 305.3256 163.9455 L 312.271 174.3125 L 312.4459 174.3125 L 312.4459 163.9991 C 312.4459 162.6992 312.7796 162.0117 313.463 161.9365 L 313.463 161.249 L 310.92 161.249 L 310.92 161.9365 C 311.3174 162.0654 311.5797 162.291 311.7227 162.6026 L 311.7227 162.6026 Z" fill="#ffffff"/>
				<path d="M 314.9888 161.249 L 314.9888 161.9365 C 315.402 162.0869 315.6722 162.2803 315.8073 162.5059 C 315.9344 162.7315 316.006 163.1182 316.006 163.6768 L 316.006 171.616 C 316.006 172.1853 315.9742 172.5721 315.9186 172.7654 C 315.863 172.9696 315.7676 173.1414 315.6245 173.2704 C 315.4815 173.3993 315.2749 173.5175 314.9888 173.6249 L 314.9888 174.3125 L 319.0576 174.3125 L 319.0576 173.6249 C 318.6364 173.4745 318.3582 173.2811 318.2311 173.0555 C 318.1039 172.8407 318.0403 172.4431 318.0403 171.8845 L 318.0403 163.924 C 318.0403 163.2042 318.1039 162.7315 318.247 162.4951 C 318.39 162.2588 318.6602 162.0762 319.0576 161.9365 L 319.0576 161.249 L 314.9888 161.249 L 314.9888 161.249 Z" fill="#ffffff"/>
				<path d="M 329.2294 161.249 L 328.7209 161.249 C 328.562 161.7109 328.3712 161.9365 328.1487 161.9365 C 328.0374 161.9365 327.8228 161.8721 327.5129 161.7216 C 326.7819 161.4101 326.1302 161.249 325.558 161.249 C 324.1435 161.249 322.9595 161.8935 322.0058 163.172 C 321.0522 164.4611 320.5833 166.0511 320.5833 167.9526 C 320.5833 169.8434 321.0283 171.3689 321.9263 172.5506 C 322.8243 173.7323 323.9925 174.3125 325.4309 174.3125 C 327.0361 174.3125 328.2997 173.3993 329.2294 171.5622 L 329.2294 170.8747 C 328.7209 171.6052 328.2202 172.1316 327.7275 172.4539 C 327.2348 172.7762 326.7024 172.9373 326.1143 172.9373 C 325.0176 172.9373 324.1674 172.4431 323.5475 171.4548 C 322.9277 170.4665 322.6177 169.0699 322.6177 167.2543 C 322.6177 165.6429 322.872 164.3537 323.3965 163.3868 C 323.9131 162.4199 324.6124 161.9365 325.4944 161.9365 C 326.2971 161.9365 326.9805 162.3018 327.5447 163.0215 C 328.109 163.7521 328.4984 164.7619 328.7209 166.0618 L 329.2294 166.0618 L 329.2294 161.249 L 329.2294 161.249 Z" fill="#ffffff"/>
				<path d="M 340.9271 174.3125 L 340.9271 173.6249 C 340.5616 173.5819 340.2676 173.3885 340.045 173.0448 C 339.8226 172.701 339.5762 172.0887 339.314 171.197 L 336.4292 161.249 L 335.5154 161.249 L 332.2571 170.8102 C 331.9314 171.7664 331.6135 172.4539 331.3115 172.8729 C 331.0095 173.2919 330.6519 173.5389 330.2466 173.6249 L 330.2466 174.3125 L 333.2982 174.3125 L 333.2982 173.6249 C 332.6625 173.3885 332.3446 172.9911 332.3446 172.4109 C 332.3446 172.1424 332.4241 171.7771 332.5829 171.3044 L 333.1949 169.4996 L 336.8266 169.4996 L 337.3431 171.6374 C 337.4543 172.1208 337.5179 172.4647 337.5179 172.6688 C 337.5179 172.9266 337.4306 173.1307 337.2557 173.2704 C 337.0809 173.4101 336.7789 173.5282 336.3498 173.6249 L 336.3498 174.3125 L 340.9271 174.3125 L 340.9271 174.3125 ZM 335.0783 163.9777 L 336.5643 168.812 L 333.4333 168.812 L 335.0783 163.9777 L 335.0783 163.9777 Z" fill="#ffffff"/>
				<path d="M 349.3586 162.6026 C 349.5017 162.9249 349.5732 163.4943 349.5732 164.3107 L 349.5732 169.8971 L 343.7879 161.249 L 341.4357 161.249 L 341.4357 161.9365 C 341.5867 161.9902 341.7218 162.0869 341.8331 162.2159 C 341.9443 162.3555 342.1509 162.6778 342.4529 163.172 L 342.4529 171.5945 C 342.4529 172.2498 342.3734 172.7332 342.2145 173.034 C 342.0555 173.3349 341.7933 173.5389 341.4357 173.6249 L 341.4357 174.3125 L 343.9787 174.3125 L 343.9787 173.6249 C 343.5654 173.5067 343.2953 173.3133 343.1602 173.0448 C 343.025 172.7762 342.9615 172.3035 342.9615 171.6374 L 342.9615 163.9455 L 349.907 174.3125 L 350.0818 174.3125 L 350.0818 163.9991 C 350.0818 162.6992 350.4156 162.0117 351.099 161.9365 L 351.099 161.249 L 348.556 161.249 L 348.556 161.9365 C 348.9534 162.0654 349.2156 162.291 349.3586 162.6026 L 349.3586 162.6026 Z" fill="#ffffff"/>
				<path d="M 362.2881 174.3125 L 362.2881 173.6249 C 361.7318 173.5175 361.3344 173.2811 361.104 172.9159 C 360.8735 172.5506 360.7623 172.0027 360.7623 171.2507 L 360.7623 166.0618 C 361.6285 166.0618 362.2086 166.1585 362.5026 166.3412 C 362.7887 166.5238 363.0668 166.8353 363.3371 167.2865 C 363.6072 167.7377 364.0046 168.6401 364.537 169.983 C 365.2999 171.9383 365.9118 173.3885 366.3806 174.3125 L 369.9169 174.3125 L 369.9169 173.6249 C 369.3846 173.5282 368.9633 173.2704 368.6614 172.8407 C 368.3594 172.4109 367.8985 171.4011 367.2787 169.8112 C 366.6429 168.1782 366.1581 167.1039 365.8244 166.5883 C 365.4906 166.0726 365.1807 165.761 364.9026 165.6751 L 364.9026 165.6214 C 365.6893 165.3206 366.3012 164.8479 366.7303 164.1818 C 367.1595 163.5265 367.374 162.7422 367.374 161.8184 C 367.374 160.5507 366.9528 159.5731 366.1263 158.864 C 365.2999 158.1657 364.1158 157.8112 362.5742 157.8112 L 356.6935 157.8112 L 356.6935 158.4988 C 357.2816 158.6491 357.6869 158.8748 357.9015 159.1541 C 358.108 159.4442 358.2194 159.9598 358.2194 160.7011 L 358.2194 171.573 C 358.2194 172.8407 357.7108 173.5175 356.6935 173.6249 L 356.6935 174.3125 L 362.2881 174.3125 L 362.2881 174.3125 ZM 364.3224 161.8076 C 364.3224 163.043 364.084 163.9455 363.6152 164.5148 C 363.1463 165.095 362.3993 165.3743 361.3821 165.3743 L 360.7623 165.3743 L 360.7623 158.4988 L 361.6444 158.4988 C 363.4244 158.4988 364.3224 159.6053 364.3224 161.8076 L 364.3224 161.8076 Z" fill="#ffffff"/>
				<path d="M 375.6387 167.1254 C 375.4639 167.3402 375.2175 167.437 374.8997 167.437 L 373.4771 167.437 L 373.4771 161.9365 L 375.0506 161.9365 C 375.4957 161.9365 375.8135 162.0869 376.0201 162.3662 C 376.2188 162.6456 376.3857 163.1935 376.5287 163.9991 L 377.0373 163.9991 L 377.0373 161.249 L 370.4255 161.249 L 370.4255 161.9365 C 370.8229 162.0547 371.0851 162.2266 371.2282 162.4522 C 371.3712 162.6778 371.4428 163.0753 371.4428 163.6554 L 371.4428 171.6374 C 371.4428 172.3465 371.3712 172.8192 371.2362 173.0663 C 371.1011 173.3133 370.8309 173.496 370.4255 173.6249 L 370.4255 174.3125 L 377.5459 174.3125 L 377.5459 171.5622 L 377.0373 171.5622 C 376.6638 172.9373 376.0519 173.6249 375.1937 173.6249 L 374.6771 173.6249 C 374.2321 173.6249 373.9221 173.5067 373.7474 173.2596 C 373.5646 173.0233 373.4771 172.6043 373.4771 172.0027 L 373.4771 168.1245 L 374.8997 168.1245 C 375.5512 168.1245 375.9247 168.5865 376.0201 169.4996 L 376.5287 169.4996 L 376.5287 166.0618 L 376.0201 166.0618 C 375.9407 166.5668 375.8135 166.9213 375.6387 167.1254 L 375.6387 167.1254 Z" fill="#ffffff"/>
				<path d="M 378.5631 161.9365 C 378.9763 162.0762 379.2545 162.248 379.3817 162.4629 C 379.5088 162.6778 379.5803 163.0753 379.5803 163.6339 L 379.5803 171.7342 C 379.5803 172.368 379.5088 172.8084 379.3737 173.0663 C 379.2385 173.3241 378.9684 173.5067 378.5631 173.6249 L 378.5631 174.3125 L 382.6318 174.3125 L 382.6318 173.6249 C 382.2424 173.5389 381.9722 173.3778 381.8293 173.1522 C 381.6862 172.9266 381.6147 172.5506 381.6147 172.0349 L 381.6147 168.812 L 382.8862 168.812 C 384.0702 168.812 384.9999 168.4468 385.6834 167.7055 C 386.3589 166.975 386.7006 166.0296 386.7006 164.8694 C 386.7006 163.7951 386.4065 162.9249 385.8264 162.2588 C 385.2463 161.5927 384.4517 161.249 383.4504 161.249 L 378.5631 161.249 L 378.5631 161.9365 L 378.5631 161.9365 ZM 384.0861 162.7852 C 384.4675 163.3438 384.6663 164.0851 384.6663 164.9875 C 384.6663 165.9759 384.4675 166.7494 384.0782 167.2973 C 383.6808 167.8559 383.1404 168.1245 382.449 168.1245 L 381.6147 168.1245 L 381.6147 161.9365 L 382.5683 161.9365 C 383.196 161.9365 383.7047 162.2266 384.0861 162.7852 L 384.0861 162.7852 Z" fill="#ffffff"/>
				<path d="M 397.8897 174.3125 L 397.8897 173.6249 C 397.4685 173.4745 397.1904 173.2811 397.0632 173.0555 C 396.9361 172.8407 396.8725 172.4431 396.8725 171.8845 L 396.8725 163.924 C 396.8725 163.2042 396.944 162.7208 397.087 162.4844 C 397.23 162.248 397.4924 162.0654 397.8897 161.9365 L 397.8897 161.249 L 393.8209 161.249 L 393.8209 161.9365 C 394.2341 162.0869 394.5123 162.2696 394.6394 162.4737 C 394.7665 162.6885 394.8381 163.0538 394.8381 163.5695 L 394.8381 170.8747 C 393.9163 172.2498 393.0342 172.9373 392.1918 172.9373 C 391.5878 172.9373 391.119 172.7332 390.7773 172.3035 C 390.4277 171.8845 390.2608 171.3044 390.2608 170.5524 L 390.2608 163.7413 C 390.2608 163.1398 390.3243 162.7208 390.4595 162.4951 C 390.5945 162.2696 390.8647 162.0869 391.278 161.9365 L 391.278 161.249 L 387.2092 161.249 L 387.2092 161.9365 C 387.6224 162.0869 387.8926 162.2803 388.0276 162.5059 C 388.1548 162.7315 388.2264 163.1182 388.2264 163.6768 L 388.2264 170.1871 C 388.2264 171.4548 388.5283 172.4539 389.1483 173.1952 C 389.7681 173.9472 390.5945 174.3125 391.6356 174.3125 C 392.2554 174.3125 392.7958 174.119 393.2488 173.7323 C 393.6938 173.3456 394.2262 172.615 394.8381 171.5622 L 394.8381 174.3125 L 397.8897 174.3125 L 397.8897 174.3125 Z" fill="#ffffff"/>
				<path d="M 406.7186 173.3885 C 407.2748 172.7762 407.553 171.9705 407.553 170.9714 C 407.553 169.1773 406.7503 168.06 405.153 167.6196 L 405.153 167.5766 C 406.4086 167.0287 407.0444 165.9759 407.0444 164.4074 C 407.0444 163.4083 406.7583 162.6348 406.194 162.0762 C 405.6219 161.5283 404.8351 161.249 403.8339 161.249 L 398.9069 161.249 L 398.9069 161.9365 C 399.3042 162.0332 399.5665 162.1944 399.7095 162.4307 C 399.8525 162.667 399.9241 163.0753 399.9241 163.6339 L 399.9241 171.8845 C 399.9241 172.4217 399.8605 172.8192 399.7333 173.0663 C 399.6061 173.3133 399.3281 173.496 398.9069 173.6249 L 398.9069 174.3125 L 404.4935 174.3125 C 405.4153 174.3125 406.1623 174.0116 406.7186 173.3885 L 406.7186 173.3885 ZM 402.6577 161.9365 C 404.2233 161.9365 405.01 162.8497 405.01 164.6653 C 405.01 165.5462 404.8113 166.223 404.4299 166.7064 C 404.0405 167.2006 403.508 167.437 402.8246 167.437 L 401.9584 167.437 L 401.9584 161.9365 L 402.6577 161.9365 L 402.6577 161.9365 ZM 404.8987 168.8872 C 405.312 169.3922 405.5186 170.0689 405.5186 170.9069 C 405.5186 171.7664 405.3279 172.4324 404.9623 172.9051 C 404.5967 173.3885 404.0881 173.6249 403.4445 173.6249 C 402.9041 173.6249 402.5226 173.5067 402.3001 173.2704 C 402.0697 173.034 401.9584 172.6258 401.9584 172.0564 L 401.9584 168.1245 L 403.1743 168.1245 C 403.9053 168.1245 404.4855 168.3823 404.8987 168.8872 L 404.8987 168.8872 Z" fill="#ffffff"/>
				<path d="M 409.0787 161.249 L 409.0787 161.9365 C 409.4919 162.0869 409.7621 162.2803 409.8973 162.5059 C 410.0244 162.7315 410.0959 163.1182 410.0959 163.6768 L 410.0959 171.616 C 410.0959 172.3357 410.0323 172.8084 409.9052 173.034 C 409.7781 173.2704 409.5079 173.4637 409.0787 173.6249 L 409.0787 174.3125 L 416.1991 174.3125 L 416.1991 171.5622 L 415.6904 171.5622 C 415.3567 172.368 415.0468 172.9159 414.7448 173.1952 C 414.4428 173.4852 414.0137 173.6249 413.4733 173.6249 C 412.9489 173.6249 412.5992 173.5282 412.4084 173.3349 C 412.2177 173.1414 412.1303 172.7869 412.1303 172.2498 L 412.1303 163.6339 C 412.1303 163.1182 412.1859 162.7422 412.3131 162.5274 C 412.4402 162.3125 412.7183 162.1084 413.1475 161.9365 L 413.1475 161.249 L 409.0787 161.249 L 409.0787 161.249 Z" fill="#ffffff"/>
				<path d="M 417.7249 161.249 L 417.7249 161.9365 C 418.1381 162.0869 418.4083 162.2803 418.5434 162.5059 C 418.6705 162.7315 418.7421 163.1182 418.7421 163.6768 L 418.7421 171.616 C 418.7421 172.1853 418.7103 172.5721 418.6547 172.7654 C 418.599 172.9696 418.5036 173.1414 418.3606 173.2704 C 418.2176 173.3993 418.0109 173.5175 417.7249 173.6249 L 417.7249 174.3125 L 421.7936 174.3125 L 421.7936 173.6249 C 421.3724 173.4745 421.0943 173.2811 420.9672 173.0555 C 420.84 172.8407 420.7764 172.4431 420.7764 171.8845 L 420.7764 163.924 C 420.7764 163.2042 420.84 162.7315 420.983 162.4951 C 421.1261 162.2588 421.3963 162.0762 421.7936 161.9365 L 421.7936 161.249 L 417.7249 161.249 L 417.7249 161.249 Z" fill="#ffffff"/>
				<path d="M 431.9655 161.249 L 431.4569 161.249 C 431.298 161.7109 431.1072 161.9365 430.8847 161.9365 C 430.7734 161.9365 430.5589 161.8721 430.249 161.7216 C 429.5179 161.4101 428.8662 161.249 428.2941 161.249 C 426.8796 161.249 425.6955 161.8935 424.7419 163.172 C 423.7882 164.4611 423.3194 166.0511 423.3194 167.9526 C 423.3194 169.8434 423.7644 171.3689 424.6624 172.5506 C 425.5604 173.7323 426.7286 174.3125 428.167 174.3125 C 429.7722 174.3125 431.0358 173.3993 431.9655 171.5622 L 431.9655 170.8747 C 431.4569 171.6052 430.9563 172.1316 430.4635 172.4539 C 429.9709 172.7762 429.4385 172.9373 428.8503 172.9373 C 427.7537 172.9373 426.9034 172.4431 426.2836 171.4548 C 425.6637 170.4665 425.3538 169.0699 425.3538 167.2543 C 425.3538 165.6429 425.6081 164.3537 426.1326 163.3868 C 426.6491 162.4199 427.3484 161.9365 428.2305 161.9365 C 429.0331 161.9365 429.7165 162.3018 430.2808 163.0215 C 430.845 163.7521 431.2344 164.7619 431.4569 166.0618 L 431.9655 166.0618 L 431.9655 161.249 L 431.9655 161.249 Z" fill="#ffffff"/>
			</g>
		</g>
	</g>
</svg>