<svg width="22" height="22" viewBox="0 0 22 22" fill="none" xmlns="http://www.w3.org/2000/svg">
<path d="M11 19.65C8.70588 19.65 6.50572 18.7387 4.88353 17.1165C3.26134 15.4943 2.35 13.2941 2.35 11C2.35 8.70588 3.26134 6.50572 4.88353 4.88353C6.50572 3.26134 8.70588 2.35 11 2.35C13.2941 2.35 15.4943 3.26134 17.1165 4.88353C18.7387 6.50572 19.65 8.70588 19.65 11C19.65 13.2941 18.7387 15.4943 17.1165 17.1165C15.4943 18.7387 13.2941 19.65 11 19.65ZM11 21.1C13.6787 21.1 16.2477 20.0359 18.1418 18.1418C20.0359 16.2477 21.1 13.6787 21.1 11C21.1 8.32131 20.0359 5.75234 18.1418 3.85822C16.2477 1.9641 13.6787 0.9 11 0.9C8.32131 0.9 5.75234 1.9641 3.85822 3.85822C1.9641 5.75234 0.9 8.32131 0.9 11C0.9 13.6787 1.9641 16.2477 3.85822 18.1418C5.75234 20.0359 8.32131 21.1 11 21.1Z" fill="white" stroke="white" stroke-width="0.2"/>
<path d="M12.1624 9.235L9.29994 9.59375L9.19744 10.0688L9.75994 10.1725C10.1274 10.26 10.1999 10.3925 10.1199 10.7587L9.19744 15.0938C8.95494 16.215 9.32869 16.7425 10.2074 16.7425C10.8887 16.7425 11.6799 16.4275 12.0387 15.995L12.1487 15.475C11.8987 15.695 11.5337 15.7825 11.2912 15.7825C10.9474 15.7825 10.8224 15.5413 10.9112 15.1163L12.1624 9.235ZM12.2499 6.625C12.2499 6.95652 12.1182 7.27446 11.8838 7.50888C11.6494 7.7433 11.3315 7.875 10.9999 7.875C10.6684 7.875 10.3505 7.7433 10.1161 7.50888C9.88164 7.27446 9.74994 6.95652 9.74994 6.625C9.74994 6.29348 9.88164 5.97554 10.1161 5.74112C10.3505 5.5067 10.6684 5.375 10.9999 5.375C11.3315 5.375 11.6494 5.5067 11.8838 5.74112C12.1182 5.97554 12.2499 6.29348 12.2499 6.625Z" fill="white"/>
</svg>
