<?xml version="1.0" standalone="no"?>
<!-- Generator: Adobe Fireworks 10, Export SVG Extension by Aaron Beall (http://fireworks.abeall.com) . Version: 0.6.1  -->
<!DOCTYPE svg PUBLIC "-//W3C//DTD SVG 1.1//EN" "http://www.w3.org/Graphics/SVG/1.1/DTD/svg11.dtd">
<svg id="Untitled-Page%201" viewBox="0 0 80 80" style="background-color:#ffffff00" version="1.1"
	xmlns="http://www.w3.org/2000/svg" xmlns:xlink="http://www.w3.org/1999/xlink" xml:space="preserve"
	x="0px" y="0px" width="80px" height="80px"
>
	<g id="Layer%201">
		<g>
			<g>
				<path d="M 60.4286 16.5714 L 54.8572 16.5714 L 54.8572 12.8572 C 54.8572 11.8314 54.0257 11 53 11 C 51.9743 11 51.1428 11.8314 51.1428 12.8572 L 51.1428 16.5714 L 28.8571 16.5714 L 28.8571 12.8572 C 28.8571 11.8314 28.0256 11 27 11 C 25.9744 11 25.1428 11.8314 25.1428 12.8572 L 25.1428 16.5714 L 19.5714 16.5714 C 16.4944 16.5714 14 19.0659 14 22.1428 L 14 57.4286 C 14 60.5056 16.4944 63 19.5714 63 L 60.4286 63 C 63.5056 63 66 60.5056 66 57.4286 L 66 22.1428 C 66 19.0659 63.5056 16.5714 60.4286 16.5714 ZM 62.2857 57.4286 C 62.2857 58.4543 61.4542 59.2856 60.4285 59.2856 L 19.5714 59.2856 C 18.5457 59.2856 17.7142 58.4543 17.7142 57.4286 L 17.7142 33.2856 L 62.2857 33.2856 L 62.2857 57.4286 ZM 62.2857 29.5715 L 17.7142 29.5715 L 17.7142 22.1428 C 17.7142 21.1171 18.5457 20.2856 19.5714 20.2856 L 25.1428 20.2856 L 25.1428 23.9999 C 25.1428 25.0256 25.9743 25.8571 27 25.8571 C 28.0257 25.8571 28.8572 25.0256 28.8572 23.9999 L 28.8572 20.2856 L 51.1429 20.2856 L 51.1429 23.9999 C 51.1429 25.0256 51.9743 25.8571 53.0001 25.8571 C 54.0257 25.8571 54.8573 25.0256 54.8573 23.9999 L 54.8573 20.2856 L 60.4287 20.2856 C 61.4544 20.2856 62.2858 21.1171 62.2858 22.1428 L 62.2858 29.5715 L 62.2857 29.5715 Z" fill="#395465"/>
			</g>
			<g>
				<path d="M 52.4102 37.5442 C 51.6905 36.849 50.5495 36.849 49.8299 37.5442 L 36.2857 51.0883 L 30.1701 44.9727 C 29.4323 44.26 28.2566 44.2805 27.5441 45.0182 C 26.849 45.7379 26.849 46.8788 27.5441 47.5986 L 34.9727 55.0272 C 35.698 55.7522 36.8735 55.7522 37.5987 55.0272 L 52.4558 40.1702 C 53.1683 39.4324 53.1479 38.2567 52.4102 37.5442 Z" fill="#395465"/>
			</g>
		</g>
	</g>
</svg>