<svg width="26" height="26" viewBox="0 0 26 26" fill="none" xmlns="http://www.w3.org/2000/svg">
<path d="M14.0837 20.5835V16.2502H17.3337L13.0003 10.8335L8.66699 16.2502H11.917V20.5835H14.0837Z" fill="#BDBDBD"/>
<path d="M7.58366 20.5832H9.75033V18.4165H7.58366C5.79183 18.4165 4.33366 16.9583 4.33366 15.1665C4.33366 13.6455 5.63258 12.1808 7.22941 11.9003L7.85883 11.7898L8.06683 11.1853C8.82841 8.96334 10.7199 7.58317 13.0003 7.58317C15.9871 7.58317 18.417 10.0131 18.417 12.9998V14.0832H19.5003C20.6952 14.0832 21.667 15.0549 21.667 16.2498C21.667 17.4448 20.6952 18.4165 19.5003 18.4165H16.2503V20.5832H19.5003C21.8902 20.5832 23.8337 18.6397 23.8337 16.2498C23.832 15.2787 23.505 14.3362 22.9049 13.5727C22.3048 12.8093 21.4662 12.2689 20.523 12.0378C20.0496 8.309 16.857 5.4165 13.0003 5.4165C10.0147 5.4165 7.42116 7.16175 6.23708 9.91234C3.91008 10.6078 2.16699 12.8048 2.16699 15.1665C2.16699 18.1533 4.59691 20.5832 7.58366 20.5832Z" fill="#BDBDBD"/>
</svg>
