<svg width="30" height="33" viewBox="0 0 30 33" fill="none" xmlns="http://www.w3.org/2000/svg">
<path d="M2.96558 13.3501C3.02592 12.6192 3.36721 11.9372 3.92149 11.4399C4.47577 10.9426 5.20237 10.6666 5.95658 10.6667H24.0436C24.7978 10.6666 25.5244 10.9426 26.0787 11.4399C26.6329 11.9372 26.9742 12.6192 27.0346 13.3501L28.2391 27.9334C28.2722 28.3347 28.2195 28.7384 28.0843 29.1189C27.9491 29.4995 27.7344 29.8487 27.4535 30.1446C27.1727 30.4405 26.8319 30.6767 26.4526 30.8383C26.0733 30.9998 25.6637 31.0833 25.2496 31.0834H4.75058C4.33646 31.0833 3.92686 30.9998 3.54755 30.8383C3.16824 30.6767 2.82745 30.4405 2.54662 30.1446C2.2658 29.8487 2.05103 29.4995 1.91584 29.1189C1.78064 28.7384 1.72795 28.3347 1.76108 27.9334L2.96558 13.3501V13.3501Z" stroke="#0C56DB" stroke-width="3" stroke-linecap="round" stroke-linejoin="round"/>
<path d="M21 15.0417V7.75008C21 6.20299 20.3679 4.71925 19.2426 3.62529C18.1174 2.53133 16.5913 1.91675 15 1.91675C13.4087 1.91675 11.8826 2.53133 10.7574 3.62529C9.63214 4.71925 9 6.20299 9 7.75008V15.0417" stroke="#0C56DB" stroke-width="3" stroke-linecap="round" stroke-linejoin="round"/>
</svg>
