<?xml version="1.0" standalone="no"?>
<!-- Generator: Adobe Fireworks 10, Export SVG Extension by Aaron Beall (http://fireworks.abeall.com) . Version: 0.6.1  -->
<!DOCTYPE svg PUBLIC "-//W3C//DTD SVG 1.1//EN" "http://www.w3.org/Graphics/SVG/1.1/DTD/svg11.dtd">
<svg id="Untitled-Page%201" viewBox="0 0 80 80" style="background-color:#ffffff00" version="1.1"
	xmlns="http://www.w3.org/2000/svg" xmlns:xlink="http://www.w3.org/1999/xlink" xml:space="preserve"
	x="0px" y="0px" width="80px" height="80px"
>
	<g id="Layer%201">
		<g>
			<path d="M 56.2078 20.1991 C 56.2335 20.2009 56.2591 20.2028 56.2853 20.2028 C 56.3296 20.2028 56.374 20.1991 56.4173 20.1931 C 57.579 20.2164 58.5088 21.1442 58.5103 22.2816 C 58.5103 22.7985 58.9382 23.2176 59.4661 23.2176 C 59.994 23.2176 60.422 22.7985 60.422 22.2816 C 60.4197 20.4212 59.0969 18.8116 57.2411 18.4113 L 57.2411 17.5119 C 57.2411 16.995 56.8132 16.5759 56.2853 16.5759 C 55.7574 16.5759 55.3294 16.995 55.3294 17.5119 L 55.3294 18.4538 C 53.3671 18.9675 52.0977 20.8261 52.3623 22.798 C 52.6269 24.77 54.3436 26.2444 56.3749 26.2444 C 57.5544 26.2444 58.5103 27.1807 58.5103 28.3356 C 58.5103 29.49 57.5544 30.4264 56.3749 30.4264 C 55.1954 30.4264 54.2396 29.49 54.2396 28.3356 C 54.2396 27.8188 53.8115 27.3997 53.2837 27.3997 C 52.7558 27.3997 52.3278 27.8188 52.3278 28.3356 C 52.33 30.1288 53.5604 31.6978 55.3294 32.1635 L 55.3294 33.189 C 55.3294 33.7059 55.7574 34.1249 56.2853 34.1249 C 56.8132 34.1249 57.2411 33.7059 57.2411 33.189 L 57.2411 32.2065 C 59.2598 31.7737 60.6213 29.9209 60.3986 27.9092 C 60.1765 25.8975 58.4416 24.3729 56.3749 24.3734 C 55.2281 24.3738 54.2857 23.4872 54.2405 22.3653 C 54.1956 21.2433 55.0642 20.2869 56.2078 20.1996 L 56.2078 20.1991 Z" fill="#415263"/>
			<path d="M 56.4295 12 C 50.549 12 45.5305 15.757 43.6505 20.7877 L 19.9255 20.7877 C 19.4 20.7877 18.9734 21.2516 18.9696 21.7656 L 18.7437 54.5988 L 11.9811 54.5988 C 11.4532 54.5988 11 54.973 11 55.4908 L 11 59.6572 C 11.0122 63.5797 14.1673 66.8021 18.1692 66.9794 L 18.1692 67 L 47.6822 67 L 47.6822 66.9725 C 47.9212 66.9812 48.0197 67 48.171 67 L 48.1915 67 C 52.3333 66.9935 55.6878 63.704 55.6878 59.6486 L 55.6878 38.5825 C 55.9268 38.5953 56.1797 38.6022 56.4271 38.6022 C 63.9105 38.6022 70 32.6282 70 25.3006 C 70 17.9734 63.9133 12 56.4295 12 ZM 18.5328 65.1281 L 18.5267 65.1281 C 15.4345 65.124 12.9258 62.6759 12.9118 59.6478 L 12.9118 56.4707 L 40.6326 56.4707 L 40.6326 59.6345 C 40.634 61.5877 41.4307 63.46 42.8459 64.837 C 42.9463 64.9352 43.0709 65.0111 43.1758 65.1281 L 18.5328 65.1281 ZM 53.7761 59.6478 C 53.7765 62.6703 51.2771 65.1222 48.1906 65.1281 L 48.1724 65.1281 C 45.0731 65.1227 42.5598 62.6694 42.5444 59.6354 L 42.5444 55.4908 C 42.5523 55.2512 42.4589 55.0197 42.2857 54.8505 C 42.1126 54.6814 41.876 54.5906 41.632 54.5988 L 20.6555 54.5988 L 20.8749 22.6596 L 43.1198 22.6596 C 42.9505 23.5164 42.8626 24.3867 42.8579 25.259 C 42.8562 27.104 43.2492 28.9283 44.0118 30.6152 L 34.9831 30.6152 C 34.4548 30.6152 34.0273 31.0342 34.0273 31.551 C 34.0273 32.0679 34.4548 32.4871 34.9831 32.4871 L 45.0489 32.4871 C 47.0208 35.5233 50.1733 37.6402 53.7761 38.3486 L 53.7761 59.6478 ZM 56.4295 36.7308 C 49.9903 36.7308 44.7698 31.6196 44.7703 25.3143 C 44.7703 19.0091 49.9903 13.8979 56.43 13.8979 C 62.8692 13.8979 68.0892 19.0095 68.0892 25.3143 C 68.0822 31.6165 62.8664 36.7239 56.4295 36.7308 Z" fill="#415263"/>
			<path d="M 28.8473 36.8442 C 27.16 36.8442 25.7878 38.1452 25.7878 39.7448 C 25.7878 41.3442 27.16 42.6453 28.8473 42.6453 C 30.5346 42.6453 31.9073 41.3442 31.9073 39.7448 C 31.9073 38.1452 30.5346 36.8442 28.8473 36.8442 ZM 28.8473 40.7734 C 28.2139 40.7734 27.6996 40.3119 27.6996 39.7448 C 27.6996 39.1771 28.2144 38.716 28.8473 38.716 C 29.4802 38.716 29.9955 39.1776 29.9955 39.7448 C 29.9955 40.3119 29.4802 40.7734 28.8473 40.7734 Z" fill="#415263"/>
			<path d="M 34.0273 39.7406 C 34.0273 40.2574 34.4548 40.6765 34.9831 40.6765 L 47.7271 40.6765 C 48.255 40.6765 48.683 40.2574 48.683 39.7406 C 48.683 39.2237 48.255 38.8047 47.7271 38.8047 L 34.9831 38.8047 C 34.4548 38.8047 34.0273 39.2237 34.0273 39.7406 Z" fill="#415263"/>
			<path d="M 28.8473 28.7081 C 27.16 28.7081 25.7878 30.0096 25.7878 31.6091 C 25.7878 33.2087 27.16 34.5097 28.8473 34.5097 C 30.5346 34.5097 31.9073 33.2087 31.9073 31.6091 C 31.9073 30.0096 30.5346 28.7081 28.8473 28.7081 ZM 28.8473 32.6378 C 28.2139 32.6378 27.6996 32.1763 27.6996 31.6091 C 27.6996 31.042 28.2144 30.58 28.8473 30.58 C 29.4802 30.58 29.9955 31.0416 29.9955 31.6091 C 29.9955 32.1763 29.4802 32.6383 28.8473 32.6383 L 28.8473 32.6378 Z" fill="#415263"/>
			<path d="M 28.8473 44.9792 C 27.16 44.9792 25.7878 46.2803 25.7878 47.8798 C 25.7878 49.4794 27.16 50.7805 28.8473 50.7805 C 30.5346 50.7805 31.9073 49.4794 31.9073 47.8798 C 31.9073 46.2803 30.5346 44.9792 28.8473 44.9792 ZM 28.8473 48.9085 C 28.2139 48.9085 27.6996 48.4474 27.6996 47.8798 C 27.6996 47.3127 28.2144 46.8511 28.8473 46.8511 C 29.4802 46.8511 29.9955 47.3127 29.9955 47.8798 C 29.9955 48.447 29.4802 48.9085 28.8473 48.9085 Z" fill="#415263"/>
			<path d="M 47.7271 46.9941 L 34.9831 46.9941 C 34.4548 46.9941 34.0273 47.4132 34.0273 47.9302 C 34.0273 48.447 34.4548 48.866 34.9831 48.866 L 47.7271 48.866 C 48.255 48.866 48.683 48.447 48.683 47.9302 C 48.683 47.4132 48.255 46.9941 47.7271 46.9941 Z" fill="#415263"/>
		</g>
	</g>
</svg>