<svg width="33" height="27" viewBox="0 0 33 27" fill="none" xmlns="http://www.w3.org/2000/svg">
<path d="M29.942 4.28273L29.9423 4.28334C30.1839 4.73565 30.2751 5.17999 30.2751 6.71061V20.2896C30.2751 21.8203 30.1838 22.2645 29.9424 22.7144L29.9419 22.7154C29.7731 23.0391 29.5095 23.3035 29.1862 23.4733L29.1856 23.4736C28.7333 23.7151 28.289 23.8064 26.7584 23.8064H6.24187C4.71115 23.8064 4.26697 23.7151 3.81709 23.4737L3.81604 23.4731C3.49235 23.3043 3.22794 23.0407 3.05821 22.7175L3.05789 22.7169C2.81637 22.2646 2.72512 21.8202 2.72512 20.2896V6.71061C2.72512 5.1799 2.81639 4.73572 3.05779 4.28583L3.0578 4.28584L3.05835 4.28479C3.22714 3.9611 3.49078 3.69669 3.81398 3.52696L3.81398 3.52696L3.81459 3.52664C4.2669 3.28512 4.71124 3.19386 6.24187 3.19386H26.7584C28.2891 3.19386 28.7333 3.28514 29.1831 3.52655L29.1842 3.5271C29.5079 3.69589 29.7723 3.95953 29.942 4.28273ZM32.7876 6.71061V6.68702L32.7853 6.68237C32.7837 4.63385 32.5678 3.86893 32.1561 3.09765C31.7444 2.32631 31.1381 1.71998 30.3644 1.30827C29.5924 0.894991 28.8268 0.679053 26.7561 0.679053H6.23724C4.17097 0.679053 3.40314 0.895027 2.6289 1.30827C1.85756 1.71997 1.25123 2.32628 0.83952 3.09997C0.426241 3.87193 0.210303 4.63755 0.210303 6.7083V20.2919C0.210303 22.3581 0.426251 23.1259 0.839444 23.9001C1.24365 24.663 1.86802 25.2865 2.63137 25.6897C3.40328 26.103 4.16894 26.3189 6.23955 26.3189H26.7607C28.827 26.3189 29.5948 26.1029 30.369 25.6896C31.1404 25.2779 31.7467 24.6716 32.1584 23.8979C32.5717 23.126 32.7876 22.3604 32.7876 20.2896V6.71061Z" fill="#0C56DB" stroke="#0C56DB" stroke-width="0.2"/>
<path d="M0.3125 6.4625H0.2125V6.5625V8.875V8.975H0.3125H32.6875H32.7875V8.875V6.5625V6.4625H32.6875H0.3125ZM0.3125 11.0875H0.2125V11.1875V13.5V13.6H0.3125H32.6875H32.7875V13.5V11.1875V11.0875H32.6875H0.3125ZM4.9375 18.025H4.8375V18.125V20.4375V20.5375H4.9375H14.1875H14.2875V20.4375V18.125V18.025H14.1875H4.9375Z" fill="#0C56DB" stroke="#0C56DB" stroke-width="0.2"/>
</svg>
