<svg width="17" height="13" viewBox="0 0 17 13" fill="none" xmlns="http://www.w3.org/2000/svg">
<path d="M11.1562 7.03125C11.1562 7.73573 10.8764 8.41136 10.3783 8.9095C9.88011 9.40765 9.20448 9.6875 8.5 9.6875C7.79552 9.6875 7.11989 9.40765 6.62175 8.9095C6.1236 8.41136 5.84375 7.73573 5.84375 7.03125C5.84375 6.32677 6.1236 5.65114 6.62175 5.153C7.11989 4.65485 7.79552 4.375 8.5 4.375C9.20448 4.375 9.88011 4.65485 10.3783 5.153C10.8764 5.65114 11.1562 6.32677 11.1562 7.03125Z" fill="white"/>
<path d="M2.125 2.25C1.56141 2.25 1.02091 2.47388 0.622398 2.8724C0.223883 3.27091 0 3.81141 0 4.375L0 10.75C0 11.3136 0.223883 11.8541 0.622398 12.2526C1.02091 12.6511 1.56141 12.875 2.125 12.875H14.875C15.4386 12.875 15.9791 12.6511 16.3776 12.2526C16.7761 11.8541 17 11.3136 17 10.75V4.375C17 3.81141 16.7761 3.27091 16.3776 2.8724C15.9791 2.47388 15.4386 2.25 14.875 2.25H13.6298C13.0662 2.24988 12.5258 2.02592 12.1274 1.62738L11.2476 0.747625C10.8492 0.349083 10.3088 0.12512 9.74525 0.125H7.25475C6.69121 0.12512 6.1508 0.349083 5.75238 0.747625L4.87262 1.62738C4.4742 2.02592 3.93379 2.24988 3.37025 2.25H2.125ZM2.65625 4.375C2.51535 4.375 2.38023 4.31903 2.2806 4.2194C2.18097 4.11977 2.125 3.98465 2.125 3.84375C2.125 3.70285 2.18097 3.56773 2.2806 3.4681C2.38023 3.36847 2.51535 3.3125 2.65625 3.3125C2.79715 3.3125 2.93227 3.36847 3.0319 3.4681C3.13153 3.56773 3.1875 3.70285 3.1875 3.84375C3.1875 3.98465 3.13153 4.11977 3.0319 4.2194C2.93227 4.31903 2.79715 4.375 2.65625 4.375ZM12.2188 7.03125C12.2188 8.01752 11.827 8.9634 11.1296 9.6608C10.4322 10.3582 9.48627 10.75 8.5 10.75C7.51373 10.75 6.56785 10.3582 5.87045 9.6608C5.17305 8.9634 4.78125 8.01752 4.78125 7.03125C4.78125 6.04498 5.17305 5.0991 5.87045 4.4017C6.56785 3.7043 7.51373 3.3125 8.5 3.3125C9.48627 3.3125 10.4322 3.7043 11.1296 4.4017C11.827 5.0991 12.2188 6.04498 12.2188 7.03125Z" fill="white"/>
</svg>
