<?xml version="1.0" standalone="no"?>
<!-- Generator: Adobe Fireworks 10, Export SVG Extension by Aaron Beall (http://fireworks.abeall.com) . Version: 0.6.1  -->
<!DOCTYPE svg PUBLIC "-//W3C//DTD SVG 1.1//EN" "http://www.w3.org/Graphics/SVG/1.1/DTD/svg11.dtd">
<svg id="Untitled-Page%201" viewBox="0 0 70 70" style="background-color:#ffffff00" version="1.1"
	xmlns="http://www.w3.org/2000/svg" xmlns:xlink="http://www.w3.org/1999/xlink" xml:space="preserve"
	x="0px" y="0px" width="70px" height="70px"
>
	<g id="Layer%201">
		<path id="9104213_close_cross_remove_delete_icon" d="M 9.1356 59.8641 C 9.8927 60.6215 10.6499 61 11.7856 61 C 12.9214 61 13.6786 60.6215 14.4357 59.8641 L 34.5 39.8 L 54.5643 59.8641 C 55.3214 60.6215 56.4573 61 57.2144 61 C 57.9714 61 59.1073 60.6215 59.8644 59.8641 C 61.3784 58.3502 61.3784 56.0783 59.8644 54.5644 L 39.8 34.4999 L 59.8644 14.4354 C 61.3784 12.9215 61.3784 10.6497 59.8644 9.1358 C 58.3501 7.6215 56.0786 7.6215 54.5643 9.1358 L 34.5 29.1998 L 14.4357 9.1358 C 12.9214 7.6215 10.6499 7.6215 9.1356 9.1358 C 7.6216 10.6497 7.6216 12.9215 9.1356 14.4354 L 29.2 34.4999 L 9.1356 54.5644 C 7.6216 56.0783 7.6216 58.3502 9.1356 59.8641 L 9.1356 59.8641 Z" fill="#ffffff"/>
	</g>
</svg>