<svg width="17" height="17" viewBox="0 0 17 17" fill="none" xmlns="http://www.w3.org/2000/svg">
<path fill-rule="evenodd" clip-rule="evenodd" d="M0 8.5C0 6.24566 0.895533 4.08365 2.48959 2.48959C4.08365 0.895533 6.24566 0 8.5 0C10.7543 0 12.9163 0.895533 14.5104 2.48959C16.1045 4.08365 17 6.24566 17 8.5C17 10.7543 16.1045 12.9163 14.5104 14.5104C12.9163 16.1045 10.7543 17 8.5 17C6.24566 17 4.08365 16.1045 2.48959 14.5104C0.895533 12.9163 0 10.7543 0 8.5H0ZM8.01493 12.138L12.9087 6.02027L12.0247 5.31307L7.85173 10.5275L4.896 8.0648L4.17067 8.9352L8.01493 12.1391V12.138Z" fill="#00B654"/>
<path d="M4.92147 8.05249L4.11621 8.94723L8.05305 12.2578L12.9741 6.08407L11.9899 5.27881L7.87411 10.4683L4.92147 8.05249Z" fill="white"/>
</svg>
