<svg width="21" height="18" viewBox="0 0 21 18" fill="none" xmlns="http://www.w3.org/2000/svg">
<path d="M18.8333 17.6663H2.16659C1.61405 17.6663 1.08415 17.4381 0.693446 17.0317C0.302745 16.6254 0.083252 16.0743 0.083252 15.4997V2.49967C0.083252 1.92504 0.302745 1.37394 0.693446 0.96761C1.08415 0.561281 1.61405 0.333008 2.16659 0.333008H18.8333C19.3858 0.333008 19.9157 0.561281 20.3064 0.96761C20.6971 1.37394 20.9166 1.92504 20.9166 2.49967V15.4997C20.9166 16.0743 20.6971 16.6254 20.3064 17.0317C19.9157 17.4381 19.3858 17.6663 18.8333 17.6663ZM2.16659 2.49967V15.4997H18.8333V2.49967H2.16659ZM14.1458 13.333C13.4551 13.333 12.7927 13.0477 12.3043 12.5398C11.816 12.0318 11.5416 11.343 11.5416 10.6247C11.5416 9.90638 11.816 9.2175 12.3043 8.70959C12.7927 8.20168 13.4551 7.91634 14.1458 7.91634C14.8364 7.91634 15.4988 8.20168 15.9872 8.70959C16.4756 9.2175 16.7499 9.90638 16.7499 10.6247C16.7499 11.343 16.4756 12.0318 15.9872 12.5398C15.4988 13.0477 14.8364 13.333 14.1458 13.333ZM9.97909 13.333C9.28842 13.333 8.62604 13.0477 8.13766 12.5398C7.64929 12.0318 7.37492 11.343 7.37492 10.6247C7.37492 9.90638 7.64929 9.2175 8.13766 8.70959C8.62604 8.20168 9.28842 7.91634 9.97909 7.91634C10.5447 7.91634 11.0937 8.11134 11.5416 8.47101C11.2186 8.72057 10.9562 9.04527 10.7755 9.41913C10.5947 9.793 10.5006 10.2057 10.5006 10.6241C10.5006 11.0426 10.5947 11.4553 10.7755 11.8291C10.9562 12.203 11.2186 12.5277 11.5416 12.7773C11.094 13.1367 10.5446 13.3321 9.97909 13.333Z" fill="white"/>
</svg>
