<?xml version="1.0" standalone="no"?>
<!-- Generator: Adobe Fireworks 10, Export SVG Extension by Aaron Beall (http://fireworks.abeall.com) . Version: 0.6.1  -->
<!DOCTYPE svg PUBLIC "-//W3C//DTD SVG 1.1//EN" "http://www.w3.org/Graphics/SVG/1.1/DTD/svg11.dtd">
<svg id="Untitled-Page%201" viewBox="0 0 68 59" style="background-color:#ffffff00" version="1.1"
	xmlns="http://www.w3.org/2000/svg" xmlns:xlink="http://www.w3.org/1999/xlink" xml:space="preserve"
	x="0px" y="0px" width="68px" height="59px"
>
	<g>
		<g>
			<path d="M 29.7004 12.6522 L 25.9565 8.8503 C 25.515 8.3202 24.7295 8.2501 24.2018 8.6935 C 23.674 9.137 23.6042 9.926 24.0457 10.4561 C 24.0898 10.509 24.1383 10.5583 24.1906 10.6034 L 27.9345 14.4053 C 28.457 14.8549 29.2434 14.794 29.691 14.2692 C 30.087 13.8049 30.0911 13.1211 29.7004 12.6522 Z" fill="#405263"/>
		</g>
		<g>
			<path d="M 61.4437 9.047 C 61.0022 8.517 60.2166 8.4468 59.689 8.8904 C 59.6362 8.9347 59.5872 8.9833 59.5424 9.0359 L 55.7574 12.7965 C 55.2297 13.24 55.1598 14.0291 55.6013 14.5591 C 56.0428 15.0892 56.8283 15.1593 57.3561 14.7159 C 57.4088 14.6715 57.4579 14.6229 57.5027 14.5703 L 61.2877 10.8097 C 61.8153 10.3662 61.8853 9.5771 61.4437 9.047 Z" fill="#405263"/>
		</g>
		<g>
			<path d="M 38.8863 8.2639 C 38.8785 8.2274 38.8693 8.1915 38.8583 8.1559 L 37.4894 2.9858 C 37.347 2.3136 36.6892 1.8846 36.0199 2.0274 C 35.3507 2.1703 34.9236 2.8313 35.0658 3.5035 C 35.0735 3.54 35.0827 3.5759 35.0937 3.6115 L 36.4626 8.7815 C 36.6049 9.4537 37.2629 9.8827 37.9321 9.74 C 38.6013 9.597 39.0286 8.936 38.8863 8.2639 Z" fill="#405263"/>
		</g>
		<g>
			<path d="M 55.9079 34.886 C 55.6752 34.6524 55.4335 34.4232 55.1824 34.1985 L 55.3877 33.8273 C 55.6425 33.3569 55.8709 32.8725 56.0722 32.3768 C 58.9878 25.0624 55.4483 16.759 48.1666 13.8304 C 48.1529 13.8248 48.1395 13.8194 48.1258 13.8141 C 41.5428 11.1783 34.0326 13.8182 30.5217 20.0016 C 21.9405 17.5943 13.0411 22.6302 10.6444 31.25 C 10.2455 32.6843 10.0455 34.1669 10.0499 35.6561 C 10.0499 35.8623 10.0499 36.0776 10.0499 36.3023 C 4.0924 36.7267 -0.3949 41.9218 0.0275 47.9061 C 0.4267 53.562 5.0897 57.9578 10.7344 58 L 10.7686 58 L 46.3599 58 C 53.8029 58.0129 59.8471 51.9628 59.8601 44.4866 C 59.8663 40.8857 58.4439 37.4309 55.9079 34.886 ZM 38.5503 16.1379 C 41.3261 15.029 44.4191 15.029 47.1949 16.1379 C 53.2124 18.5494 56.1494 25.4 53.7587 31.4485 C 53.5855 31.865 53.3892 32.2713 53.1701 32.6655 L 53.1701 32.7754 C 49.734 30.769 45.5919 30.3867 41.8493 31.7304 C 41.1586 28.9622 39.7512 26.4267 37.77 24.381 C 39.1542 21.7997 42.2378 20.661 44.9568 21.7272 C 45.6066 21.9419 46.3068 21.5866 46.5205 20.9339 C 46.7166 20.335 46.4358 19.6835 45.8671 19.4172 C 42.1753 17.9314 37.9543 19.3156 35.8467 22.7035 C 34.9127 21.9981 33.9053 21.3963 32.8421 20.9091 C 34.1788 18.7385 36.1824 17.0637 38.5503 16.1379 ZM 48.96 55.1951 C 48.1128 55.3985 47.2446 55.5001 46.3736 55.4977 L 10.7823 55.4977 C 6.1819 55.4935 2.4559 51.744 2.4601 47.1231 C 2.4621 44.9085 3.338 42.7851 4.896 41.2181 L 4.8823 41.225 C 6.4424 39.6554 8.5606 38.7746 10.7686 38.7775 L 11.0697 38.7775 L 11.3367 38.7775 C 12.0193 38.8242 12.6104 38.3062 12.6568 37.6206 C 12.6642 37.5131 12.6575 37.4051 12.6371 37.2993 C 12.6098 37.061 12.587 36.8021 12.5687 36.5225 C 12.5687 36.2613 12.5687 35.9725 12.5687 35.6494 C 12.6702 28.0789 18.8621 22.0244 26.3992 22.1263 C 33.0217 22.2158 38.6243 27.0685 39.6866 33.6349 C 39.7845 34.3152 40.4129 34.7868 41.0901 34.6882 C 41.2208 34.6692 41.3478 34.6293 41.4661 34.57 C 42.2239 34.1893 43.0231 33.8987 43.8479 33.7037 C 49.7562 32.2857 55.6903 35.9474 57.102 41.8821 C 58.5136 47.8167 54.8682 53.7771 48.96 55.1951 Z" fill="#405263"/>
		</g>
		<g>
			<path d="M 67.9446 20.8383 C 67.7557 20.2228 67.1303 19.854 66.503 19.9879 L 61.356 21.3628 C 60.6952 21.5347 60.2973 22.2111 60.4662 22.8754 C 60.6368 23.5409 61.3122 23.9414 61.9749 23.7701 C 61.9762 23.7698 61.9776 23.7694 61.9788 23.7691 L 67.1259 22.3942 C 67.7798 22.1916 68.1463 21.495 67.9446 20.8383 Z" fill="#405263"/>
		</g>
		<g>
			<path d="M 67.0713 33.0024 L 61.9379 31.593 C 61.2783 31.403 60.5905 31.7863 60.4013 32.4489 C 60.2123 33.1114 60.5938 33.8023 61.2534 33.9923 L 66.3868 35.4017 C 67.0465 35.5916 67.7343 35.2083 67.9235 34.5458 C 68.1123 33.8832 67.7309 33.1922 67.0713 33.0024 Z" fill="#405263"/>
		</g>
		<g>
			<path d="M 49.5802 2.1505 C 48.9205 1.9606 48.2327 2.3439 48.0437 3.0064 L 46.6405 8.1628 C 46.4447 8.8212 46.8174 9.5146 47.4729 9.7112 C 47.4873 9.7155 47.5019 9.7196 47.5166 9.7234 C 48.173 9.9174 48.8617 9.5404 49.0548 8.881 C 49.058 8.8708 49.0607 8.8606 49.0634 8.8503 L 50.4324 3.694 C 50.6212 3.0314 50.2399 2.3405 49.5802 2.1505 Z" fill="#405263"/>
		</g>
	</g>
</svg>