<?xml version="1.0" standalone="no"?>
<!-- Generator: Adobe Fireworks 10, Export SVG Extension by Aaron Beall (http://fireworks.abeall.com) . Version: 0.6.1  -->
<!DOCTYPE svg PUBLIC "-//W3C//DTD SVG 1.1//EN" "http://www.w3.org/Graphics/SVG/1.1/DTD/svg11.dtd">
<svg id="Untitled-Page%201" viewBox="0 0 120 120" style="background-color:#ffffff00" version="1.1"
	xmlns="http://www.w3.org/2000/svg" xmlns:xlink="http://www.w3.org/1999/xlink" xml:space="preserve"
	x="0px" y="0px" width="120px" height="120px"
>
	<g id="Layer%201">
		<g>
			<path id="Ellipse" d="M 0 60 C 0 26.8624 26.8625 0 60 0 C 93.1375 0 120 26.8624 120 60 C 120 93.1376 93.1375 120 60 120 C 26.8625 120 0 93.1376 0 60 Z" fill="#ed994b"/>
			<g>
				<path d="M 78.631 56.347 C 82.8113 54.1913 85.4716 50.3585 84.8544 43.9873 C 84.0465 35.2683 76.9458 32.3459 67.5394 31.5317 L 67.5394 19.4595 L 60.2233 19.4595 L 60.2233 31.1964 C 58.3229 31.1964 56.3753 31.2444 54.4276 31.2919 L 54.4276 19.4595 L 47.1115 19.4595 L 47.1115 31.5317 C 44.4219 31.6136 41.2892 31.5737 32.4324 31.5317 L 32.4324 39.3884 C 38.2087 39.2853 41.2392 38.911 41.9338 42.646 L 41.9338 75.7008 C 41.4927 78.6644 39.1411 78.2373 33.9053 78.1437 L 32.4328 86.9105 C 45.7721 86.9105 47.1118 86.9586 47.1118 86.9586 L 47.1118 97.2972 L 54.4282 97.2972 L 54.4282 87.1022 C 56.423 87.1503 58.3712 87.1503 60.2239 87.1503 L 60.2239 97.2972 L 67.5397 97.2972 L 67.5397 86.9583 C 79.7965 86.2876 87.9898 83.1738 89.0829 71.5331 C 89.9374 62.1915 85.5666 58.0234 78.631 56.347 ZM 54.5703 39.9154 C 58.7034 39.9154 71.6255 38.6219 71.6255 47.2927 C 71.6255 55.5807 58.7035 54.6224 54.5703 54.6224 L 54.5703 39.9154 ZM 54.5703 78.192 L 54.5703 61.9998 C 59.5112 61.9998 74.6406 60.6108 74.6406 70.0962 C 74.6404 79.2458 59.511 78.192 54.5703 78.192 L 54.5703 78.192 Z" fill="#ffffff"/>
			</g>
		</g>
	</g>
</svg>