<?xml version="1.0" standalone="no"?>
<!-- Generator: Adobe Fireworks 10, Export SVG Extension by Aaron Beall (http://fireworks.abeall.com) . Version: 0.6.1  -->
<!DOCTYPE svg PUBLIC "-//W3C//DTD SVG 1.1//EN" "http://www.w3.org/Graphics/SVG/1.1/DTD/svg11.dtd">
<svg id="Untitled-Page%201" viewBox="0 0 120 120" style="background-color:#ffffff00" version="1.1"
	xmlns="http://www.w3.org/2000/svg" xmlns:xlink="http://www.w3.org/1999/xlink" xml:space="preserve"
	x="0px" y="0px" width="120px" height="120px"
>
	<g id="Layer%201">
		<g>
			<path id="Ellipse" d="M 0 60 C 0 26.8624 26.8625 0 60 0 C 93.1375 0 120 26.8624 120 60 C 120 93.1375 93.1375 120 60 120 C 26.8625 120 0 93.1375 0 60 Z" fill="#53ae94"/>
			<g>
				<path d="M 66.9412 65.8079 L 66.9412 65.8 C 66.5053 65.8274 64.2663 65.9575 59.2809 65.9575 C 55.2951 65.9575 52.4911 65.8484 51.5027 65.7983 L 51.5027 65.8103 C 36.165 65.1516 24.7165 62.5598 24.7165 59.4587 C 24.7165 56.3582 36.1665 53.77 51.5027 53.1096 L 51.5027 63.2283 C 52.5075 63.2954 55.3806 63.4602 59.3462 63.4602 C 64.1091 63.4602 66.5039 63.2671 66.943 63.2283 L 66.943 53.1096 C 82.251 53.7712 93.673 56.3652 93.673 59.4553 C 93.673 62.5449 82.2462 65.1404 66.943 65.8015 L 66.943 65.8015 M 66.9358 52.0596 L 66.9358 42.9971 L 88.2948 42.9971 L 88.2948 29.1892 L 30.1338 29.1892 L 30.1338 42.9971 L 51.4952 42.9971 L 51.4952 52.0522 C 34.1346 52.8259 21.0811 56.1616 21.0811 60.158 C 21.0811 64.1545 34.1409 67.49 51.4952 68.2693 L 51.4952 97.2974 L 66.9412 97.2974 L 66.9412 68.2664 C 84.2705 67.49 97.2973 64.157 97.2973 60.1643 C 97.2973 56.1716 84.2705 52.8381 66.9412 52.062 L 66.9412 52.062 " fill="#ffffff"/>
			</g>
		</g>
	</g>
</svg>