<?xml version="1.0" standalone="no"?>
<!-- Generator: Adobe Fireworks 10, Export SVG Extension by Aaron Beall (http://fireworks.abeall.com) . Version: 0.6.1  -->
<!DOCTYPE svg PUBLIC "-//W3C//DTD SVG 1.1//EN" "http://www.w3.org/Graphics/SVG/1.1/DTD/svg11.dtd">
<svg id="Untitled-Page%201" viewBox="0 0 39 39" style="background-color:#ffffff00" version="1.1"
	xmlns="http://www.w3.org/2000/svg" xmlns:xlink="http://www.w3.org/1999/xlink" xml:space="preserve"
	x="0px" y="0px" width="39px" height="39px"
>
	<g id="Layer%201">
		<g id="1737376_dollar_money_sign_icon">
			<path d="M 19.5 35.9241 C 10.4434 35.9241 3.0758 28.5566 3.0758 19.5005 C 3.0758 10.4434 10.4434 3.0758 19.5 3.0758 C 28.5566 3.0758 35.9242 10.4434 35.9242 19.5005 C 35.9242 28.5566 28.5566 35.9241 19.5 35.9241 L 19.5 35.9241 ZM 19.5 0 C 8.7469 0 0 8.7481 0 19.5006 C 0 30.2531 8.7469 39 19.5 39 C 30.2524 39 39 30.2531 39 19.5006 C 39 8.7481 30.2527 0 19.5 0 L 19.5 0 Z" fill="#d8b666"/>
			<path d="M 16.4165 15.6788 C 16.4165 14.4451 18.2207 14.2344 19.7859 14.2344 C 21.2611 14.2344 23.2767 14.9258 24.9622 15.7996 L 25.2925 12.3993 C 24.4495 11.9174 22.4941 11.3456 20.5081 11.2261 L 20.9895 7.7654 L 17.7698 7.7654 L 18.2517 11.2261 C 14.0996 11.6167 12.7452 14.0237 12.7452 16.0399 C 12.7452 21.1248 22.2227 20.0427 22.2227 23.1708 C 22.2227 24.3453 21.1102 24.7656 19.1538 24.7656 C 16.5066 24.7656 14.5198 23.8338 13.4976 22.8701 L 12.9856 26.6918 C 13.9492 27.2637 15.9041 27.7751 18.2517 27.8959 L 17.7698 31.2358 L 20.9895 31.2358 L 20.5081 27.8652 C 25.3826 27.4437 26.2549 24.8556 26.2549 23.1412 C 26.2551 17.0936 16.4165 18.5972 16.4165 15.6788 L 16.4165 15.6788 Z" fill="#d8b666"/>
		</g>
	</g>
</svg>