<?xml version="1.0" standalone="no"?>
<!-- Generator: Adobe Fireworks 10, Export SVG Extension by Aaron Beall (http://fireworks.abeall.com) . Version: 0.6.1  -->
<!DOCTYPE svg PUBLIC "-//W3C//DTD SVG 1.1//EN" "http://www.w3.org/Graphics/SVG/1.1/DTD/svg11.dtd">
<svg id="Untitled-Page%201" viewBox="0 0 50 50" style="background-color:#ffffff00" version="1.1"
	xmlns="http://www.w3.org/2000/svg" xmlns:xlink="http://www.w3.org/1999/xlink" xml:space="preserve"
	x="0px" y="0px" width="50px" height="50px"
>
	<g id="Layer%201">
		<path d="M 11.0982 31.4698 C 13.1172 31.4584 15.0594 30.6807 16.5433 29.2924 L 30.9879 37.6774 C 30.8032 38.3224 30.7108 38.9949 30.7108 39.6672 C 30.6747 44.2327 34.2935 47.9655 38.791 47.9998 C 43.2886 48.0363 46.9659 44.3652 46.9998 39.7976 C 47.0358 35.2323 43.4193 31.5018 38.9194 31.4652 C 36.8555 31.4492 34.8613 32.2291 33.3426 33.6472 L 18.8969 25.2634 C 19.0714 24.6858 19.165 24.0865 19.174 23.4828 L 33.3651 15.2384 C 36.6639 18.2655 41.7563 18.0037 44.7374 14.6552 C 47.7185 11.3054 47.4617 6.1364 44.1628 3.1091 C 40.864 0.0831 35.7716 0.3439 32.7883 3.6935 C 31.4408 5.2076 30.6995 7.1793 30.7108 9.2195 C 30.7198 9.892 30.8121 10.5621 30.9879 11.2106 L 17.8592 18.8225 C 15.438 15.0199 10.438 13.9301 6.6931 16.3877 C 2.947 18.8453 1.8733 23.9208 4.2944 27.7233 C 5.7861 30.0654 8.3503 31.4767 11.0982 31.4698 ZM 38.7865 36.1541 C 40.6973 36.1541 42.2476 37.7277 42.2476 39.6672 C 42.2476 41.6068 40.6973 43.1805 38.7865 43.1805 C 36.8757 43.1805 35.3254 41.6068 35.3254 39.6672 C 35.3254 37.7277 36.8757 36.1541 38.7865 36.1541 ZM 38.7865 5.7063 C 40.6973 5.7063 42.2476 7.2788 42.2476 9.2195 C 42.2476 11.1603 40.6973 12.7327 38.7865 12.7327 C 36.8757 12.7327 35.3254 11.1603 35.3254 9.2195 C 35.3254 7.2788 36.8757 5.7063 38.7865 5.7063 ZM 11.0982 19.7592 C 13.0101 19.7592 14.5593 21.3315 14.5593 23.2723 C 14.5593 25.213 13.0101 26.7855 11.0982 26.7855 C 9.1863 26.7855 7.6372 25.213 7.6372 23.2723 C 7.6372 21.3315 9.1863 19.7592 11.0982 19.7592 Z" fill="#ffffff"/>
	</g>
</svg>