<?xml version="1.0" standalone="no"?>
<!-- Generator: Adobe Fireworks 10, Export SVG Extension by Aaron Beall (http://fireworks.abeall.com) . Version: 0.6.1  -->
<!DOCTYPE svg PUBLIC "-//W3C//DTD SVG 1.1//EN" "http://www.w3.org/Graphics/SVG/1.1/DTD/svg11.dtd">
<svg id="Untitled-Page%201" viewBox="0 0 50 50" style="background-color:#ffffff00" version="1.1"
	xmlns="http://www.w3.org/2000/svg" xmlns:xlink="http://www.w3.org/1999/xlink" xml:space="preserve"
	x="0px" y="0px" width="50px" height="50px"
>
	<g id="Layer%201">
		<g>
			<path d="M 8 21.75 C 8 19.436 9.4192 18 11.7059 18 L 28.2941 18 C 30.5808 18 32 19.436 32 21.75 L 32 39.25 C 32 41.564 30.5808 43 28.2941 43 L 11.7059 43 C 9.4192 43 8 41.564 8 39.25 L 8 21.75 ZM 3 18.25 L 3 42.75 C 3 45.9895 5.0106 48 8.25 48 L 31.75 48 C 34.9894 48 37 45.9895 37 42.75 L 37 18.25 C 37 15.0105 34.9894 13 31.75 13 L 8.25 13 C 5.0106 13 3 15.0105 3 18.25 Z" fill="#ffffff"/>
			<path d="M 14 6.25 L 14 16 L 19 16 L 19 9.75 C 19 7.436 20.4192 6 22.7059 6 L 39.2941 6 C 41.5808 6 43 7.436 43 9.75 L 43 27.25 C 43 29.564 41.5808 31 39.2941 31 L 35 31 L 35 36 L 42.75 36 C 45.9894 36 48 33.9895 48 30.75 L 48 6.25 C 48 3.0105 45.9894 1 42.75 1 L 19.25 1 C 16.0106 1 14 3.0105 14 6.25 Z" fill="#ffffff"/>
		</g>
	</g>
</svg>