<svg width="22" height="23" viewBox="0 0 22 23" fill="none" xmlns="http://www.w3.org/2000/svg">
<path d="M16.4999 2.6516C16.4999 2.52589 16.475 2.40142 16.4267 2.28535C16.3785 2.16929 16.3077 2.06392 16.2185 1.97532C16.1293 1.88671 16.0235 1.81662 15.9071 1.76907C15.7908 1.72152 15.6662 1.69746 15.5404 1.69826H3.40378C3.27807 1.69746 3.15345 1.72152 3.03708 1.76907C2.92071 1.81662 2.81489 1.88671 2.72572 1.97532C2.63654 2.06392 2.56578 2.16929 2.51748 2.28535C2.46919 2.40142 2.44433 2.52589 2.44434 2.6516V17.856C2.44433 17.9817 2.46919 18.1062 2.51748 18.2223C2.56578 18.3383 2.63654 18.4437 2.72572 18.5323C2.81489 18.6209 2.92071 18.691 3.03708 18.7386C3.15345 18.7861 3.27807 18.8102 3.40378 18.8094H3.72156V2.96326H16.4999V2.6516Z" fill="#0C56DB"/>
<path d="M18.0276 4.14258H5.80534C5.29908 4.14258 4.88867 4.55298 4.88867 5.05924V20.337C4.88867 20.8433 5.29908 21.2537 5.80534 21.2537H18.0276C18.5338 21.2537 18.9442 20.8433 18.9442 20.337V5.05924C18.9442 4.55298 18.5338 4.14258 18.0276 4.14258Z" fill="#0C56DB"/>
</svg>
