<?xml version="1.0" standalone="no"?>
<!-- Generator: Adobe Fireworks 10, Export SVG Extension by Aaron Beall (http://fireworks.abeall.com) . Version: 0.6.1  -->
<!DOCTYPE svg PUBLIC "-//W3C//DTD SVG 1.1//EN" "http://www.w3.org/Graphics/SVG/1.1/DTD/svg11.dtd">
<svg id="Untitled-Page%201" viewBox="0 0 180 180" style="background-color:#ffffff00" version="1.1"
	xmlns="http://www.w3.org/2000/svg" xmlns:xlink="http://www.w3.org/1999/xlink" xml:space="preserve"
	x="0px" y="0px" width="180px" height="180px"
>
	<g id="Layer%201">
		<g>
			<path d="M 151.2855 169 C 112.6863 169 74.0869 169 35.4876 169 C 35.1723 168.8969 34.864 168.7395 34.5409 168.6984 C 22.6318 167.1862 12.9947 158.7169 9.9708 147.0742 C 9.6064 145.6711 9.3218 144.2474 9 142.8334 C 9 106.0187 9 69.2043 9 32.3896 C 9.1068 32.142 9.2651 31.9038 9.3123 31.6453 C 10.9221 22.8225 15.9673 16.7986 24.2322 13.4877 C 25.9783 12.7882 27.883 12.4856 29.7147 12 C 60.6167 12 91.5189 12 122.4208 12 C 123.45 12.6624 124.6704 13.1505 125.4671 14.0249 C 126.9505 15.653 127.2618 17.656 126.2771 19.7026 C 125.2138 21.9135 123.4059 22.8887 120.9471 22.8871 C 92.7651 22.8687 64.583 22.8752 36.401 22.8763 C 34.8732 22.8763 33.3433 22.838 31.8178 22.9009 C 24.9148 23.1852 19.5358 29.0909 19.8877 35.9651 C 20.2254 42.5583 25.6897 47.6843 32.4654 47.6866 C 67.8342 47.6982 103.2033 47.6923 138.5723 47.6926 C 144.2878 47.6926 150.004 47.645 155.719 47.7092 C 160.2704 47.7603 164.1698 49.4335 167.3987 52.6913 C 169.9666 55.2819 171.1907 58.5068 172 61.9546 C 172 90.7266 172 119.4984 172 148.2706 C 171.8962 148.5879 171.7516 148.8981 171.6946 149.2235 C 170.1314 158.1165 165.0766 164.1815 156.7567 167.5126 C 155.0141 168.2103 153.1133 168.5146 151.2855 169 ZM 19.8604 55.5377 C 19.8604 55.8411 19.8604 56.4391 19.8604 57.0372 C 19.8604 84.3285 19.8576 111.6195 19.8619 138.9103 C 19.8635 150.1926 27.7658 158.0989 39.0703 158.1213 C 46.9915 158.1373 54.9129 158.1248 62.8339 158.1248 C 91.2371 158.1248 119.6405 158.1323 148.0436 158.119 C 155.8473 158.1154 161.1259 152.8015 161.1385 145.0062 C 161.1451 141.0994 161.1398 137.1926 161.1398 133.2859 C 161.1398 132.7487 161.1398 132.2119 161.1398 131.6071 C 153.974 131.6071 147.0709 131.7361 140.175 131.5725 C 132.5281 131.3917 126.5493 127.9564 122.2743 121.601 C 119.1591 116.97 118.5351 111.7529 118.7645 106.3458 C 119.2821 94.1583 128.7316 85.0813 140.9186 85.0702 C 147.0291 85.0645 153.1398 85.0692 159.2506 85.0692 C 159.8481 85.0692 160.4455 85.0692 161.1398 85.0692 C 161.1398 78.3306 161.1401 71.8264 161.1395 65.3223 C 161.1391 60.5062 159.183 58.5576 154.3441 58.5576 C 114.0588 58.5571 73.774 58.5591 33.4889 58.5497 C 32.1351 58.5493 30.7262 58.6543 29.4388 58.3298 C 26.2512 57.5271 23.119 56.5035 19.8604 55.5377 ZM 161.0569 96.0313 C 160.7718 95.993 160.5586 95.9393 160.3457 95.9393 C 153.5629 95.9363 146.7787 95.8796 139.9966 95.9675 C 137.1144 96.005 134.6736 97.2661 132.6534 99.348 C 129.8495 102.2375 129.4954 105.8242 129.6032 109.585 C 129.7905 116.1162 134.4507 120.7251 140.9747 120.7404 C 147.1362 120.7546 153.2977 120.7433 159.4595 120.7437 C 159.9956 120.7437 160.5317 120.7437 161.0569 120.7437 C 161.0569 112.3514 161.0569 104.2253 161.0569 96.0313 Z" fill="#d8b666"/>
			<path d="M 79.6565 29.9153 C 93.2383 29.9155 106.8198 29.9105 120.4014 29.9193 C 123.5445 29.9213 125.4233 31.2131 126.2114 33.8417 C 127.0692 36.7045 125.2675 39.8866 122.3622 40.5287 C 121.4879 40.7218 120.5668 40.77 119.6674 40.7705 C 92.9568 40.7826 66.2464 40.7816 39.536 40.7788 C 35.826 40.7783 33.7858 39.4666 32.9985 36.6078 C 32.1494 33.5242 34.363 30.2882 37.5561 29.9742 C 38.2298 29.9078 38.9123 29.9176 39.5909 29.9175 C 52.946 29.9144 66.3014 29.9153 79.6565 29.9153 Z" fill="#d8b666"/>
		</g>
	</g>
</svg>