<?xml version="1.0" standalone="no"?>
<!-- Generator: Adobe Fireworks 10, Export SVG Extension by Aaron Beall (http://fireworks.abeall.com) . Version: 0.6.1  -->
<!DOCTYPE svg PUBLIC "-//W3C//DTD SVG 1.1//EN" "http://www.w3.org/Graphics/SVG/1.1/DTD/svg11.dtd">
<svg id="Untitled-Page%201" viewBox="0 0 180 180" style="background-color:#ffffff00" version="1.1"
	xmlns="http://www.w3.org/2000/svg" xmlns:xlink="http://www.w3.org/1999/xlink" xml:space="preserve"
	x="0px" y="0px" width="180px" height="180px"
>
	<g id="Layer%201">
		<g>
			<path d="M 54.283 129.1581 C 54.9141 129.8223 55.2548 130.1979 55.6129 130.5557 C 60.3382 135.2783 65.0822 139.9829 69.7863 144.7262 C 72.1932 147.1533 73.2274 150.0365 72.1879 153.4075 C 71.1227 156.861 68.744 159.0256 65.228 159.7975 C 62.1527 160.4728 59.5316 159.4178 57.3394 157.2499 C 54.4084 154.3511 51.5038 151.426 48.5865 148.5135 C 41.5118 141.4497 34.4343 134.3888 27.3617 127.3224 C 22.8623 122.8273 22.8812 117.7904 27.4078 113.2698 C 37.3315 103.3589 47.2407 93.4338 57.1873 83.5464 C 61.6902 79.0703 68.3318 79.9318 71.4 85.3198 C 73.4663 88.9487 72.8644 92.8091 69.6503 96.0469 C 64.9771 100.7546 60.2676 105.4263 55.5764 110.1161 C 55.2247 110.4675 54.8949 110.8413 54.3235 111.4514 C 55.2291 111.4514 55.8223 111.4514 56.4155 111.4514 C 86.052 111.4514 115.6889 111.4503 145.3254 111.4534 C 150.0647 111.4537 153.1786 113.4937 154.4698 117.4155 C 156.3129 123.0129 152.818 128.4528 146.9695 129.0699 C 146.2645 129.1444 145.5504 129.1547 144.8403 129.1547 C 115.3931 129.1588 85.946 129.1581 56.4988 129.1581 C 55.8887 129.1581 55.2784 129.1581 54.283 129.1581 Z" fill="#d8b666"/>
			<path d="M 124.3785 67.552 C 123.7808 67.552 123.183 67.552 122.5852 67.552 C 92.9412 67.552 63.2975 67.5537 33.6537 67.5503 C 29.1455 67.5496 26.0233 65.5884 24.6677 61.938 C 22.5601 56.2634 26.1098 50.5442 32.1337 49.9276 C 32.8391 49.8555 33.5537 49.849 34.2638 49.8489 C 63.718 49.8451 93.1719 49.8457 122.626 49.8457 C 123.2159 49.8457 123.8056 49.8457 124.7325 49.8457 C 124.1365 49.2056 123.8071 48.8293 123.4547 48.4769 C 118.729 43.7522 113.9907 39.0403 109.2762 34.3047 C 106.8558 31.8733 105.8381 28.9825 106.8461 25.6213 C 107.8839 22.1606 110.2702 20.0052 113.785 19.2078 C 116.455 18.6016 118.8494 19.3516 120.943 21.0728 C 121.4537 21.4928 121.9177 21.9724 122.3869 22.4408 C 132.1147 32.1498 141.8406 41.861 151.5657 51.5724 C 156.1583 56.1582 156.1438 61.2373 151.5276 65.8458 C 141.6338 75.7238 131.7493 85.6115 121.8403 95.4744 C 118.0749 99.2224 112.5969 99.3171 109.145 95.7604 C 105.6487 92.1582 105.6565 86.7037 109.1976 83.1476 C 113.8792 78.4463 118.5811 73.7654 123.2856 69.0872 C 123.687 68.6879 124.1736 68.374 124.6205 68.0205 C 124.5402 67.8645 124.4594 67.7083 124.3785 67.552 Z" fill="#d8b666"/>
		</g>
	</g>
</svg>