<?xml version="1.0" standalone="no"?>
<!-- Generator: Adobe Fireworks 10, Export SVG Extension by Aaron Beall (http://fireworks.abeall.com) . Version: 0.6.1  -->
<!DOCTYPE svg PUBLIC "-//W3C//DTD SVG 1.1//EN" "http://www.w3.org/Graphics/SVG/1.1/DTD/svg11.dtd">
<svg id="Untitled-Page%201" viewBox="0 0 180 180" style="background-color:#ffffff00" version="1.1"
	xmlns="http://www.w3.org/2000/svg" xmlns:xlink="http://www.w3.org/1999/xlink" xml:space="preserve"
	x="0px" y="0px" width="180px" height="180px"
>
	<g id="Layer%201">
		<g>
			<g>
				<path d="M 90 4 C 137.4972 4 176 42.5029 176 90 C 176 137.4971 137.4972 176 90 176 C 42.5028 176 4 137.4971 4 90 C 4 42.5029 42.5028 4 90 4 ZM 90 17.5393 C 130.0203 17.5393 162.4612 49.9805 162.4612 90 C 162.4612 130.0195 130.0203 162.4607 90 162.4607 C 49.9797 162.4607 17.5388 130.0195 17.5388 90 C 17.5388 49.9805 49.9797 17.5393 90 17.5393 Z" fill="#d8b666"/>
			</g>
			<g>
				<path d="M 88.8219 39.3423 C 107.0408 39.3423 121.8082 54.1104 121.8082 72.3286 C 121.8082 90.5469 107.0408 105.3149 88.8219 105.3149 C 70.6031 105.3149 55.8356 90.5469 55.8356 72.3286 C 55.8356 54.1104 70.6031 39.3423 88.8219 39.3423 ZM 88.8219 50.4263 C 100.918 50.4263 110.7246 60.2322 110.7246 72.3286 C 110.7246 84.4253 100.918 94.2314 88.8219 94.2314 C 76.7259 94.2314 66.9193 84.4253 66.9193 72.3286 C 66.9193 60.2322 76.7259 50.4263 88.8219 50.4263 Z" fill="#d8b666"/>
			</g>
			<path d="M 88.8219 132.332 C 106.8083 132.332 123.0185 139.9263 134.4254 152.0845 L 140.6575 147.7261 L 147.7847 144.1682 C 133.5269 127.5952 112.3997 117.0959 88.8219 117.0959 C 66.5741 117.0959 46.5156 126.4341 32.3453 141.4111 L 41.8275 153.6165 C 53.2874 140.5713 70.0945 132.332 88.8219 132.332 Z" fill="#d8b666"/>
		</g>
	</g>
</svg>