<?xml version="1.0" standalone="no"?>
<!-- Generator: Adobe Fireworks 10, Export SVG Extension by Aaron Beall (http://fireworks.abeall.com) . Version: 0.6.1  -->
<!DOCTYPE svg PUBLIC "-//W3C//DTD SVG 1.1//EN" "http://www.w3.org/Graphics/SVG/1.1/DTD/svg11.dtd">
<svg id="Untitled-Page%201" viewBox="0 0 180 180" style="background-color:#ffffff00" version="1.1"
	xmlns="http://www.w3.org/2000/svg" xmlns:xlink="http://www.w3.org/1999/xlink" xml:space="preserve"
	x="0px" y="0px" width="180px" height="180px"
>
	<g id="Layer%201">
		<g>
			<path d="M 149.6563 7 C 150.521 7 151.3853 7 152.2499 7 C 153.0652 7.5905 154.0258 8.0547 154.668 8.7954 C 156.4218 10.8191 156.1571 13.5179 154.0714 15.6268 C 150.7751 18.9607 147.4414 22.2571 144.0633 25.6289 C 147.4456 29.0005 150.719 32.293 154.0287 35.5488 C 155.3997 36.8975 156.0182 38.4663 155.7433 40.373 C 155.6049 41.3333 155.3199 42.2935 155.3384 43.2488 C 155.3549 44.0916 155.4782 45.084 155.9388 45.7402 C 157.9236 48.5654 160.071 51.2754 162.1196 54.0569 C 165.7612 59.002 169.3745 63.9683 173 68.9258 C 173 98.5376 173 128.1497 173 157.7615 C 172.8835 158.1045 172.7395 158.4399 172.655 158.79 C 171.038 165.4717 166.9911 169.9512 160.4966 172.2041 C 159.6007 172.5149 158.6743 172.7368 157.7615 173 C 132.2565 173 106.7511 173 81.2461 173 C 81.0088 172.895 80.7812 172.7412 80.5329 172.6914 C 73.0769 171.1958 67.6027 165.6577 66.2993 158.187 C 66.0074 156.5134 66.3798 154.5645 65.6375 153.1743 C 64.8836 151.7627 63.0424 150.9727 61.8268 149.7603 C 46.4256 134.3992 31.0921 118.9702 15.6423 103.6582 C 11.6775 99.7292 8.0019 95.7444 7 90 C 7 88.271 7 86.5415 7 84.8125 C 7.1136 84.5244 7.2708 84.2456 7.3342 83.9468 C 8.057 80.5352 9.5841 77.5376 12.0484 75.0703 C 31.9017 55.1956 51.7583 35.3237 71.6701 15.5078 C 72.5172 14.6647 73.8647 14.1041 75.0663 13.8793 C 78.5089 13.2358 81.9959 12.8297 85.4661 12.3359 C 94.1696 11.098 102.876 9.879 111.5761 8.6188 C 114.9821 8.1256 118.3746 7.5421 121.7734 7 C 122.7462 7 123.7185 7 124.6913 7 C 125.8271 7.8782 127.0578 8.6587 128.0808 9.6526 C 131.1288 12.6135 134.0948 15.6581 137.1542 18.7313 C 140.2034 15.6766 143.1352 12.6714 146.1511 9.7533 C 147.2134 8.7258 148.4817 7.9115 149.6563 7 ZM 130.4376 39.6025 C 131.4399 40.5703 132.5491 41.5835 133.5919 42.6614 C 135.5861 44.7227 135.6469 47.7163 133.7773 49.6436 C 131.8858 51.5933 128.8547 51.6792 126.8036 49.6685 C 122.2137 45.1685 117.6716 40.6189 113.1653 36.0356 C 111.1463 33.9822 111.1754 30.9541 113.0804 29.0542 C 115.0391 27.1006 118.0718 27.1475 120.1698 29.2517 C 121.2241 30.3093 122.1407 31.5044 123.0746 32.5857 C 125.6586 30.0083 127.871 27.802 130.1573 25.522 C 127.5218 22.8923 124.8648 20.2065 122.15 17.5802 C 121.843 17.2834 121.1891 17.1637 120.7335 17.2277 C 107.327 19.1021 93.9285 21.0365 80.5186 22.8854 C 78.5125 23.1619 76.9767 23.8799 75.5074 25.3574 C 56.9963 43.9736 38.4135 62.5186 19.8507 81.0837 C 15.6756 85.2593 15.6689 89.7737 19.8357 93.9414 C 36.1439 110.2539 52.4556 126.5625 68.7657 142.873 C 73.0414 147.1489 77.4702 147.1563 81.7407 142.8867 C 99.8475 124.7822 117.9203 106.6438 136.0986 88.6118 C 138.3853 86.3433 139.7043 84.0454 140.1206 80.7549 C 141.7571 67.8127 143.7335 54.9136 145.5579 41.9949 C 145.6166 41.5771 145.5418 40.9756 145.278 40.7034 C 142.6244 37.9644 139.918 35.2759 137.3568 32.7043 C 135.0224 35.0317 132.8138 37.2334 130.4376 39.6025 ZM 75.8265 155.8169 C 76.5654 160.5522 79.6949 163.27 84.3284 163.2727 C 107.777 163.2866 131.2255 163.2878 154.6739 163.2722 C 159.7666 163.2688 163.2667 159.8071 163.2701 154.7407 C 163.2887 127.5103 163.2841 100.2798 163.2507 73.0493 C 163.2499 72.3599 162.9758 71.5581 162.568 70.9995 C 159.7991 67.2051 156.9568 63.4639 154.1487 59.6985 C 153.9067 59.3745 153.7378 58.9971 153.3743 58.3647 C 153.0923 59.1394 152.9838 59.3311 152.9546 59.5344 C 151.7289 68.1836 150.45 76.8262 149.3261 85.4888 C 148.9571 88.334 147.975 90.6045 145.872 92.6924 C 127.0831 111.3423 108.3568 130.0564 89.7013 148.8406 C 85.8264 152.7422 81.5644 155.5491 75.8265 155.8169 Z" fill="#d8b666"/>
			<path d="M 96.2443 48.6104 C 96.0839 49.2981 95.9707 50.0457 95.7351 50.7524 C 88.2681 73.1777 80.7829 95.5962 73.3224 118.0229 C 72.6487 120.0474 71.5928 121.6514 69.3697 122.0718 C 65.4264 122.8184 62.5684 119.3279 63.8826 115.3464 C 66.5153 107.3691 69.2003 99.4082 71.8571 91.4387 C 76.7282 76.8276 81.5925 62.2144 86.4648 47.6035 C 87.3314 45.0049 89.0367 43.6484 91.369 43.6626 C 93.4315 43.6753 95.2027 44.9502 95.8913 46.9648 C 96.0628 47.4661 96.1185 48.0068 96.2443 48.6104 Z" fill="#d8b666"/>
			<path d="M 107.2932 97.5073 C 99.204 97.4717 92.604 90.8223 92.7193 82.825 C 92.8358 74.7505 99.4578 68.2471 107.5022 68.3074 C 115.4313 68.3667 122.0322 75.0342 122.0014 82.9536 C 121.9697 91.022 115.3798 97.5425 107.2932 97.5073 ZM 112.1355 82.9253 C 112.1351 80.2295 109.9582 78.0454 107.3071 78.0811 C 104.7033 78.116 102.6011 80.2393 102.575 82.8608 C 102.5479 85.5735 104.6447 87.7339 107.3215 87.7515 C 109.9954 87.7693 112.136 85.623 112.1355 82.9253 Z" fill="#d8b666"/>
			<path d="M 52.2405 97.5073 C 44.1125 97.4485 37.6931 90.9202 37.766 82.7869 C 37.8382 74.707 44.4319 68.2358 52.5193 68.3071 C 60.5232 68.3774 67.0365 75.0747 66.9531 83.1479 C 66.871 91.105 60.2518 97.5654 52.2405 97.5073 ZM 52.3828 87.7505 C 54.9906 87.729 57.2213 85.4673 57.184 82.8833 C 57.1462 80.2852 54.8576 78.0439 52.2821 78.083 C 49.6747 78.1226 47.484 80.373 47.5107 82.9841 C 47.5377 85.6235 49.734 87.7722 52.3828 87.7505 Z" fill="#d8b666"/>
		</g>
	</g>
</svg>