<svg width="35" height="35" viewBox="0 0 35 35" fill="none" xmlns="http://www.w3.org/2000/svg">
<path d="M28.2754 5.6335H3.9698C3.37957 5.6335 2.81351 5.86796 2.39616 6.28532C1.9788 6.70267 1.74434 7.26873 1.74434 7.85896V27.1414C1.74434 27.7316 1.9788 28.2977 2.39616 28.715C2.81351 29.1324 3.37957 29.3668 3.9698 29.3668H28.2754C28.8656 29.3668 29.4316 29.1324 29.849 28.715C30.2664 28.2977 30.5008 27.7316 30.5008 27.1414V7.85896C30.5008 7.26873 30.2664 6.70267 29.849 6.28532C29.4316 5.86796 28.8656 5.6335 28.2754 5.6335ZM28.0754 26.9414H4.1698V8.05896H28.0754V26.9414Z" fill="#0C56DB" stroke="#0C56DB" stroke-width="0.4"/>
<path d="M9.03348 14.1351H19.1608C19.4824 14.1351 19.7909 14.0074 20.0183 13.7799C20.2458 13.5525 20.3735 13.244 20.3735 12.9224C20.3735 12.6008 20.2458 12.2923 20.0183 12.0649C19.7909 11.8374 19.4824 11.7097 19.1608 11.7097H9.03348C8.71185 11.7097 8.40338 11.8374 8.17595 12.0649C7.94852 12.2923 7.82075 12.6008 7.82075 12.9224C7.82075 13.244 7.94852 13.5525 8.17595 13.7799C8.40338 14.0074 8.71185 14.1351 9.03348 14.1351Z" fill="#0C56DB" stroke="#0C56DB" stroke-width="0.4"/>
<path d="M9.03348 18.1859H17.1353C17.457 18.1859 17.7654 18.0581 17.9929 17.8307C18.2203 17.6033 18.3481 17.2948 18.3481 16.9732C18.3481 16.6515 18.2203 16.3431 17.9929 16.1156C17.7654 15.8882 17.457 15.7604 17.1353 15.7604H9.03348C8.71185 15.7604 8.40338 15.8882 8.17595 16.1156C7.94852 16.3431 7.82075 16.6515 7.82075 16.9732C7.82075 17.2948 7.94852 17.6033 8.17595 17.8307C8.40338 18.0581 8.71185 18.1859 9.03348 18.1859Z" fill="#0C56DB" stroke="#0C56DB" stroke-width="0.4"/>
<path d="M9.03348 22.2372H21.1863C21.5079 22.2372 21.8164 22.1094 22.0438 21.882C22.2712 21.6545 22.399 21.3461 22.399 21.0245C22.399 20.7028 22.2712 20.3944 22.0438 20.1669C21.8164 19.9395 21.5079 19.8117 21.1863 19.8117H9.03348C8.71185 19.8117 8.40338 19.9395 8.17595 20.1669C7.94852 20.3944 7.82075 20.7028 7.82075 21.0245C7.82075 21.3461 7.94852 21.6546 8.17595 21.882C8.40338 22.1094 8.71185 22.2372 9.03348 22.2372Z" fill="#0C56DB" stroke="#0C56DB" stroke-width="0.4"/>
</svg>
