<?xml version="1.0" standalone="no"?>
<!-- Generator: Adobe Fireworks 10, Export SVG Extension by Aaron Beall (http://fireworks.abeall.com) . Version: 0.6.1  -->
<!DOCTYPE svg PUBLIC "-//W3C//DTD SVG 1.1//EN" "http://www.w3.org/Graphics/SVG/1.1/DTD/svg11.dtd">
<svg id="Untitled-Page%201" viewBox="0 0 80 80" style="background-color:#ffffff00" version="1.1"
	xmlns="http://www.w3.org/2000/svg" xmlns:xlink="http://www.w3.org/1999/xlink" xml:space="preserve"
	x="0px" y="0px" width="80px" height="80px"
>
	<g id="Layer%201">
		<g>
			<path d="M 19 18.65 L 19 68.0499 C 19 68.5746 19.4185 69 19.9349 69 L 55.4566 69 C 55.9725 69 56.3911 68.5746 56.3911 68.0499 L 56.3911 28.1503 C 56.3911 28.129 56.381 28.1111 56.3791 28.0903 C 56.3745 28.007 56.3583 27.9248 56.3315 27.8462 C 56.321 27.8157 56.3137 27.7863 56.3006 27.7566 C 56.2552 27.6532 56.192 27.559 56.1135 27.4784 L 46.7658 17.9785 C 46.6865 17.8982 46.5933 17.8341 46.4909 17.7882 C 46.4628 17.7761 46.4342 17.766 46.405 17.757 C 46.3269 17.7296 46.2456 17.7131 46.1628 17.7076 C 46.147 17.7104 46.1286 17.7003 46.1089 17.7003 L 19.9349 17.7003 C 19.4185 17.7003 19 18.1252 19 18.65 ZM 53.1999 27.2001 L 47.0434 27.2001 L 47.0434 20.9435 L 53.1999 27.2001 ZM 20.8694 19.6001 L 45.174 19.6001 L 45.174 28.1503 C 45.174 28.6746 45.5926 29.0999 46.1085 29.0999 L 54.5217 29.0999 L 54.5217 67.1002 L 20.8694 67.1002 L 20.8694 19.6001 Z" fill="#395465"/>
			<path d="M 58.2608 61.3999 L 58.2608 63.2998 L 61.0651 63.2998 C 61.5815 63.2998 62 62.8749 62 62.35 L 62 12.9501 C 62 12.4254 61.5815 12 61.0651 12 L 25.5434 12 C 25.0271 12 24.6085 12.4254 24.6085 12.9501 L 24.6085 15.8 L 26.4783 15.8 L 26.4783 13.8998 L 60.1302 13.8998 L 60.1302 61.3999 L 58.2608 61.3999 Z" fill="#395465"/>
			<path d="M 26.4783 31.0001 L 48.9128 31.0001 L 48.9128 32.8999 L 26.4783 32.8999 L 26.4783 31.0001 Z" fill="#395465"/>
			<path d="M 26.4783 25.2999 L 33.9566 25.2999 L 33.9566 27.2001 L 26.4783 27.2001 L 26.4783 25.2999 Z" fill="#395465"/>
			<path d="M 26.4783 36.7 L 41.4349 36.7 L 41.4349 38.6002 L 26.4783 38.6002 L 26.4783 36.7 Z" fill="#395465"/>
			<path d="M 43.3043 36.7 L 48.9128 36.7 L 48.9128 38.6002 L 43.3043 38.6002 L 43.3043 36.7 Z" fill="#395465"/>
			<path d="M 26.4783 42.3999 L 48.9128 42.3999 L 48.9128 44.3 L 26.4783 44.3 L 26.4783 42.3999 Z" fill="#395465"/>
			<path d="M 26.4783 53.7999 L 48.9128 53.7999 L 48.9128 55.7002 L 26.4783 55.7002 L 26.4783 53.7999 Z" fill="#395465"/>
			<path d="M 34.8911 48.1 L 48.9128 48.1 L 48.9128 49.9999 L 34.8911 49.9999 L 34.8911 48.1 Z" fill="#395465"/>
			<path d="M 26.4783 48.1 L 33.0217 48.1 L 33.0217 49.9999 L 26.4783 49.9999 L 26.4783 48.1 Z" fill="#395465"/>
			<path d="M 26.4783 59.5001 L 30.2174 59.5001 L 30.2174 61.3999 L 26.4783 61.3999 L 26.4783 59.5001 Z" fill="#395465"/>
			<path d="M 32.0868 59.5001 L 48.9128 59.5001 L 48.9128 61.3999 L 32.0868 61.3999 L 32.0868 59.5001 Z" fill="#395465"/>
		</g>
	</g>
</svg>