<svg width="28" height="28" viewBox="0 0 28 28" fill="none" xmlns="http://www.w3.org/2000/svg">
<path d="M3.3011 17.5033L1.87933 23.6394C1.83028 23.8637 1.83196 24.0961 1.88425 24.3197C1.93654 24.5432 2.03811 24.7523 2.18154 24.9316C2.32497 25.1109 2.50665 25.2559 2.71329 25.356C2.91993 25.4561 3.14633 25.5087 3.37593 25.5101C3.48291 25.5209 3.59071 25.5209 3.6977 25.5101L9.87117 24.0883L21.7242 12.2802L15.1093 5.68018L3.3011 17.5033Z" fill="white"/>
<path d="M25.4504 6.36857L21.0355 1.9536C20.7452 1.66481 20.3524 1.50269 19.9429 1.50269C19.5335 1.50269 19.1407 1.66481 18.8504 1.9536L16.396 4.40802L23.0035 11.0155L25.4579 8.56108C25.6015 8.41672 25.7153 8.24545 25.7927 8.05708C25.87 7.8687 25.9095 7.66692 25.9088 7.46327C25.9081 7.25963 25.8673 7.05812 25.7886 6.87028C25.71 6.68243 25.595 6.51195 25.4504 6.36857Z" fill="white"/>
</svg>
