<?xml version="1.0" standalone="no"?>
<!-- Generator: Adobe Fireworks 10, Export SVG Extension by Aaron Beall (http://fireworks.abeall.com) . Version: 0.6.1  -->
<!DOCTYPE svg PUBLIC "-//W3C//DTD SVG 1.1//EN" "http://www.w3.org/Graphics/SVG/1.1/DTD/svg11.dtd">
<svg id="Untitled-Page%201" viewBox="0 0 35 35" style="background-color:#ffffff00" version="1.1"
	xmlns="http://www.w3.org/2000/svg" xmlns:xlink="http://www.w3.org/1999/xlink" xml:space="preserve"
	x="0px" y="0px" width="35px" height="35px"
>
	<g id="Layer%201">
		<path d="M 29.5 2 L 29 2 L 7.5 2 C 6.1193 2 5 3.1193 5 4.5 C 5 5.8807 6.1193 7 7.5 7 L 25.0601 7 L 2.6616 29.2681 C 1.696 30.228 1.8021 31.6692 2.8833 32.4753 C 3.948 33.269 5.5601 33.1467 6.499 32.2134 L 28 10.84 L 28 26.5 C 28 27.8807 29.1193 29 30.5 29 C 31.8807 29 33 27.8807 33 26.5 L 33 8 L 33 4.5 L 33 2 L 30.5 2 C 30.3287 2 30.1616 2.0172 30 2.05 C 29.8384 2.0172 29.6713 2 29.5 2 ZM 30.5 2 L 29.5 2 C 29.6713 2 29.8384 2.0172 30 2.05 C 30.1616 2.0172 30.3287 2 30.5 2 Z" fill="#000000"/>
	</g>
</svg>