<svg width="15" height="13" viewBox="0 0 15 13" fill="none" xmlns="http://www.w3.org/2000/svg">
<path d="M7.43366 8.35934C7.9268 8.35934 8.39973 8.16345 8.74844 7.81474C9.09714 7.46604 9.29303 6.9931 9.29303 6.49997C9.29303 6.44551 9.29054 6.39156 9.2859 6.33827L7.27196 8.3522C7.32525 8.35685 7.37904 8.35934 7.43366 8.35934ZM13.5882 0.748522L12.879 0.0399676C12.8541 0.0150793 12.8203 0.00109863 12.7851 0.00109863C12.7499 0.00109863 12.7161 0.0150793 12.6912 0.0399676L10.8763 1.85535C9.87514 1.34369 8.74972 1.08786 7.50006 1.08786C4.30924 1.08786 1.92858 2.74967 0.358073 6.07331C0.294946 6.20698 0.262207 6.35297 0.262207 6.5008C0.262207 6.64862 0.294946 6.79462 0.358073 6.92829C0.985612 8.2501 1.74126 9.30956 2.62502 10.1067L0.868737 11.8623C0.843849 11.8872 0.829868 11.9209 0.829868 11.9562C0.829868 11.9914 0.843849 12.0251 0.868737 12.05L1.57746 12.7588C1.60236 12.7836 1.63613 12.7976 1.67134 12.7976C1.70655 12.7976 1.74032 12.7836 1.76522 12.7588L13.5882 0.936452C13.6005 0.924117 13.6103 0.90947 13.617 0.893346C13.6237 0.877223 13.6271 0.859941 13.6271 0.842487C13.6271 0.825034 13.6237 0.807751 13.617 0.791628C13.6103 0.775505 13.6005 0.760857 13.5882 0.748522ZM4.51178 6.49997C4.51174 5.99529 4.64241 5.4992 4.89108 5.06004C5.13974 4.62087 5.49791 4.25361 5.93071 3.99401C6.3635 3.73441 6.85615 3.59134 7.36067 3.57874C7.86519 3.56613 8.36438 3.68442 8.8096 3.92208L8.00243 4.72924C7.6769 4.62501 7.32896 4.61246 6.99677 4.69296C6.66458 4.77347 6.36099 4.94391 6.1193 5.18561C5.8776 5.4273 5.70716 5.73089 5.62665 6.06308C5.54615 6.39527 5.5587 6.74321 5.66294 7.06874L4.85577 7.87591C4.62926 7.4527 4.51108 6.97998 4.51178 6.49997Z" fill="#0C56DB"/>
<path d="M14.6419 6.07173C14.0575 4.841 13.362 3.83743 12.5553 3.06104L10.1623 5.45415C10.364 5.98144 10.4087 6.55586 10.291 7.10801C10.1734 7.66016 9.89829 8.16642 9.49909 8.56562C9.09989 8.96482 8.59363 9.23988 8.04148 9.35758C7.48933 9.47527 6.91491 9.43056 6.38762 9.22885L4.35791 11.2586C5.29955 11.6943 6.34689 11.9122 7.49992 11.9122C10.6907 11.9122 13.0714 10.2503 14.6419 6.92671C14.7051 6.79304 14.7378 6.64705 14.7378 6.49922C14.7378 6.35139 14.7051 6.2054 14.6419 6.07173Z" fill="#0C56DB"/>
</svg>
