<svg width="135" height="135" viewBox="0 0 135 135" fill="none" xmlns="http://www.w3.org/2000/svg">
<path d="M32.7083 4.875H18.7917C15.1007 4.875 11.561 6.34122 8.9511 8.9511C6.34122 11.561 4.875 15.1007 4.875 18.7917V32.7083M102.292 4.875H116.208C119.899 4.875 123.439 6.34122 126.049 8.9511C128.659 11.561 130.125 15.1007 130.125 18.7917V32.7083M95.3333 39.6667V53.5833M39.6667 39.6667V53.5833M46.625 95.3333C46.625 95.3333 53.5833 102.292 67.5 102.292C81.4167 102.292 88.375 95.3333 88.375 95.3333M67.5 39.6667V74.4583H60.5417M32.7083 130.125H18.7917C15.1007 130.125 11.561 128.659 8.9511 126.049C6.34122 123.439 4.875 119.899 4.875 116.208V102.292M102.292 130.125H116.208C119.899 130.125 123.439 128.659 126.049 126.049C128.659 123.439 130.125 119.899 130.125 116.208V102.292" stroke="#0C56DB" stroke-width="8" stroke-linecap="round" stroke-linejoin="round"/>
</svg>
