<?xml version="1.0" encoding="UTF-8" standalone="no"?>
<svg xmlns:dc="http://purl.org/dc/elements/1.1/" xmlns:cc="http://creativecommons.org/ns#" xmlns:rdf="http://www.w3.org/1999/02/22-rdf-syntax-ns#" xmlns:svg="http://www.w3.org/2000/svg" xmlns="http://www.w3.org/2000/svg" xmlns:sodipodi="http://sodipodi.sourceforge.net/DTD/sodipodi-0.dtd" xmlns:inkscape="http://www.inkscape.org/namespaces/inkscape" id="Untitled-Page%201" viewBox="0 0 100 100" style="background-color:#ffffff" version="1.1" xml:space="preserve" x="0px" y="0px" width="100px" height="100px" sodipodi:docname="fingerprint.svg" inkscape:version="1.0.2 (1.0.2+r75+1)"><metadata id="metadata56"><rdf:RDF><cc:Work rdf:about=""><dc:format>image/svg+xml</dc:format><dc:type rdf:resource="http://purl.org/dc/dcmitype/StillImage" /></cc:Work></rdf:RDF></metadata><defs id="defs54">
		
		
	</defs><sodipodi:namedview pagecolor="#ffffff" bordercolor="#666666" borderopacity="1" objecttolerance="10" gridtolerance="10" guidetolerance="10" inkscape:pageopacity="0" inkscape:pageshadow="2" inkscape:window-width="1920" inkscape:window-height="1044" id="namedview52" showgrid="false" inkscape:zoom="8.39" inkscape:cx="50" inkscape:cy="50" inkscape:window-x="0" inkscape:window-y="0" inkscape:window-maximized="1" inkscape:current-layer="Untitled-Page%201" />
	<path id="Ellipse" d="M 0.8287,50 C 0.8287,22.8432 22.8431,0.8287 50,0.8287 77.1569,0.8287 99.1713,22.8432 99.1713,50 99.1713,77.1568 77.1569,99.1713 50,99.1713 22.8431,99.1713 0.8287,77.1568 0.8287,50 Z" stroke="#415263" stroke-width="1" fill="none" style="stroke:#78b324;stroke-opacity:1" /><g id="890122" style="fill:#78b324;fill-opacity:1">
			<g id="g25" style="fill:#78b324;fill-opacity:1">
				<path d="m 54.378,50.9631 c -1.0177,-3.0184 -4.2905,-4.6406 -7.31,-3.6233 -2.83,0.9537 -4.4642,3.9085 -3.7672,6.8114 2.077,7.2186 9.6741,13.6966 16.632,19.2008 0.4996,0.3957 1.2254,0.3117 1.6212,-0.1878 0.3957,-0.4997 0.3116,-1.225 -0.1881,-1.6208 -6.6787,-5.2829 -13.9596,-11.4679 -15.8474,-18.0289 -0.5283,-1.8379 0.5339,-3.756 2.3724,-4.2842 1.8386,-0.528 3.7572,0.5339 4.2855,2.3718 1.2601,4.3832 7.5257,9.8 13.4866,14.5153 0.4996,0.3956 1.2254,0.3115 1.6212,-0.188 0.3957,-0.4995 0.3116,-1.225 -0.1881,-1.6208 C 63.9484,61.8242 55.6128,55.2308 54.378,50.9631 Z" fill="#415263" id="path3" style="fill:#78b324;fill-opacity:1" />
				<path d="M 63.1245,47.9893 C 60.6159,40.3005 52.4883,35.9574 44.6994,38.1431 36.7362,40.4274 32.1331,48.7322 34.4181,56.6927 c 0.0016,0.0056 0.0033,0.0114 0.0049,0.0169 1.8947,6.5796 -2.167,8.4043 -3.4616,8.8057 -0.608,0.1913 -0.9459,0.8387 -0.7547,1.4465 0.1912,0.6077 0.8391,0.9455 1.447,0.7544 3.5286,-1.1027 6.9556,-4.8123 4.987,-11.6457 -1.9407,-6.7336 1.9468,-13.765 8.6827,-15.705 0.0036,-10e-4 0.0071,-0.002 0.0106,-0.0031 6.6601,-1.8714 13.5994,1.9018 15.6466,8.5081 0.0272,0.09 0.066,0.176 0.1154,0.256 0.12,0.1985 0.3669,0.6161 7.784,6.6327 0.4945,0.4019 1.2215,0.327 1.6235,-0.1674 0.4021,-0.4944 0.3273,-1.2211 -0.1673,-1.6228 -2.6955,-2.187 -6.6348,-5.4376 -7.2117,-5.9797 z" fill="#415263" id="path5" style="fill:#78b324;fill-opacity:1" />
				<path d="m 58.8182,49.6872 c -1.5937,-5.5015 -7.3376,-8.6794 -12.8473,-7.1078 -5.41,1.6697 -8.55,7.2971 -7.1287,12.7761 2.3309,10.6119 0.5885,13.0619 -4.1932,14.5568 -0.608,0.1912 -0.9458,0.8387 -0.7547,1.4466 0.1912,0.6077 0.8391,0.9455 1.447,0.7542 6.681,-2.0761 8.1326,-6.4411 5.7693,-17.2537 -1.148,-4.2876 1.2793,-8.7197 5.511,-10.063 4.2879,-1.2169 8.7538,1.2569 9.9949,5.5367 0.4616,1.5733 1.687,3.7326 11.1373,11.2097 0.4997,0.3954 1.2254,0.3114 1.6212,-0.1882 0.3957,-0.4993 0.3116,-1.225 -0.1881,-1.6206 C 60.609,52.9517 59.1412,50.8038 58.8182,49.6872 Z" fill="#415263" id="path7" style="fill:#78b324;fill-opacity:1" />
				<path d="M 61.9936,65.7437 C 58.0889,62.7815 51.5533,57.8262 49.9449,52.2388 c -0.1865,-0.6092 -0.8318,-0.9519 -1.4412,-0.7655 -0.5944,0.182 -0.9379,0.802 -0.7767,1.4021 1.8186,6.3258 8.7372,11.5718 12.8704,14.7069 0.84,0.6047 1.6487,1.2516 2.4231,1.938 0.4584,0.4425 1.1889,0.4298 1.6317,-0.0282 0.4319,-0.4471 0.4319,-1.1558 0,-1.6027 -0.8451,-0.7648 -1.7327,-1.4812 -2.6586,-2.1457 z" fill="#415263" id="path9" style="fill:#78b324;fill-opacity:1" />
				<path d="m 55.7488,73.7675 c -1.1662,-2.1629 -3.3144,-3.6216 -5.7555,-3.9082 -3.9232,0 -4.5301,6.6672 -4.6155,8.0029 -0.0395,0.6358 0.4441,1.1831 1.08,1.2228 h 0.0739 c 0.6103,0.0012 1.1161,-0.4731 1.1539,-1.0819 0.1454,-2.3763 1.0546,-5.8367 2.3077,-5.8367 1.7101,0 2.9239,1.6472 3.8978,2.9691 0.3218,0.4585 0.6741,0.8947 1.0547,1.3058 0.4583,0.4427 1.1888,0.4298 1.6315,-0.0284 0.432,-0.4469 0.432,-1.1557 0,-1.6027 -0.2984,-0.3292 -0.5752,-0.6777 -0.8285,-1.0427 z" fill="#415263" id="path11" style="fill:#78b324;fill-opacity:1" />
				<path d="m 45.3248,63.7413 c -0.2169,-0.599 -0.8785,-0.9087 -1.4777,-0.692 -0.5636,0.2039 -0.8772,0.8055 -0.7216,1.3841 0.9878,3.0843 -0.9531,9.1377 -3.8723,10.0859 -0.6082,0.1904 -0.9469,0.8375 -0.7566,1.4455 0.1903,0.6081 0.8377,0.9465 1.4459,0.7563 0.0079,-0.0025 0.0159,-0.0051 0.0238,-0.0078 4.4399,-1.4302 6.5815,-9.1401 5.3585,-12.972 z" fill="#415263" id="path13" style="fill:#78b324;fill-opacity:1" />
				<path d="M 69.9647,47.9985 C 68.5224,47.5372 67.3892,45.6915 66.0761,43.5852 63.2976,39.0959 59.4874,32.9478 48.8394,32.9478 38.0111,32.9606 29.2362,41.7325 29.2235,52.557 c 0,0.6373 0.5167,1.1536 1.1539,1.1536 0.6373,0 1.154,-0.5163 1.154,-1.1536 0.0101,-9.5515 7.7532,-17.292 17.3081,-17.3022 9.3626,0 12.6419,5.2922 15.2774,9.5463 1.5509,2.5031 2.8893,4.6646 5.1371,5.3937 0.6039,0.2032 1.2584,-0.1213 1.4619,-0.7249 0.2035,-0.6038 -0.1211,-1.2579 -0.725,-1.4613 -0.0079,-0.0028 -0.0158,-0.0053 -0.0238,-0.0078 z" fill="#415263" id="path15" style="fill:#78b324;fill-opacity:1" />
				<path d="m 31.5312,61.7849 c 0.6373,0 1.154,-0.5164 1.1538,-1.1535 0,-0.1793 -0.0418,-0.3564 -0.1222,-0.5167 -0.4924,-0.9226 -0.8404,-1.9153 -1.0316,-2.9436 0,-0.637 -0.5166,-1.1535 -1.1539,-1.1535 -0.6373,0 -1.1539,0.5165 -1.1539,1.1535 0.1852,1.3911 0.6175,2.738 1.2761,3.9772 0.1958,0.3902 0.5951,0.6366 1.0317,0.6366 z" fill="#415263" id="path17" style="fill:#78b324;fill-opacity:1" />
				<path d="m 30.9313,37.3934 c 0.5441,0.3315 1.2542,0.1596 1.5858,-0.3845 7e-4,-10e-4 0.0013,-0.002 0.0019,-0.0031 1.0016,-1.6519 5.9355,-6.365 15.1666,-6.365 8.871,0 15.1828,4.4916 16.3204,6.365 0.3308,0.5446 1.0406,0.7183 1.5855,0.3876 0.5448,-0.3306 0.7184,-1.0402 0.3877,-1.585 v 0 c -1.5832,-2.6069 -8.5733,-7.4745 -18.2936,-7.4745 -10.3364,0 -15.8773,5.3962 -17.142,7.4769 -0.3294,0.5441 -0.1559,1.252 0.3877,1.5826 z" fill="#415263" id="path19" style="fill:#78b324;fill-opacity:1" />
				<path d="m 37.7622,28.2322 c 0.5284,-0.2306 0.9762,-0.4612 1.4008,-0.692 1.7354,-0.8743 2.9839,-1.5133 8.5225,-1.5133 3.7398,-0.2061 7.4803,0.3925 10.9687,1.7556 0.4408,0.1638 0.884,0.3277 1.3478,0.4866 0.1209,0.0421 0.2481,0.0639 0.3762,0.0646 0.6372,0.0012 1.1547,-0.5143 1.1559,-1.1512 9e-4,-0.494 -0.3126,-0.9334 -0.7798,-1.0933 -0.4478,-0.1546 -0.8724,-0.3115 -1.297,-0.4614 -3.7449,-1.4601 -7.7571,-2.1103 -11.7717,-1.908 -6.1016,0 -7.6294,0.7844 -9.568,1.7788 -0.3899,0.2006 -0.8053,0.413 -1.29,0.6298 -0.5921,0.2353 -0.8814,0.9061 -0.6461,1.4979 0.2354,0.5921 0.9063,0.8812 1.4985,0.646 0.0302,-0.012 0.06,-0.0253 0.0891,-0.0401 z" fill="#415263" id="path21" style="fill:#78b324;fill-opacity:1" />
				<path d="m 68.5084,43.6798 c 0.2169,0.599 0.8785,0.9088 1.4777,0.692 0.5636,-0.2041 0.8772,-0.8053 0.7216,-1.384 -0.6547,-1.6948 -1.4668,-3.3245 -2.4255,-4.8677 -0.3339,-0.5428 -1.0447,-0.7122 -1.5877,-0.3784 -0.5429,0.3338 -0.7124,1.0444 -0.3785,1.5871 0.859,1.3823 1.5928,2.8384 2.1924,4.351 z" fill="#415263" id="path23" style="fill:#78b324;fill-opacity:1" />
			</g>
			<path d="M 60.6413,73.6012 C 60.3816,73.6011 60.1296,73.5133 59.926,73.352 52.9681,67.8454 45.3779,61.3698 43.3009,54.1512 c -0.7437,-3.0972 1.1652,-6.2106 4.2635,-6.9542 2.904,-0.6966 5.8599,0.937 6.8138,3.7661 1.2276,4.2655 9.5632,10.8611 12.6926,13.3435 0.5118,0.3797 0.6187,1.102 0.2389,1.6137 -0.3798,0.5114 -1.1025,0.6185 -1.6142,0.2387 C 65.6766,66.1449 65.658,66.1303 65.6399,66.1152 59.679,61.3997 53.4088,55.9853 52.1511,51.5999 c -0.5283,-1.8375 -2.4465,-2.8988 -4.2843,-2.3706 -1.8379,0.5282 -2.8996,2.4456 -2.3712,4.2828 1.8877,6.561 9.1686,12.7461 15.8451,18.0291 0.4997,0.3954 0.5839,1.121 0.1883,1.6203 -0.2191,0.2768 -0.553,0.4379 -0.9061,0.4374 z" fill="#415263" id="path27" style="fill:#78b324;fill-opacity:1" />
			<path d="m 31.3005,67.7622 c -0.6373,-0.001 -1.1529,-0.5183 -1.1518,-1.1554 9e-4,-0.5031 0.3279,-0.9476 0.808,-1.0984 1.29,-0.4038 5.3517,-2.2285 3.4617,-8.8057 -2.2902,-7.9589 2.3076,-16.2669 10.2692,-18.5562 0.0039,-0.001 0.0079,-0.0023 0.0118,-0.0034 7.7898,-2.1871 15.9188,2.1564 18.4275,9.8464 0.5746,0.5398 4.514,3.7926 7.2094,5.9795 0.4822,0.4164 0.5356,1.1448 0.1191,1.627 -0.3988,0.4615 -1.0879,0.533 -1.573,0.1634 -7.4195,-6.019 -7.6663,-6.4366 -7.7864,-6.6349 -0.0477,-0.0798 -0.0857,-0.165 -0.113,-0.2538 -2.0472,-6.6075 -8.988,-10.381 -15.649,-8.5081 -6.7374,1.9351 -10.6297,8.9638 -8.6939,15.6988 2e-4,8e-4 4e-4,0.0014 6e-4,0.0024 1.9662,6.8309 -1.4585,10.5428 -4.9894,11.6455 -0.1135,0.0358 -0.2318,0.0538 -0.3508,0.0529 z" fill="#415263" id="path29" style="fill:#78b324;fill-opacity:1" />
			<path d="m 34.9929,72.1664 c -0.6373,-0.0013 -1.153,-0.5187 -1.1518,-1.1556 9e-4,-0.5031 0.3279,-0.9475 0.808,-1.0985 4.7817,-1.4949 6.5217,-3.9494 4.1908,-14.5568 -1.4201,-5.4788 1.7195,-11.1054 7.1287,-12.7761 5.5099,-1.5675 11.2515,1.6085 12.8496,7.1078 0.3208,1.1142 1.7863,3.2621 10.3504,10.04 0.5117,0.3796 0.6187,1.1021 0.2389,1.6137 -0.3798,0.5116 -1.1025,0.6185 -1.6142,0.2388 -0.019,-0.0141 -0.0375,-0.0288 -0.0556,-0.0439 -9.4618,-7.4792 -10.6872,-9.6409 -11.1373,-11.2097 -1.2367,-4.2842 -5.7079,-6.7605 -9.9972,-5.5366 -4.2365,1.3443 -6.664,5.7839 -5.5087,10.0746 2.3747,10.8151 0.9231,15.1683 -5.7693,17.2537 -0.1077,0.0326 -0.2198,0.049 -0.3323,0.0486 z" fill="#415263" id="path31" style="fill:#78b324;fill-opacity:1" />
			<path d="m 63.8399,69.8593 c -0.3062,5e-4 -0.6002,-0.1205 -0.817,-0.3368 -0.7746,-0.687 -1.5833,-1.3345 -2.4231,-1.9402 -4.1332,-3.1351 -11.0518,-8.3811 -12.8704,-14.7069 -0.1865,-0.609 0.1562,-1.2541 0.7656,-1.4406 0.6094,-0.1865 1.2545,0.1563 1.4411,0.7653 0.0039,0.0128 0.0076,0.0257 0.0111,0.0385 1.6153,5.5875 8.1417,10.5429 12.0464,13.5051 0.9265,0.6655 1.8148,1.3826 2.6609,2.1477 0.4499,0.4511 0.4488,1.1815 -0.0027,1.6313 -0.2156,0.2151 -0.5074,0.3361 -0.8119,0.3366 z" fill="#415263" id="path33" style="fill:#78b324;fill-opacity:1" />
			<path d="m 46.5317,79.0872 h -0.0739 c -0.6359,-0.0395 -1.1195,-0.587 -1.08,-1.2228 0.0831,-1.3357 0.6923,-8.0027 4.6155,-8.0027 2.4462,0.2842 4.5998,1.7439 5.7694,3.9103 0.2517,0.3657 0.5277,0.7141 0.8261,1.0427 0.4428,0.4582 0.43,1.1885 -0.0283,1.6312 -0.4472,0.4318 -1.1561,0.4318 -1.6033,0 -0.3813,-0.4096 -0.7337,-0.8451 -1.0546,-1.3035 -0.9831,-1.3288 -2.197,-2.976 -3.9093,-2.976 -1.2509,0 -2.1624,3.4604 -2.3078,5.8391 -0.0377,0.6086 -0.5435,1.0829 -1.1538,1.0817 z" fill="#415263" id="path35" style="fill:#78b324;fill-opacity:1" />
			<path d="m 39.6084,76.7803 c -0.6373,0.0012 -1.1549,-0.5142 -1.1561,-1.1513 -9e-4,-0.5018 0.3228,-0.9466 0.8008,-1.1002 2.9169,-0.9482 4.8462,-7.0018 3.8724,-10.0861 -0.2282,-0.5948 0.0693,-1.2619 0.6643,-1.49 0.5949,-0.228 1.2623,0.0694 1.4904,0.664 0.0168,0.0438 0.0308,0.0884 0.0422,0.1339 1.2254,3.8319 -0.9231,11.5348 -5.3586,12.9837 -0.1153,0.0337 -0.2352,0.0492 -0.3554,0.046 z" fill="#415263" id="path37" style="fill:#78b324;fill-opacity:1" />
			<path d="m 30.3774,53.7106 c -0.6372,0 -1.1539,-0.5163 -1.1539,-1.1536 0.0127,-10.8245 8.7876,-19.5964 19.6159,-19.6091 10.648,0 14.4581,6.1481 17.239,10.6375 1.3131,2.1155 2.4462,3.9449 3.8886,4.4132 0.6081,0.1904 0.9468,0.8374 0.7565,1.4455 -0.1902,0.6078 -0.8377,0.9465 -1.4458,0.7563 -0.008,-0.0026 -0.0159,-0.0053 -0.0238,-0.0079 -2.2478,-0.729 -3.5863,-2.8907 -5.1371,-5.3936 -2.6355,-4.2517 -5.9147,-9.5441 -15.2774,-9.5441 -9.5549,0.0103 -17.298,7.7509 -17.3082,17.3024 0,0.6371 -0.5165,1.1534 -1.1538,1.1534 z" fill="#415263" id="path39" style="fill:#78b324;fill-opacity:1" />
			<path d="m 31.5312,61.7849 c -0.4374,9e-4 -0.8378,-0.2457 -1.0338,-0.6368 -0.6585,-1.239 -1.0899,-2.586 -1.2739,-3.977 0,-0.6371 0.5167,-1.1537 1.1539,-1.1537 0.6373,0 1.154,0.5166 1.154,1.1537 0.1916,1.0279 0.5395,2.0206 1.0315,2.9436 0.2855,0.5695 0.055,1.2625 -0.5147,1.548 -0.1605,0.0803 -0.3375,0.1222 -0.517,0.1222 z" fill="#415263" id="path41" style="fill:#78b324;fill-opacity:1" />
			<path d="m 64.9938,37.5617 c -0.4039,2e-4 -0.7785,-0.2106 -0.9878,-0.5559 -1.1354,-1.8734 -7.4494,-6.365 -16.3204,-6.365 -9.231,0 -14.165,4.7131 -15.1689,6.365 -0.3109,0.5559 -1.0139,0.755 -1.5702,0.444 -0.5562,-0.3107 -0.7551,-1.0136 -0.4441,-1.5697 0.0136,-0.0243 0.0282,-0.0482 0.0436,-0.0717 1.2623,-2.0783 6.8033,-7.4745 17.1397,-7.4745 9.7203,0 16.7105,4.8676 18.2936,7.4769 0.3301,0.5449 0.1557,1.2542 -0.3893,1.5841 -0.1799,0.1089 -0.386,0.1665 -0.5962,0.1668 z" fill="#415263" id="path43" style="fill:#78b324;fill-opacity:1" />
			<path d="m 60.3782,28.3339 c -0.1279,10e-5 -0.255,-0.0208 -0.3761,-0.0622 -0.4616,-0.1593 -0.9092,-0.3254 -1.35,-0.4868 -3.4877,-1.3632 -7.2273,-1.9627 -10.9665,-1.7578 -5.5386,0 -6.7871,0.6388 -8.511,1.5224 -0.4246,0.2192 -0.8746,0.4477 -1.4008,0.6922 -0.5837,0.258 -1.2662,-0.0059 -1.5243,-0.5896 -0.2581,-0.5835 0.0059,-1.2657 0.5897,-1.5237 0.4869,-0.2193 0.9,-0.4314 1.2924,-0.6322 1.9247,-0.9918 3.4547,-1.7764 9.5541,-1.7764 4.0135,-0.2046 8.0247,0.4434 11.7696,1.9012 0.4246,0.1569 0.8493,0.316 1.2969,0.4614 0.6068,0.1946 0.9408,0.8442 0.7461,1.4507 -0.1558,0.4848 -0.6109,0.8102 -1.1201,0.8008 z" fill="#415263" id="path45" style="fill:#78b324;fill-opacity:1" />
			<path d="m 69.6093,44.4826 c -0.5019,-3e-4 -0.946,-0.3248 -1.0986,-0.8028 -0.5995,-1.5156 -1.3332,-2.9748 -2.1924,-4.3601 -0.3339,-0.5427 -0.1645,-1.2534 0.3785,-1.5871 0.543,-0.3338 1.2538,-0.1646 1.5877,0.3783 v 0 c 0.9578,1.5434 1.769,3.173 2.4232,4.8677 0.1937,0.6068 -0.1414,1.2559 -0.7485,1.4495 -0.1131,0.036 -0.2312,0.0545 -0.3499,0.0545 z" fill="#415263" id="path47" style="fill:#78b324;fill-opacity:1" />
		</g>
</svg>
