<svg width="90" height="101" viewBox="0 0 90 101" fill="none" xmlns="http://www.w3.org/2000/svg">
<path d="M3.75725 38.5263L6.31615 40.0791L7.83783 37.2676C11.2683 31.5225 21.7669 18.1172 44.9999 18.1172C68.8085 18.1172 78.9531 32.6756 82.2863 37.4663L83.9756 40.0956L89.2798 36.75L87.5117 33.9841C85.6733 31.3237 81.8142 25.8001 74.9284 20.9204C66.5622 14.9745 56.4902 11.958 44.9999 11.958C18.4854 11.958 6.34928 27.5081 2.3515 34.1621L0.825684 36.75L3.17963 38.1702C3.28667 38.2539 3.39944 38.33 3.51709 38.398C3.59485 38.4449 3.67501 38.4878 3.75725 38.5263Z" fill="#0C56DB"/>
<path d="M70.5105 32.6756C63.1526 26.6862 54.3372 23.5145 45.0001 23.5145C24.8104 23.5145 11.3969 37.1786 7.04509 50.7329C3.05973 63.25 7.90427 81.388 8.10716 82.1644L9.01395 85.0235L15.2104 83.6923L14.2291 80.5868C14.1856 80.4315 9.65368 63.4177 13.109 52.5941C14.9723 46.7807 18.85 41.1246 23.7401 37.1102C29.6405 32.2761 36.9984 29.7109 45.0001 29.7109C63.753 29.7109 74.3841 44.3294 77.3902 52.0931C79.7234 58.0825 79.1851 64.8918 76.09 69.0696C74.9451 70.5996 72.9266 72.3966 69.8542 72.2414C62.8545 71.8853 61.6434 68.4258 59.9602 61.838C59.1528 58.6663 58.3247 55.3828 56.2606 52.7287C53.7472 49.4679 50.091 47.8924 45.0229 47.8924C39.5718 47.8924 35.4436 49.6895 32.7294 53.2173C26.8083 60.9354 30.6591 74.1129 30.8226 74.6678L30.8682 74.8438C31.1601 75.6429 38.3379 94.8533 57.5607 99.6213L60.6186 100.286L62.2934 94.342L59.1321 93.6318C43.7662 89.8163 37.3503 74.0902 36.8576 72.848C36.3022 70.8322 35.9485 68.7662 35.8017 66.6805C35.5781 63.6868 35.7355 59.5607 37.754 56.9211C39.2343 54.9915 41.6131 54.0599 45.0001 54.0599C51.1676 54.0599 52.2007 57.0763 53.8155 63.3328C55.3848 69.432 57.5421 77.7939 69.5168 78.3943C74.1149 78.6159 78.2659 76.5745 81.1809 72.6699C85.5555 66.8151 86.3857 57.8527 83.2906 49.8675C80.8724 43.582 76.208 37.3338 70.5105 32.6756Z" fill="#0C56DB"/>
<path d="M23.9201 68.0552C23.2017 62.2003 24.212 53.356 29.4168 47.6046C33.0274 43.611 38.2756 41.6007 44.9834 41.6007C52.745 41.6007 58.6206 45.0623 62.4796 51.8716C64.379 55.2884 65.6338 59.0253 66.1814 62.896L66.4774 65.9373L72.6884 65.4818C72.6942 64.4017 72.6251 63.3226 72.4813 62.2521C72.4586 61.9871 71.7422 55.5319 68.1337 49.0539C63.1525 40.1287 55.1673 35.4043 45 35.4043C36.4082 35.4043 29.5658 38.133 24.6985 43.5013C18.1046 50.7764 16.7589 61.3577 17.6781 68.8316V68.8999C19.3281 80.1893 23.6758 89.2179 31.367 97.2921L33.7686 99.615L38.1059 95.1038L35.9652 93.077C29.1911 85.98 25.3548 78.0382 23.9201 68.0552ZM19.4254 12.0429C21.7193 10.6516 29.8329 6.50066 45 6.50066C63.1235 6.50066 71.177 12.4466 71.2661 12.4901L74.1438 14.3244L77.5039 9.10512L74.767 7.33293C74.6593 7.25426 74.5475 7.17559 74.4357 7.10105C71.8105 5.39305 62.5024 0.3125 45 0.3125C26.8413 0.3125 17.5166 5.79469 15.3096 7.29152L12.4961 9.11547L15.85 14.3347L19.4254 12.0429Z" fill="#0C56DB"/>
<path d="M72.8644 82.9614C65.9557 83.7378 60.3493 82.4087 56.1549 79.0589C49.0661 73.38 48.1469 63.5088 48.1241 63.3245L47.8695 60.2439L41.5488 60.7056L41.82 63.8111C41.8656 64.3204 42.8966 76.3882 52.0929 83.7979C56.6704 87.5016 62.3907 89.3649 69.1192 89.3649C70.6109 89.362 72.1013 89.2728 73.5828 89.0979L77.0174 88.6652L75.7545 82.5143L72.8644 82.9614Z" fill="#0C56DB"/>
</svg>
