<svg width="31" height="31" viewBox="0 0 31 31" fill="none" xmlns="http://www.w3.org/2000/svg">
<path d="M15.6607 10.8193L19.3266 14.4835L9.10628 14.4835C8.82425 14.4835 8.55377 14.5955 8.35435 14.7949C8.15492 14.9943 8.04288 15.2648 8.04288 15.5468C8.04288 15.8289 8.15492 16.0994 8.35435 16.2988C8.55377 16.4982 8.82425 16.6102 9.10628 16.6102L19.3266 16.6102L15.6607 20.2744L15.6607 20.2745C15.461 20.4741 15.3489 20.7449 15.3489 21.0272C15.3489 21.3095 15.461 21.5803 15.6607 21.78C15.8603 21.9796 16.1311 22.0918 16.4134 22.0918C16.6958 22.0918 16.9665 21.9796 17.1662 21.78L22.6464 16.2997C22.7454 16.2009 22.824 16.0836 22.8776 15.9544C22.9312 15.8252 22.9588 15.6867 22.9588 15.5468C22.9588 15.407 22.9312 15.2685 22.8776 15.1393C22.824 15.0101 22.7454 14.8927 22.6464 14.794L17.1662 9.31374C16.9665 9.1141 16.6958 9.00194 16.4134 9.00194C16.1311 9.00194 15.8603 9.1141 15.6607 9.31374C15.461 9.51338 15.3489 9.78416 15.3489 10.0665C15.3489 10.3488 15.461 10.6196 15.6607 10.8192L15.6607 10.8193ZM24.4361 24.4829C22.0661 26.8529 18.8517 28.1843 15.5 28.1843C12.1484 28.1843 8.93396 26.8529 6.56397 24.4829C4.19397 22.1129 2.86253 18.8985 2.86253 15.5468C2.86253 12.1952 4.19397 8.98078 6.56397 6.61079C8.93396 4.2408 12.1484 2.90935 15.5 2.90935C18.8517 2.90935 22.0661 4.2408 24.4361 6.61079C26.8061 8.98078 28.1375 12.1952 28.1375 15.5468C28.1375 18.8985 26.8061 22.1129 24.4361 24.4829ZM25.94 5.10692C23.1711 2.33808 19.4158 0.782563 15.5 0.782564C11.5843 0.782564 7.82894 2.33808 5.0601 5.10692C2.29126 7.87576 0.735741 11.6311 0.735742 15.5468C0.735742 19.4626 2.29126 23.2179 5.0601 25.9868C7.82894 28.7556 11.5843 30.3111 15.5 30.3111C19.4158 30.3111 23.1711 28.7556 25.94 25.9868C28.7088 23.2179 30.2643 19.4626 30.2643 15.5468C30.2643 11.6311 28.7088 7.87576 25.94 5.10692Z" fill="#0C56DB" stroke="#0C56DB" stroke-width="0.3"/>
</svg>
