<svg width="34" height="34" viewBox="0 0 34 34" fill="none" xmlns="http://www.w3.org/2000/svg">
<path d="M16.9098 20.3542L16.9098 20.3541H16.9045H16.8301C16.1649 20.3541 15.617 19.8062 15.617 19.141C15.617 18.4758 16.1649 17.9279 16.8301 17.9279C17.4953 17.9279 18.0432 18.4758 18.0432 19.141C18.0432 19.6765 18.4728 20.106 19.0082 20.106C19.5437 20.106 19.9732 19.6765 19.9732 19.141C19.9732 17.7414 19.0572 16.5644 17.7951 16.155V15.1141C17.7951 14.5787 17.3655 14.1491 16.8301 14.1491C16.2946 14.1491 15.8651 14.5787 15.8651 15.1141V16.155C14.603 16.5644 13.687 17.7414 13.687 19.141L13.687 19.1413C13.6881 19.958 14.0077 20.742 14.5777 21.3269C15.1477 21.9117 15.9233 22.2513 16.7397 22.2734L16.7397 22.2735H16.7451H16.8195C17.4846 22.2735 18.0326 22.8215 18.0326 23.4866C18.0326 24.1518 17.4846 24.6997 16.8195 24.6997C16.1553 24.6997 15.617 24.1634 15.617 23.4866C15.617 22.9512 15.1874 22.5216 14.652 22.5216C14.1165 22.5216 13.687 22.9512 13.687 23.4866L13.687 23.4869C13.688 24.1773 13.9164 24.8482 14.3368 25.3958C14.7259 25.9026 15.2593 26.2777 15.8651 26.4729V27.5135C15.8651 28.049 16.2946 28.4785 16.8301 28.4785C17.3655 28.4785 17.7951 28.049 17.7951 27.5135V26.4726C19.0572 26.0632 19.9732 24.8862 19.9732 23.4866C19.9732 21.7833 18.6107 20.3995 16.9098 20.3542Z" fill="#0C56DB" stroke="#0C56DB" stroke-width="0.4"/>
<path d="M11.0199 5.52718L11.0082 5.50148C10.8005 5.04473 10.7492 4.53228 10.862 4.04341C10.9749 3.55453 11.2457 3.11646 11.6325 2.79695L11.7547 2.94483L11.6325 2.79695C12.0194 2.47745 12.5007 2.29431 13.0021 2.27587C13.4436 2.25964 13.8789 2.37185 14.256 2.59697L15.0798 1.67703L15.0801 1.67669C15.3006 1.43163 15.5702 1.23577 15.8714 1.10187L15.8714 1.10187C16.1726 0.967983 16.4987 0.899065 16.8283 0.899613C17.158 0.900161 17.4838 0.970162 17.7846 1.10505C18.0853 1.23995 18.3543 1.4367 18.5739 1.6825L18.5778 1.6868L18.5777 1.68686L19.3609 2.61588C19.7377 2.39729 20.1705 2.29064 20.6083 2.31068C21.107 2.3335 21.5845 2.51955 21.9672 2.84021C22.35 3.16087 22.6167 3.59838 22.7266 4.08545C22.8364 4.57253 22.7831 5.08219 22.5751 5.53606L22.569 5.54929L22.5611 5.5615L22.3985 5.81225L22.3907 5.82426L22.3813 5.83503L19.9466 8.62212C20.0026 8.7692 20.0329 8.92475 20.0362 9.0819C26.1358 10.528 30.6724 16.0093 30.6619 22.5526C30.6619 22.5527 30.6619 22.5528 30.6619 22.5529L30.4619 22.5526C30.4619 28.271 25.8209 32.9109 20.1025 32.9109H13.5469C7.8285 32.9109 3.1875 28.2699 3.1875 22.5515C3.1875 16.0469 7.73819 10.6058 13.8306 9.23945L11.0199 5.52718ZM11.0199 5.52718L11.0382 5.54864L13.8846 8.87935L13.7241 9.05851L11.0199 5.52718ZM28.1369 22.5494V22.5491C28.1473 16.2997 23.0819 11.234 16.83 11.234C10.5782 11.234 5.51254 16.2997 5.5125 22.5514L28.1369 22.5494ZM28.1369 22.5494V22.5514M28.1369 22.5494V22.5514M28.1369 22.5514C28.1369 22.5515 28.1369 22.5515 28.1369 22.5515C28.136 24.6821 27.2893 26.7252 25.7827 28.2317M28.1369 22.5514L25.7827 28.2317M25.7827 28.2317C24.2762 29.7383 22.2331 30.585 20.1025 30.5859M25.7827 28.2317L20.1025 30.5859M20.1025 30.5859C20.1025 30.5859 20.1024 30.5859 20.1024 30.5859M20.1025 30.5859H20.1024M20.1024 30.5859H13.547H20.1024ZM7.86665 28.2317C9.3732 29.7383 11.4163 30.585 13.5469 30.5859L7.86665 28.2317ZM7.86665 28.2317C6.36009 26.7252 5.51335 24.6821 5.5125 22.5515L7.86665 28.2317ZM15.3181 6.69027L14.024 5.19472C14.285 5.23054 14.5519 5.22154 14.8131 5.16632C15.311 5.06105 15.76 4.79372 16.0898 4.40613L16.09 4.40629L16.0959 4.39861L16.7946 3.49209L17.5782 4.4204L17.5782 4.4204L17.5794 4.42179C17.9016 4.79658 18.3364 5.0572 18.8189 5.16481C19.073 5.22149 19.3332 5.23412 19.5884 5.20381L18.2904 6.69027H15.3181Z" fill="#0C56DB" stroke="#0C56DB" stroke-width="0.4"/>
</svg>
