<svg width="38" height="30" viewBox="0 0 38 30" fill="none" xmlns="http://www.w3.org/2000/svg">
<path d="M14.811 15C16.9211 15 18.4776 13.4435 18.4776 11.3333C18.4776 9.22316 16.9211 7.66666 14.811 7.66666C12.7008 7.66666 11.1443 9.22316 11.1443 11.3333C11.1443 13.4435 12.699 15 14.811 15Z" fill="#BDBDBD"/>
<path d="M33.6667 0.333336H4.33341C2.31125 0.333336 0.666748 1.87517 0.666748 3.77084V26.2292C0.666748 28.1248 2.31125 29.6667 4.33341 29.6667H33.6667C35.6889 29.6667 37.3334 28.1248 37.3334 26.2292V3.77084C37.3334 1.87517 35.6889 0.333336 33.6667 0.333336ZM33.6667 26L4.33341 25.9798V4L33.6667 4.02017V26Z" fill="#BDBDBD"/>
<path d="M22.6667 9.5H30V13.1667H22.6667V9.5ZM24.5 16.8333H30V20.5H24.5V16.8333ZM21.6217 21.4827C21.6217 18.9637 18.549 16.375 14.8108 16.375C11.0727 16.375 8 18.9637 8 21.4827V22.3333H21.6217V21.4827Z" fill="#BDBDBD"/>
</svg>
