<?xml version="1.0" standalone="no"?>
<!-- Generator: Adobe Fireworks 10, Export SVG Extension by Aaron Beall (http://fireworks.abeall.com) . Version: 0.6.1  -->
<!DOCTYPE svg PUBLIC "-//W3C//DTD SVG 1.1//EN" "http://www.w3.org/Graphics/SVG/1.1/DTD/svg11.dtd">
<svg id="Untitled-Page%201" viewBox="0 0 80 80" style="background-color:#ffffff00" version="1.1"
	xmlns="http://www.w3.org/2000/svg" xmlns:xlink="http://www.w3.org/1999/xlink" xml:space="preserve"
	x="0px" y="0px" width="80px" height="80px"
>
	<g id="Layer%201">
		<g>
			<g>
				<path d="M 50.5672 47.6428 C 56.9841 37.624 56.1774 38.874 56.3623 38.6128 C 58.6986 35.3341 59.9333 31.4752 59.9333 27.4531 C 59.9333 16.7867 51.2341 8 40.5 8 C 29.8008 8 21.0667 16.7694 21.0667 27.4531 C 21.0667 31.4727 22.3273 35.4325 24.7401 38.7554 L 30.4326 47.6429 C 24.3464 48.5735 14 51.3467 14 57.4531 C 14 59.6791 15.4602 62.8514 22.4166 65.3234 C 27.274 67.0494 33.6961 68 40.5 68 C 53.223 68 67 64.4291 67 57.4531 C 67 51.3457 56.6657 48.5753 50.5672 47.6428 ZM 27.6916 36.8217 C 27.6721 36.7915 27.6519 36.762 27.6306 36.7329 C 25.6229 33.9845 24.6 30.7275 24.6 27.4531 C 24.6 18.662 31.7145 11.5156 40.5 11.5156 C 49.2672 11.5156 56.4 18.6652 56.4 27.4531 C 56.4 30.7328 55.3964 33.8794 53.4972 36.5552 C 53.3271 36.7786 54.215 35.4061 40.5 56.819 L 27.6916 36.8217 ZM 40.5 64.4844 C 26.6029 64.4844 17.5333 60.4199 17.5333 57.4531 C 17.5333 55.459 22.1935 52.1803 32.5203 50.9022 L 39.0101 61.0347 C 39.3345 61.5411 39.8963 61.8477 40.4999 61.8477 C 41.1035 61.8477 41.6655 61.541 41.9896 61.0347 L 48.4793 50.9022 C 58.8064 52.1803 63.4667 55.459 63.4667 57.4531 C 63.4667 60.3948 54.4787 64.4844 40.5 64.4844 Z" fill="#395465"/>
			</g>
			<g>
				<path d="M 40.5 18.6641 C 35.6293 18.6641 31.6667 22.6068 31.6667 27.4531 C 31.6667 32.2994 35.6293 36.2422 40.5 36.2422 C 45.3708 36.2422 49.3333 32.2994 49.3333 27.4531 C 49.3333 22.6068 45.3708 18.6641 40.5 18.6641 ZM 40.5 32.7266 C 37.5776 32.7266 35.2 30.3608 35.2 27.4531 C 35.2 24.5454 37.5776 22.1797 40.5 22.1797 C 43.4224 22.1797 45.8 24.5454 45.8 27.4531 C 45.8 30.3608 43.4224 32.7266 40.5 32.7266 Z" fill="#395465"/>
			</g>
		</g>
	</g>
</svg>