<svg width="20" height="20" viewBox="0 0 20 20" fill="none" xmlns="http://www.w3.org/2000/svg">
<path d="M10 20.0009C4.48 19.9949 0.006 15.5209 0 10.0009V9.80088C0.11 4.30588 4.635 -0.0711243 10.13 0.000875677C15.627 0.0748757 20.034 4.56988 19.998 10.0659C19.962 15.5629 15.497 20.0009 10 20.0009ZM9.984 18.0009H10C12.121 17.9988 14.1544 17.1544 15.6531 15.6535C17.1518 14.1526 17.9931 12.1179 17.992 9.99688C17.9909 7.87584 17.1476 5.84204 15.6474 4.34261C14.1473 2.84319 12.113 2.00088 9.992 2.00088C7.87096 2.00088 5.83674 2.84319 4.33656 4.34261C2.83638 5.84204 1.99306 7.87584 1.992 9.99688C1.99094 12.1179 2.83223 14.1526 4.3309 15.6535C5.82958 17.1544 7.86296 17.9988 9.984 18.0009ZM11 16.0009H9V14.0009H11V16.0009ZM11 13.0009H9C8.98448 12.3614 9.14045 11.7294 9.4517 11.1705C9.76295 10.6117 10.2181 10.1464 10.77 9.82288C11.43 9.31688 12 8.88088 12 8.00088C12 7.47044 11.7893 6.96174 11.4142 6.58666C11.0391 6.21159 10.5304 6.00088 10 6.00088C9.46957 6.00088 8.96086 6.21159 8.58579 6.58666C8.21071 6.96174 8 7.47044 8 8.00088H6V7.91088C6.01193 6.85001 6.44481 5.83734 7.20339 5.09563C7.96198 4.35392 8.98413 3.94394 10.045 3.95588C11.1059 3.96781 12.1185 4.40068 12.8602 5.15927C13.602 5.91785 14.0119 6.94001 14 8.00088C13.9647 8.53298 13.8052 9.0494 13.5343 9.50873C13.2634 9.96806 12.8886 10.3575 12.44 10.6459C12.0344 10.9005 11.6933 11.2457 11.4434 11.6543C11.1936 12.0628 11.0418 12.5238 11 13.0009Z" fill="white"/>
</svg>
