<svg width="29" height="29" viewBox="0 0 29 29" fill="none" xmlns="http://www.w3.org/2000/svg">
<path d="M26.875 23.987V14.7291C26.875 13.9831 26.7232 13.2449 26.4289 12.5594C26.1347 11.8739 25.704 11.2554 25.1631 10.7416L16.3948 2.41324C15.8837 1.9277 15.2056 1.65698 14.5007 1.65698C13.7957 1.65698 13.1177 1.9277 12.6066 2.41324L3.83687 10.7416C3.29602 11.2554 2.86535 11.8739 2.57106 12.5594C2.27676 13.2449 2.125 13.9831 2.125 14.7291V23.987C2.125 24.7163 2.41473 25.4158 2.93046 25.9315C3.44618 26.4473 4.14565 26.737 4.875 26.737H24.125C24.8543 26.737 25.5538 26.4473 26.0695 25.9315C26.5853 25.4158 26.875 24.7163 26.875 23.987Z" stroke="white" stroke-width="3" stroke-linecap="round" stroke-linejoin="round"/>
</svg>
