<?xml version="1.0" standalone="no"?>
<!-- Generator: Adobe Fireworks 10, Export SVG Extension by Aaron Beall (http://fireworks.abeall.com) . Version: 0.6.1  -->
<!DOCTYPE svg PUBLIC "-//W3C//DTD SVG 1.1//EN" "http://www.w3.org/Graphics/SVG/1.1/DTD/svg11.dtd">
<svg id="Untitled-Page%201" viewBox="0 0 85 85" style="background-color:#ffffff00" version="1.1"
	xmlns="http://www.w3.org/2000/svg" xmlns:xlink="http://www.w3.org/1999/xlink" xml:space="preserve"
	x="0px" y="0px" width="85px" height="85px"
>
	<g id="Layer%201">
		<g>
			<path d="M 42.5 75.7153 C 40.5161 75.7153 38.8477 74.9851 37.4951 73.6167 C 36.0977 72.2017 35.4209 70.5134 35.4209 68.5518 C 35.4209 68.1414 35.6016 67.9136 36.0527 67.9136 C 36.4585 67.9136 36.6841 68.1414 36.6841 68.5518 C 36.6841 70.1484 37.2246 71.5178 38.397 72.7039 C 39.5239 73.8445 40.877 74.4375 42.5 74.4375 C 42.9053 74.4375 43.1313 74.6201 43.1313 75.0759 C 43.1313 75.4873 42.9053 75.7153 42.5 75.7153 L 42.5 75.7153 ZM 27.0347 29.4509 C 27.0347 28.0823 27.3506 26.6221 27.9824 25.1626 C 28.6133 23.7024 29.5596 22.334 30.7773 20.9653 C 31.9492 19.6421 33.5728 18.5469 35.647 17.6794 C 37.7202 16.8586 39.9756 16.4028 42.5 16.4028 C 44.9795 16.4028 47.2344 16.8586 49.3081 17.6794 C 51.3818 18.5469 53.0054 19.6421 54.2227 20.9653 C 55.395 22.334 56.3418 23.7024 56.9727 25.1626 C 57.6045 26.6221 57.9653 28.0823 57.9653 29.4509 C 57.9653 43.9138 61.5273 55.2295 68.6504 63.3511 L 16.3496 63.3511 C 23.4727 55.2295 27.0347 43.9138 27.0347 29.4509 L 27.0347 29.4509 ZM 72.3032 59.7466 C 71.2202 58.5142 70.0479 56.9177 68.876 54.9097 C 67.7031 52.9028 66.7124 50.7576 65.9004 48.4312 C 65.0884 46.1499 64.4121 43.3208 63.8716 40.0361 C 63.3306 36.7515 63.105 33.2378 63.105 29.4509 C 63.105 25.3452 61.5273 21.5129 58.3711 17.9539 C 55.2148 14.3948 51.1113 12.2507 46.062 11.4751 C 46.2422 10.9729 46.3779 10.4253 46.3779 9.8777 C 46.3779 8.8289 45.9717 7.916 45.25 7.1406 C 44.4839 6.4104 43.582 6 42.5 6 C 41.418 6 40.4712 6.4104 39.75 7.1406 C 38.9834 7.916 38.6221 8.8289 38.6221 9.8777 C 38.6221 10.4253 38.7129 10.9729 38.938 11.4751 C 33.8438 12.2507 29.7402 14.3948 26.584 17.9539 C 23.4277 21.5129 21.895 25.3452 21.895 29.4509 C 21.895 33.2378 21.6245 36.7515 21.0835 40.0361 C 20.542 43.3208 19.9116 46.1499 19.0996 48.4312 C 18.2876 50.7576 17.2515 52.9028 16.0791 54.9097 C 14.9067 56.9177 13.7344 58.5142 12.6523 59.7466 C 11.5703 61.0234 10.3525 62.2104 9 63.3511 C 9 64.7649 9.4961 65.9973 10.5332 67.0007 C 11.5244 68.0496 12.7422 68.5518 14.1396 68.5518 L 32.1748 68.5518 C 32.1748 71.426 33.167 73.8899 35.1958 75.9434 C 37.1792 77.9502 39.6143 79 42.5 79 C 45.3408 79 47.7754 77.9502 49.8042 75.9434 C 51.7876 73.8899 52.8252 71.426 52.8252 68.5518 L 70.8604 68.5518 C 72.2129 68.5518 73.4297 68.0496 74.4668 67.0007 C 75.459 65.9973 76 64.7649 76 63.3511 C 74.6479 62.2104 73.3848 61.0234 72.3032 59.7466 L 72.3032 59.7466 Z" fill="#4178b5"/>
		</g>
	</g>
</svg>