<?xml version="1.0" standalone="no"?>
<!-- Generator: Adobe Fireworks 10, Export SVG Extension by Aaron Beall (http://fireworks.abeall.com) . Version: 0.6.1  -->
<!DOCTYPE svg PUBLIC "-//W3C//DTD SVG 1.1//EN" "http://www.w3.org/Graphics/SVG/1.1/DTD/svg11.dtd">
<svg id="Untitled-Page%201" viewBox="0 0 85 85" style="background-color:#ffffff00" version="1.1"
	xmlns="http://www.w3.org/2000/svg" xmlns:xlink="http://www.w3.org/1999/xlink" xml:space="preserve"
	x="0px" y="0px" width="85px" height="85px"
>
	<g id="Layer%201">
		<g>
			<g>
				<path d="M 42.5 6 C 62.6587 6 79 22.3413 79 42.5 C 79 62.6587 62.6587 79 42.5 79 C 22.3413 79 6 62.6587 6 42.5 C 6 22.3413 22.3413 6 42.5 6 ZM 42.5 11.7463 C 59.4854 11.7463 73.2539 25.5149 73.2539 42.5 C 73.2539 59.4851 59.4854 73.2537 42.5 73.2537 C 25.5146 73.2537 11.7461 59.4851 11.7461 42.5 C 11.7461 25.5149 25.5146 11.7463 42.5 11.7463 Z" fill="#4178b5"/>
			</g>
			<g>
				<path d="M 42 21 C 49.7324 21 56 27.2678 56 35 C 56 42.7322 49.7324 49 42 49 C 34.2676 49 28 42.7322 28 35 C 28 27.2678 34.2676 21 42 21 ZM 42 25.7041 C 47.1338 25.7041 51.2959 29.866 51.2959 35 C 51.2959 40.134 47.1338 44.2959 42 44.2959 C 36.8662 44.2959 32.7041 40.134 32.7041 35 C 32.7041 29.866 36.8662 25.7041 42 25.7041 Z" fill="#4178b5"/>
			</g>
			<path d="M 42 60.4666 C 49.6338 60.4666 56.5137 63.6897 61.355 68.8499 L 64 67 L 67.0249 65.49 C 60.9736 58.4561 52.0068 54 42 54 C 32.5576 54 24.0444 57.9634 18.0303 64.3198 L 22.0547 69.5 C 26.9185 63.9634 34.0518 60.4666 42 60.4666 Z" fill="#4178b5"/>
		</g>
	</g>
</svg>