<?xml version="1.0" standalone="no"?>
<!-- Generator: Adobe Fireworks 10, Export SVG Extension by Aaron Beall (http://fireworks.abeall.com) . Version: 0.6.1  -->
<!DOCTYPE svg PUBLIC "-//W3C//DTD SVG 1.1//EN" "http://www.w3.org/Graphics/SVG/1.1/DTD/svg11.dtd">
<svg id="Untitled-Page%201" viewBox="0 0 85 85" style="background-color:#ffffff00" version="1.1"
	xmlns="http://www.w3.org/2000/svg" xmlns:xlink="http://www.w3.org/1999/xlink" xml:space="preserve"
	x="0px" y="0px" width="85px" height="85px"
>
	<g id="Layer%201">
		<g>
			<g>
				<path d="M 69.5757 33.3926 L 69.5757 71.7356 L 55.1514 71.7356 L 55.1514 55.1526 C 55.1514 53.6985 53.9773 52.5203 52.5288 52.5203 L 34.083 52.5203 C 32.6345 52.5203 31.4604 53.6987 31.4604 55.1526 L 31.4604 71.7356 L 17.1238 71.7356 L 17.1238 33.3926 L 11.8787 33.3926 L 11.8787 74.3677 C 11.8787 75.8218 13.0527 76.9998 14.5012 76.9998 L 34.0833 76.9998 C 35.532 76.9998 36.7058 75.8213 36.7058 74.3677 L 36.7058 57.7849 L 49.9063 57.7849 L 49.9063 74.3677 C 49.9063 75.8218 51.0803 77 52.5288 77 L 72.1982 77 C 73.647 77 74.8208 75.8218 74.8208 74.3677 L 74.8208 33.3926 L 69.5757 33.3926 Z" fill="#4178b5"/>
			</g>
			<g>
				<path d="M 83.1694 40.4209 L 45.1416 4.7104 C 44.1406 3.769 42.5847 3.7629 41.5752 4.6938 L 2.8481 40.4043 C 1.7815 41.3879 1.7114 43.0522 2.6914 44.1228 C 3.2083 44.6887 3.9146 44.9749 4.6235 44.9749 C 5.2573 44.9749 5.8936 44.7449 6.3972 44.2808 L 43.334 10.2214 L 79.5859 44.2649 C 80.6455 45.2588 82.3032 45.2019 83.2927 44.1411 C 84.2815 43.0793 84.2271 41.4141 83.1694 40.4209 Z" fill="#4178b5"/>
			</g>
		</g>
	</g>
</svg>