<?xml version="1.0" standalone="no"?>
<!-- Generator: Adobe Fireworks 10, Export SVG Extension by Aaron Beall (http://fireworks.abeall.com) . Version: 0.6.1  -->
<!DOCTYPE svg PUBLIC "-//W3C//DTD SVG 1.1//EN" "http://www.w3.org/Graphics/SVG/1.1/DTD/svg11.dtd">
<svg id="Untitled-Page%201" viewBox="0 0 240 240" style="background-color:#ffffff00" version="1.1"
	xmlns="http://www.w3.org/2000/svg" xmlns:xlink="http://www.w3.org/1999/xlink" xml:space="preserve"
	x="0px" y="0px" width="240px" height="240px"
>
	<g id="Layer%201">
		<g>
			<g>
				<path d="M 183.8816 85.7274 C 183.8383 85.5168 183.7747 85.3066 183.6912 85.1027 C 183.6077 84.9023 183.5043 84.709 183.384 84.5284 C 183.2604 84.3446 183.1201 84.1747 182.9666 84.0172 C 182.8129 83.8634 182.6426 83.7268 182.4587 83.6034 C 182.2786 83.4829 182.0848 83.3796 181.8843 83.2961 C 181.6809 83.2126 181.47 83.1489 181.2598 83.1057 C 180.8289 83.0189 180.3845 83.0189 179.9539 83.1057 C 179.7402 83.1489 179.5298 83.2126 179.3295 83.2961 C 179.1257 83.3796 178.9319 83.4829 178.7516 83.6034 C 178.5679 83.7268 178.3977 83.8634 178.244 84.0172 C 178.0906 84.1743 177.95 84.3446 177.8298 84.5284 C 177.7095 84.709 177.6061 84.9023 177.5226 85.1027 C 177.4391 85.3066 177.3755 85.5168 177.3322 85.7274 C 177.2888 85.9442 177.2654 86.165 177.2654 86.3815 C 177.2654 87.26 177.6228 88.1217 178.244 88.7432 C 178.3977 88.897 178.5679 89.0372 178.7516 89.1573 C 178.9319 89.2775 179.1257 89.3811 179.3295 89.4646 C 179.5298 89.5481 179.7402 89.6115 179.9539 89.6547 C 180.1677 89.6982 180.3882 89.7213 180.6052 89.7213 C 180.8223 89.7213 181.0427 89.6979 181.2598 89.6547 C 181.47 89.6115 181.6805 89.5481 181.8843 89.4646 C 182.0848 89.3811 182.2783 89.2775 182.4587 89.1573 C 182.6426 89.0372 182.8129 88.897 182.9666 88.7432 C 183.5878 88.1217 183.9451 87.26 183.9451 86.3815 C 183.9451 86.1614 183.925 85.9442 183.8816 85.7274 Z" fill="#4178b5"/>
			</g>
			<g>
				<path d="M 89.7482 180.0077 C 89.7081 179.7975 89.6411 179.5869 89.5576 179.3833 C 89.4741 179.183 89.3707 178.9889 89.2504 178.8087 C 89.1302 178.6249 88.99 178.4546 88.8364 178.3008 C 88.6827 178.1473 88.5125 178.0067 88.3288 177.8833 C 88.1484 177.7635 87.9547 177.6595 87.7509 177.576 C 87.5504 177.4926 87.3402 177.4296 87.1263 177.386 C 86.6955 177.2988 86.2513 177.2988 85.8204 177.386 C 85.61 177.4296 85.3997 177.4926 85.1959 177.576 C 84.9955 177.6595 84.8018 177.7635 84.6215 177.8833 C 84.4376 178.0067 84.2673 178.1473 84.1139 178.3008 C 83.9601 178.4546 83.82 178.6249 83.6995 178.8087 C 83.5794 178.9889 83.476 179.183 83.3925 179.3833 C 83.309 179.5869 83.2421 179.7975 83.202 180.0077 C 83.1586 180.2252 83.1352 180.4457 83.1352 180.6625 C 83.1352 180.8793 83.1586 181.0997 83.202 181.3136 C 83.2421 181.5271 83.309 181.7377 83.3925 181.9384 C 83.476 182.1387 83.5794 182.3357 83.6995 182.5159 C 83.82 182.696 83.9597 182.87 84.1139 183.0238 C 84.2673 183.1772 84.4376 183.3175 84.6215 183.4376 C 84.8018 183.5581 84.9955 183.6614 85.1959 183.7449 C 85.3997 183.8284 85.61 183.8917 85.8204 183.9349 C 86.0374 183.9785 86.2581 184.0016 86.475 184.0016 C 86.692 184.0016 86.9125 183.9781 87.1263 183.9349 C 87.3402 183.8921 87.5504 183.8284 87.7509 183.7449 C 87.9547 183.6614 88.1484 183.5577 88.3288 183.4376 C 88.5125 183.3175 88.6827 183.1772 88.8364 183.0238 C 88.99 182.87 89.1302 182.696 89.2504 182.5159 C 89.3707 182.3353 89.4741 182.1387 89.5576 181.9384 C 89.6411 181.738 89.7081 181.5271 89.7482 181.3136 C 89.7916 181.1001 89.8149 180.8793 89.8149 180.6625 C 89.8149 180.4457 89.7916 180.2249 89.7482 180.0077 Z" fill="#4178b5"/>
			</g>
			<g>
				<path d="M 203.5066 97.2338 C 203.5063 97.2323 203.5054 97.2312 203.5052 97.2297 C 199.4872 83.6353 192.0363 71.1222 181.957 61.0426 C 171.8793 50.9656 159.3684 43.515 145.7769 39.4969 C 145.7734 39.4958 145.77 39.4944 145.7662 39.4937 C 137.9172 37.1759 129.7527 36 121.5 36 C 113.2473 36 105.0828 37.1759 97.2341 39.4937 C 97.2303 39.4944 97.2272 39.4958 97.2233 39.4969 C 83.6316 43.515 71.1211 50.9656 61.043 61.0426 C 50.9637 71.1222 43.5126 83.6353 39.4948 97.2297 C 39.4944 97.2312 39.494 97.2319 39.4935 97.2334 C 37.1755 105.082 36 113.2463 36 121.5 C 36 129.7537 37.1755 137.918 39.4935 145.7662 C 39.494 145.767 39.494 145.7673 39.494 145.7681 C 43.5119 159.3629 50.9636 171.8774 61.043 181.957 C 71.1207 192.0341 83.6316 199.4846 97.2233 203.5031 C 97.2272 203.5038 97.2303 203.5052 97.2341 203.506 C 105.0828 205.8241 113.2473 207 121.5 207 C 129.7527 207 137.9172 205.8241 145.7659 203.5063 C 145.7695 203.5056 145.7732 203.5042 145.7766 203.5031 C 159.3684 199.485 171.8789 192.0344 181.9567 181.9574 C 192.0364 171.8774 199.488 159.3633 203.5054 145.7681 C 203.5054 145.7677 203.506 145.7673 203.5063 145.7666 C 205.8245 137.918 207 129.7537 207 121.5 C 207 113.2463 205.8245 105.082 203.5066 97.2338 ZM 145.3203 60.5665 C 153.6731 63.8445 161.3778 68.8802 167.7488 75.2516 C 168.5577 76.0609 169.359 76.9054 170.1296 77.762 C 170.7894 78.4958 171.6995 78.8687 172.614 78.8687 C 173.4094 78.8687 174.2083 78.5859 174.8463 78.0121 C 176.2178 76.7787 176.3296 74.6671 175.0957 73.2957 C 174.2466 72.3516 173.3633 71.4207 172.4717 70.5286 C 165.1106 63.1677 156.1326 57.423 146.4067 53.8334 L 147.4984 47.0658 C 170.2676 54.9884 188.0109 72.7321 195.9351 95.5012 L 161.1606 101.1116 C 156.9006 92.8206 150.1791 86.0991 141.8888 81.839 L 145.3203 60.5665 ZM 159.4076 121.5004 C 159.4076 126.8401 158.3193 132.0007 156.1732 136.8398 C 156.1729 136.8406 156.1729 136.8413 156.1726 136.8417 C 156.1726 136.8417 156.1726 136.8417 156.1726 136.842 C 152.3463 145.4817 145.4812 152.347 136.8415 156.1729 C 136.8409 156.1732 136.8404 156.1732 136.8395 156.1736 C 132 158.3203 126.8392 159.4083 121.5 159.4083 C 116.1608 159.4083 110.9998 158.3199 106.1605 156.1732 C 106.1598 156.1729 106.1591 156.1725 106.1583 156.1725 C 97.5187 152.3463 90.6535 145.4813 86.8275 136.8417 C 86.8271 136.8409 86.8271 136.8402 86.8268 136.8398 C 84.6806 132.0007 83.5924 126.8397 83.5924 121.5 C 83.5924 116.1599 84.6806 110.9996 86.8268 106.1602 C 86.8271 106.1598 86.8271 106.1591 86.8275 106.1587 C 86.8275 106.1587 86.8275 106.1587 86.8275 106.1583 C 90.6535 97.5183 97.5189 90.6537 106.1583 86.8275 C 106.1591 86.8271 106.1598 86.8271 106.1605 86.8268 C 110.9998 84.6804 116.1608 83.592 121.5 83.592 C 126.8392 83.592 132.0005 84.6804 136.8395 86.8268 C 136.8404 86.8271 136.8409 86.8275 136.8415 86.8275 C 145.4813 90.6541 152.3463 97.5194 156.1726 106.1587 C 156.1729 106.1594 156.1729 106.1598 156.1732 106.1605 C 158.3193 110.9996 159.4076 116.1603 159.4076 121.5004 ZM 121.5 42.6797 C 128.1251 42.6797 134.6862 43.5007 141.0458 45.1219 L 135.5528 79.173 C 131.0414 77.6715 126.3318 76.9124 121.5 76.9124 C 116.6682 76.9124 111.9584 77.6715 107.4472 79.173 L 101.9542 45.1219 C 108.3138 43.5007 114.8749 42.6797 121.5 42.6797 ZM 97.6796 60.5665 L 101.1112 81.839 C 92.8207 86.0991 86.0993 92.8206 81.8394 101.1116 L 60.5663 97.6798 C 63.8443 89.3273 68.8832 81.6204 75.2516 75.2516 C 81.6185 68.885 89.3286 63.8438 97.6796 60.5665 ZM 95.5016 47.0654 L 96.5934 53.8337 C 86.8705 57.4222 77.8846 63.1718 70.528 70.5278 C 63.1696 77.8861 57.4226 86.8685 53.8334 96.5933 L 47.0649 95.5012 C 54.989 72.7321 72.7324 54.9884 95.5016 47.0654 ZM 42.6797 121.5 C 42.6797 114.8741 43.5004 108.3135 45.1218 101.9542 L 79.1728 107.4474 C 77.6711 111.9584 76.9124 116.6678 76.9124 121.5 C 76.9124 126.3322 77.6711 131.0416 79.1728 135.5526 L 45.1218 141.0458 C 43.5004 134.6865 42.6797 128.1259 42.6797 121.5 ZM 96.3193 190.8633 L 95.5009 195.9357 C 72.7324 188.0116 54.989 170.2679 47.0649 147.4988 L 53.8328 146.4067 C 57.423 156.1326 63.1683 165.1121 70.5284 172.4725 C 71.6382 173.5822 72.8004 174.6702 73.9827 175.7073 C 74.6166 176.2628 75.4012 176.5353 76.183 176.5353 C 77.1116 176.5353 78.0357 176.15 78.6954 175.3971 C 79.9116 174.0103 79.773 171.8998 78.3856 170.684 C 77.3128 169.7435 76.2579 168.7562 75.2512 167.7491 C 68.8812 161.3793 63.8445 153.6738 60.5663 145.3209 L 81.8386 141.8895 C 86.0986 150.1798 92.8206 156.9012 101.1107 161.1617 L 96.3193 190.8633 ZM 121.5 200.3203 C 114.8749 200.3203 108.3138 199.4996 101.9542 197.8781 L 107.4472 163.827 C 111.9584 165.3285 116.6682 166.088 121.5 166.088 C 126.3318 166.088 131.0414 165.3289 135.5528 163.827 L 141.0458 197.8781 C 134.6862 199.4996 128.1251 200.3203 121.5 200.3203 ZM 145.3202 182.4335 L 141.8888 161.161 C 150.1792 156.9009 156.9006 150.1794 161.1606 141.8884 L 182.4327 145.3202 C 179.1544 153.6746 174.1219 161.3756 167.7484 167.7484 C 161.3784 174.1179 153.6727 179.1555 145.3202 182.4335 ZM 147.4984 195.9349 L 146.6799 190.8622 L 146.4067 189.1666 C 156.1318 185.5763 165.1121 179.8312 172.4717 172.4718 C 179.8354 165.1084 185.5762 156.1348 189.1674 146.4067 L 195.9351 147.4988 C 188.0109 170.2679 170.2676 188.0116 147.4984 195.9349 ZM 197.8782 141.0458 L 163.827 135.5526 C 165.3289 131.0416 166.0874 126.3322 166.0874 121.5 C 166.0874 116.6678 165.3289 111.9584 163.827 107.4474 L 197.8782 101.9542 C 199.4998 108.3135 200.3203 114.8741 200.3203 121.5 C 200.3203 128.1259 199.4998 134.6865 197.8782 141.0458 Z" fill="#4178b5"/>
			</g>
		</g>
	</g>
</svg>