<?xml version="1.0" standalone="no"?>
<!-- Generator: Adobe Fireworks 10, Export SVG Extension by Aaron Beall (http://fireworks.abeall.com) . Version: 0.6.1  -->
<!DOCTYPE svg PUBLIC "-//W3C//DTD SVG 1.1//EN" "http://www.w3.org/Graphics/SVG/1.1/DTD/svg11.dtd">
<svg id="Untitled-Page%201" viewBox="0 0 240 240" style="background-color:#ffffff00" version="1.1"
	xmlns="http://www.w3.org/2000/svg" xmlns:xlink="http://www.w3.org/1999/xlink" xml:space="preserve"
	x="0px" y="0px" width="240px" height="240px"
>
	<g id="Layer%201">
		<g>
			<path d="M 168.6233 60.5974 C 168.7005 60.6028 168.7773 60.6082 168.8558 60.6082 C 168.9887 60.6082 169.1219 60.5974 169.252 60.5793 C 172.7371 60.6492 175.5266 63.4329 175.5308 66.845 C 175.5308 68.3958 176.8147 69.6526 178.3984 69.6526 C 179.9821 69.6526 181.266 68.3958 181.266 66.845 C 181.259 61.2634 177.2908 56.4346 171.7234 55.2341 L 171.7234 52.5359 C 171.7234 50.9851 170.4395 49.7278 168.8558 49.7278 C 167.2721 49.7278 165.9881 50.9851 165.9881 52.5359 L 165.9881 55.3616 C 160.1014 56.9026 156.2931 62.4785 157.0869 68.3943 C 157.8807 74.3101 163.0308 78.7332 169.1247 78.7332 C 172.6631 78.7332 175.5308 81.542 175.5308 85.0066 C 175.5308 88.47 172.6631 91.2791 169.1247 91.2791 C 165.5863 91.2791 162.7187 88.47 162.7187 85.0066 C 162.7187 83.4565 161.4345 82.199 159.8511 82.199 C 158.2674 82.199 156.9835 83.4565 156.9835 85.0066 C 156.9901 90.3867 160.6814 95.0933 165.9881 96.4905 L 165.9881 99.5669 C 165.9881 101.1174 167.2721 102.375 168.8558 102.375 C 170.4395 102.375 171.7234 101.1174 171.7234 99.5669 L 171.7234 96.6196 C 177.7795 95.321 181.8638 89.7627 181.1959 83.7275 C 180.5294 77.6924 175.325 73.1189 169.1247 73.1204 C 165.6843 73.1213 162.8572 70.4619 162.7215 67.0957 C 162.5869 63.7297 165.1926 60.8606 168.6233 60.5989 L 168.6233 60.5974 Z" fill="#4178b5"/>
			<path d="M 169.2884 36 C 151.6472 36 136.5916 47.2712 130.9515 62.363 L 59.7766 62.363 C 58.2 62.363 56.9201 63.7546 56.9088 65.2969 L 56.2311 163.7966 L 35.9432 163.7966 C 34.3597 163.7966 33 164.9192 33 166.4724 L 33 178.9717 C 33.0364 190.739 42.5019 200.4065 54.5076 200.9385 L 54.5076 201 L 143.0467 201 L 143.0467 200.9177 C 143.7636 200.9436 144.0591 201 144.5129 201 L 144.5746 201 C 156.9998 200.9807 167.0635 191.1121 167.0635 178.946 L 167.0635 115.7476 C 167.7805 115.7859 168.5392 115.8064 169.2814 115.8064 C 191.7314 115.8064 210 97.8845 210 75.9016 C 210 53.9202 191.7398 36 169.2884 36 ZM 55.5983 195.3845 L 55.58 195.3845 C 46.3036 195.3721 38.7773 188.0276 38.7353 178.9436 L 38.7353 169.4121 L 121.8978 169.4121 L 121.8978 178.9036 C 121.9019 184.7629 124.2921 190.3799 128.5377 194.5107 C 128.8389 194.8059 129.2126 195.0334 129.5273 195.3845 L 55.5983 195.3845 ZM 161.3282 178.9436 C 161.3297 188.0112 153.8314 195.3665 144.5717 195.3845 L 144.5171 195.3845 C 135.2193 195.3679 127.6794 188.0083 127.6331 178.906 L 127.6331 166.4724 C 127.6569 165.7537 127.3768 165.0593 126.8571 164.5518 C 126.338 164.0442 125.6279 163.7717 124.8959 163.7966 L 61.9666 163.7966 L 62.6247 67.979 L 129.3594 67.979 C 128.8515 70.5491 128.5878 73.1602 128.5737 75.7771 C 128.5685 81.312 129.7476 86.7847 132.0353 91.8457 L 104.9494 91.8457 C 103.3643 91.8457 102.0818 93.1025 102.0818 94.6531 C 102.0818 96.2036 103.3643 97.4612 104.9494 97.4612 L 135.1467 97.4612 C 141.0626 106.5701 150.5198 112.9204 161.3282 115.0459 L 161.3282 178.9436 ZM 169.2884 110.1921 C 149.9709 110.1921 134.3094 94.8589 134.3108 75.9431 C 134.3108 57.0271 149.9709 41.6938 169.2899 41.6938 C 188.6074 41.6938 204.2675 57.0286 204.2675 75.9431 C 204.2465 94.8494 188.5991 110.1716 169.2884 110.1921 Z" fill="#4178b5"/>
			<path d="M 86.542 110.5327 C 81.48 110.5327 77.3635 114.4358 77.3635 119.2341 C 77.3635 124.0327 81.48 127.9358 86.542 127.9358 C 91.6037 127.9358 95.7219 124.0327 95.7219 119.2341 C 95.7219 114.4358 91.6037 110.5327 86.542 110.5327 ZM 86.542 122.3203 C 84.6418 122.3203 83.0988 120.9358 83.0988 119.2341 C 83.0988 117.531 84.6432 116.1482 86.542 116.1482 C 88.4407 116.1482 89.9865 117.5325 89.9865 119.2341 C 89.9865 120.9358 88.4407 122.3203 86.542 122.3203 Z" fill="#4178b5"/>
			<path d="M 102.0818 119.2219 C 102.0818 120.7722 103.3643 122.0295 104.9494 122.0295 L 143.1812 122.0295 C 144.765 122.0295 146.049 120.7722 146.049 119.2219 C 146.049 117.6709 144.765 116.4141 143.1812 116.4141 L 104.9494 116.4141 C 103.3643 116.4141 102.0818 117.6709 102.0818 119.2219 Z" fill="#4178b5"/>
			<path d="M 86.542 86.124 C 81.48 86.124 77.3635 90.0291 77.3635 94.8274 C 77.3635 99.6262 81.48 103.5293 86.542 103.5293 C 91.6037 103.5293 95.7219 99.6262 95.7219 94.8274 C 95.7219 90.0291 91.6037 86.124 86.542 86.124 ZM 86.542 97.9133 C 84.6418 97.9133 83.0988 96.5288 83.0988 94.8274 C 83.0988 93.126 84.6432 91.74 86.542 91.74 C 88.4407 91.74 89.9865 93.1245 89.9865 94.8274 C 89.9865 96.5288 88.4407 97.9148 86.542 97.9148 L 86.542 97.9133 Z" fill="#4178b5"/>
			<path d="M 86.542 134.9377 C 81.48 134.9377 77.3635 138.8408 77.3635 143.6396 C 77.3635 148.4382 81.48 152.3416 86.542 152.3416 C 91.6037 152.3416 95.7219 148.4382 95.7219 143.6396 C 95.7219 138.8408 91.6037 134.9377 86.542 134.9377 ZM 86.542 146.7253 C 84.6418 146.7253 83.0988 145.3425 83.0988 143.6396 C 83.0988 141.9382 84.6432 140.5532 86.542 140.5532 C 88.4407 140.5532 89.9865 141.9382 89.9865 143.6396 C 89.9865 145.3411 88.4407 146.7253 86.542 146.7253 Z" fill="#4178b5"/>
			<path d="M 143.1812 140.9824 L 104.9494 140.9824 C 103.3643 140.9824 102.0818 142.2395 102.0818 143.7905 C 102.0818 145.3411 103.3643 146.5979 104.9494 146.5979 L 143.1812 146.5979 C 144.765 146.5979 146.049 145.3411 146.049 143.7905 C 146.049 142.2395 144.765 140.9824 143.1812 140.9824 Z" fill="#4178b5"/>
		</g>
	</g>
</svg>