<svg width="31" height="25" viewBox="0 0 31 25" fill="none" xmlns="http://www.w3.org/2000/svg">
<path d="M15.0706 15.1256L15.0708 15.1253L14.9308 15.064L14.9208 15.0597L14.921 15.0593L3.254 8.91879V19.427C3.25403 20.0298 3.48072 20.6106 3.88909 21.0541C4.29678 21.4968 4.85578 21.7703 5.45545 21.8206L5.65922 21.8291H25.3436C25.9466 21.829 26.5276 21.6022 26.9711 21.1935C27.4139 20.7855 27.6872 20.2262 27.7372 19.6262L27.7457 19.4238V8.91735L16.0803 15.0578L15.0706 15.1256ZM15.0706 15.1256L15.0803 15.1291M15.0706 15.1256L15.0803 15.1291M15.0803 15.1291C15.2428 15.1872 15.4157 15.2109 15.5878 15.1986C15.7599 15.1864 15.9276 15.1384 16.0801 15.0579L15.0803 15.1291ZM5.65609 0.683252V0.683197L5.65201 0.683307L5.38368 0.690599L5.38368 0.690534L5.37926 0.690784C4.13233 0.761493 2.95973 1.30667 2.10199 2.21448C1.24426 3.12229 0.766425 4.32391 0.766504 5.57284C0.766504 5.57284 0.766504 5.57284 0.766504 5.57285V19.427H0.766449L0.766559 19.4311L0.773851 19.6994L0.773786 19.6994L0.774036 19.7038C0.844745 20.9508 1.38992 22.1234 2.29773 22.9811C3.20555 23.8388 4.40717 24.3167 5.65609 24.3166H25.3436V24.3166L25.3477 24.3165L25.616 24.3092L25.616 24.3093L25.6204 24.3091C26.8673 24.2383 28.0399 23.6932 28.8977 22.7854C29.7554 21.8775 30.2333 20.6759 30.2332 19.427V5.57284H30.2332L30.2331 5.56876L30.2258 5.30043L30.2259 5.30043L30.2256 5.29601C30.1549 4.04908 29.6097 2.87648 28.7019 2.01874C27.7941 1.16101 26.5925 0.68317 25.3436 0.683252H5.65609ZM5.65609 3.17075H25.3404L25.5428 3.17924C26.1427 3.22917 26.7021 3.50255 27.1101 3.94532C27.5187 4.38881 27.7456 4.96979 27.7457 5.57284V6.10644L15.4998 12.5521L3.254 6.10789V5.57596L3.26249 5.37218C3.31276 4.77252 3.58628 4.21352 4.029 3.80584C4.47246 3.39747 5.05325 3.17077 5.65609 3.17075Z" fill="white" stroke="white" stroke-width="0.3"/>
</svg>
