<?xml version="1.0" standalone="no"?>
<!-- Generator: Adobe Fireworks 10, Export SVG Extension by Aaron Beall (http://fireworks.abeall.com) . Version: 0.6.1  -->
<!DOCTYPE svg PUBLIC "-//W3C//DTD SVG 1.1//EN" "http://www.w3.org/Graphics/SVG/1.1/DTD/svg11.dtd">
<svg id="Untitled-Page%201" viewBox="0 0 70 70" style="background-color:#ffffff00" version="1.1"
	xmlns="http://www.w3.org/2000/svg" xmlns:xlink="http://www.w3.org/1999/xlink" xml:space="preserve"
	x="0px" y="0px" width="70px" height="70px"
>
	<g id="Layer%201">
		<g>
			<g>
				<path d="M 34.9999 3 C 52.6732 3 67 17.3267 67 35 C 67 52.6733 52.6732 67 34.9999 67 C 17.3267 67 3 52.6733 3 35 C 3 17.3267 17.3267 3 34.9999 3 ZM 34.9999 8.0378 C 49.8912 8.0378 61.9622 20.1091 61.9622 35 C 61.9622 49.8909 49.8912 61.9622 34.9999 61.9622 C 20.1086 61.9622 8.0377 49.8909 8.0377 35 C 8.0377 20.1091 20.1086 8.0378 34.9999 8.0378 Z" fill="#d8b666"/>
			</g>
			<g>
				<path d="M 34.5615 16.1509 C 41.3407 16.1509 46.8354 21.6458 46.8354 28.4248 C 46.8354 35.2034 41.3407 40.6987 34.5615 40.6987 C 27.7825 40.6987 22.2876 35.2034 22.2876 28.4248 C 22.2876 21.6458 27.7825 16.1509 34.5615 16.1509 ZM 34.5615 20.2751 C 39.0625 20.2751 42.7114 23.9236 42.7114 28.4248 C 42.7114 32.9258 39.0625 36.5747 34.5615 36.5747 C 30.0608 36.5747 26.4117 32.9258 26.4117 28.4248 C 26.4117 23.9236 30.0608 20.2751 34.5615 20.2751 Z" fill="#d8b666"/>
			</g>
			<path d="M 34.5615 50.7515 C 41.2542 50.7515 47.2859 53.5771 51.5304 58.1011 L 53.8492 56.4795 L 56.5012 55.1555 C 51.196 48.9888 43.3348 45.0823 34.5615 45.0823 C 26.2834 45.0823 18.8197 48.5571 13.547 54.1296 L 17.0753 58.6711 C 21.3395 53.8171 27.5933 50.7515 34.5615 50.7515 Z" fill="#d8b666"/>
		</g>
	</g>
</svg>