<?xml version="1.0" standalone="no"?>
<!-- Generator: Adobe Fireworks 10, Export SVG Extension by Aaron Beall (http://fireworks.abeall.com) . Version: 0.6.1  -->
<!DOCTYPE svg PUBLIC "-//W3C//DTD SVG 1.1//EN" "http://www.w3.org/Graphics/SVG/1.1/DTD/svg11.dtd">
<svg id="Untitled-Page%201" viewBox="0 0 70 70" style="background-color:#ffffff00" version="1.1"
	xmlns="http://www.w3.org/2000/svg" xmlns:xlink="http://www.w3.org/1999/xlink" xml:space="preserve"
	x="0px" y="0px" width="70px" height="70px"
>
	<g id="Layer%201">
		<g>
			<path d="M 44.1965 10.7354 C 44.1965 9.0774 45.1185 8.0676 46.6326 8.0676 L 59.4964 8.0676 C 61.0105 8.0676 61.9326 9.0774 61.9326 10.7354 L 61.9326 23.1355 C 61.9326 24.7937 61.0105 25.8035 59.4964 25.8035 L 46.6326 25.8035 C 45.1185 25.8035 44.1965 24.7937 44.1965 23.1355 L 44.1965 10.7354 ZM 39.129 7.1929 L 39.129 26.6782 C 39.129 29.2839 40.5779 30.8708 42.9572 30.8708 L 63.1718 30.8708 C 65.5511 30.8708 67 29.2839 67 26.6782 L 67 7.1929 C 67 4.5869 65.5511 3 63.1718 3 L 42.9572 3 C 40.5779 3 39.129 4.5869 39.129 7.1929 Z" fill="#d8b666"/>
			<path d="M 8.0674 10.7354 C 8.0674 9.0774 8.9895 8.0676 10.5036 8.0676 L 23.3674 8.0676 C 24.8815 8.0676 25.8035 9.0774 25.8035 10.7354 L 25.8035 23.1355 C 25.8035 24.7937 24.8815 25.8035 23.3674 25.8035 L 10.5036 25.8035 C 8.9895 25.8035 8.0674 24.7937 8.0674 23.1355 L 8.0674 10.7354 ZM 3 7.1929 L 3 26.6782 C 3 29.2839 4.4489 30.8708 6.8282 30.8708 L 27.0428 30.8708 C 29.4221 30.8708 30.871 29.2839 30.871 26.6782 L 30.871 7.1929 C 30.871 4.5869 29.4221 3 27.0428 3 L 6.8282 3 C 4.4489 3 3 4.5869 3 7.1929 Z" fill="#d8b666"/>
			<path d="M 44.1965 46.8645 C 44.1965 45.2063 45.1185 44.1965 46.6326 44.1965 L 59.4964 44.1965 C 61.0105 44.1965 61.9326 45.2063 61.9326 46.8645 L 61.9326 59.2646 C 61.9326 60.9226 61.0105 61.9324 59.4964 61.9324 L 46.6326 61.9324 C 45.1185 61.9324 44.1965 60.9226 44.1965 59.2646 L 44.1965 46.8645 ZM 39.129 43.3218 L 39.129 62.8071 C 39.129 65.4131 40.5779 67 42.9572 67 L 63.1718 67 C 65.5511 67 67 65.4131 67 62.8071 L 67 43.3218 C 67 40.7161 65.5511 39.1292 63.1718 39.1292 L 42.9572 39.1292 C 40.5779 39.1292 39.129 40.7161 39.129 43.3218 Z" fill="#d8b666"/>
			<path d="M 8.0674 46.8645 C 8.0674 45.2063 8.9895 44.1965 10.5036 44.1965 L 23.3674 44.1965 C 24.8815 44.1965 25.8035 45.2063 25.8035 46.8645 L 25.8035 59.2646 C 25.8035 60.9226 24.8815 61.9324 23.3674 61.9324 L 10.5036 61.9324 C 8.9895 61.9324 8.0674 60.9226 8.0674 59.2646 L 8.0674 46.8645 ZM 3 43.3218 L 3 62.8071 C 3 65.4131 4.4489 67 6.8282 67 L 27.0428 67 C 29.4221 67 30.871 65.4131 30.871 62.8071 L 30.871 43.3218 C 30.871 40.7161 29.4221 39.1292 27.0428 39.1292 L 6.8282 39.1292 C 4.4489 39.1292 3 40.7161 3 43.3218 Z" fill="#d8b666"/>
		</g>
	</g>
</svg>