<?xml version="1.0" standalone="no"?>
<!-- Generator: Adobe Fireworks 10, Export SVG Extension by Aaron Beall (http://fireworks.abeall.com) . Version: 0.6.1  -->
<!DOCTYPE svg PUBLIC "-//W3C//DTD SVG 1.1//EN" "http://www.w3.org/Graphics/SVG/1.1/DTD/svg11.dtd">
<svg id="Untitled-Page%201" viewBox="0 0 70 70" style="background-color:#ffffff00" version="1.1"
	xmlns="http://www.w3.org/2000/svg" xmlns:xlink="http://www.w3.org/1999/xlink" xml:space="preserve"
	x="0px" y="0px" width="70px" height="70px"
>
	<g id="Layer%201">
		<g>
			<path d="M 56.8472 2.7368 C 57.1821 2.7368 57.5168 2.7368 57.8517 2.7368 C 58.1675 2.9653 58.5395 3.1453 58.7881 3.4319 C 59.4674 4.2153 59.3649 5.2603 58.5571 6.0764 C 57.2805 7.3672 55.9894 8.6433 54.6811 9.9485 C 55.9911 11.2537 57.2588 12.5283 58.5406 13.7888 C 59.0715 14.311 59.3111 14.9182 59.2047 15.6565 C 59.151 16.0281 59.0406 16.3999 59.0479 16.7698 C 59.0542 17.0959 59.1019 17.4802 59.2803 17.7344 C 60.0491 18.8279 60.8807 19.8772 61.6741 20.9539 C 63.0844 22.8682 64.4838 24.7908 65.8879 26.71 C 65.8879 38.1736 65.8879 49.6372 65.8879 61.1008 C 65.8428 61.2336 65.787 61.3633 65.7543 61.499 C 65.1281 64.0857 63.5607 65.8198 61.0455 66.6919 C 60.6985 66.8123 60.3398 66.8979 59.9863 67 C 50.1085 67 40.2307 67 30.353 67 C 30.2611 66.9592 30.1729 66.8997 30.0768 66.8806 C 27.1892 66.3015 25.0691 64.1577 24.5643 61.2656 C 24.4512 60.6177 24.5955 59.863 24.308 59.325 C 24.0161 58.7783 23.303 58.4727 22.8322 58.0032 C 16.8676 52.0566 10.9291 46.0837 4.9457 40.156 C 3.4102 38.635 1.9867 37.0923 1.5986 34.8684 C 1.5986 34.199 1.5986 33.5295 1.5986 32.8601 C 1.6426 32.7488 1.7035 32.6409 1.7281 32.5249 C 2.008 31.2043 2.5994 30.0439 3.5538 29.0886 C 11.2427 21.3948 18.9329 13.7017 26.6443 6.0305 C 26.9725 5.7041 27.4943 5.4868 27.9597 5.3999 C 29.2929 5.1509 30.6434 4.9937 31.9873 4.8025 C 35.358 4.3232 38.7299 3.8513 42.0994 3.3635 C 43.4185 3.1726 44.7323 2.9468 46.0486 2.7368 C 46.4254 2.7368 46.8019 2.7368 47.1786 2.7368 C 47.6185 3.0767 48.0952 3.3792 48.4914 3.7637 C 49.6718 4.9099 50.8206 6.0886 52.0053 7.2786 C 53.1863 6.0957 54.3218 4.9324 55.4897 3.803 C 55.9011 3.4048 56.3923 3.0898 56.8472 2.7368 ZM 49.4042 15.3582 C 49.7923 15.7329 50.2219 16.125 50.6257 16.5422 C 51.398 17.3403 51.4216 18.4993 50.6976 19.2454 C 49.965 20 48.7911 20.0334 47.9968 19.2551 C 46.2192 17.5129 44.4601 15.7517 42.7148 13.9773 C 41.9329 13.1824 41.9442 12.01 42.6819 11.2747 C 43.4405 10.5183 44.6151 10.5366 45.4276 11.3511 C 45.8359 11.7605 46.1909 12.2231 46.5526 12.6418 C 47.5533 11.6438 48.4102 10.7898 49.2955 9.9072 C 48.2749 8.8892 47.2459 7.8494 46.1945 6.8325 C 46.0756 6.7178 45.8223 6.6714 45.6459 6.6963 C 40.4537 7.4219 35.2647 8.1709 30.0712 8.8865 C 29.2943 8.9934 28.6995 9.2715 28.1305 9.8435 C 20.9614 17.0503 13.7646 24.2297 6.5755 31.4167 C 4.9586 33.0332 4.9559 34.7808 6.5697 36.3943 C 12.8856 42.7092 19.2029 49.0227 25.5195 55.3369 C 27.1754 56.9924 28.8907 56.9951 30.5446 55.3423 C 37.557 48.3335 44.5564 41.3115 51.5966 34.3311 C 52.4822 33.4529 52.993 32.5632 53.1542 31.2893 C 53.788 26.2793 54.5534 21.2856 55.26 16.2842 C 55.2827 16.1226 55.2538 15.8896 55.1516 15.7844 C 54.1239 14.7241 53.0757 13.6833 52.0838 12.6877 C 51.1797 13.5886 50.3244 14.4409 49.4042 15.3582 ZM 28.2541 60.3479 C 28.5403 62.1812 29.7523 63.2334 31.5468 63.2344 C 40.6281 63.2397 49.7093 63.24 58.7905 63.2341 C 60.7628 63.2329 62.1183 61.8928 62.1197 59.9314 C 62.1268 49.3896 62.1251 38.8479 62.1121 28.3064 C 62.1118 28.0393 62.0057 27.729 61.8478 27.5127 C 60.7754 26.0439 59.6746 24.5955 58.587 23.1379 C 58.4933 23.0125 58.4279 22.8665 58.2871 22.6216 C 58.178 22.9214 58.1359 22.9956 58.1246 23.0745 C 57.6499 26.4229 57.1547 29.7686 56.7194 33.1221 C 56.5765 34.2234 56.1961 35.1025 55.3817 35.9106 C 48.105 43.1306 40.8525 50.3752 33.6276 57.6472 C 32.1269 59.1577 30.4763 60.2444 28.2541 60.3479 Z" fill="#ffffff"/>
			<path d="M 36.1616 18.8452 C 36.0995 19.1116 36.0556 19.4009 35.9644 19.6746 C 33.0725 28.3562 30.1736 37.0349 27.2843 45.7168 C 27.0234 46.5005 26.6144 47.1216 25.7535 47.2844 C 24.2263 47.5732 23.1194 46.2222 23.6284 44.6807 C 24.6479 41.5925 25.6879 38.5107 26.7168 35.4253 C 28.6033 29.769 30.4872 24.1118 32.3741 18.4556 C 32.7097 17.4495 33.3702 16.9243 34.2735 16.9299 C 35.0723 16.9348 35.7582 17.4282 36.0249 18.2083 C 36.0913 18.4023 36.1129 18.6118 36.1616 18.8452 Z" fill="#ffffff"/>
			<path d="M 40.4407 37.7747 C 37.3078 37.761 34.7518 35.1868 34.7964 32.0908 C 34.8416 28.9648 37.4061 26.4473 40.5216 26.4707 C 43.5924 26.4937 46.1489 29.0747 46.1369 32.1406 C 46.1247 35.2642 43.5725 37.7883 40.4407 37.7747 ZM 42.316 32.1296 C 42.3159 31.0859 41.4728 30.2405 40.446 30.2544 C 39.4376 30.2678 38.6235 31.0898 38.6133 32.1045 C 38.6029 33.1548 39.4149 33.9912 40.4516 33.9978 C 41.4871 34.0049 42.3162 33.1741 42.316 32.1296 Z" fill="#ffffff"/>
			<path d="M 19.1196 37.7747 C 15.9717 37.752 13.4857 35.2246 13.5139 32.0759 C 13.5418 28.948 16.0955 26.4429 19.2276 26.4705 C 22.3273 26.4978 24.8499 29.0903 24.8176 32.2158 C 24.7857 35.2964 22.2222 37.7971 19.1196 37.7747 ZM 19.1747 33.9976 C 20.1846 33.9893 21.0486 33.1138 21.0341 32.1133 C 21.0195 31.1074 20.1331 30.24 19.1357 30.2549 C 18.1259 30.2705 17.2775 31.1416 17.2878 32.1526 C 17.2982 33.1743 18.1489 34.0059 19.1747 33.9976 Z" fill="#ffffff"/>
		</g>
	</g>
</svg>