<?xml version="1.0" standalone="no"?>
<!-- Generator: Adobe Fireworks 10, Export SVG Extension by Aaron Beall (http://fireworks.abeall.com) . Version: 0.6.1  -->
<!DOCTYPE svg PUBLIC "-//W3C//DTD SVG 1.1//EN" "http://www.w3.org/Graphics/SVG/1.1/DTD/svg11.dtd">
<svg id="Untitled-Page%201" viewBox="0 0 70 70" style="background-color:#ffffff00" version="1.1"
	xmlns="http://www.w3.org/2000/svg" xmlns:xlink="http://www.w3.org/1999/xlink" xml:space="preserve"
	x="0px" y="0px" width="70px" height="70px"
>
	<g id="Layer%201">
		<g>
			<path d="M 18.87 53.0012 C 19.1591 53.3025 19.3152 53.4731 19.4792 53.6353 C 21.6434 55.7788 23.8162 57.9143 25.9708 60.0674 C 27.0732 61.1689 27.5469 62.4778 27.0708 64.0078 C 26.583 65.5754 25.4934 66.5579 23.8831 66.908 C 22.4745 67.2146 21.274 66.7361 20.2699 65.752 C 18.9276 64.4363 17.5972 63.1084 16.261 61.7866 C 13.0206 58.5803 9.7791 55.3752 6.5397 52.1677 C 4.4789 50.1272 4.4877 47.8413 6.5609 45.7891 C 11.1061 41.2905 15.6446 36.7856 20.2004 32.2979 C 22.2628 30.2664 25.3046 30.657 26.7099 33.1025 C 27.6563 34.7498 27.3807 36.502 25.9086 37.9719 C 23.7681 40.1086 21.6111 42.229 19.4625 44.3579 C 19.3014 44.5173 19.1503 44.687 18.8887 44.9636 C 19.3034 44.9636 19.5751 44.9636 19.8467 44.9636 C 33.4208 44.9636 46.9949 44.9634 60.5689 44.9648 C 62.7396 44.9648 64.1658 45.8909 64.7572 47.6709 C 65.6013 50.2114 64.0006 52.6807 61.3219 52.9609 C 60.999 52.9946 60.6719 52.9995 60.3467 52.9995 C 46.8594 53.0015 33.3722 53.0012 19.8849 53.0012 C 19.6055 53.0012 19.326 53.0012 18.87 53.0012 Z" fill="#ffffff"/>
			<path d="M 50.9749 25.0381 C 50.7011 25.0381 50.4273 25.0381 50.1536 25.0381 C 36.576 25.0381 22.9988 25.0388 9.4216 25.0371 C 7.3568 25.0369 5.9268 24.1465 5.3058 22.4897 C 4.3405 19.9138 5.9664 17.3181 8.7253 17.0383 C 9.0485 17.0054 9.3757 17.0027 9.701 17.0024 C 23.1915 17.0007 36.6818 17.001 50.1722 17.001 C 50.4424 17.001 50.7125 17.001 51.137 17.001 C 50.864 16.7104 50.7132 16.5396 50.5518 16.3796 C 48.3873 14.2349 46.2171 12.0962 44.0578 9.9468 C 42.9492 8.843 42.4831 7.5313 42.9448 6.0054 C 43.4201 4.4346 44.5131 3.4563 46.1229 3.0945 C 47.3458 2.8191 48.4425 3.1597 49.4013 3.9409 C 49.6353 4.1313 49.8478 4.3494 50.0627 4.562 C 54.5181 8.9688 58.9728 13.3765 63.4269 17.7847 C 65.5306 19.8665 65.5239 22.1716 63.4095 24.2634 C 58.8781 28.7471 54.3508 33.2351 49.8124 37.7117 C 48.0877 39.4133 45.5787 39.4563 43.9977 37.8418 C 42.3964 36.2068 42.4 33.731 44.0219 32.1167 C 46.1661 29.9829 48.3196 27.8582 50.4744 25.7346 C 50.6582 25.5537 50.881 25.4109 51.0858 25.2505 C 51.049 25.1797 51.0119 25.1089 50.9749 25.0381 Z" fill="#ffffff"/>
		</g>
	</g>
</svg>