<?xml version="1.0" standalone="no"?>
<!-- Generator: Adobe Fireworks 10, Export SVG Extension by Aaron Beall (http://fireworks.abeall.com) . Version: 0.6.1  -->
<!DOCTYPE svg PUBLIC "-//W3C//DTD SVG 1.1//EN" "http://www.w3.org/Graphics/SVG/1.1/DTD/svg11.dtd">
<svg id="Untitled-Page%201" viewBox="0 0 70 70" style="background-color:#ffffff00" version="1.1"
	xmlns="http://www.w3.org/2000/svg" xmlns:xlink="http://www.w3.org/1999/xlink" xml:space="preserve"
	x="0px" y="0px" width="70px" height="70px"
>
	<g id="Layer%201">
		<g>
			<path d="M 59.4854 67 C 43.6195 67 27.7535 67 11.8875 67 C 11.7579 66.958 11.6312 66.8938 11.4984 66.877 C 6.6033 66.2605 2.642 62.8083 1.399 58.062 C 1.2493 57.49 1.1323 56.9099 1 56.3333 C 1 41.3262 1 26.3191 1 11.3118 C 1.0439 11.2109 1.109 11.1135 1.1284 11.0081 C 1.7901 7.4116 3.8639 4.9561 7.2611 3.6062 C 7.9788 3.3213 8.7617 3.198 9.5146 3 C 22.2166 3 34.9188 3 47.6208 3 C 48.0439 3.2698 48.5455 3.469 48.873 3.8254 C 49.4827 4.4893 49.6107 5.3057 49.2059 6.1401 C 48.7689 7.0415 48.0257 7.4385 47.0151 7.4382 C 35.4311 7.4304 23.847 7.4333 12.263 7.4336 C 11.635 7.4336 11.0062 7.418 10.3791 7.4436 C 7.5417 7.5596 5.3307 9.967 5.4753 12.769 C 5.6141 15.457 7.8602 17.5464 10.6453 17.5471 C 25.1834 17.552 39.7216 17.55 54.2598 17.55 C 56.6091 17.55 58.9587 17.5305 61.3078 17.5566 C 63.1786 17.5776 64.7815 18.2593 66.1087 19.5876 C 67.1642 20.6436 67.6674 21.958 68 23.3638 C 68 35.0925 68 46.821 68 58.5498 C 67.9573 58.6792 67.8979 58.8054 67.8745 58.9385 C 67.2319 62.5632 65.1542 65.0356 61.7344 66.3938 C 61.0181 66.6785 60.2368 66.802 59.4854 67 ZM 5.4641 20.7476 C 5.4641 20.8716 5.4641 21.1155 5.4641 21.3591 C 5.4641 32.4844 5.463 43.6094 5.4647 54.7341 C 5.4654 59.3333 8.7136 62.5562 13.3602 62.5654 C 16.6162 62.5715 19.8722 62.5667 23.1281 62.5667 C 34.803 62.5667 46.478 62.5698 58.1529 62.5645 C 61.3605 62.5627 63.5303 60.3967 63.5354 57.219 C 63.5382 55.6265 63.536 54.0339 63.536 52.4414 C 63.536 52.2224 63.536 52.0037 63.536 51.7571 C 60.5905 51.7571 57.7531 51.8096 54.9186 51.7429 C 51.7754 51.6689 49.3178 50.269 47.5606 47.6785 C 46.2801 45.79 46.0237 43.6638 46.1179 41.4595 C 46.3307 36.4912 50.2148 32.7913 55.2242 32.7866 C 57.7359 32.7844 60.2477 32.7861 62.7595 32.7861 C 63.0051 32.7861 63.2506 32.7861 63.536 32.7861 C 63.536 30.0391 63.5361 27.3879 63.5359 24.7366 C 63.5357 22.7734 62.7317 21.979 60.7426 21.979 C 44.1837 21.9788 27.6249 21.9795 11.066 21.9758 C 10.5095 21.9756 9.9304 22.0186 9.4012 21.8862 C 8.091 21.5588 6.8035 21.1416 5.4641 20.7476 ZM 63.5019 37.2546 C 63.3847 37.2393 63.2971 37.2173 63.2096 37.2173 C 60.4216 37.2158 57.633 37.1926 54.8452 37.2288 C 53.6605 37.2439 52.6573 37.7581 51.8269 38.6067 C 50.6744 39.7847 50.5288 41.2466 50.5731 42.78 C 50.6501 45.4421 52.5656 47.321 55.2473 47.3271 C 57.7799 47.333 60.3126 47.3284 62.8453 47.3286 C 63.0657 47.3286 63.286 47.3286 63.5019 47.3286 C 63.5019 43.9077 63.5019 40.595 63.5019 37.2546 Z" fill="#ffffff"/>
			<path d="M 30.0429 10.3032 C 35.6255 10.3032 41.2082 10.3013 46.7907 10.3047 C 48.0827 10.3054 48.855 10.832 49.1789 11.9038 C 49.5315 13.0706 48.791 14.3677 47.5967 14.6294 C 47.2373 14.7083 46.8588 14.7278 46.489 14.7278 C 35.5099 14.7329 24.5307 14.7327 13.5516 14.7312 C 12.0266 14.731 11.188 14.1965 10.8644 13.0313 C 10.5154 11.7742 11.4253 10.4548 12.7378 10.3271 C 13.0147 10.3 13.2953 10.304 13.5742 10.304 C 19.0637 10.303 24.5533 10.3032 30.0429 10.3032 Z" fill="#ffffff"/>
		</g>
	</g>
</svg>