<?xml version="1.0" standalone="no"?>
<!-- Generator: Adobe Fireworks 10, Export SVG Extension by Aaron Beall (http://fireworks.abeall.com) . Version: 0.6.1  -->
<!DOCTYPE svg PUBLIC "-//W3C//DTD SVG 1.1//EN" "http://www.w3.org/Graphics/SVG/1.1/DTD/svg11.dtd">
<svg id="Untitled-Page%201" viewBox="0 0 70 70" style="background-color:#ffffff00" version="1.1"
	xmlns="http://www.w3.org/2000/svg" xmlns:xlink="http://www.w3.org/1999/xlink" xml:space="preserve"
	x="0px" y="0px" width="70px" height="70px"
>
	<g id="Layer%201">
		<g id="890122">
			<g>
				<path d="M 39.6626 34.0049 C 38.4625 30.4636 34.6031 28.5605 31.0426 29.7542 C 27.7054 30.8729 25.7784 34.3396 26.6002 37.7451 C 29.0494 46.2141 38.008 53.814 46.2129 60.2715 C 46.802 60.7356 47.6579 60.6371 48.1246 60.051 C 48.5912 59.4648 48.492 58.6139 47.9028 58.1495 C 40.0272 51.9517 31.4415 44.6956 29.2154 36.9983 C 28.5924 34.842 29.8449 32.5918 32.0129 31.972 C 34.181 31.3525 36.4435 32.5984 37.0665 34.7545 C 38.5523 39.8969 45.9408 46.2518 52.9699 51.7839 C 53.5591 52.248 54.415 52.1492 54.8817 51.5632 C 55.3483 50.9773 55.2491 50.1261 54.6599 49.6617 C 50.9481 46.7471 41.1186 39.0117 39.6626 34.0049 L 39.6626 34.0049 Z" fill="#ffffff"/>
				<path d="M 49.9766 30.5161 C 47.0184 21.4957 37.4342 16.4003 28.2495 18.9645 C 18.8592 21.6445 13.4312 31.3877 16.1257 40.7268 C 16.1276 40.7334 16.1295 40.7402 16.1314 40.7467 C 18.3657 48.4658 13.5761 50.6066 12.0494 51.0775 C 11.3325 51.3019 10.9341 52.0613 11.1595 52.7744 C 11.385 53.4873 12.1489 53.8838 12.8658 53.6597 C 17.0268 52.3658 21.068 48.0137 18.7466 39.9968 C 16.4581 32.097 21.0422 23.8478 28.9853 21.5718 C 28.9895 21.5707 28.9937 21.5695 28.9977 21.5682 C 36.8515 19.3727 45.0344 23.7995 47.4484 31.5499 C 47.4805 31.6555 47.5263 31.7563 47.5845 31.8502 C 47.726 32.0831 48.0172 32.573 56.7635 39.6317 C 57.3466 40.1033 58.2038 40.0154 58.678 39.4353 C 59.1521 38.8552 59.0639 38.0027 58.4806 37.5315 C 55.3021 34.9656 50.6569 31.1521 49.9766 30.5161 L 49.9766 30.5161 Z" fill="#ffffff"/>
				<path d="M 44.8985 32.5081 C 43.0192 26.0537 36.246 22.3254 29.7488 24.1692 C 23.3693 26.1281 19.6665 32.7302 21.3426 39.158 C 24.0912 51.6079 22.0366 54.4822 16.3979 56.236 C 15.681 56.4602 15.2826 57.22 15.508 57.9331 C 15.7334 58.646 16.4974 59.0425 17.2143 58.818 C 25.0926 56.3823 26.8043 51.2614 24.0176 38.5759 C 22.6638 33.5459 25.526 28.3462 30.5162 26.7703 C 35.5725 25.3425 40.8387 28.2449 42.3023 33.2659 C 42.8466 35.1116 44.2916 37.6449 55.4355 46.417 C 56.0247 46.8809 56.8805 46.7822 57.3472 46.1962 C 57.8139 45.6104 57.7146 44.759 57.1254 44.2948 C 47.0102 36.3379 45.2794 33.8181 44.8985 32.5081 L 44.8985 32.5081 Z" fill="#ffffff"/>
				<path d="M 48.643 51.3455 C 44.0385 47.8701 36.3317 42.0566 34.435 35.5015 C 34.2151 34.7869 33.4541 34.3848 32.7355 34.6035 C 32.0346 34.8169 31.6296 35.5444 31.8197 36.2484 C 33.9641 43.6697 42.1226 49.8245 46.9965 53.5024 C 47.9871 54.2119 48.9407 54.9708 49.854 55.7761 C 50.3945 56.2952 51.2559 56.2804 51.778 55.743 C 52.2874 55.2185 52.2874 54.387 51.778 53.8628 C 50.7815 52.9656 49.7348 52.125 48.643 51.3455 L 48.643 51.3455 Z" fill="#ffffff"/>
				<path d="M 41.2791 60.7588 C 39.9038 58.2214 37.3707 56.51 34.4921 56.1738 C 29.8658 56.1738 29.1502 63.9957 29.0494 65.5627 C 29.0029 66.3086 29.5731 66.9508 30.323 66.9973 L 30.4101 66.9973 C 31.1299 66.9988 31.7262 66.4424 31.7709 65.728 C 31.9423 62.9402 33.0145 58.8805 34.4921 58.8805 C 36.5087 58.8805 37.94 60.813 39.0885 62.3638 C 39.4678 62.9017 39.8833 63.4136 40.3321 63.8958 C 40.8725 64.415 41.734 64.3999 42.2561 63.8624 C 42.7654 63.3381 42.7654 62.5066 42.2561 61.9822 C 41.9041 61.5959 41.5778 61.187 41.2791 60.7588 L 41.2791 60.7588 Z" fill="#ffffff"/>
				<path d="M 28.9869 48.9963 C 28.7311 48.2935 27.951 47.9301 27.2444 48.1843 C 26.5798 48.4236 26.21 49.1294 26.3936 49.8081 C 27.5583 53.4268 25.2696 60.5286 21.8272 61.6409 C 21.11 61.8643 20.7107 62.6235 20.935 63.3367 C 21.1595 64.05 21.9229 64.4473 22.64 64.224 C 22.6494 64.2211 22.6588 64.218 22.6681 64.2148 C 27.9038 62.537 30.4291 53.4917 28.9869 48.9963 L 28.9869 48.9963 Z" fill="#ffffff"/>
				<path d="M 58.0426 30.5269 C 56.3418 29.9856 55.0056 27.8203 53.4571 25.3492 C 50.1806 20.0823 45.6877 12.8694 33.1314 12.8694 C 20.3625 12.8845 10.0151 23.1756 10.0001 35.8749 C 10.0001 36.6226 10.6094 37.2283 11.3609 37.2283 C 12.1123 37.2283 12.7216 36.6226 12.7216 35.8749 C 12.7336 24.6691 21.8643 15.588 33.1315 15.576 C 44.172 15.576 48.039 21.7849 51.1468 26.7756 C 52.9756 29.7124 54.5539 32.2482 57.2045 33.1035 C 57.9167 33.342 58.6884 32.9612 58.9284 32.2532 C 59.1684 31.5447 58.7856 30.7773 58.0735 30.5387 C 58.0641 30.5354 58.0548 30.5325 58.0454 30.5295 L 58.0426 30.5269 L 58.0426 30.5269 Z" fill="#ffffff"/>
				<path d="M 12.7214 46.7009 C 13.4729 46.7009 14.0821 46.0952 14.082 45.3478 C 14.082 45.1372 14.0327 44.9296 13.9379 44.7415 C 13.3572 43.6591 12.9468 42.4944 12.7214 41.2881 C 12.7214 40.5408 12.1122 39.9348 11.3607 39.9348 C 10.6092 39.9348 10 40.5408 10 41.2881 C 10.2184 42.9202 10.7281 44.5004 11.5048 45.9541 C 11.7357 46.4119 12.2066 46.7009 12.7214 46.7009 L 12.7214 46.7009 Z" fill="#ffffff"/>
				<path d="M 12.0139 18.085 C 12.6556 18.4739 13.4929 18.2722 13.884 17.6339 C 13.8848 17.6328 13.8855 17.6315 13.8862 17.6303 C 15.0673 15.6923 20.8854 10.163 31.7709 10.163 C 42.2316 10.163 49.6745 15.4325 51.0161 17.6303 C 51.406 18.2693 52.2431 18.473 52.8856 18.085 C 53.5281 17.6972 53.7328 16.8646 53.3428 16.2255 L 53.3428 16.2255 C 51.4759 13.1672 43.2331 7.4565 31.7709 7.4565 C 19.582 7.4565 13.0481 13.7872 11.5568 16.2283 C 11.1684 16.8666 11.3729 17.6972 12.0139 18.085 L 12.0139 18.085 Z" fill="#ffffff"/>
				<path d="M 20.069 7.3372 C 20.6922 7.0667 21.2201 6.7961 21.7209 6.5253 C 23.7673 5.4996 25.2395 4.7499 31.7707 4.7499 C 36.1807 4.5082 40.5915 5.2103 44.7051 6.8096 C 45.225 7.0018 45.7475 7.194 46.2944 7.3804 C 46.437 7.4299 46.587 7.4554 46.738 7.4562 C 47.4895 7.4576 48.0997 6.8528 48.1011 6.1056 C 48.1021 5.5262 47.7325 5.0106 47.1815 4.8229 C 46.6535 4.6417 46.1528 4.4576 45.6522 4.2816 C 41.2361 2.5687 36.5049 1.8058 31.7709 2.0433 C 24.5757 2.0433 22.7741 2.9635 20.4882 4.1301 C 20.0284 4.3655 19.5385 4.6147 18.967 4.869 C 18.2688 5.1451 17.9276 5.9321 18.205 6.6263 C 18.4827 7.3209 19.2738 7.6602 19.9721 7.3842 C 20.0078 7.3702 20.0428 7.3546 20.0772 7.3372 L 20.069 7.3372 L 20.069 7.3372 Z" fill="#ffffff"/>
				<path d="M 56.3253 25.4602 C 56.5811 26.163 57.3612 26.5264 58.0678 26.272 C 58.7325 26.0327 59.1023 25.3273 58.9187 24.6483 C 58.1467 22.6601 57.1891 20.748 56.0586 18.9376 C 55.6648 18.3008 54.8266 18.1021 54.1864 18.4937 C 53.5461 18.8852 53.3463 19.7189 53.7401 20.3557 C 54.753 21.9773 55.6183 23.6856 56.3253 25.4602 L 56.3253 25.4602 Z" fill="#ffffff"/>
			</g>
			<path d="M 47.0484 60.5638 C 46.7421 60.5637 46.4449 60.4607 46.2048 60.2715 C 38 53.8112 29.0496 46.2141 26.6004 37.7451 C 25.7233 34.1116 27.9743 30.459 31.6279 29.5865 C 35.0524 28.7693 38.5379 30.6858 39.6628 34.0049 C 41.1104 39.0093 50.9399 46.7471 54.63 49.6594 C 55.2336 50.1049 55.3597 50.9523 54.9118 51.5525 C 54.4639 52.1526 53.6117 52.2782 53.0083 51.8326 C 52.986 51.8162 52.9641 51.799 52.9428 51.7813 C 45.9136 46.2491 38.5197 39.8969 37.0366 34.752 C 36.4136 32.5963 34.1517 31.3511 31.9845 31.9708 C 29.8172 32.5906 28.5653 34.8401 29.1883 36.9954 C 31.4144 44.6927 40.0001 51.9491 47.8731 58.147 C 48.4623 58.611 48.5616 59.4622 48.0951 60.0479 C 47.8367 60.3726 47.443 60.5616 47.0267 60.561 L 47.0484 60.5638 L 47.0484 60.5638 Z" fill="#ffffff"/>
			<path d="M 12.4493 53.7136 C 11.6978 53.7124 11.0898 53.1055 11.0912 52.3579 C 11.0922 51.7678 11.4778 51.2463 12.0439 51.0693 C 13.5652 50.5957 18.3547 48.4548 16.126 40.7385 C 13.4254 31.4011 18.8471 21.6544 28.2356 18.9685 C 28.2402 18.9673 28.2449 18.9659 28.2495 18.9645 C 37.4353 16.3987 47.021 21.4944 49.9794 30.5164 C 50.657 31.1497 55.3023 34.9658 58.4808 37.5315 C 59.0494 38.02 59.1123 38.8745 58.6212 39.4402 C 58.151 39.9817 57.3383 40.0654 56.7663 39.6318 C 48.0172 32.5706 47.7261 32.0806 47.5845 31.8479 C 47.5283 31.7543 47.4835 31.6543 47.4512 31.55 C 45.0372 23.7983 36.8526 19.3712 28.9978 21.5685 C 21.053 23.8387 16.4631 32.0847 18.7458 39.9861 C 18.7461 39.9871 18.7463 39.9879 18.7466 39.989 C 21.0651 48.0031 17.0267 52.3577 12.863 53.6515 C 12.7292 53.6935 12.5897 53.7146 12.4493 53.7136 L 12.4493 53.7136 Z" fill="#ffffff"/>
			<path d="M 16.8034 58.8805 C 16.0519 58.8789 15.4438 58.272 15.4453 57.5247 C 15.4463 56.9346 15.8319 56.4131 16.3981 56.236 C 22.0367 54.4822 24.0885 51.6025 21.3399 39.158 C 19.6653 32.7303 23.3675 26.1293 29.7462 24.1692 C 36.2434 22.3302 43.0141 26.0563 44.8985 32.5081 C 45.2767 33.8152 47.0049 36.3351 57.1038 44.2869 C 57.7073 44.7322 57.8334 45.5798 57.3855 46.1802 C 56.9377 46.7803 56.0854 46.9058 55.482 46.4602 C 55.4597 46.4437 55.4378 46.4265 55.4165 46.4088 C 44.259 37.6342 42.814 35.0981 42.2832 33.2576 C 40.825 28.2313 35.5524 25.3263 30.4945 26.7621 C 25.4987 28.3392 22.6362 33.5476 23.9986 38.5815 C 26.7988 51.2698 25.0871 56.377 17.1953 58.8235 C 17.0683 58.8617 16.9362 58.8809 16.8034 58.8805 L 16.8034 58.8805 Z" fill="#ffffff"/>
			<path d="M 50.8202 56.1738 C 50.459 56.1744 50.1124 56.0325 49.8568 55.7787 C 48.9433 54.9728 47.9896 54.213 46.9994 53.5024 C 42.1254 49.8245 33.9669 43.6697 31.8225 36.2484 C 31.6026 35.5339 32.0067 34.7771 32.7253 34.5583 C 33.4438 34.3396 34.2046 34.7417 34.4246 35.4562 C 34.4292 35.4712 34.4336 35.4863 34.4377 35.5013 C 36.3426 42.0564 44.0385 47.8701 48.643 51.3455 C 49.7355 52.1262 50.783 52.9675 51.7807 53.8651 C 52.3112 54.3943 52.3099 55.2512 51.7776 55.7788 C 51.5234 56.0313 51.1792 56.1732 50.8202 56.1738 L 50.8202 56.1738 Z" fill="#ffffff"/>
			<path d="M 30.4101 67 L 30.323 67 C 29.5731 66.9536 29.0029 66.3113 29.0494 65.5654 C 29.1474 63.9983 29.8658 56.1766 34.4921 56.1766 C 37.3767 56.51 39.9162 58.2225 41.2954 60.7642 C 41.5923 61.1932 41.9177 61.6018 42.2696 61.9875 C 42.7917 62.5251 42.7767 63.3818 42.2362 63.9011 C 41.7088 64.4077 40.8729 64.4077 40.3456 63.9011 C 39.896 63.4207 39.4804 62.9097 39.102 62.3718 C 37.9427 60.813 36.5113 58.8805 34.492 58.8805 C 33.017 58.8805 31.9421 62.9402 31.7707 65.731 C 31.7262 66.4448 31.1299 67.0013 30.4101 67 L 30.4101 67 Z" fill="#ffffff"/>
			<path d="M 22.2461 64.2935 C 21.4946 64.2949 20.8842 63.6902 20.8828 62.9429 C 20.8817 62.3541 21.2635 61.8322 21.8271 61.6521 C 25.2668 60.5397 27.5419 53.4376 26.3935 49.8191 C 26.1244 49.1212 26.4752 48.3386 27.1768 48.071 C 27.8784 47.8035 28.6653 48.1523 28.9344 48.8501 C 28.9541 48.9014 28.9707 48.9539 28.9841 49.0072 C 30.4291 53.5027 27.8956 62.5398 22.6652 64.2395 C 22.5292 64.2791 22.3879 64.2972 22.2461 64.2935 L 22.2461 64.2935 Z" fill="#ffffff"/>
			<path d="M 11.3609 37.2283 C 10.6094 37.2283 10.0001 36.6226 10.0001 35.8749 C 10.0152 23.1756 20.3625 12.8845 33.1314 12.8696 C 45.6877 12.8696 50.1805 20.0825 53.4598 25.3495 C 55.0083 27.8313 56.3444 29.9775 58.0452 30.527 C 58.7624 30.7502 59.1618 31.5094 58.9374 32.2228 C 58.7131 32.9359 57.9496 33.3333 57.2325 33.1101 C 57.223 33.1071 57.2137 33.1039 57.2044 33.1008 C 54.5538 32.2456 52.9754 29.7095 51.1467 26.7732 C 48.0389 21.785 44.172 15.576 33.1314 15.576 C 21.8642 15.5881 12.7334 24.6693 12.7214 35.875 C 12.7214 36.6226 12.1123 37.2283 11.3609 37.2283 L 11.3609 37.2283 Z" fill="#ffffff"/>
			<path d="M 12.7214 46.7009 C 12.2056 46.7019 11.7334 46.4127 11.5023 45.9539 C 10.7259 44.5004 10.2172 42.9199 10.0001 41.2881 C 10.0001 40.5405 10.6094 39.9346 11.3609 39.9346 C 12.1123 39.9346 12.7216 40.5405 12.7216 41.2881 C 12.9476 42.4941 13.3579 43.6587 13.938 44.7415 C 14.2747 45.4097 14.0029 46.2227 13.3311 46.5576 C 13.1418 46.6519 12.933 46.7009 12.7214 46.7009 L 12.7214 46.7009 Z" fill="#ffffff"/>
			<path d="M 52.1808 18.2825 C 51.7045 18.2828 51.2628 18.0354 51.0161 17.6303 C 49.6772 15.4325 42.2316 10.163 31.7709 10.163 C 20.8855 10.163 15.0673 15.6923 13.8835 17.6303 C 13.5169 18.2825 12.6879 18.516 12.032 18.1512 C 11.376 17.7867 11.1415 16.962 11.5082 16.3096 C 11.5243 16.2811 11.5415 16.2531 11.5596 16.2255 C 13.0481 13.7872 19.5822 7.4565 31.771 7.4565 C 43.2333 7.4565 51.4762 13.1672 53.3429 16.2283 C 53.7322 16.8677 53.5266 17.6998 52.8838 18.0868 C 52.6717 18.2145 52.4287 18.2822 52.1808 18.2825 L 52.1808 18.2825 Z" fill="#ffffff"/>
			<path d="M 46.7381 7.4565 C 46.5872 7.4567 46.4374 7.432 46.2946 7.3834 C 45.7503 7.1966 45.2224 7.0018 44.7026 6.8123 C 40.5899 5.2131 36.1802 4.5098 31.7709 4.7501 C 25.2396 4.7501 23.7674 5.4996 21.7346 6.5363 C 21.2339 6.7933 20.7033 7.0615 20.0828 7.3484 C 19.3945 7.6511 18.5897 7.3414 18.2853 6.6566 C 17.9809 5.972 18.2922 5.1717 18.9806 4.869 C 19.5548 4.6117 20.0419 4.3629 20.5046 4.1273 C 22.7742 2.9637 24.5785 2.0433 31.771 2.0433 C 36.5037 1.8032 41.2338 2.5634 45.6497 4.2737 C 46.1504 4.4578 46.6513 4.6445 47.1791 4.815 C 47.8946 5.0433 48.2885 5.8055 48.0589 6.517 C 47.8752 7.0858 47.3386 7.4675 46.7381 7.4565 L 46.7381 7.4565 Z" fill="#ffffff"/>
			<path d="M 57.6234 26.402 C 57.0317 26.4016 56.508 26.021 56.328 25.4602 C 55.6211 23.6821 54.7559 21.9701 53.7427 20.3449 C 53.3489 19.7083 53.5487 18.8745 54.189 18.483 C 54.8293 18.0913 55.6675 18.2899 56.0613 18.9268 L 56.0613 18.9268 C 57.1907 20.7375 58.1473 22.6494 58.9187 24.6376 C 59.1471 25.3495 58.752 26.111 58.0361 26.3381 C 57.9028 26.3804 57.7635 26.402 57.6234 26.402 L 57.6234 26.402 Z" fill="#ffffff"/>
		</g>
	</g>
</svg>