<?xml version="1.0" standalone="no"?>
<!-- Generator: Adobe Fireworks 10, Export SVG Extension by Aaron Beall (http://fireworks.abeall.com) . Version: 0.6.1  -->
<!DOCTYPE svg PUBLIC "-//W3C//DTD SVG 1.1//EN" "http://www.w3.org/Graphics/SVG/1.1/DTD/svg11.dtd">
<svg id="Untitled-Page%201" viewBox="0 0 70 70" style="background-color:#ffffff00" version="1.1"
	xmlns="http://www.w3.org/2000/svg" xmlns:xlink="http://www.w3.org/1999/xlink" xml:space="preserve"
	x="0px" y="0px" width="70px" height="70px"
>
	<g id="Layer%201">
		<g>
			<path id="Forma%201" d="M 65 34.5035 C 65 18.2466 51.5287 5 34.9963 5 C 18.4642 5 5 18.2466 5 34.5035 C 5 43.4576 9.1314 51.5129 15.5584 56.9271 C 15.6369 57.0038 15.7148 57.0806 15.8632 57.1501 C 21.0647 61.4426 27.726 64 35.0743 64 C 42.267 64 48.9279 61.4426 54.1298 57.3034 C 54.4343 57.2269 54.6683 57.0038 54.817 56.774 C 61.0243 51.283 65 43.381 65 34.5035 ZM 7.7566 34.5035 C 7.7566 19.7518 20.0014 7.7106 35.0037 7.7106 C 50.005 7.7106 62.2503 19.7518 62.2503 34.5035 C 62.2503 41.7296 59.3452 48.2725 54.5973 53.0947 C 53.8319 49.5549 51.5358 43.5344 44.4922 39.625 C 46.1008 37.6671 47.0149 35.1099 47.0149 32.399 C 47.0149 25.9255 41.6577 20.6577 35.0743 20.6577 C 28.4911 20.6577 23.1342 25.9255 23.1342 32.399 C 23.1342 35.1099 24.1263 37.5903 25.6566 39.625 C 18.5493 43.5344 16.2531 49.5549 15.5657 53.0947 C 10.7399 48.3493 7.7566 41.7296 7.7566 34.5035 ZM 25.8196 32.4686 C 25.8196 27.5003 29.9509 23.4379 35.0037 23.4379 C 40.056 23.4379 44.1877 27.5003 44.1877 32.4686 C 44.1877 37.4371 40.056 41.4997 35.0037 41.4997 C 29.9509 41.4997 25.8196 37.4371 25.8196 32.4686 ZM 18.0105 55.4221 C 18.1662 53.241 19.3853 45.8619 27.6549 41.7225 C 29.7243 43.3043 32.2471 44.2031 35.0037 44.2031 C 37.7602 44.2031 40.3608 43.2278 42.4299 41.6459 C 50.622 45.7852 51.9185 53.0112 52.1523 55.3455 C 47.4828 59.0319 41.5158 61.2894 35.0884 61.2894 C 28.5761 61.2961 22.6803 59.1151 18.0105 55.4221 Z" fill="#ffffff"/>
		</g>
	</g>
</svg>