<?xml version="1.0" standalone="no"?>
<!-- Generator: Adobe Fireworks 10, Export SVG Extension by Aaron Beall (http://fireworks.abeall.com) . Version: 0.6.1  -->
<!DOCTYPE svg PUBLIC "-//W3C//DTD SVG 1.1//EN" "http://www.w3.org/Graphics/SVG/1.1/DTD/svg11.dtd">
<svg id="Untitled-Page%201" viewBox="0 0 70 70" style="background-color:#ffffff00" version="1.1"
	xmlns="http://www.w3.org/2000/svg" xmlns:xlink="http://www.w3.org/1999/xlink" xml:space="preserve"
	x="0px" y="0px" width="70px" height="70px"
>
	<g id="Layer%201">
		<g>
			<path d="M 44.641 23.9965 C 43.9044 23.2334 42.7092 23.2333 41.9724 23.9963 C 41.2355 24.7598 41.2353 25.9973 41.9724 26.7605 L 47.5574 32.5454 L 24.4358 32.5454 C 23.3936 32.5454 22.5487 33.4207 22.5487 34.5 C 22.5487 35.5793 23.3936 36.4546 24.4358 36.4546 L 47.5571 36.4546 L 41.9724 42.239 C 41.2353 43.0024 41.2353 44.2396 41.9724 45.0031 C 42.3408 45.3845 42.8238 45.5757 43.3068 45.5757 C 43.7898 45.5757 44.2727 45.3845 44.641 45.0031 L 53.4472 35.8821 C 54.1843 35.1189 54.1843 33.8813 53.4472 33.1182 L 44.641 23.9965 Z" fill="#ffffff"/>
			<path d="M 33.242 56 C 34.2841 56 35.129 55.1248 35.129 54.0454 C 35.129 52.9658 34.2841 52.0908 33.242 52.0908 L 18.7742 52.0908 L 18.7742 16.9092 L 33.242 16.9092 C 34.2841 16.9092 35.129 16.0339 35.129 14.9546 C 35.129 13.8752 34.2841 13 33.242 13 L 16.8871 13 C 15.8449 13 15 13.8752 15 14.9546 L 15 54.0454 C 15 55.1248 15.8449 56 16.8871 56 L 33.242 56 Z" fill="#ffffff"/>
		</g>
	</g>
</svg>