<?xml version="1.0" standalone="no"?>
<!-- Generator: Adobe Fireworks 10, Export SVG Extension by Aaron Beall (http://fireworks.abeall.com) . Version: 0.6.1  -->
<!DOCTYPE svg PUBLIC "-//W3C//DTD SVG 1.1//EN" "http://www.w3.org/Graphics/SVG/1.1/DTD/svg11.dtd">
<svg id="Untitled-Page%201" viewBox="0 0 70 70" style="background-color:#ffffff00" version="1.1"
	xmlns="http://www.w3.org/2000/svg" xmlns:xlink="http://www.w3.org/1999/xlink" xml:space="preserve"
	x="0px" y="0px" width="70px" height="70px"
>
	<g id="Layer%201">
		<g>
			<g>
				<path d="M 42.8341 9 C 33.3688 9 25.668 16.7327 25.668 26.2373 C 25.668 28.3503 26.0419 30.4036 26.7801 32.3536 L 10.3664 48.8365 C 10.1318 49.0722 10 49.3916 10 49.7247 L 10 58.7439 C 10 59.4375 10.5601 60 11.251 60 L 18.6527 60 C 18.9841 60 19.302 59.868 19.5366 59.6328 L 22.0309 57.1319 C 22.266 56.8962 22.398 56.5765 22.398 56.2429 L 22.398 53.1675 L 25.457 53.1675 C 26.148 53.1675 26.708 52.605 26.708 51.9113 L 26.708 50.6801 L 27.9342 50.6801 C 28.625 50.6801 29.1852 50.1178 29.1852 49.4237 L 29.1852 46.7209 L 31.877 46.7209 C 32.2087 46.7209 32.5269 46.5886 32.7616 46.3529 L 36.7415 42.3566 C 38.6836 43.0985 40.7288 43.4744 42.8339 43.4744 C 52.2992 43.4744 60 35.7418 60 26.2371 C 60.0002 16.7327 52.2996 9 42.8341 9 ZM 42.8341 40.962 C 40.7865 40.962 38.8062 40.5468 36.9478 39.7275 C 36.4672 39.5158 35.9263 39.6324 35.5718 39.9791 C 35.568 39.9828 35.5642 39.9857 35.5606 39.9896 L 31.359 44.2086 L 27.9344 44.2086 C 27.2434 44.2086 26.6834 44.7709 26.6834 45.4647 L 26.6834 48.1676 L 25.4572 48.1676 C 24.7664 48.1676 24.2063 48.7302 24.2063 49.4237 L 24.2063 50.655 L 21.1471 50.655 C 20.4563 50.655 19.8962 51.2174 19.8962 51.9113 L 19.8962 55.722 L 18.1351 57.4875 L 12.5021 57.4875 L 12.5021 55.7125 L 27.7927 40.3587 C 28.2324 39.9171 28.2324 39.2013 27.7927 38.7598 C 27.3529 38.3185 26.6403 38.318 26.2002 38.7598 L 12.5021 52.5146 L 12.5021 50.2452 L 29.1373 33.5399 C 29.141 33.5362 29.1439 33.5327 29.1474 33.5289 C 29.4928 33.1735 29.6093 32.6301 29.3984 32.1472 C 28.5834 30.2814 28.1703 28.2928 28.1703 26.2374 C 28.1703 18.1181 34.7486 11.5125 42.8344 11.5125 C 50.9204 11.5125 57.4984 18.1179 57.4984 26.2374 C 57.4982 34.3566 50.9197 40.962 42.8341 40.962 Z" fill="#ffffff"/>
			</g>
			<g>
				<path d="M 48.0584 16.2858 C 45.4744 16.2858 43.3724 18.3966 43.3724 20.9911 C 43.3724 23.5856 45.4744 25.6964 48.0584 25.6964 C 50.6421 25.6964 52.7442 23.5856 52.7442 20.9911 C 52.7442 18.3966 50.6423 16.2858 48.0584 16.2858 ZM 48.0584 23.184 C 46.8543 23.184 45.8745 22.2002 45.8745 20.9911 C 45.8745 19.7819 46.8543 18.7981 48.0584 18.7981 C 49.2625 18.7981 50.2422 19.7819 50.2422 20.9911 C 50.2422 22.2002 49.2625 23.184 48.0584 23.184 Z" fill="#ffffff"/>
			</g>
		</g>
	</g>
</svg>