<svg width="26" height="26" viewBox="0 0 26 26" fill="none" xmlns="http://www.w3.org/2000/svg">
<g clip-path="url(#clip0_489_2775)">
<path d="M18.0556 2.73867H7.94444C7.52157 2.73867 7.11602 2.90666 6.817 3.20567C6.51799 3.50469 6.35 3.91024 6.35 4.33312V21.6664C6.35 22.0893 6.51799 22.4949 6.817 22.7939C7.11602 23.0929 7.52157 23.2609 7.94444 23.2609H18.0556C18.4784 23.2609 18.884 23.0929 19.183 22.7939C19.482 22.4949 19.65 22.0893 19.65 21.6664V4.33312C19.65 3.91024 19.482 3.50469 19.183 3.20567C18.884 2.90666 18.4784 2.73867 18.0556 2.73867ZM13.5722 21.5164H12.4278V20.372H13.5722V21.5164ZM8.09444 18.6276V4.48312H17.9056V18.6276H8.09444Z" fill="white" stroke="white" stroke-width="0.3"/>
</g>
<defs>
<clipPath id="clip0_489_2775">
<rect width="26" height="26" fill="white"/>
</clipPath>
</defs>
</svg>
