<svg width="27" height="24" viewBox="0 0 27 24" fill="none" xmlns="http://www.w3.org/2000/svg">
<path d="M23.8335 23.3332H3.16683C2.48169 23.3332 1.82461 23.0347 1.34014 22.5033C0.855668 21.972 0.583496 21.2513 0.583496 20.4998V3.49984C0.583496 2.74839 0.855668 2.02772 1.34014 1.49637C1.82461 0.965015 2.48169 0.666504 3.16683 0.666504H23.8335C24.5186 0.666504 25.1757 0.965015 25.6602 1.49637C26.1447 2.02772 26.4168 2.74839 26.4168 3.49984V20.4998C26.4168 21.2513 26.1447 21.972 25.6602 22.5033C25.1757 23.0347 24.5186 23.3332 23.8335 23.3332ZM3.16683 3.49984V20.4998H23.8335V3.49984H3.16683ZM18.021 17.6665C17.1646 17.6665 16.3432 17.2934 15.7376 16.6292C15.132 15.965 14.7918 15.0641 14.7918 14.1248C14.7918 13.1855 15.132 12.2847 15.7376 11.6205C16.3432 10.9563 17.1646 10.5832 18.021 10.5832C18.8774 10.5832 19.6988 10.9563 20.3044 11.6205C20.9099 12.2847 21.2502 13.1855 21.2502 14.1248C21.2502 15.0641 20.9099 15.965 20.3044 16.6292C19.6988 17.2934 18.8774 17.6665 18.021 17.6665ZM12.8543 17.6665C11.9979 17.6665 11.1766 17.2934 10.571 16.6292C9.96538 15.965 9.62516 15.0641 9.62516 14.1248C9.62516 13.1855 9.96538 12.2847 10.571 11.6205C11.1766 10.9563 11.9979 10.5832 12.8543 10.5832C13.5557 10.5832 14.2364 10.8382 14.7918 11.3085C14.3913 11.6349 14.066 12.0595 13.8419 12.5484C13.6177 13.0373 13.501 13.5769 13.501 14.1241C13.501 14.6714 13.6177 15.211 13.8419 15.6999C14.066 16.1888 14.3913 16.6134 14.7918 16.9398C14.2368 17.4099 13.5556 17.6654 12.8543 17.6665Z" fill="#4F4F4F"/>
</svg>
