<svg width="28" height="25" viewBox="0 0 28 25" fill="none" xmlns="http://www.w3.org/2000/svg">
<path d="M25.1436 0.285156H4.78589C2.54112 0.285156 0.714355 2.11192 0.714355 4.35669V20.6428C0.714355 22.8876 2.54112 24.7144 4.78589 24.7144H25.1436C26.6405 24.7144 27.8579 23.497 27.8579 22V2.99951C27.8579 1.50254 26.6405 0.285156 25.1436 0.285156ZM4.78589 22C4.03673 22 3.42871 21.3906 3.42871 20.6428V4.35669C3.42871 3.60888 4.03673 2.99951 4.78589 2.99951H25.1436V7.07104H17.0005C15.5035 7.07104 14.2861 8.28843 14.2861 9.7854V15.2141C14.2861 16.7111 15.5035 17.9285 17.0005 17.9285H25.1449V22H4.78589ZM25.1436 9.7854V15.2141H17.0005V9.7854H25.1436Z" fill="#4F4F4F"/>
</svg>
