<svg width="32" height="31" viewBox="0 0 32 31" fill="none" xmlns="http://www.w3.org/2000/svg">
<path d="M28.6667 6.49998H25.2151C25.3892 6.00915 25.5001 5.47081 25.5001 4.91664C25.5018 3.89512 25.1737 2.90033 24.5646 2.08025C23.9555 1.26018 23.0979 0.658632 22.1195 0.365097C21.1411 0.0715632 20.094 0.101723 19.1341 0.451091C18.1741 0.800459 17.3526 1.45037 16.7917 2.30414L16.0001 3.36498L15.2084 2.28831C14.3534 1.02164 12.9126 0.166645 11.2501 0.166645C8.62175 0.166645 6.50008 2.28831 6.50008 4.91664C6.50008 5.47081 6.61091 6.00915 6.78508 6.49998H3.33341C1.57591 6.49998 0.182581 7.90914 0.182581 9.66665L0.166748 27.0833C0.166748 28.8408 1.57591 30.25 3.33341 30.25H28.6667C30.4242 30.25 31.8334 28.8408 31.8334 27.0833V9.66665C31.8334 7.90914 30.4242 6.49998 28.6667 6.49998ZM20.7501 3.33331C21.6209 3.33331 22.3334 4.04581 22.3334 4.91664C22.3334 5.78748 21.6209 6.49998 20.7501 6.49998C19.8792 6.49998 19.1667 5.78748 19.1667 4.91664C19.1667 4.04581 19.8792 3.33331 20.7501 3.33331ZM11.2501 3.33331C12.1209 3.33331 12.8334 4.04581 12.8334 4.91664C12.8334 5.78748 12.1209 6.49998 11.2501 6.49998C10.3792 6.49998 9.66675 5.78748 9.66675 4.91664C9.66675 4.04581 10.3792 3.33331 11.2501 3.33331ZM28.6667 27.0833H3.33341V23.9166H28.6667V27.0833ZM28.6667 19.1666H3.33341V9.66665H11.3767L8.08341 14.1475L10.6484 16L14.4167 10.87L16.0001 8.71665L17.5834 10.87L21.3517 16L23.9167 14.1475L20.6234 9.66665H28.6667V19.1666Z" fill="#0C56DB"/>
</svg>
