<svg width="39" height="39" viewBox="0 0 39 39" fill="none" xmlns="http://www.w3.org/2000/svg">
<circle cx="19.5" cy="19.5" r="18" stroke="#0C56DB" stroke-width="3"/>
<path d="M12.1249 24.29V24.2894C12.1251 24.1617 12.1524 24.0354 12.2052 23.919C12.2574 23.8037 12.3334 23.7008 12.4281 23.6169C12.8713 23.2144 13.2594 22.7552 13.5823 22.2511C13.9336 21.5587 14.1452 20.8039 14.2049 20.0298V17.5753V17.575H14.6049C14.6023 16.2678 15.0734 15.0039 15.9312 14.0175C16.7889 13.0311 17.975 12.3889 19.2699 12.21L12.1249 24.29ZM12.1249 24.29V24.97C12.1249 25.2086 12.2197 25.4376 12.3885 25.6063C12.5573 25.7751 12.7862 25.87 13.0249 25.87H26.9249C27.1636 25.87 27.3925 25.7751 27.5613 25.6063C27.7301 25.4376 27.8249 25.2086 27.8249 24.97L27.8249 24.29L27.8249 24.2894M12.1249 24.29L27.8249 24.2894M27.8249 24.2894C27.8247 24.1617 27.7974 24.0354 27.7446 23.919C27.6921 23.8031 27.6156 23.6997 27.5201 23.6155C27.0702 23.2143 26.6757 22.755 26.3469 22.2498L27.8249 24.2894ZM24.8316 23.1834C25.0268 23.4928 25.2417 23.7889 25.4747 24.07H14.4801C14.7131 23.7889 14.928 23.4928 15.1232 23.1834L15.131 23.1711L15.1378 23.1582C15.6472 22.2031 15.9445 21.1494 16.0092 20.0689L16.0099 20.0569V20.045V17.575H16.0101L16.0097 17.5614C15.9917 17.0291 16.081 16.4986 16.2722 16.0014C16.4635 15.5043 16.7529 15.0508 17.1231 14.6678C17.4933 14.2849 17.9368 13.9803 18.4272 13.7723C18.9175 13.5643 19.4448 13.4572 19.9774 13.4572C20.5101 13.4572 21.0373 13.5643 21.5276 13.7723C22.018 13.9803 22.4615 14.2849 22.8317 14.6678C23.2019 15.0508 23.4913 15.5043 23.6826 16.0014C23.8739 16.4986 23.9631 17.0291 23.9451 17.5614L23.9449 17.5614V17.575V20.045V20.0569L23.9456 20.0689C24.0103 21.1494 24.3076 22.2031 24.817 23.1582L24.8238 23.1711L24.8316 23.1834ZM18.8699 11.555V11.8721L25.7249 17.576L25.3249 17.575H25.7249V17.5756C25.7284 16.161 25.2152 14.7939 24.2818 13.731C23.4264 12.7568 22.2719 12.0997 21.0049 11.8587V11.555C21.0049 11.2718 20.8924 11.0003 20.6922 10.8001C20.492 10.5999 20.2205 10.4875 19.9374 10.4875C19.6543 10.4875 19.3828 10.5999 19.1826 10.8001C18.9824 11.0003 18.8699 11.2718 18.8699 11.555ZM25.7249 20.0298C25.7245 20.0249 25.7242 20.02 25.7238 20.0152L25.3249 20.045H25.7249V20.0298Z" fill="#0C56DB" stroke="#0C56DB" stroke-width="0.8"/>
<path d="M20.0059 27.54L20.0059 27.54L20.0094 27.5399C20.4187 27.5305 20.8115 27.3766 21.1183 27.1054C21.4251 26.8343 21.6262 26.4634 21.6859 26.0583L21.7534 25.6H21.2902H18.6602H18.1968L18.2644 26.0584C18.3258 26.4745 18.5363 26.8541 18.8566 27.1266C19.177 27.3992 19.5854 27.546 20.0059 27.54Z" fill="#0C56DB" stroke="#0C56DB" stroke-width="0.8"/>
</svg>
