<?xml version="1.0" standalone="no"?>
<!-- Generator: Adobe Fireworks 10, Export SVG Extension by Aaron Beall (http://fireworks.abeall.com) . Version: 0.6.1  -->
<!DOCTYPE svg PUBLIC "-//W3C//DTD SVG 1.1//EN" "http://www.w3.org/Graphics/SVG/1.1/DTD/svg11.dtd">
<svg id="Untitled-Page%201" viewBox="0 0 67 73" style="background-color:#ffffff00" version="1.1"
	xmlns="http://www.w3.org/2000/svg" xmlns:xlink="http://www.w3.org/1999/xlink" xml:space="preserve"
	x="0px" y="0px" width="67px" height="73px"
>
	<g id="Layer%201">
		<g>
			<path d="M 33.5 69.7153 C 31.5161 69.7153 29.8477 68.9851 28.4951 67.6167 C 27.0977 66.2017 26.4209 64.5134 26.4209 62.5518 C 26.4209 62.1414 26.6016 61.9136 27.0527 61.9136 C 27.4585 61.9136 27.6841 62.1414 27.6841 62.5518 C 27.6841 64.1484 28.2246 65.5178 29.397 66.7039 C 30.5239 67.8445 31.877 68.4375 33.5 68.4375 C 33.9053 68.4375 34.1313 68.6201 34.1313 69.0759 C 34.1313 69.4873 33.9053 69.7153 33.5 69.7153 L 33.5 69.7153 ZM 18.0347 23.4509 C 18.0347 22.0823 18.3506 20.6221 18.9824 19.1626 C 19.6133 17.7024 20.5596 16.334 21.7773 14.9653 C 22.9492 13.6421 24.5728 12.5469 26.647 11.6794 C 28.7202 10.8586 30.9756 10.4028 33.5 10.4028 C 35.9795 10.4028 38.2344 10.8586 40.3081 11.6794 C 42.3818 12.5469 44.0054 13.6421 45.2227 14.9653 C 46.395 16.334 47.3418 17.7024 47.9727 19.1626 C 48.6045 20.6221 48.9653 22.0823 48.9653 23.4509 C 48.9653 37.9138 52.5273 49.2295 59.6504 57.3511 L 7.3496 57.3511 C 14.4727 49.2295 18.0347 37.9138 18.0347 23.4509 L 18.0347 23.4509 ZM 63.3032 53.7466 C 62.2202 52.5142 61.0479 50.9177 59.876 48.9097 C 58.7031 46.9028 57.7124 44.7576 56.9004 42.4312 C 56.0884 40.1499 55.4121 37.3208 54.8716 34.0361 C 54.3306 30.7515 54.105 27.2378 54.105 23.4509 C 54.105 19.3452 52.5273 15.5129 49.3711 11.9539 C 46.2148 8.3948 42.1113 6.2507 37.062 5.4751 C 37.2422 4.9729 37.3779 4.4253 37.3779 3.8777 C 37.3779 2.8289 36.9717 1.916 36.25 1.1406 C 35.4839 0.4104 34.582 0 33.5 0 C 32.418 0 31.4712 0.4104 30.75 1.1406 C 29.9834 1.916 29.6221 2.8289 29.6221 3.8777 C 29.6221 4.4253 29.7129 4.9729 29.938 5.4751 C 24.8438 6.2507 20.7402 8.3948 17.584 11.9539 C 14.4277 15.5129 12.895 19.3452 12.895 23.4509 C 12.895 27.2378 12.6245 30.7515 12.0835 34.0361 C 11.542 37.3208 10.9116 40.1499 10.0996 42.4312 C 9.2876 44.7576 8.2515 46.9028 7.0791 48.9097 C 5.9067 50.9177 4.7344 52.5142 3.6523 53.7466 C 2.5703 55.0234 1.3525 56.2104 0 57.3511 C 0 58.7649 0.4961 59.9973 1.5332 61.0007 C 2.5244 62.0496 3.7422 62.5518 5.1396 62.5518 L 23.1748 62.5518 C 23.1748 65.426 24.167 67.8899 26.1958 69.9434 C 28.1792 71.9502 30.6143 73 33.5 73 C 36.3408 73 38.7754 71.9502 40.8042 69.9434 C 42.7876 67.8899 43.8252 65.426 43.8252 62.5518 L 61.8604 62.5518 C 63.2129 62.5518 64.4297 62.0496 65.4668 61.0007 C 66.459 59.9973 67 58.7649 67 57.3511 C 65.6479 56.2104 64.3848 55.0234 63.3032 53.7466 L 63.3032 53.7466 Z" fill="#ffffff"/>
		</g>
	</g>
</svg>