<svg width="39" height="39" viewBox="0 0 39 39" fill="none" xmlns="http://www.w3.org/2000/svg">
<circle cx="19.5" cy="19.5" r="18" stroke="#0C56DB" stroke-width="3"/>
<path d="M15.5 25.75L24.5 12.25" stroke="#0C56DB" stroke-width="2.7" stroke-linecap="round" stroke-linejoin="round"/>
<path d="M16.25 16.75C17.4926 16.75 18.5 15.7426 18.5 14.5C18.5 13.2574 17.4926 12.25 16.25 12.25C15.0074 12.25 14 13.2574 14 14.5C14 15.7426 15.0074 16.75 16.25 16.75Z" stroke="#0C56DB" stroke-width="2.7" stroke-linecap="round" stroke-linejoin="round"/>
<path d="M23.75 25.75C24.9926 25.75 26 24.7426 26 23.5C26 22.2574 24.9926 21.25 23.75 21.25C22.5074 21.25 21.5 22.2574 21.5 23.5C21.5 24.7426 22.5074 25.75 23.75 25.75Z" stroke="#0C56DB" stroke-width="2.7" stroke-linecap="round" stroke-linejoin="round"/>
</svg>
