<?xml version="1.0" standalone="no"?>
<!-- Generator: Adobe Fireworks 10, Export SVG Extension by Aaron Beall (http://fireworks.abeall.com) . Version: 0.6.1  -->
<!DOCTYPE svg PUBLIC "-//W3C//DTD SVG 1.1//EN" "http://www.w3.org/Graphics/SVG/1.1/DTD/svg11.dtd">
<svg id="Untitled-Page%201" viewBox="0 0 254 65" style="background-color:#ffffff00" version="1.1"
	xmlns="http://www.w3.org/2000/svg" xmlns:xlink="http://www.w3.org/1999/xlink" xml:space="preserve"
	x="0px" y="0px" width="254px" height="65px"
>
	<g id="Layer%201">
		<g id="1156727_finance_payment_paypal_icon">
			<path d="M 197.9586 30.2795 C 197.1525 35.124 193.5237 35.124 189.8951 35.124 L 187.4763 35.124 L 189.0889 25.8386 C 189.0889 25.4351 189.492 25.0308 190.2985 25.0308 L 191.1049 25.0308 C 193.5237 25.0308 195.9427 25.0308 197.1525 26.646 C 197.9586 27.0496 197.9586 28.261 197.9586 30.2795 M 196.3461 16.9563 L 182.638 16.9563 C 181.8317 16.9563 181.0255 17.7642 180.6223 18.5713 L 174.9779 54.0996 C 174.9779 54.9067 175.381 55.3103 176.1874 55.3103 L 183.4445 55.3103 C 184.2508 55.3103 184.6539 54.9067 184.6539 54.0996 L 186.2667 44.0063 C 186.2667 43.1985 187.0732 42.3914 188.2826 42.3914 L 192.7174 42.3914 C 201.9904 42.3914 207.2319 37.9504 208.4413 29.0681 C 209.2477 25.4351 208.4413 22.2051 206.8284 20.1865 C 204.4095 18.1677 200.7808 16.9563 196.3461 16.9563 " fill="#139ad6"/>
			<path d="M 99.1808 30.2795 C 98.3747 35.124 94.746 35.124 91.1174 35.124 L 89.1015 35.124 L 90.7143 25.8386 C 90.7143 25.4351 91.1174 25.0308 91.9238 25.0308 L 92.7301 25.0308 C 95.149 25.0308 97.5684 25.0308 98.7778 26.646 C 99.1808 27.0496 99.5842 28.261 99.1808 30.2795 M 97.5684 16.9563 L 83.8602 16.9563 C 83.0539 16.9563 82.2477 17.7642 81.8444 18.5713 L 76.2001 54.0996 C 76.2001 54.9067 76.6031 55.3103 77.4096 55.3103 L 83.8602 55.3103 C 84.6667 55.3103 85.473 54.5032 85.8761 53.696 L 87.4889 44.0063 C 87.4889 43.1985 88.2953 42.3914 89.5048 42.3914 L 93.9397 42.3914 C 103.2126 42.3914 108.4541 37.9504 109.6635 29.0681 C 110.47 25.4351 109.6635 22.2051 108.0507 20.1865 C 105.6317 18.1677 102.4065 16.9563 97.5684 16.9563 " fill="#263b80"/>
			<path d="M 129.8222 42.7949 C 129.0159 46.4287 126.1935 49.2546 122.1619 49.2546 C 120.146 49.2546 118.5334 48.4473 117.7271 47.6401 C 116.9207 46.4287 116.5176 44.8135 116.5176 42.7949 C 116.9207 39.1614 120.146 36.3354 123.7747 36.3354 C 125.7905 36.3354 127 37.1426 128.2095 37.9504 C 129.4189 39.1614 129.8222 41.1799 129.8222 42.7949 M 139.0953 29.876 L 132.6446 29.876 C 132.2411 29.876 131.4348 30.2795 131.4348 30.6831 L 131.0317 32.7019 L 130.6287 31.8945 C 129.0159 29.876 126.1935 29.0681 122.9683 29.0681 C 115.7112 29.0681 109.2603 34.7205 108.0507 42.3914 C 107.2444 46.4287 108.4541 50.0623 110.47 52.4844 C 112.4859 54.9067 115.3077 55.7146 118.9365 55.7146 C 124.9841 55.7146 128.2095 52.0811 128.2095 52.0811 L 127.8065 54.0996 C 127.8065 54.9067 128.2095 55.3103 129.0159 55.3103 L 135.0635 55.3103 C 135.8699 55.3103 136.6762 54.5032 137.0793 53.696 L 140.7079 31.0869 C 140.3047 30.6831 139.4984 29.876 139.0953 29.876 " fill="#263b80"/>
			<path d="M 228.1968 42.7949 C 227.3906 46.4287 224.5684 49.2546 220.5366 49.2546 C 218.5207 49.2546 216.9078 48.4473 216.1014 47.6401 C 215.2952 46.4287 214.892 44.8135 214.892 42.7949 C 215.2952 39.1614 218.5207 36.3354 222.149 36.3354 C 224.1649 36.3354 225.3747 37.1426 226.584 37.9504 C 228.1968 39.1614 228.6002 41.1799 228.1968 42.7949 M 237.47 29.876 L 231.0189 29.876 C 230.6158 29.876 229.8096 30.2795 229.8096 30.6831 L 229.4065 32.7019 L 229.0032 31.8945 C 227.3906 29.876 224.5684 29.0681 221.3429 29.0681 C 214.0857 29.0681 207.6349 34.7205 206.4254 42.3914 C 205.619 46.4287 206.8284 50.0623 208.8444 52.4844 C 210.8602 54.9067 213.6826 55.7146 217.3113 55.7146 C 223.3588 55.7146 226.584 52.0811 226.584 52.0811 L 226.1808 54.0996 C 226.1808 54.9067 226.584 55.3103 227.3906 55.3103 L 233.4382 55.3103 C 234.2444 55.3103 235.0507 54.5032 235.4541 53.696 L 239.0825 31.0869 C 238.6794 30.6831 238.2762 29.876 237.47 29.876 " fill="#139ad6"/>
			<g>
				<path d="M 174.1716 29.876 L 167.3174 29.876 C 166.5111 29.876 166.108 30.2795 165.7048 30.6831 L 156.8351 44.4102 L 152.8032 31.491 C 152.3998 30.6831 151.9968 30.2795 150.7874 30.2795 L 144.3365 30.2795 C 143.53 30.2795 143.1269 31.0869 143.1269 31.8945 L 150.3842 53.2917 L 143.53 62.9814 C 143.1269 63.7891 143.53 65 144.3365 65 L 150.7874 65 C 151.5935 65 151.9968 64.5962 152.3998 64.1926 L 174.5746 32.2981 C 175.7841 31.0869 174.9779 29.876 174.1716 29.876 " fill="#263b80"/>
				<path d="M 245.1301 18.1677 L 239.4859 54.5032 C 239.4859 55.3103 239.889 55.7146 240.6953 55.7146 L 246.3396 55.7146 C 247.1461 55.7146 247.9523 54.9067 248.3554 54.0996 L 254 18.5713 C 254 17.7642 253.5969 17.3606 252.7905 17.3606 L 246.3396 17.3606 C 245.9365 16.9563 245.5334 17.3606 245.1301 18.1677 " fill="#139ad6"/>
				<path d="M 46.3651 4.8445 C 43.5428 1.615 38.3016 0 31.0444 0 L 10.8857 0 C 9.6763 0 8.4666 1.2114 8.0635 2.4224 L 0 55.3103 C 0 56.522 0.8065 57.3291 1.6128 57.3291 L 14.1111 57.3291 L 17.3365 37.5469 L 17.3365 38.3542 C 17.7397 37.1426 18.9493 35.9319 20.1587 35.9319 L 26.2063 35.9319 C 37.8985 35.9319 46.7681 31.0869 49.5904 17.7642 C 49.5904 17.3606 49.5904 16.9563 49.5904 16.5527 C 49.1873 16.5527 49.1873 16.5527 49.5904 16.5527 C 49.9938 11.3047 49.1873 8.0745 46.3651 4.8445 " fill="#263b80"/>
			</g>
			<path d="M 49.1873 16.5527 L 49.1873 16.5527 C 49.1873 16.9563 49.1873 17.3606 49.1873 17.7642 C 46.3651 31.491 37.4952 35.9319 25.8032 35.9319 L 19.7556 35.9319 C 18.5459 35.9319 17.3365 37.1426 16.9334 38.3542 L 12.9016 62.9814 C 12.9016 63.7891 13.3047 64.5962 14.5142 64.5962 L 24.9969 64.5962 C 26.2063 64.5962 27.4158 63.7891 27.4158 62.5776 L 27.4158 62.1741 L 29.4317 49.6587 L 29.4317 48.8511 C 29.4317 47.6401 30.6412 46.8323 31.851 46.8323 L 33.4634 46.8323 C 43.5428 46.8323 51.6063 42.7949 53.6222 30.6831 C 54.4286 25.8386 54.0255 21.3977 51.6063 18.5713 C 51.2032 17.7642 50.3969 16.9563 49.1873 16.5527 " fill="#139ad6"/>
			<path d="M 46.3651 15.3418 C 45.962 15.3418 45.5587 14.9377 45.1556 14.9377 C 44.7523 14.9377 44.3492 14.9377 43.9461 14.5342 C 42.3334 14.1304 40.7205 14.1304 38.7047 14.1304 L 22.981 14.1304 C 22.5776 14.1304 22.1746 14.1304 21.7715 14.5342 C 20.9651 14.9377 20.5618 15.7456 20.5618 16.5527 L 17.3365 37.5469 L 17.3365 38.3542 C 17.7397 37.1426 18.9493 35.9319 20.1587 35.9319 L 26.2063 35.9319 C 37.8985 35.9319 46.7681 31.0869 49.5904 17.7642 C 49.5904 17.3606 49.5904 16.9563 49.9938 16.5527 C 49.1873 16.1492 48.7841 15.7456 47.9779 15.7456 C 46.7681 15.3418 46.7681 15.3418 46.3651 15.3418 " fill="#232c65"/>
		</g>
	</g>
</svg>