<svg width="26" height="18" viewBox="0 0 26 18" fill="none" xmlns="http://www.w3.org/2000/svg">
<path d="M3.625 4.68994C3.625 7.18369 5.50625 9.06494 8 9.06494C10.4937 9.06494 12.375 7.18369 12.375 4.68994C12.375 2.19619 10.4937 0.314941 8 0.314941C5.50625 0.314941 3.625 2.19619 3.625 4.68994ZM21.75 3.99994H19.25V7.74994H15.5V10.2499H19.25V13.9999H21.75V10.2499H25.5V7.74994H21.75V3.99994ZM3 17.7499H15.5V16.4999C15.5 13.0537 12.6962 10.2499 9.25 10.2499H6.75C3.30375 10.2499 0.5 13.0537 0.5 16.4999V17.7499H3Z" fill="white"/>
</svg>
