<svg width="33" height="36" viewBox="0 0 33 36" fill="none" xmlns="http://www.w3.org/2000/svg">
<g clip-path="url(#clip0_492_3026)">
<path d="M23.7269 23.2811C27.783 21.0269 30.8578 19.3092 31.1229 19.1756C31.9707 18.7193 32.8463 17.5115 31.1229 16.5732C30.5664 16.2782 27.5706 14.614 23.7269 12.4678L18.3984 17.9145L23.7269 23.281V23.2811Z" fill="#FFD900"/>
<path d="M18.3985 17.915L1.43213 35.2226C1.83037 35.276 2.27997 35.1691 2.81004 34.8742C3.92291 34.2576 15.7204 27.7365 23.7269 23.2829L18.3985 17.915Z" fill="#F43249"/>
<path d="M18.3985 17.9143L23.7269 12.4944C23.7269 12.4944 4.00338 1.59947 2.81003 0.95633C2.36044 0.686806 1.85661 0.606745 1.40576 0.686806L18.3985 17.9143Z" fill="#00EE76"/>
<path d="M18.398 17.915L1.40526 0.6875C0.715614 0.848886 0.132812 1.46559 0.132812 2.72683V33.1833C0.132812 34.3376 0.583784 35.1691 1.43162 35.2493L18.398 17.915Z" fill="#00D3FF"/>
</g>
<defs>
<clipPath id="clip0_492_3026">
<rect width="31.9891" height="34.6549" fill="white" transform="translate(0.132812 0.657227)"/>
</clipPath>
</defs>
</svg>
