<?xml version="1.0" standalone="no"?>
<!-- Generator: Adobe Fireworks 10, Export SVG Extension by Aaron Beall (http://fireworks.abeall.com) . Version: 0.6.1  -->
<!DOCTYPE svg PUBLIC "-//W3C//DTD SVG 1.1//EN" "http://www.w3.org/Graphics/SVG/1.1/DTD/svg11.dtd">
<svg id="Untitled-Page%201" viewBox="0 0 68 59" style="background-color:#ffffff00" version="1.1"
	xmlns="http://www.w3.org/2000/svg" xmlns:xlink="http://www.w3.org/1999/xlink" xml:space="preserve"
	x="0px" y="0px" width="68px" height="59px"
>
	<g id="Layer%201">
		<g>
			<g>
				<path d="M 59.8924 21.0184 C 60.3403 19.8462 60.5748 18.592 60.5748 17.3349 C 60.5748 11.6436 55.9382 7.0135 50.2389 7.0135 C 48.3217 7.0135 46.4893 7.5299 44.8771 8.5126 C 44.7163 8.3517 44.5531 8.1926 44.3861 8.0367 C 40.7184 4.6108 35.9312 2.7241 30.9063 2.7241 C 20.0223 2.7241 11.1677 11.5663 11.1677 22.435 C 11.1677 22.9841 11.1909 23.5355 11.237 24.0854 C 11.1726 24.0841 11.1083 24.0833 11.0439 24.0833 C 6.0571 24.0833 2 28.1347 2 33.1145 C 2 38.0944 6.0571 42.1458 11.0439 42.1458 L 29.287 42.1458 C 29.9666 42.1458 30.5175 41.5956 30.5175 40.9171 C 30.5175 40.2384 29.9666 39.6883 29.287 39.6883 L 11.0439 39.6883 C 7.4141 39.6883 4.4609 36.7393 4.4609 33.1145 C 4.4609 29.4898 7.4141 26.5408 11.0439 26.5408 C 11.494 26.5408 11.9453 26.5872 12.3857 26.6782 C 15.4258 27.306 17.6269 30.0035 17.6269 33.1144 C 17.6269 33.7931 18.1777 34.3432 18.8574 34.3432 C 19.5369 34.3432 20.0878 33.7931 20.0878 33.1144 C 20.0878 29.1433 17.4752 25.6634 13.7527 24.4977 C 13.6707 23.8124 13.6287 23.1215 13.6287 22.4349 C 13.6287 12.9213 21.3795 5.1815 30.9064 5.1815 C 39.9303 5.1815 47.4999 12.2142 48.139 21.1924 C 48.1673 21.589 48.386 21.9474 48.7259 22.1545 C 49.0658 22.3614 49.485 22.3913 49.851 22.2347 C 50.9856 21.7492 52.191 21.5029 53.4336 21.5029 C 58.4543 21.5029 62.5391 25.5819 62.5391 30.5956 C 62.5391 35.6094 58.4543 39.6883 53.4336 39.6883 L 40.5135 39.6883 C 39.8339 39.6883 39.2831 40.2384 39.2831 40.9171 C 39.2831 41.5956 39.8339 42.1458 40.5135 42.1458 L 53.4336 42.1458 C 59.8114 42.1458 65 36.9644 65 30.5956 C 65 26.6135 62.9715 23.0956 59.8924 21.0184 ZM 57.6955 19.8581 C 56.376 19.334 54.938 19.0455 53.4336 19.0455 C 52.4048 19.0454 51.3956 19.1784 50.418 19.4423 C 49.9133 16.134 48.5762 13.0296 46.5349 10.3936 C 47.6674 9.787 48.9273 9.4708 50.239 9.4708 C 54.5814 9.4708 58.114 12.9985 58.114 17.3347 C 58.114 18.2061 57.9713 19.0502 57.6955 19.8581 Z" fill="#405263"/>
			</g>
			<g>
				<path d="M 35.8882 40.0486 C 35.6581 39.8188 35.3407 39.6885 35.0171 39.6885 C 34.6935 39.6885 34.376 39.8188 34.1471 40.0486 C 33.9182 40.2771 33.7866 40.5941 33.7866 40.9172 C 33.7866 41.2405 33.9182 41.5562 34.1471 41.7859 C 34.376 42.0146 34.6935 42.146 35.0171 42.146 C 35.3419 42.146 35.6581 42.0146 35.8882 41.7859 C 36.1171 41.5574 36.2476 41.2405 36.2476 40.9172 C 36.2476 40.5929 36.1171 40.2773 35.8882 40.0486 Z" fill="#405263"/>
			</g>
			<g>
				<path d="M 64.5754 3.0182 C 64.0948 2.5384 63.3157 2.5384 62.8351 3.0182 L 59.0508 6.7972 C 58.5703 7.277 58.5703 8.0551 59.0508 8.535 C 59.2912 8.775 59.6061 8.895 59.921 8.895 C 60.2359 8.895 60.5509 8.775 60.7911 8.535 L 64.5754 4.7561 C 65.0559 4.2762 65.0559 3.4982 64.5754 3.0182 Z" fill="#405263"/>
			</g>
			<g>
				<path d="M 50.239 0 C 49.5594 0 49.0085 0.55 49.0085 1.2287 L 49.0085 3.8872 C 49.0085 4.5659 49.5594 5.116 50.239 5.116 C 50.9186 5.116 51.4695 4.5659 51.4695 3.8872 L 51.4695 1.2287 C 51.4695 0.55 50.9186 0 50.239 0 Z" fill="#405263"/>
			</g>
			<g>
				<path d="M 63.7695 16.106 L 63.172 16.106 C 62.4924 16.106 61.9415 16.6561 61.9415 17.3347 C 61.9415 18.0134 62.4924 18.5635 63.172 18.5635 L 63.7695 18.5635 C 64.4491 18.5635 65 18.0134 65 17.3347 C 65 16.6561 64.4491 16.106 63.7695 16.106 Z" fill="#405263"/>
			</g>
			<g>
				<path d="M 12.3193 43.6262 C 11.8387 43.1463 11.0597 43.1463 10.5792 43.6262 L 6.8156 47.3844 C 6.335 47.8641 6.335 48.6422 6.8156 49.122 C 7.0558 49.3621 7.3707 49.482 7.6856 49.482 C 8.0005 49.482 8.3155 49.3619 8.5557 49.122 L 12.3193 45.3638 C 12.7998 44.8837 12.7998 44.1058 12.3193 43.6262 Z" fill="#405263"/>
			</g>
			<g>
				<path d="M 28.2742 43.6262 C 27.7937 43.1463 27.0146 43.1463 26.5341 43.6262 L 22.7943 47.3607 C 22.3138 47.8404 22.3136 48.6185 22.7943 49.0983 C 23.0345 49.3383 23.3494 49.4582 23.6643 49.4582 C 23.9791 49.4582 24.2942 49.3381 24.5344 49.0983 L 28.2742 45.3638 C 28.7547 44.8837 28.7549 44.1058 28.2742 43.6262 Z" fill="#405263"/>
			</g>
			<g>
				<path d="M 44.2293 43.6262 C 43.7487 43.1463 42.9697 43.1463 42.4891 43.6262 L 38.7901 47.3198 C 38.3097 47.7997 38.3094 48.5777 38.7901 49.0576 C 39.0305 49.2975 39.3453 49.4174 39.6602 49.4174 C 39.975 49.4174 40.2901 49.2974 40.5302 49.0576 L 44.2293 45.3638 C 44.7097 44.8837 44.7097 44.1058 44.2293 43.6262 Z" fill="#405263"/>
			</g>
			<g>
				<path d="M 16.9733 51.3674 C 16.4929 50.8876 15.7137 50.8876 15.2333 51.3674 L 9.6904 56.9023 C 9.2099 57.3821 9.2099 58.1602 9.6904 58.6401 C 9.9307 58.88 10.2456 59 10.5604 59 C 10.8754 59 11.1903 58.88 11.4305 58.6401 L 16.9733 53.1051 C 17.4537 52.6254 17.4537 51.8474 16.9733 51.3674 Z" fill="#405263"/>
			</g>
			<g>
				<path d="M 32.9283 51.3674 C 32.448 50.8875 31.6688 50.8875 31.1882 51.3674 L 25.6454 56.9023 C 25.165 57.3821 25.165 58.1602 25.6454 58.6401 C 25.8858 58.88 26.2006 59 26.5155 59 C 26.8304 59 27.1454 58.88 27.3856 58.6401 L 32.9283 53.1051 C 33.4088 52.6254 33.4088 51.8472 32.9283 51.3674 Z" fill="#405263"/>
			</g>
			<g>
				<path d="M 48.8835 51.3674 C 48.4031 50.8875 47.6238 50.8876 47.1434 51.3674 L 41.6005 56.9023 C 41.1201 57.3821 41.1201 58.1602 41.6005 58.6399 C 41.8409 58.8799 42.1557 58.9998 42.4706 58.9998 C 42.7854 58.9998 43.1005 58.8798 43.3406 58.6399 L 48.8835 53.1049 C 49.364 52.6252 49.364 51.8471 48.8835 51.3674 Z" fill="#405263"/>
			</g>
			<g>
				<path d="M 60.1843 43.6259 C 59.7037 43.146 58.9247 43.1462 58.4442 43.6259 L 54.7869 47.2781 C 54.3063 47.7581 54.3063 48.536 54.7869 49.0159 C 55.0272 49.2558 55.3421 49.3757 55.657 49.3757 C 55.9718 49.3757 56.2868 49.2557 56.527 49.0159 L 60.1844 45.3636 C 60.6648 44.8837 60.6649 44.1058 60.1843 43.6259 Z" fill="#405263"/>
			</g>
			<g>
				<path d="M 30.9428 8.3055 L 30.9064 8.3055 C 30.2268 8.3055 29.676 8.8556 29.676 9.5342 C 29.676 10.2128 30.2268 10.7629 30.9064 10.7629 L 30.9274 10.7629 C 30.93 10.7629 30.9327 10.7629 30.9354 10.7629 C 31.6112 10.7631 32.1614 10.2179 32.1657 9.5419 C 32.1699 8.8635 31.6224 8.3099 30.9428 8.3055 Z" fill="#405263"/>
			</g>
			<g>
				<path d="M 44.5865 21.018 C 44.2233 15.9152 41.0737 11.4767 36.3671 9.4346 C 35.7441 9.1642 35.019 9.4496 34.7482 10.0719 C 34.4774 10.6943 34.7632 11.4182 35.3864 11.6886 C 39.2491 13.3645 41.8337 17.006 42.1318 21.1922 C 42.178 21.8395 42.7181 22.334 43.3578 22.334 C 43.3872 22.334 43.4168 22.333 43.4463 22.3308 C 44.1241 22.2827 44.6348 21.6948 44.5865 21.018 Z" fill="#405263"/>
			</g>
		</g>
	</g>
</svg>