<svg width="29" height="34" viewBox="0 0 29 34" fill="none" xmlns="http://www.w3.org/2000/svg">
<path d="M14.9085 20.4042L14.9085 20.4041H14.9045H14.8301C14.1373 20.4041 13.567 19.8338 13.567 19.141C13.567 18.4482 14.1373 17.8779 14.8301 17.8779C15.5229 17.8779 16.0932 18.4482 16.0932 19.141C16.0932 19.6488 16.5004 20.056 17.0082 20.056C17.5161 20.056 17.9232 19.6488 17.9232 19.141C17.9232 17.7512 17.0052 16.5841 15.7451 16.1916V15.1141C15.7451 14.6063 15.3379 14.1991 14.8301 14.1991C14.3222 14.1991 13.9151 14.6063 13.9151 15.1141V16.1916C12.655 16.5841 11.737 17.7512 11.737 19.141L11.737 19.1412C11.7381 19.9449 12.0526 20.7164 12.6135 21.292C13.1744 21.8675 13.9376 22.2016 14.741 22.2234L14.741 22.2235H14.7451H14.8195C15.5122 22.2235 16.0826 22.7938 16.0826 23.4866C16.0826 24.1794 15.5122 24.7497 14.8195 24.7497C14.1274 24.7497 13.567 24.1908 13.567 23.4866C13.567 22.9788 13.1598 22.5716 12.652 22.5716C12.1441 22.5716 11.737 22.9788 11.737 23.4866L11.737 23.4868C11.738 24.1663 11.9627 24.8265 12.3765 25.3654C12.7667 25.8737 13.3047 26.2474 13.9151 26.4363V27.5135C13.9151 28.0213 14.3222 28.4285 14.8301 28.4285C15.3379 28.4285 15.7451 28.0213 15.7451 27.5135V26.436C17.0052 26.0435 17.9232 24.8764 17.9232 23.4866C17.9232 21.8107 16.5826 20.4488 14.9085 20.4042Z" fill="#0C56DB" stroke="#0C56DB" stroke-width="0.3"/>
<path d="M9.06246 5.50006L9.0537 5.48078C8.8506 5.03404 8.80035 4.53282 8.91074 4.05465C9.02113 3.57649 9.286 3.14801 9.66437 2.83551C10.0428 2.523 10.5136 2.34388 11.004 2.32584C11.4495 2.30945 11.8887 2.42685 12.2655 2.66132L13.1171 1.71038L13.1173 1.71013C13.3331 1.47029 13.5969 1.2786 13.8917 1.14756C14.1865 1.01653 14.5056 0.949076 14.8282 0.949613C15.1509 0.950149 15.4697 1.01866 15.7641 1.15068C16.0585 1.28269 16.3217 1.47526 16.5367 1.71582L16.5395 1.71905L16.5395 1.71909L17.35 2.68048C17.7268 2.4523 18.1638 2.34039 18.606 2.36062C19.0938 2.38295 19.5608 2.56492 19.9351 2.87854C20.3094 3.19216 20.5704 3.62007 20.6778 4.09645C20.7852 4.57283 20.7331 5.07131 20.5296 5.51522L20.5251 5.52514L20.5191 5.5343L20.3566 5.78505L20.3507 5.79406L20.3437 5.80214L17.8889 8.61213C17.9548 8.77393 17.9879 8.94709 17.9865 9.12155C24.0834 10.5486 28.6225 16.0195 28.6119 22.5528M9.06246 5.50006L28.4619 22.5526M9.06246 5.50006L9.07622 5.51616L11.9511 8.88013M9.06246 5.50006L11.9511 8.88013M28.6119 22.5528L28.4619 22.5526M28.6119 22.5528C28.6119 22.5527 28.6119 22.5527 28.6119 22.5526H28.4619M28.6119 22.5528C28.6117 28.3539 23.9036 33.0609 18.1025 33.0609H11.5469C5.74566 33.0609 1.0375 28.3527 1.0375 22.5515C1.0375 15.9919 5.61497 10.5025 11.7508 9.10371M28.4619 22.5526C28.4619 28.271 23.8209 32.9109 18.1025 32.9109H11.5469C5.8285 32.9109 1.1875 28.2699 1.1875 22.5515C1.1875 16.0469 5.73819 10.6058 11.8306 9.23945M11.7508 9.10371L11.7188 9.13937L11.8306 9.23945M11.7508 9.10371L11.9511 8.88013M11.7508 9.10371C11.7664 9.10014 11.7821 9.0966 11.7977 9.09309L11.8306 9.23945M11.8306 9.23945L11.9511 8.88013M26.1869 22.5494V22.5491C26.1974 16.2721 21.1095 11.184 14.83 11.184C8.55061 11.184 3.46253 16.2721 3.4625 22.5515L26.1869 22.5494ZM26.1869 22.5494V22.5515M26.1869 22.5494V22.5515M26.1869 22.5515C26.1869 22.5515 26.1869 22.5515 26.1869 22.5515C26.186 24.6954 25.334 26.7512 23.8181 28.2671M26.1869 22.5515L23.8181 28.2671M23.8181 28.2671C22.3022 29.783 20.2463 30.635 18.1025 30.6359M23.8181 28.2671L18.1025 30.6359M18.1025 30.6359C18.1025 30.6359 18.1025 30.6359 18.1024 30.6359M18.1025 30.6359H18.1024M18.1024 30.6359H11.5469H18.1024ZM5.83129 28.2671C7.34722 29.783 9.40303 30.635 11.5469 30.6359L5.83129 28.2671ZM5.83129 28.2671C4.31536 26.7512 3.46334 24.6954 3.4625 22.5515L5.83129 28.2671ZM13.2953 6.74027L11.8953 5.12235C12.193 5.18192 12.5018 5.18103 12.8027 5.1174C13.2898 5.01442 13.7291 4.75289 14.0517 4.37373L14.0519 4.37384L14.0563 4.36808L14.7928 3.41248L15.6164 4.38815L15.6173 4.38919C15.9325 4.75581 16.3578 5.01075 16.8297 5.11601C17.1226 5.18133 17.4237 5.18684 17.7155 5.13431L16.3131 6.74027H13.2953Z" fill="#0C56DB" stroke="#0C56DB" stroke-width="0.3"/>
</svg>
