<svg width="37" height="37" viewBox="0 0 37 37" fill="none" xmlns="http://www.w3.org/2000/svg">
<path d="M24.8492 13.9117L24.8492 13.9117C25.0827 13.6782 25.2139 13.3615 25.2139 13.0312C25.2139 12.701 25.0827 12.3843 24.8492 12.1508C24.6157 11.9173 24.299 11.7861 23.9687 11.7861C23.6385 11.7861 23.3218 11.9173 23.0883 12.1508L23.0883 12.1508L14.3844 20.8569L14.3844 15.1641C14.3844 14.8342 14.2533 14.5178 14.0201 14.2846C13.7868 14.0513 13.4705 13.9203 13.1406 13.9203C12.8108 13.9203 12.4944 14.0513 12.2612 14.2846C12.0279 14.5178 11.8969 14.8342 11.8969 15.1641L11.8969 23.8594C11.8969 24.1892 12.0279 24.5056 12.2612 24.7388C12.4944 24.9721 12.8108 25.1031 13.1406 25.1031L21.8359 25.1031C22.1658 25.1031 22.4822 24.9721 22.7154 24.7388C22.9486 24.5056 23.0797 24.1892 23.0797 23.8594C23.0797 23.5295 22.9486 23.2132 22.7154 22.9799C22.4822 22.7467 22.1658 22.6156 21.8359 22.6156L16.1431 22.6156L24.8492 13.9117ZM7.77849 7.77849C10.622 4.93497 14.4787 3.3375 18.5 3.3375C22.5213 3.3375 26.378 4.93497 29.2215 7.77849C32.065 10.622 33.6625 14.4787 33.6625 18.5C33.6625 22.5213 32.065 26.378 29.2215 29.2215C26.378 32.065 22.5213 33.6625 18.5 33.6625C14.4787 33.6625 10.622 32.065 7.77849 29.2215C4.93497 26.378 3.3375 22.5213 3.3375 18.5C3.3375 14.4787 4.93497 10.622 7.77849 7.77849ZM6.01956 30.9804C9.32958 34.2905 13.8189 36.15 18.5 36.15C23.1811 36.15 27.6704 34.2905 30.9804 30.9804C34.2905 27.6704 36.15 23.1811 36.15 18.5C36.15 13.8189 34.2905 9.32958 30.9804 6.01956C27.6704 2.70955 23.1811 0.849999 18.5 0.849999C13.8189 0.849999 9.32958 2.70955 6.01957 6.01956C2.70954 9.32958 0.849998 13.8189 0.849998 18.5C0.849998 23.1811 2.70954 27.6704 6.01956 30.9804Z" fill="#0C56DB" stroke="#0C56DB" stroke-width="0.3"/>
</svg>
