<?xml version="1.0" standalone="no"?>
<!-- Generator: Adobe Fireworks 10, Export SVG Extension by Aaron Beall (http://fireworks.abeall.com) . Version: 0.6.1  -->
<!DOCTYPE svg PUBLIC "-//W3C//DTD SVG 1.1//EN" "http://www.w3.org/Graphics/SVG/1.1/DTD/svg11.dtd">
<svg id="Untitled-Page%201" viewBox="0 0 35 35" style="background-color:#ffffff00" version="1.1"
	xmlns="http://www.w3.org/2000/svg" xmlns:xlink="http://www.w3.org/1999/xlink" xml:space="preserve"
	x="0px" y="0px" width="35px" height="35px"
>
	<g id="Layer%201">
		<path d="M 5.5 33 L 6 33 L 27.5 33 C 28.8807 33 30 31.8807 30 30.5 C 30 29.1193 28.8807 28 27.5 28 L 9.9399 28 L 32.3384 5.7319 C 33.304 4.772 33.1979 3.3308 32.1167 2.5247 C 31.052 1.731 29.4399 1.8533 28.501 2.7866 L 7 24.16 L 7 8.5 C 7 7.1193 5.8807 6 4.5 6 C 3.1193 6 2 7.1193 2 8.5 L 2 27 L 2 30.5 L 2 33 L 4.5 33 C 4.6713 33 4.8384 32.9828 5 32.95 C 5.1616 32.9828 5.3287 33 5.5 33 ZM 4.5 33 L 5.5 33 C 5.3287 33 5.1616 32.9828 5 32.95 C 4.8384 32.9828 4.6713 33 4.5 33 Z" fill="#000000"/>
	</g>
</svg>