<?xml version="1.0" standalone="no"?>
<!-- Generator: Adobe Fireworks 10, Export SVG Extension by Aaron Beall (http://fireworks.abeall.com) . Version: 0.6.1  -->
<!DOCTYPE svg PUBLIC "-//W3C//DTD SVG 1.1//EN" "http://www.w3.org/Graphics/SVG/1.1/DTD/svg11.dtd">
<svg id="Untitled-Page%201" viewBox="0 0 64 64" style="background-color:#ffffff00" version="1.1"
	xmlns="http://www.w3.org/2000/svg" xmlns:xlink="http://www.w3.org/1999/xlink" xml:space="preserve"
	x="0px" y="0px" width="64px" height="64px"
>
	<g id="Layer%201">
		<g>
			<g>
				<path d="M 31.9999 0 C 49.6732 0 64 14.3267 64 32 C 64 49.6733 49.6732 64 31.9999 64 C 14.3267 64 0 49.6733 0 32 C 0 14.3267 14.3267 0 31.9999 0 ZM 31.9999 5.0378 C 46.8912 5.0378 58.9622 17.1091 58.9622 32 C 58.9622 46.8909 46.8912 58.9622 31.9999 58.9622 C 17.1086 58.9622 5.0377 46.8909 5.0377 32 C 5.0377 17.1091 17.1086 5.0378 31.9999 5.0378 Z" fill="#333333"/>
			</g>
			<g>
				<path d="M 31.5615 13.1509 C 38.3407 13.1509 43.8354 18.6458 43.8354 25.4248 C 43.8354 32.2034 38.3407 37.6987 31.5615 37.6987 C 24.7825 37.6987 19.2876 32.2034 19.2876 25.4248 C 19.2876 18.6458 24.7825 13.1509 31.5615 13.1509 ZM 31.5615 17.2751 C 36.0625 17.2751 39.7114 20.9236 39.7114 25.4248 C 39.7114 29.9258 36.0625 33.5747 31.5615 33.5747 C 27.0608 33.5747 23.4117 29.9258 23.4117 25.4248 C 23.4117 20.9236 27.0608 17.2751 31.5615 17.2751 Z" fill="#333333"/>
			</g>
			<path d="M 31.5615 47.7515 C 38.2542 47.7515 44.2859 50.5771 48.5304 55.1011 L 50.8492 53.4795 L 53.5012 52.1555 C 48.196 45.9888 40.3348 42.0823 31.5615 42.0823 C 23.2834 42.0823 15.8197 45.5571 10.547 51.1296 L 14.0753 55.6711 C 18.3395 50.8171 24.5933 47.7515 31.5615 47.7515 Z" fill="#333333"/>
		</g>
	</g>
</svg>