<?xml version="1.0" standalone="no"?>
<!-- Generator: Adobe Fireworks 10, Export SVG Extension by Aaron Beall (http://fireworks.abeall.com) . Version: 0.6.1  -->
<!DOCTYPE svg PUBLIC "-//W3C//DTD SVG 1.1//EN" "http://www.w3.org/Graphics/SVG/1.1/DTD/svg11.dtd">
<svg id="Untitled-Page%201" viewBox="0 0 64 64" style="background-color:#ffffff00" version="1.1"
	xmlns="http://www.w3.org/2000/svg" xmlns:xlink="http://www.w3.org/1999/xlink" xml:space="preserve"
	x="0px" y="0px" width="64px" height="64px"
>
	<g id="Layer%201">
		<g>
			<path d="M 54.8472 -0.2632 C 55.1821 -0.2632 55.5168 -0.2632 55.8517 -0.2632 C 56.1675 -0.0347 56.5395 0.1453 56.7881 0.4319 C 57.4674 1.2153 57.3649 2.2603 56.5571 3.0764 C 55.2805 4.3672 53.9894 5.6433 52.6811 6.9485 C 53.9911 8.2537 55.2588 9.5283 56.5406 10.7888 C 57.0715 11.311 57.3111 11.9182 57.2047 12.6565 C 57.151 13.0281 57.0406 13.3999 57.0479 13.7698 C 57.0542 14.0959 57.1019 14.4802 57.2803 14.7344 C 58.0491 15.8279 58.8807 16.8772 59.6741 17.9539 C 61.0844 19.8682 62.4838 21.7908 63.8879 23.71 C 63.8879 35.1736 63.8879 46.6372 63.8879 58.1008 C 63.8428 58.2336 63.787 58.3633 63.7543 58.499 C 63.1281 61.0857 61.5607 62.8198 59.0455 63.6919 C 58.6985 63.8123 58.3398 63.8979 57.9863 64 C 48.1085 64 38.2307 64 28.353 64 C 28.2611 63.9592 28.1729 63.8997 28.0768 63.8806 C 25.1892 63.3015 23.0691 61.1577 22.5643 58.2656 C 22.4512 57.6177 22.5955 56.863 22.308 56.325 C 22.0161 55.7783 21.303 55.4727 20.8322 55.0032 C 14.8676 49.0566 8.9291 43.0837 2.9457 37.156 C 1.4102 35.635 -0.0133 34.0923 -0.4014 31.8684 C -0.4014 31.199 -0.4014 30.5295 -0.4014 29.8601 C -0.3574 29.7488 -0.2965 29.6409 -0.2719 29.5249 C 0.008 28.2043 0.5994 27.0439 1.5538 26.0886 C 9.2427 18.3948 16.9329 10.7017 24.6443 3.0305 C 24.9725 2.7041 25.4943 2.4868 25.9597 2.3999 C 27.2929 2.1509 28.6434 1.9937 29.9873 1.8025 C 33.358 1.3232 36.7299 0.8513 40.0994 0.3635 C 41.4185 0.1726 42.7323 -0.0532 44.0486 -0.2632 C 44.4254 -0.2632 44.8019 -0.2632 45.1786 -0.2632 C 45.6185 0.0767 46.0952 0.3792 46.4914 0.7637 C 47.6718 1.9099 48.8206 3.0886 50.0053 4.2786 C 51.1863 3.0957 52.3218 1.9324 53.4897 0.803 C 53.9011 0.4048 54.3923 0.0898 54.8472 -0.2632 ZM 47.4042 12.3582 C 47.7923 12.7329 48.2219 13.125 48.6257 13.5422 C 49.398 14.3403 49.4216 15.4993 48.6976 16.2454 C 47.965 17 46.7911 17.0334 45.9968 16.2551 C 44.2192 14.5129 42.4601 12.7517 40.7148 10.9773 C 39.9329 10.1824 39.9442 9.01 40.6819 8.2747 C 41.4405 7.5183 42.6151 7.5366 43.4276 8.3511 C 43.8359 8.7605 44.1909 9.2231 44.5526 9.6418 C 45.5533 8.6438 46.4102 7.7898 47.2955 6.9072 C 46.2749 5.8892 45.2459 4.8494 44.1945 3.8325 C 44.0756 3.7178 43.8223 3.6714 43.6459 3.6963 C 38.4537 4.4219 33.2647 5.1709 28.0712 5.8865 C 27.2943 5.9934 26.6995 6.2715 26.1305 6.8435 C 18.9614 14.0503 11.7646 21.2297 4.5755 28.4167 C 2.9586 30.0332 2.9559 31.7808 4.5697 33.3943 C 10.8856 39.7092 17.2029 46.0227 23.5195 52.3369 C 25.1754 53.9924 26.8907 53.9951 28.5446 52.3423 C 35.557 45.3335 42.5564 38.3115 49.5966 31.3311 C 50.4822 30.4529 50.993 29.5632 51.1542 28.2893 C 51.788 23.2793 52.5534 18.2856 53.26 13.2842 C 53.2827 13.1226 53.2538 12.8896 53.1516 12.7844 C 52.1239 11.7241 51.0757 10.6833 50.0838 9.6877 C 49.1797 10.5886 48.3244 11.4409 47.4042 12.3582 ZM 26.2541 57.3479 C 26.5403 59.1812 27.7523 60.2334 29.5468 60.2344 C 38.6281 60.2397 47.7093 60.24 56.7905 60.2341 C 58.7628 60.2329 60.1183 58.8928 60.1197 56.9314 C 60.1268 46.3896 60.1251 35.8479 60.1121 25.3064 C 60.1118 25.0393 60.0057 24.729 59.8478 24.5127 C 58.7754 23.0439 57.6746 21.5955 56.587 20.1379 C 56.4933 20.0125 56.4279 19.8665 56.2871 19.6216 C 56.178 19.9214 56.1359 19.9956 56.1246 20.0745 C 55.6499 23.4229 55.1547 26.7686 54.7194 30.1221 C 54.5765 31.2234 54.1961 32.1025 53.3817 32.9106 C 46.105 40.1306 38.8525 47.3752 31.6276 54.6472 C 30.1269 56.1577 28.4763 57.2444 26.2541 57.3479 Z" fill="#333333"/>
			<path d="M 34.1616 15.8452 C 34.0995 16.1116 34.0556 16.4009 33.9644 16.6746 C 31.0725 25.3562 28.1736 34.0349 25.2843 42.7168 C 25.0234 43.5005 24.6144 44.1216 23.7535 44.2844 C 22.2263 44.5732 21.1194 43.2222 21.6284 41.6807 C 22.6479 38.5925 23.6879 35.5107 24.7168 32.4253 C 26.6033 26.769 28.4872 21.1118 30.3741 15.4556 C 30.7097 14.4495 31.3702 13.9243 32.2735 13.9299 C 33.0723 13.9348 33.7582 14.4282 34.0249 15.2083 C 34.0913 15.4023 34.1129 15.6118 34.1616 15.8452 Z" fill="#333333"/>
			<path d="M 38.4407 34.7747 C 35.3078 34.761 32.7518 32.1868 32.7964 29.0908 C 32.8416 25.9648 35.4061 23.4473 38.5216 23.4707 C 41.5924 23.4937 44.1489 26.0747 44.1369 29.1406 C 44.1247 32.2642 41.5725 34.7883 38.4407 34.7747 ZM 40.316 29.1296 C 40.3159 28.0859 39.4728 27.2405 38.446 27.2544 C 37.4376 27.2678 36.6235 28.0898 36.6133 29.1045 C 36.6029 30.1548 37.4149 30.9912 38.4516 30.9978 C 39.4871 31.0049 40.3162 30.1741 40.316 29.1296 Z" fill="#333333"/>
			<path d="M 17.1196 34.7747 C 13.9717 34.752 11.4857 32.2246 11.5139 29.0759 C 11.5418 25.948 14.0955 23.4429 17.2276 23.4705 C 20.3273 23.4978 22.8499 26.0903 22.8176 29.2158 C 22.7857 32.2964 20.2222 34.7971 17.1196 34.7747 ZM 17.1747 30.9976 C 18.1846 30.9893 19.0486 30.1138 19.0341 29.1133 C 19.0195 28.1074 18.1331 27.24 17.1357 27.2549 C 16.1259 27.2705 15.2775 28.1416 15.2878 29.1526 C 15.2982 30.1743 16.1489 31.0059 17.1747 30.9976 Z" fill="#333333"/>
		</g>
	</g>
</svg>