<svg width="31" height="31" viewBox="0 0 31 31" fill="none" xmlns="http://www.w3.org/2000/svg">
<path d="M15.4999 0.083252C12.4508 0.083252 9.47014 0.987424 6.93488 2.68143C4.39963 4.37543 2.42363 6.78319 1.25678 9.60022C0.0899317 12.4172 -0.21537 15.517 0.379486 18.5076C0.974341 21.4981 2.44264 24.2451 4.5987 26.4011C6.75476 28.5572 9.50174 30.0255 12.4923 30.6204C15.4828 31.2152 18.5826 30.9099 21.3996 29.7431C24.2167 28.5762 26.6244 26.6002 28.3184 24.065C30.0124 21.5297 30.9166 18.549 30.9166 15.4999C30.9166 13.4754 30.5178 11.4707 29.7431 9.60022C28.9683 7.72978 27.8327 6.03026 26.4012 4.59869C24.9696 3.16712 23.2701 2.03154 21.3996 1.25678C19.5292 0.482016 17.5245 0.083252 15.4999 0.083252ZM15.4999 27.8333C13.0606 27.8333 10.6761 27.1099 8.64789 25.7547C6.61969 24.3995 5.03889 22.4733 4.10541 20.2197C3.17193 17.9661 2.92769 15.4862 3.40357 13.0938C3.87946 10.7014 5.05409 8.50378 6.77894 6.77894C8.50379 5.05409 10.7014 3.87945 13.0938 3.40357C15.4862 2.92768 17.9661 3.17192 20.2197 4.1054C22.4733 5.03889 24.3995 6.61968 25.7547 8.64789C27.1099 10.6761 27.8333 13.0606 27.8333 15.4999C27.8333 18.7709 26.5339 21.908 24.2209 24.2209C21.908 26.5339 18.7709 27.8333 15.4999 27.8333Z" fill="#0C56DB"/>
<path d="M15.4999 13.9583C12.4166 13.9583 12.4166 12.9871 12.4166 12.4167C12.4166 11.8463 13.4958 10.875 15.4999 10.875C17.5041 10.875 17.6428 11.8617 17.6583 12.4167H20.7416C20.7207 11.3664 20.343 10.3545 19.6705 9.54756C18.998 8.74057 18.0709 8.18655 17.0416 7.97667V6.25H13.9583V7.93042C10.8749 8.43917 9.33325 10.4279 9.33325 12.4167C9.33325 14.1433 10.1349 17.0417 15.4999 17.0417C18.5833 17.0417 18.5833 18.09 18.5833 18.5833C18.5833 19.0767 17.6274 20.125 15.4999 20.125C12.6633 20.125 12.4166 18.7992 12.4166 18.5833H9.33325C9.33325 20.0017 10.3508 22.5146 13.9583 23.085V24.75H17.0416V23.085C20.1249 22.5608 21.6666 20.5721 21.6666 18.5833C21.6666 16.8567 20.8649 13.9583 15.4999 13.9583Z" fill="#0C56DB"/>
</svg>
