<?xml version="1.0" standalone="no"?>
<!-- Generator: Adobe Fireworks 10, Export SVG Extension by Aaron Beall (http://fireworks.abeall.com) . Version: 0.6.1  -->
<!DOCTYPE svg PUBLIC "-//W3C//DTD SVG 1.1//EN" "http://www.w3.org/Graphics/SVG/1.1/DTD/svg11.dtd">
<svg id="Untitled-Page%201" viewBox="0 0 59 59" style="background-color:#ffffff00" version="1.1"
	xmlns="http://www.w3.org/2000/svg" xmlns:xlink="http://www.w3.org/1999/xlink" xml:space="preserve"
	x="0px" y="0px" width="59px" height="59px"
>
	<g id="Layer%201">
		<g>
			<path d="M 42.6111 9.8334 L 49.1667 9.8334 L 49.1667 16.3889 L 42.6111 16.3889 L 42.6111 9.8334 L 42.6111 9.8334 ZM 9.8333 42.6111 L 16.3889 42.6111 L 16.3889 49.1666 L 9.8333 49.1666 L 9.8333 42.6111 L 9.8333 42.6111 ZM 9.8333 9.8334 L 16.3889 9.8334 L 16.3889 16.3889 L 9.8333 16.3889 L 9.8333 9.8334 L 9.8333 9.8334 ZM 49.1667 32.7778 L 59 32.7778 L 59 39.3334 L 49.1667 39.3334 L 49.1667 32.7778 L 49.1667 32.7778 ZM 6.5555 39.3334 L 6.5555 52.4445 L 19.6667 52.4445 L 19.6667 39.3334 L 6.5555 39.3334 L 6.5555 39.3334 ZM 0 32.7778 L 26.2222 32.7778 L 26.2222 59 L 0 59 L 0 32.7778 L 0 32.7778 ZM 39.3333 6.5555 L 39.3333 19.6666 L 52.4445 19.6666 L 52.4445 6.5555 L 39.3333 6.5555 L 39.3333 6.5555 ZM 32.7778 0 L 59 0 L 59 26.2222 L 32.7778 26.2222 L 32.7778 0 L 32.7778 0 ZM 6.5555 6.5555 L 6.5555 19.6666 L 19.6667 19.6666 L 19.6667 6.5555 L 6.5555 6.5555 L 6.5555 6.5555 ZM 0 0 L 26.2222 0 L 26.2222 26.2222 L 0 26.2222 L 0 0 L 0 0 ZM 59 59 L 45.8889 59 L 45.8889 52.4445 L 52.4445 52.4445 L 52.4445 45.8889 L 59 45.8889 L 59 59 L 59 59 ZM 42.6111 45.8889 L 42.6111 42.6111 L 32.7778 42.6111 L 32.7778 32.7778 L 42.6111 32.7778 L 42.6111 39.3334 L 49.1667 39.3334 L 49.1667 45.8889 L 45.8889 45.8889 L 45.8889 52.4445 L 39.3333 52.4445 L 39.3333 59 L 32.7778 59 L 32.7778 49.1666 L 39.3333 49.1666 L 39.3333 45.8889 L 42.6111 45.8889 L 42.6111 45.8889 Z" fill="#ffffff"/>
		</g>
	</g>
</svg>