<svg width="32" height="32" viewBox="0 0 32 32" fill="none" xmlns="http://www.w3.org/2000/svg">
<path d="M8.34995 8.24995H8.24995V8.34995V10.2625V10.3625H8.34995H10.2625H10.3625V10.2625V8.34995V8.24995H10.2625H8.34995ZM0.90932 0.90932C0.711234 1.1074 0.599951 1.37607 0.599951 1.6562V7.3937C0.599951 7.67384 0.711234 7.9425 0.90932 8.14058C1.1074 8.33867 1.37607 8.44995 1.6562 8.44995C1.93634 8.44995 2.205 8.33867 2.40308 8.14058C2.60117 7.9425 2.71245 7.67384 2.71245 7.3937V2.71245H7.3937C7.67384 2.71245 7.9425 2.60117 8.14058 2.40308C8.33867 2.205 8.44995 1.93634 8.44995 1.6562C8.44995 1.37607 8.33867 1.1074 8.14058 0.90932C7.9425 0.711234 7.67384 0.599951 7.3937 0.599951H1.6562C1.37607 0.599951 1.1074 0.711234 0.90932 0.90932ZM23.8593 0.909319C23.6612 1.10741 23.55 1.37607 23.55 1.6562C23.55 1.93634 23.6612 2.205 23.8593 2.40308C24.0574 2.60117 24.3261 2.71245 24.6062 2.71245H29.2875V7.3937C29.2875 7.67384 29.3987 7.9425 29.5968 8.14058C29.7949 8.33867 30.0636 8.44995 30.3437 8.44995C30.6238 8.44995 30.8925 8.33867 31.0906 8.14058C31.2887 7.9425 31.4 7.67384 31.4 7.3937V1.6562C31.4 1.37607 31.2887 1.10741 31.0906 0.90932C30.8925 0.711234 30.6238 0.599951 30.3437 0.599951H24.6062C24.3261 0.599951 24.0574 0.711234 23.8593 0.909319ZM2.40308 23.8593C2.205 23.6612 1.93634 23.55 1.6562 23.55C1.37607 23.55 1.10741 23.6612 0.90932 23.8593C0.711234 24.0574 0.599951 24.3261 0.599951 24.6062V30.3437C0.599951 30.6238 0.711234 30.8925 0.909319 31.0906C1.10741 31.2887 1.37607 31.4 1.6562 31.4H7.3937C7.67384 31.4 7.9425 31.2887 8.14058 31.0906C8.33867 30.8925 8.44995 30.6238 8.44995 30.3437C8.44995 30.0636 8.33867 29.7949 8.14058 29.5968C7.9425 29.3987 7.67384 29.2875 7.3937 29.2875H2.71245V24.6062C2.71245 24.3261 2.60117 24.0574 2.40308 23.8593ZM31.0906 23.8593C30.8925 23.6612 30.6238 23.55 30.3437 23.55C30.0636 23.55 29.7949 23.6612 29.5968 23.8593C29.3987 24.0574 29.2875 24.3261 29.2875 24.6062V29.2875H24.6062C24.3261 29.2875 24.0574 29.3987 23.8593 29.5968C23.6612 29.7949 23.55 30.0636 23.55 30.3437C23.55 30.6238 23.6612 30.8925 23.8593 31.0906C24.0574 31.2887 24.3261 31.4 24.6062 31.4H30.3437C30.6238 31.4 30.8925 31.2887 31.0906 31.0906C31.2887 30.8925 31.4 30.6238 31.4 30.3437V24.6062C31.4 24.3261 31.2887 24.0574 31.0906 23.8593Z" fill="white" stroke="white" stroke-width="0.2"/>
<path d="M14.1874 4.5249V4.4249H14.0874H4.5249H4.4249V4.5249V14.0874V14.1874H4.5249H14.0874H14.1874V14.0874V4.5249ZM10.3624 21.7374V21.6374H10.2624H8.3499H8.2499V21.7374V23.6499V23.7499H8.3499H10.2624H10.3624V23.6499V21.7374ZM6.5374 6.5374H12.0749V12.0749H6.5374V6.5374Z" fill="white" stroke="white" stroke-width="0.2"/>
<path d="M14.1874 17.9124V17.8124H14.0874H4.5249H4.4249V17.9124V27.4749V27.5749H4.5249H14.0874H14.1874V27.4749V17.9124ZM21.7374 8.24985H21.6374V8.34985V10.2624V10.3624H21.7374H23.6499H23.7499V10.2624V8.34985V8.24985H23.6499H21.7374ZM6.5374 19.9249H12.0749V25.4624H6.5374V19.9249Z" fill="white" stroke="white" stroke-width="0.2"/>
<path d="M17.9125 4.4249H17.8125V4.5249V14.0874V14.1874H17.9125H27.475H27.575V14.0874V4.5249V4.4249H27.475H17.9125ZM16 15.8999H15.9V15.9999V19.8249V19.9249H16H17.8125V21.6374H16H15.9V21.7374V23.6499V23.7499H16H19.825H19.925V23.6499V19.9249H21.6375V23.6499V23.7499H21.7375H23.65H23.75V23.6499V21.8374H27.475H27.575V21.7374V19.8249V19.7249H27.475H21.8375V15.9999V15.8999H21.7375H16ZM19.725 19.7249H18.0125V18.0124H19.725V19.7249ZM27.575 23.6499V23.5499H27.475H25.5625H25.4625V23.6499V25.4624H21.7375H21.6375V25.5624V27.4749V27.5749H21.7375H27.475H27.575V27.4749V23.6499ZM19.825 27.5749H19.925V27.4749V25.5624V25.4624H19.825H16H15.9V25.5624V27.4749V27.5749H16H19.825ZM25.4625 12.0749H19.925V6.5374H25.4625V12.0749Z" fill="white" stroke="white" stroke-width="0.2"/>
<path d="M23.5499 17.9125V18.0125H23.6499H27.4749H27.5749V17.9125V16V15.9H27.4749H23.6499H23.5499V16V17.9125Z" fill="white" stroke="white" stroke-width="0.2"/>
</svg>
