<svg width="27" height="28" viewBox="0 0 27 28" fill="none" xmlns="http://www.w3.org/2000/svg">
<path d="M25.7471 1.39693L26.174 1.82457C26.3214 1.97222 26.4221 2.15991 26.4638 2.36434C26.5054 2.5687 26.4861 2.78078 26.4083 2.97426C26.4082 2.97433 26.4082 2.9744 26.4082 2.97446L16.9277 26.6778L16.9277 26.6778C16.8271 26.9293 16.659 27.1481 16.442 27.3102C16.2251 27.4723 15.9676 27.5714 15.6979 27.5965C15.4283 27.6217 15.1569 27.572 14.9137 27.4528C14.6705 27.3337 14.4648 27.1497 14.3194 26.9212L14.3194 26.9212L9.17142 18.8289L1.08044 13.6805L25.7471 1.39693ZM25.7471 1.39693V1.56566C25.7101 1.55377 25.6723 1.54389 25.634 1.53608C25.4297 1.49445 25.2176 1.51375 25.0242 1.59157M25.7471 1.39693L25.0242 1.59157M25.0242 1.59157C25.0241 1.59161 25.024 1.59164 25.0239 1.59168L1.32381 11.07C1.32379 11.07 1.32378 11.07 1.32376 11.07C1.07187 11.1704 0.852621 11.3385 0.690204 11.5557L0.890408 11.7054L0.690204 11.5557C0.527778 11.7729 0.428502 12.0307 0.403329 12.3007C0.378156 12.5708 0.428063 12.8425 0.547545 13.086C0.666978 13.3294 0.851288 13.535 1.08016 13.6803L25.0242 1.59157ZM22.5037 6.99894L15.4259 24.6949L11.2971 18.207L22.5037 6.99894ZM3.3047 12.5719L21.0009 5.49228L9.79328 16.6998L3.3047 12.5719Z" fill="#0C56DB" stroke="#0C56DB" stroke-width="0.5"/>
</svg>
