<svg width="37" height="37" viewBox="0 0 37 37" fill="none" xmlns="http://www.w3.org/2000/svg">
<path d="M12.1508 23.0883L12.1508 23.0883C11.9173 23.3218 11.7861 23.6385 11.7861 23.9687C11.7861 24.299 11.9173 24.6157 12.1508 24.8492C12.3843 25.0827 12.701 25.2139 13.0312 25.2139C13.3615 25.2139 13.6782 25.0827 13.9117 24.8492L13.9117 24.8492L22.6156 16.1431L22.6156 21.8359C22.6156 22.1658 22.7467 22.4822 22.9799 22.7154C23.2132 22.9486 23.5295 23.0797 23.8594 23.0797C24.1892 23.0797 24.5056 22.9486 24.7388 22.7154C24.9721 22.4822 25.1031 22.1658 25.1031 21.8359L25.1031 13.1406C25.1031 12.8108 24.9721 12.4944 24.7388 12.2612C24.5056 12.0279 24.1892 11.8969 23.8594 11.8969L15.1641 11.8969C14.8342 11.8969 14.5178 12.0279 14.2846 12.2612C14.0513 12.4944 13.9203 12.8108 13.9203 13.1406C13.9203 13.4705 14.0513 13.7868 14.2846 14.0201C14.5178 14.2533 14.8342 14.3844 15.1641 14.3844L20.8569 14.3844L12.1508 23.0883ZM29.2215 29.2215C26.378 32.065 22.5213 33.6625 18.5 33.6625C14.4787 33.6625 10.622 32.065 7.77849 29.2215C4.93497 26.378 3.3375 22.5213 3.3375 18.5C3.3375 14.4787 4.93497 10.622 7.77849 7.77849C10.622 4.93497 14.4787 3.3375 18.5 3.3375C22.5213 3.3375 26.378 4.93497 29.2215 7.77849C32.065 10.622 33.6625 14.4787 33.6625 18.5C33.6625 22.5213 32.065 26.378 29.2215 29.2215ZM30.9804 6.01956C27.6704 2.70954 23.1811 0.849998 18.5 0.849998C13.8189 0.849998 9.32958 2.70954 6.01956 6.01957C2.70955 9.32958 0.849999 13.8189 0.849999 18.5C0.849999 23.1811 2.70955 27.6704 6.01956 30.9804C9.32958 34.2905 13.8189 36.15 18.5 36.15C23.1811 36.15 27.6704 34.2905 30.9804 30.9804C34.2905 27.6704 36.15 23.1811 36.15 18.5C36.15 13.8189 34.2905 9.32958 30.9804 6.01956Z" fill="#0C56DB" stroke="#0C56DB" stroke-width="0.3"/>
</svg>
