<svg width="20" height="20" viewBox="0 0 20 20" fill="none" xmlns="http://www.w3.org/2000/svg">
<path d="M19.955 0.857746C20.0004 0.744166 20.0116 0.619741 19.987 0.499895C19.9624 0.38005 19.9032 0.270055 19.8167 0.183547C19.7302 0.0970387 19.6202 0.0378218 19.5003 0.0132375C19.3805 -0.0113468 19.256 -0.000217461 19.1425 0.0452459L0.958711 7.319H0.957461L0.392461 7.544C0.285448 7.58668 0.192318 7.65812 0.123355 7.75041C0.0543929 7.8427 0.0122831 7.95226 0.00167746 8.06698C-0.00892821 8.1817 0.0123829 8.29713 0.0632569 8.4005C0.114131 8.50387 0.192588 8.59116 0.289961 8.65275L0.802461 8.97775L0.803711 8.98025L7.04746 12.9527L11.02 19.1965L11.0225 19.199L11.3475 19.7115C11.4092 19.8085 11.4966 19.8866 11.5999 19.9371C11.7032 19.9877 11.8184 20.0087 11.9329 19.998C12.0474 19.9873 12.1567 19.9452 12.2488 19.8763C12.3409 19.8075 12.4123 19.7145 12.455 19.6077L19.955 0.857746ZM17.6637 3.22025L8.29621 12.5877L8.02746 12.1652C7.97822 12.0877 7.91249 12.022 7.83496 11.9727L7.41246 11.704L16.78 2.3365L18.2525 1.74775L17.665 3.22025H17.6637Z" fill="white"/>
</svg>
