<svg width="20" height="22" viewBox="0 0 20 22" fill="none" xmlns="http://www.w3.org/2000/svg">
<path d="M0.324945 13.6645L1.8601 12.352C1.78745 11.9066 1.74994 11.452 1.74994 10.9973C1.74994 10.5426 1.78745 10.0879 1.8601 9.64258L0.324945 8.33008C0.209154 8.23095 0.12628 8.09893 0.0873451 7.95156C0.0484085 7.80419 0.0552578 7.64846 0.106977 7.50508L0.128069 7.44414C0.550697 6.26295 1.18355 5.16797 1.99604 4.21211L2.03823 4.16289C2.13679 4.047 2.26816 3.96369 2.41501 3.92394C2.56187 3.88419 2.71732 3.88987 2.86088 3.94023L4.76635 4.61758C5.46948 4.04102 6.25463 3.58633 7.10307 3.26758L7.47104 1.27539C7.4988 1.12549 7.57152 0.987584 7.67952 0.879995C7.78753 0.772406 7.92572 0.700227 8.07573 0.673047L8.13901 0.661328C9.3601 0.441016 10.6445 0.441016 11.8656 0.661328L11.9289 0.673047C12.0789 0.700227 12.217 0.772406 12.3251 0.879995C12.4331 0.987584 12.5058 1.12549 12.5335 1.27539L12.9039 3.27695C13.7455 3.59577 14.5293 4.05022 15.2242 4.62226L17.1437 3.94023C17.2872 3.88947 17.4428 3.88359 17.5897 3.92336C17.7367 3.96313 17.868 4.04667 17.9664 4.16289L18.0085 4.21211C18.8201 5.16865 19.4528 6.26345 19.8765 7.44414L19.8976 7.50508C20.0031 7.79805 19.9164 8.12617 19.6796 8.33008L18.1257 9.65664C18.1984 10.0973 18.2335 10.5473 18.2335 10.9949C18.2335 11.4449 18.1984 11.8949 18.1257 12.3332L19.6796 13.6598C19.7954 13.7589 19.8783 13.8909 19.9172 14.0383C19.9562 14.1857 19.9493 14.3414 19.8976 14.4848L19.8765 14.5457C19.4523 15.727 18.8242 16.8168 18.0085 17.7777L17.9664 17.827C17.8678 17.9428 17.7364 18.0262 17.5896 18.0659C17.4427 18.1056 17.2873 18.1 17.1437 18.0496L15.2242 17.3676C14.5257 17.9418 13.7453 18.3965 12.9039 18.7129L12.5335 20.7145C12.5058 20.8644 12.4331 21.0023 12.3251 21.1098C12.217 21.2174 12.0789 21.2896 11.9289 21.3168L11.8656 21.3285C10.6333 21.55 9.37132 21.55 8.13901 21.3285L8.07573 21.3168C7.92572 21.2896 7.78753 21.2174 7.67952 21.1098C7.57152 21.0023 7.4988 20.8644 7.47104 20.7145L7.10307 18.7223C6.25498 18.4044 5.46539 17.9482 4.76635 17.3723L2.86088 18.0496C2.71737 18.1004 2.5618 18.1063 2.41486 18.0665C2.26791 18.0267 2.13655 17.9432 2.03823 17.827L1.99604 17.7777C1.18041 16.8145 0.552288 15.727 0.128069 14.5457L0.106977 14.4848C0.00150871 14.1965 0.0882263 13.8684 0.324945 13.6645ZM3.52416 9.91914C3.46557 10.273 3.4351 10.6363 3.4351 10.9996C3.4351 11.3629 3.46557 11.7262 3.52416 12.0801L3.67885 13.0199L1.92807 14.5176C2.19348 15.129 2.52851 15.7079 2.92651 16.2426L5.10151 15.4715L5.83745 16.0762C6.3976 16.5355 7.02104 16.8965 7.69604 17.1496L8.58901 17.4848L9.00854 19.7582C9.67048 19.8332 10.3388 19.8332 11.0007 19.7582L11.4203 17.4801L12.3062 17.1402C12.9742 16.8871 13.5953 16.5262 14.1507 16.0691L14.8867 15.4621L17.0757 16.2402C17.4742 15.7035 17.807 15.1246 18.0742 14.5152L16.3046 13.0035L16.457 12.066C16.5132 11.7168 16.5437 11.3559 16.5437 10.9996C16.5437 10.641 16.5156 10.2824 16.457 9.9332L16.3046 8.9957L18.0742 7.48398C17.8093 6.87226 17.4742 6.2957 17.0757 5.75898L14.8867 6.53711L14.1507 5.93008C13.5953 5.47305 12.9742 5.11211 12.3062 4.85898L11.4179 4.52383L10.9984 2.2457C10.3398 2.1707 9.66713 2.1707 9.0062 2.2457L8.58667 4.51914L7.6937 4.8543C7.02104 5.10742 6.39526 5.46836 5.8351 5.92773L5.09916 6.53242L2.92416 5.76133C2.52573 6.29805 2.19291 6.87695 1.92573 7.48633L3.67651 8.98398L3.52416 9.91914ZM9.99995 6.64023C12.2781 6.64023 14.1249 8.48711 14.1249 10.7652C14.1249 13.0434 12.2781 14.8902 9.99995 14.8902C7.72182 14.8902 5.87495 13.0434 5.87495 10.7652C5.87495 8.48711 7.72182 6.64023 9.99995 6.64023ZM8.1437 12.6215C8.38716 12.8656 8.6765 13.0593 8.99506 13.1912C9.31363 13.3231 9.65514 13.3908 9.99995 13.3902C10.7007 13.3902 11.3593 13.116 11.8562 12.6215C12.1004 12.378 12.294 12.0887 12.4259 11.7701C12.5578 11.4515 12.6255 11.11 12.6249 10.7652C12.6249 10.0645 12.3507 9.40586 11.8562 8.90898C11.3593 8.41211 10.7007 8.14023 9.99995 8.14023C9.29916 8.14023 8.64057 8.41211 8.1437 8.90898C7.89953 9.15245 7.70591 9.44179 7.57398 9.76035C7.44205 10.0789 7.37441 10.4204 7.37495 10.7652C7.37495 11.466 7.64916 12.1246 8.1437 12.6215Z" fill="white"/>
</svg>
