<svg width="17" height="18" viewBox="0 0 17 18" fill="none" xmlns="http://www.w3.org/2000/svg">
<path d="M9.62746 9.41316C9.62746 10.0048 9.14943 10.4829 8.55775 10.4829C7.96606 10.4829 7.48804 10.0048 7.48804 9.41316V1.92518C7.48804 1.3345 7.96606 0.855469 8.55775 0.855469C9.14943 0.855469 9.62746 1.3345 9.62746 1.92518V9.41316ZM2.67434 9.41316C2.67434 12.6624 5.3085 15.2966 8.55775 15.2966C11.807 15.2966 14.4412 12.6624 14.4412 9.41316C14.4412 7.59465 13.6155 5.96668 12.3185 4.88694C11.8638 4.5092 11.8003 3.83495 12.1781 3.38066C12.5558 2.92636 13.2311 2.86452 13.6857 3.24226C15.4507 4.71312 16.5806 6.93277 16.5806 9.38307C16.5806 13.8424 12.987 17.436 8.55775 17.436C4.12847 17.436 0.534912 13.8424 0.534912 9.38307C0.534912 6.93277 1.66312 4.71312 3.42982 3.24226C3.88445 2.86452 4.5597 2.92636 4.93744 3.38066C5.2851 3.83495 5.25167 4.5092 4.79704 4.88694C3.50002 5.96668 2.67434 7.59465 2.67434 9.41316Z" fill="white"/>
</svg>
