<?xml version="1.0" standalone="no"?>
<!-- Generator: Adobe Fireworks 10, Export SVG Extension by Aaron Beall (http://fireworks.abeall.com) . Version: 0.6.1  -->
<!DOCTYPE svg PUBLIC "-//W3C//DTD SVG 1.1//EN" "http://www.w3.org/Graphics/SVG/1.1/DTD/svg11.dtd">
<svg id="Untitled-Page%201" viewBox="0 0 80 80" style="background-color:#ffffff00" version="1.1"
	xmlns="http://www.w3.org/2000/svg" xmlns:xlink="http://www.w3.org/1999/xlink" xml:space="preserve"
	x="0px" y="0px" width="80px" height="80px"
>
	<g id="Layer%201">
		<g>
			<g>
				<path d="M 64.465 32.1567 C 62.2873 31.0676 58.2042 31.0549 58.0313 31.0549 C 57.5136 31.0549 57.0938 31.4749 57.0938 31.9928 C 57.0938 32.5107 57.5136 32.9307 58.0313 32.9307 C 59.085 32.9308 62.1441 33.093 63.6265 33.8345 C 63.7611 33.9019 63.9041 33.9336 64.045 33.9336 C 64.3889 33.9336 64.72 33.7435 64.8843 33.415 C 65.1159 32.9517 64.9281 32.3884 64.465 32.1567 Z" fill="#395465"/>
			</g>
			<g>
				<path d="M 69.139 45.5092 L 65.2672 44.4025 C 65.1 44.3546 64.9832 44.2 64.9832 44.0259 L 64.9832 42.733 C 65.2982 42.5148 65.5988 42.2705 65.8796 41.9977 C 67.2409 40.6763 67.9905 38.9038 67.9905 37.0065 L 67.9905 35.2225 L 68.3649 34.4736 C 68.7757 33.6515 68.9929 32.7311 68.9929 31.812 L 68.9929 26.979 C 68.9929 26.4611 68.5731 26.0411 68.0554 26.0411 L 59.0337 26.0411 C 55.7533 26.0411 53.0843 28.7112 53.0843 31.9928 L 53.0843 32.0487 C 53.0843 32.813 53.2649 33.5784 53.6065 34.262 L 54.0866 35.2224 L 54.0866 36.7543 C 54.0866 39.1819 55.2825 41.36 57.0938 42.6707 L 57.0942 44.0258 C 57.0942 44.2346 57.0942 44.3212 56.32 44.5426 L 54.4308 45.0825 L 48.9656 43.0945 C 48.9853 42.8365 48.8983 42.5742 48.7102 42.3765 L 46.9637 40.5411 L 46.9637 37.46 C 47.1484 37.3079 47.3304 37.1515 47.5067 36.9862 C 49.7099 34.9204 50.9734 32.0039 50.9734 28.9845 L 50.9734 26.5238 C 51.6386 25.0757 51.9758 23.5433 51.9758 21.9652 L 51.9758 11.9379 C 51.9758 11.4199 51.556 11 51.0383 11 L 37.0047 11 C 32.0659 11 28.048 15.0194 28.048 19.9598 L 28.048 21.9653 C 28.048 23.5436 28.3851 25.0759 29.0504 26.524 L 29.0504 28.6412 C 29.0504 32.147 30.6086 35.3054 33.06 37.3877 L 33.06 40.5411 L 31.3136 42.3766 C 31.1255 42.5742 31.0385 42.8365 31.0581 43.0946 L 25.29 45.1926 C 24.872 45.3448 24.4836 45.5508 24.131 45.8002 L 23.2252 45.3472 C 25.9215 44.1731 26.7756 42.5219 26.8166 42.4398 C 26.9486 42.1758 26.9486 41.865 26.8166 41.601 C 26.1407 40.2488 26.0589 37.7703 25.9931 35.7789 C 25.9713 35.1158 25.9505 34.4895 25.9109 33.9318 C 25.5912 29.4335 22.1728 26.0411 17.959 26.0411 C 13.7452 26.0411 10.3266 29.4333 10.0071 33.9318 C 9.9675 34.4897 9.9467 35.116 9.9249 35.7792 C 9.8591 37.7704 9.7771 40.2487 9.1014 41.601 C 8.9694 41.8649 8.9694 42.1758 9.1014 42.4397 C 9.1423 42.5217 9.9947 44.1697 12.6964 45.345 L 10.1805 46.6034 C 8.8355 47.2766 8 48.6289 8 50.1331 L 8 57.0616 C 8 57.5796 8.4197 57.9995 8.9375 57.9995 C 9.4553 57.9995 9.875 57.5796 9.875 57.0616 L 9.875 50.1331 C 9.875 49.3439 10.3134 48.6342 11.019 48.2813 L 14.1519 46.7142 L 15.2416 47.7502 C 16.0036 48.4747 16.9811 48.8367 17.959 48.8367 C 18.9366 48.8367 19.9146 48.4744 20.6764 47.7502 L 21.766 46.7144 L 22.7875 47.2253 C 22.3065 47.9952 22.0335 48.8981 22.0335 49.8438 L 22.0335 57.062 C 22.0335 57.5798 22.4532 57.9998 22.971 57.9998 C 23.4888 57.9998 23.9085 57.5798 23.9085 57.062 L 23.9085 49.8438 C 23.9085 48.5563 24.7211 47.3956 25.9308 46.9556 L 32.0122 44.7434 L 34.5439 48.5425 C 34.8675 49.0281 35.3861 49.3396 35.9667 49.3971 C 36.0315 49.4034 36.0959 49.4066 36.1601 49.4066 C 36.6724 49.4066 37.163 49.205 37.5298 48.8381 L 39.0742 47.2931 L 39.0742 57.062 C 39.0742 57.58 39.494 57.9999 40.0117 57.9999 C 40.5295 57.9999 40.9492 57.58 40.9492 57.062 L 40.9492 47.2931 L 42.4938 48.8381 C 42.8604 49.205 43.351 49.4067 43.8634 49.4067 C 43.9275 49.4067 43.992 49.4037 44.0566 49.3972 C 44.6373 49.3396 45.1561 49.0282 45.4796 48.5426 L 48.0113 44.7437 L 54.0927 46.9559 C 55.3023 47.3959 56.115 48.5565 56.115 49.844 L 56.115 57.0621 C 56.115 57.5801 56.5347 58 57.0525 58 C 57.5703 58 57.99 57.5801 57.99 57.0621 L 57.99 49.844 C 57.99 48.54 57.4721 47.3171 56.6033 46.4126 L 56.835 46.3464 C 57.0686 46.2798 57.3873 46.1882 57.7074 46.0314 L 60.101 48.4258 L 60.101 57.0621 C 60.101 57.5801 60.5207 58 61.0385 58 C 61.5563 58 61.976 57.5801 61.976 57.0621 L 61.976 48.4258 L 64.353 46.048 C 64.4794 46.1123 64.6121 46.1665 64.7518 46.2064 L 68.6239 47.3131 C 69.5077 47.5657 70.125 48.3844 70.125 49.304 L 70.125 57.0621 C 70.125 57.5801 70.5447 58 71.0625 58 C 71.5803 58 72 57.5801 72 57.0621 L 72 49.304 C 72 47.551 70.8235 45.9906 69.139 45.5092 ZM 14.0144 43.8525 C 12.2608 43.2214 11.3811 42.3799 11.0056 41.9203 C 11.2616 41.2509 11.4276 40.4841 11.54 39.6747 C 12.057 40.9147 12.9229 41.9734 14.0144 42.7286 L 14.0144 43.8525 ZM 19.385 46.3907 C 18.5854 47.1508 17.3328 47.1506 16.5334 46.3906 L 15.6615 45.5619 C 15.8086 45.2861 15.8895 44.9735 15.8895 44.646 L 15.8895 43.6465 C 16.5435 43.851 17.2388 43.9611 17.9593 43.9611 C 18.6789 43.9611 19.3738 43.8505 20.0289 43.6471 L 20.0287 44.6459 C 20.0287 44.9735 20.1095 45.2863 20.2567 45.5621 L 19.385 46.3907 ZM 17.9595 42.0854 C 15.16 42.0854 12.8826 39.8073 12.8826 37.007 C 12.8826 36.4889 12.4629 36.0691 11.9451 36.0691 C 11.8926 36.0691 11.8413 36.0743 11.7913 36.0828 C 11.794 36.0021 11.7966 35.9213 11.7994 35.8414 C 11.8203 35.1965 11.8404 34.5875 11.8775 34.0649 C 11.9972 32.3799 12.6704 30.8271 13.7729 29.6925 C 14.8853 28.5476 16.372 27.9171 17.9593 27.9171 C 19.5465 27.9171 21.0331 28.5476 22.1456 29.6925 C 23.2481 30.8271 23.9213 32.3799 24.041 34.0649 C 24.078 34.5873 24.0982 35.1963 24.1195 35.8411 C 24.1214 35.8964 24.1233 35.9525 24.1251 36.0083 C 23.1051 34.4363 21.5299 33.2777 19.4945 32.6235 C 17.6141 32.0192 15.9969 32.0566 15.9286 32.0582 C 15.6831 32.0652 15.4501 32.168 15.2798 32.3447 L 13.5882 34.0997 C 13.2289 34.4725 13.2396 35.0662 13.6124 35.4257 C 13.9852 35.7853 14.5786 35.7744 14.938 35.4016 L 16.3455 33.9415 C 17.5576 34.0007 21.4573 34.4543 22.9739 37.7952 C 22.5923 40.2571 20.477 42.0854 17.9595 42.0854 ZM 21.9036 43.8557 L 21.9037 42.7373 C 22.9944 41.9861 23.8615 40.9294 24.3789 39.6801 C 24.4913 40.4875 24.6571 41.2526 24.9126 41.9207 C 24.5393 42.3757 23.6555 43.2247 21.9036 43.8557 ZM 30.9254 28.6411 L 30.9254 26.3142 C 30.9254 26.1731 30.8935 26.0336 30.8321 25.9065 C 30.2289 24.6567 29.923 23.3308 29.923 21.9653 L 29.923 19.9598 C 29.923 16.0537 33.0999 12.8759 37.0047 12.8759 L 50.1008 12.8759 L 50.1008 21.9655 C 50.1008 23.3309 49.7948 24.657 49.1916 25.9066 C 49.1302 26.0338 49.0984 26.1732 49.0984 26.3145 L 49.0984 28.9847 C 49.0984 31.5245 48.0777 33.8801 46.2245 35.618 C 45.9932 35.8348 45.753 36.0381 45.5047 36.2277 C 45.4993 36.2313 45.494 36.2355 45.4887 36.2393 C 43.7525 37.5579 41.626 38.1987 39.4052 38.0548 C 34.6501 37.7468 30.9254 33.6119 30.9254 28.6411 ZM 36.204 47.5117 C 36.1975 47.5182 36.1824 47.5336 36.1518 47.5303 C 36.1213 47.5273 36.1093 47.5093 36.1041 47.5017 L 33.1885 43.1266 L 34.1267 42.1404 L 38.5499 45.1648 L 36.204 47.5117 ZM 40.0118 43.8925 L 34.935 40.4211 L 34.935 38.6704 C 36.2486 39.3807 37.7195 39.825 39.2839 39.9264 C 39.531 39.9424 39.7766 39.9502 40.0216 39.9502 C 41.8141 39.9502 43.5394 39.5215 45.0887 38.7079 L 45.0887 40.4211 L 40.0118 43.8925 ZM 43.9196 47.502 C 43.9145 47.5096 43.9025 47.5276 43.872 47.5305 C 43.8414 47.5344 43.8264 47.5182 43.8198 47.512 L 41.4739 45.1652 L 45.897 42.1406 L 46.8354 43.127 L 43.9196 47.502 ZM 61.0385 46.7107 L 58.9111 44.5824 C 58.9481 44.4138 58.9692 44.2291 58.9689 44.0254 L 58.9688 43.6296 C 59.5592 43.8235 60.1815 43.9386 60.8254 43.9578 C 60.8977 43.9601 60.9693 43.9611 61.0413 43.9611 C 61.7528 43.9611 62.4472 43.8535 63.1082 43.6483 L 63.1082 44.0259 C 63.1082 44.213 63.1317 44.3964 63.176 44.5724 L 61.0385 46.7107 ZM 64.5738 40.6517 C 63.5803 41.6163 62.2677 42.1256 60.8817 42.083 C 58.1687 42.0016 55.9616 39.6112 55.9616 36.7545 L 55.9616 35.0012 C 55.9616 34.8556 55.9278 34.712 55.8627 34.5819 L 55.2835 33.4232 C 55.0714 32.9987 54.9593 32.5234 54.9593 32.0488 L 54.9593 31.9929 C 54.9593 29.7454 56.7872 27.917 59.0338 27.917 L 67.1179 27.917 L 67.1179 31.812 C 67.1179 32.4417 66.9691 33.0719 66.6877 33.635 L 66.2145 34.5818 C 66.1494 34.7122 66.1155 34.8556 66.1155 35.0012 L 66.1155 37.0066 C 66.1155 38.3922 65.568 39.6866 64.5738 40.6517 Z" fill="#395465"/>
			</g>
			<g>
				<path d="M 67.0529 50.1073 C 66.5351 50.1073 66.1154 50.5272 66.1154 51.045 L 66.1154 57.0616 C 66.1154 57.5796 66.5351 57.9995 67.0529 57.9995 C 67.5707 57.9995 67.9904 57.5796 67.9904 57.0616 L 67.9904 51.045 C 67.9904 50.5273 67.5707 50.1073 67.0529 50.1073 Z" fill="#395465"/>
			</g>
			<g>
				<path d="M 12.9471 51.347 C 12.4294 51.347 12.0096 51.767 12.0096 52.2849 L 12.0096 57.0616 C 12.0096 57.5796 12.4294 57.9995 12.9471 57.9995 C 13.4649 57.9995 13.8846 57.5796 13.8846 57.0616 L 13.8846 52.2849 C 13.8846 51.767 13.4649 51.347 12.9471 51.347 Z" fill="#395465"/>
			</g>
			<g>
				<path d="M 47.6915 22.3052 C 44.1457 18.7582 36.7271 19.4362 33.7019 19.8925 C 32.749 20.036 32.0575 20.8428 32.0575 21.8104 L 32.0575 23.9709 C 32.0575 24.4889 32.4773 24.9088 32.995 24.9088 C 33.5128 24.9088 33.9325 24.4889 33.9325 23.9709 L 33.9325 21.8103 C 33.9325 21.7784 33.9535 21.7511 33.9815 21.7469 C 35.1899 21.5647 37.5878 21.2836 40.0721 21.4493 C 42.9956 21.644 45.1132 22.3781 46.3657 23.6312 C 46.7319 23.9976 47.3255 23.9976 47.6915 23.6312 C 48.0576 23.265 48.0576 22.6711 47.6915 22.3052 Z" fill="#395465"/>
			</g>
			<g>
				<path d="M 28.9855 52.1129 C 28.4677 52.1129 28.048 52.5327 28.048 53.0508 L 28.048 57.0618 C 28.048 57.5797 28.4677 57.9996 28.9855 57.9996 C 29.5033 57.9996 29.923 57.5797 29.923 57.0618 L 29.923 53.0508 C 29.923 52.533 29.5033 52.1129 28.9855 52.1129 Z" fill="#395465"/>
			</g>
			<g>
				<path d="M 51.0383 52.1129 C 50.5205 52.1129 50.1008 52.5327 50.1008 53.0508 L 50.1008 57.0618 C 50.1008 57.5797 50.5205 57.9996 51.0383 57.9996 C 51.556 57.9996 51.9758 57.5797 51.9758 57.0618 L 51.9758 53.0508 C 51.9758 52.533 51.556 52.1129 51.0383 52.1129 Z" fill="#395465"/>
			</g>
		</g>
	</g>
</svg>