<?xml version="1.0" standalone="no"?>
<!-- Generator: Adobe Fireworks 10, Export SVG Extension by Aaron Beall (http://fireworks.abeall.com) . Version: 0.6.1  -->
<!DOCTYPE svg PUBLIC "-//W3C//DTD SVG 1.1//EN" "http://www.w3.org/Graphics/SVG/1.1/DTD/svg11.dtd">
<svg id="Untitled-Page%201" viewBox="0 0 68 59" style="background-color:#ffffff00" version="1.1"
	xmlns="http://www.w3.org/2000/svg" xmlns:xlink="http://www.w3.org/1999/xlink" xml:space="preserve"
	x="0px" y="0px" width="68px" height="59px"
>
	<g id="Layer%201">
		<g>
			<path d="M 62 31.0959 C 62 27.0202 59.8535 23.3381 56.3523 21.3264 C 56.2646 19.7764 55.9302 18.2658 55.3553 16.8273 C 55.1191 16.2363 54.4488 15.9487 53.8575 16.185 C 53.2666 16.4212 52.979 17.0918 53.2152 17.6827 C 53.769 19.0679 54.0567 20.5336 54.0704 22.0388 C 54.0743 22.4727 54.3216 22.8673 54.7101 23.0603 C 57.7851 24.5881 59.6953 27.6673 59.6953 31.0959 C 59.6953 36.0415 55.6717 40.0652 50.7261 40.0652 C 48.0731 40.0652 45.5703 38.8992 43.8596 36.8659 C 43.6407 36.6057 43.3179 36.4554 42.9779 36.4554 C 42.6378 36.4554 42.3151 36.6057 42.0962 36.8659 C 40.3856 38.8992 37.8829 40.0652 35.2299 40.0652 C 33.3795 40.0652 31.5952 39.4972 30.0974 38.4501 L 34.1121 34.124 C 34.4315 33.7796 34.5101 33.2756 34.3104 32.8505 C 34.1106 32.4252 33.6683 32.1627 33.2038 32.1896 L 31.5396 32.2817 L 34.4581 26.6907 C 34.6444 26.3334 34.6308 25.9047 34.4221 25.5601 C 34.2131 25.2155 33.8395 25.005 33.4365 25.005 L 24.483 25.005 C 24.0418 25.005 23.6393 25.2569 23.4467 25.6538 L 18.519 35.795 C 18.3454 36.1523 18.3679 36.5735 18.5786 36.91 C 18.7893 37.2465 19.1584 37.451 19.5555 37.451 L 23.1857 37.451 L 22.4631 39.641 C 21.5844 39.9217 20.6689 40.0652 19.7338 40.0652 C 14.7881 40.0652 10.7645 36.0415 10.7645 31.0959 C 10.7645 27.1051 13.4429 23.5572 17.2778 22.4679 C 17.7923 22.3217 18.1387 21.8408 18.114 21.3065 C 17.9993 18.8114 19.2734 16.4939 21.439 15.2586 C 24.1102 13.7349 27.5444 14.2821 29.6052 16.5594 C 29.855 16.8355 30.2224 16.9741 30.5928 16.9308 C 30.9626 16.8879 31.2889 16.6688 31.4688 16.3428 C 33.5911 12.4948 37.636 10.1043 42.0248 10.1043 C 43.653 10.1043 45.2316 10.4232 46.7169 11.0521 C 47.3036 11.3004 47.9792 11.0262 48.2275 10.4402 C 48.4755 9.8541 48.2015 9.178 47.6155 8.9299 C 45.8442 8.1799 43.9633 7.7996 42.0247 7.7996 C 41.0639 7.7996 40.1174 7.8974 39.1959 8.0828 C 36.9983 3.2107 32.0919 0 26.6904 0 C 20.452 0 15.0765 4.1689 13.4645 10.0771 C 12.9046 9.966 12.334 9.9102 11.7577 9.9102 C 6.9287 9.9102 3 13.8387 3 18.6679 C 3 22.5692 5.5909 25.9495 9.22 27.0478 C 8.7285 28.3156 8.4597 29.6834 8.4597 31.0961 C 8.4597 37.3124 13.5172 42.3699 19.7336 42.3699 C 20.3688 42.3699 20.9967 42.3152 21.6147 42.2112 L 20.5161 45.5407 C 20.3463 46.0552 20.5578 46.6185 21.0244 46.8941 C 21.2069 47.0019 21.4091 47.0543 21.6099 47.0543 C 21.9222 47.0543 22.2307 46.9276 22.455 46.6857 L 28.5179 40.1523 C 30.4524 41.5885 32.7957 42.3701 35.2299 42.3701 C 38.1337 42.3701 40.8938 41.2591 42.9779 39.2853 C 45.0621 41.2591 47.8223 42.3701 50.7261 42.3701 C 56.9425 42.3699 62 37.3123 62 31.0959 ZM 5.3047 18.6679 C 5.3047 15.1097 8.1995 12.2148 11.7577 12.2148 C 12.5036 12.2148 13.2359 12.3417 13.9346 12.592 C 14.2539 12.7064 14.6078 12.6742 14.9017 12.5039 C 15.1953 12.3335 15.3987 12.0424 15.458 11.7081 C 16.4231 6.2593 21.147 2.3047 26.6904 2.3047 C 31.0717 2.3047 35.0606 4.844 36.9523 8.7271 C 34.2528 9.7481 31.8918 11.571 30.2173 13.9918 C 29.0456 13.0734 27.6475 12.4523 26.1644 12.2059 C 24.1543 11.8721 22.0703 12.2454 20.2969 13.2568 C 17.6346 14.7753 15.9713 17.5051 15.8143 20.5236 C 13.5105 21.3785 11.5929 22.9581 10.2938 24.9517 C 7.4089 24.283 5.3047 21.6868 5.3047 18.6679 L 5.3047 18.6679 ZM 25.8736 36.6599 C 25.9895 36.3088 25.9297 35.9232 25.7131 35.6235 C 25.4966 35.3239 25.1491 35.1464 24.7793 35.1464 L 21.3965 35.1464 L 25.2043 27.3098 L 31.5352 27.3098 L 28.5592 33.0109 C 28.3676 33.3783 28.3878 33.8201 28.6122 34.1683 C 28.8367 34.5167 29.2338 34.7182 29.6443 34.6947 L 30.4813 34.6484 L 24.3611 41.2436 L 25.8736 36.6599 Z" fill="#405263"/>
			<path d="M 16.9331 45.4518 C 16.483 45.0016 15.7535 45.0016 15.3033 45.4518 L 11.7311 49.0239 C 11.2811 49.4739 11.2811 50.2036 11.7311 50.6537 C 11.9561 50.8788 12.251 50.9912 12.5459 50.9912 C 12.8408 50.9912 13.1357 50.8788 13.3607 50.6537 L 16.933 47.0815 C 17.3831 46.6313 17.3831 45.9017 16.9331 45.4518 Z" fill="#405263"/>
			<path d="M 30.8649 45.4518 C 30.4148 45.0016 29.6854 45.0016 29.2352 45.4518 L 25.6629 49.0239 C 25.213 49.4739 25.213 50.2036 25.6629 50.6537 C 25.888 50.8788 26.1829 50.9912 26.4777 50.9912 C 26.7726 50.9912 27.0675 50.8788 27.2926 50.6537 L 30.8649 47.0815 C 31.3149 46.6313 31.3149 45.9017 30.8649 45.4518 Z" fill="#405263"/>
			<path d="M 44.7968 45.4518 C 44.3466 45.0016 43.6172 45.0016 43.1671 45.4518 L 39.5948 49.0239 C 39.1448 49.4739 39.1448 50.2036 39.5948 50.6537 C 39.8199 50.8788 40.1147 50.9912 40.4095 50.9912 C 40.7045 50.9912 40.9993 50.8788 41.2244 50.6537 L 44.7966 47.0815 C 45.2468 46.6313 45.2468 45.9017 44.7968 45.4518 L 44.7968 45.4518 Z" fill="#405263"/>
			<path d="M 57.0988 45.4518 L 53.5266 49.0239 C 53.0765 49.4739 53.0765 50.2036 53.5266 50.6537 C 53.7516 50.8788 54.0466 50.9912 54.3414 50.9912 C 54.6362 50.9912 54.9312 50.8788 55.1563 50.6537 L 58.7286 47.0815 C 59.1784 46.6314 59.1784 45.9018 58.7286 45.4518 C 58.2784 45.0016 57.549 45.0016 57.0988 45.4518 L 57.0988 45.4518 Z" fill="#405263"/>
			<path d="M 18.8757 53.4604 L 15.3035 57.0327 C 14.8535 57.4827 14.8535 58.2124 15.3035 58.6625 C 15.5285 58.8876 15.8234 59 16.1183 59 C 16.4131 59 16.7081 58.8876 16.9331 58.6625 L 20.5054 55.0903 C 20.9553 54.6402 20.9553 53.9106 20.5054 53.4604 C 20.0552 53.0104 19.3258 53.0104 18.8757 53.4604 Z" fill="#405263"/>
			<path d="M 32.8074 53.4604 L 29.2352 57.0327 C 28.7852 57.4827 28.7852 58.2124 29.2352 58.6625 C 29.4603 58.8876 29.7551 59 30.05 59 C 30.3449 59 30.6398 58.8876 30.8649 58.6625 L 34.4371 55.0903 C 34.8871 54.6402 34.8871 53.9106 34.4371 53.4604 C 33.987 53.0104 33.2576 53.0104 32.8074 53.4604 Z" fill="#405263"/>
			<path d="M 46.7393 53.4604 L 43.1671 57.0327 C 42.717 57.4827 42.717 58.2124 43.1671 58.6625 C 43.3922 58.8876 43.687 59 43.9818 59 C 44.2767 59 44.5716 58.8876 44.7966 58.6625 L 48.3689 55.0903 C 48.819 54.6402 48.819 53.9106 48.3689 53.4604 C 47.9189 53.0104 47.1895 53.0104 46.7393 53.4604 L 46.7393 53.4604 Z" fill="#405263"/>
			<path d="M 51.4503 14.0655 C 51.7534 14.0655 52.0507 13.9423 52.2648 13.7278 C 52.4792 13.5135 52.6027 13.2162 52.6027 12.9131 C 52.6027 12.6101 52.4793 12.3127 52.2648 12.0985 C 52.0507 11.8829 51.7534 11.7608 51.4503 11.7608 C 51.1472 11.7608 50.85 11.8829 50.6356 12.0985 C 50.4212 12.3127 50.298 12.6089 50.298 12.9131 C 50.298 13.2162 50.4211 13.5135 50.6356 13.7278 C 50.85 13.9423 51.1472 14.0655 51.4503 14.0655 Z" fill="#405263"/>
		</g>
	</g>
</svg>