<?xml version="1.0" standalone="no"?>
<!-- Generator: Adobe Fireworks 10, Export SVG Extension by Aaron Beall (http://fireworks.abeall.com) . Version: 0.6.1  -->
<!DOCTYPE svg PUBLIC "-//W3C//DTD SVG 1.1//EN" "http://www.w3.org/Graphics/SVG/1.1/DTD/svg11.dtd">
<svg id="Untitled-Page%201" viewBox="0 0 68 59" style="background-color:#ffffff00" version="1.1"
	xmlns="http://www.w3.org/2000/svg" xmlns:xlink="http://www.w3.org/1999/xlink" xml:space="preserve"
	x="0px" y="0px" width="68px" height="59px"
>
	<g id="Layer%201">
		<g>
			<path d="M 33.4968 49.2489 C 32.3849 49.2489 31.4835 50.1504 31.4835 51.2623 L 31.4835 56.9866 C 31.4835 58.0986 32.3849 59 33.4968 59 C 34.6089 59 35.5101 58.0986 35.5101 56.9866 L 35.5101 51.2623 C 35.5101 50.1501 34.6086 49.2489 33.4968 49.2489 Z" fill="#405263"/>
			<path d="M 33.4968 9.7517 C 34.6089 9.7517 35.5101 8.8502 35.5101 7.7383 L 35.5101 2.0134 C 35.5101 0.9015 34.6089 0 33.4968 0 C 32.3849 0 31.4835 0.9015 31.4835 2.0134 L 31.4835 7.7383 C 31.4835 8.8502 32.3849 9.7517 33.4968 9.7517 Z" fill="#405263"/>
			<path d="M 16.689 43.4635 L 12.6399 47.5107 C 11.8533 48.2967 11.853 49.5715 12.6391 50.3578 C 13.0323 50.7512 13.5477 50.9479 14.0632 50.9479 C 14.5782 50.9479 15.0931 50.7515 15.4865 50.3586 L 19.5356 46.3115 C 20.3221 45.5255 20.3224 44.2506 19.5364 43.4644 C 18.7499 42.6778 17.4753 42.6778 16.689 43.4635 Z" fill="#405263"/>
			<path d="M 48.8858 16.1241 C 49.4009 16.1241 49.9161 15.9276 50.3093 15.5346 L 54.358 11.4875 C 55.1443 10.7012 55.1445 9.4266 54.3585 8.64 C 53.5723 7.8535 52.2977 7.8532 51.5112 8.6398 L 47.4626 12.6869 C 46.6762 13.4729 46.676 14.7478 47.462 15.5341 C 47.855 15.9276 48.3704 16.1241 48.8858 16.1241 Z" fill="#405263"/>
			<path d="M 13.7509 29.5004 C 13.7509 28.3885 12.8495 27.4871 11.7376 27.4871 L 6.0133 27.4871 C 4.9015 27.4871 4 28.3885 4 29.5004 C 4 30.6123 4.9015 31.5138 6.0133 31.5138 L 11.7376 31.5138 C 12.8495 31.5138 13.7509 30.6123 13.7509 29.5004 Z" fill="#405263"/>
			<path d="M 60.9867 27.4871 L 55.2597 27.4871 C 54.1476 27.4871 53.2464 28.3885 53.2464 29.5004 C 53.2464 30.6123 54.1476 31.5138 55.2597 31.5138 L 60.9867 31.5138 C 62.0988 31.5138 63 30.6123 63 29.5004 C 63 28.3888 62.0988 27.4871 60.9867 27.4871 Z" fill="#405263"/>
			<path d="M 16.6885 15.5346 C 17.0815 15.9276 17.5969 16.1241 18.1121 16.1241 C 18.6271 16.1241 19.1426 15.9276 19.5356 15.5346 C 20.3219 14.7483 20.3219 13.4734 19.5356 12.6872 L 15.4885 8.64 C 14.7023 7.8538 13.4275 7.8538 12.6415 8.64 C 11.8552 9.4263 11.8552 10.7012 12.6415 11.4872 L 16.6885 15.5346 Z" fill="#405263"/>
			<path d="M 50.3118 43.4641 C 49.5255 42.6778 48.2507 42.6775 47.4645 43.4638 C 46.6779 44.2501 46.6779 45.525 47.4642 46.3109 L 51.5107 50.3581 C 51.9039 50.7515 52.4191 50.9479 52.9345 50.9479 C 53.4495 50.9479 53.965 50.7515 54.358 50.3584 C 55.1445 49.5721 55.1445 48.2972 54.3583 47.5112 L 50.3118 43.4641 Z" fill="#405263"/>
			<path d="M 33.4989 13.8292 C 24.8585 13.8292 17.8291 20.8593 17.8291 29.5004 C 17.8291 38.1412 24.8585 45.1712 33.4989 45.1712 C 42.1401 45.1712 49.17 38.1412 49.17 29.5004 C 49.17 20.8593 42.1399 13.8292 33.4989 13.8292 ZM 33.4989 41.1443 C 27.0789 41.1443 21.8558 35.921 21.8558 29.5004 C 21.8558 23.0797 27.0789 17.856 33.4989 17.856 C 39.9198 17.856 45.1435 23.0797 45.1435 29.5004 C 45.1435 35.921 39.9198 41.1443 33.4989 41.1443 Z" fill="#405263"/>
		</g>
	</g>
</svg>