<?xml version="1.0" standalone="no"?>
<!-- Generator: Adobe Fireworks 10, Export SVG Extension by Aaron Beall (http://fireworks.abeall.com) . Version: 0.6.1  -->
<!DOCTYPE svg PUBLIC "-//W3C//DTD SVG 1.1//EN" "http://www.w3.org/Graphics/SVG/1.1/DTD/svg11.dtd">
<svg id="Untitled-Page%201" viewBox="0 0 80 80" style="background-color:#ffffff00" version="1.1"
	xmlns="http://www.w3.org/2000/svg" xmlns:xlink="http://www.w3.org/1999/xlink" xml:space="preserve"
	x="0px" y="0px" width="80px" height="80px"
>
	<g id="Layer%201">
		<g>
			<g>
				<path d="M 61.2939 28.5758 C 61.2794 28.5056 61.2582 28.4355 61.2304 28.3676 C 61.2026 28.3008 61.1681 28.2363 61.128 28.1761 C 61.0868 28.1149 61.04 28.0582 60.9888 28.0057 C 60.9376 27.9545 60.8809 27.9089 60.8196 27.8678 C 60.7595 27.8276 60.695 27.7932 60.6281 27.7654 C 60.5603 27.7375 60.49 27.7163 60.4199 27.7019 C 60.2763 27.673 60.1282 27.673 59.9846 27.7019 C 59.9134 27.7163 59.8433 27.7375 59.7765 27.7654 C 59.7086 27.7932 59.644 27.8276 59.5839 27.8678 C 59.5226 27.9089 59.4659 27.9545 59.4147 28.0057 C 59.3635 28.0581 59.3167 28.1149 59.2766 28.1761 C 59.2365 28.2363 59.202 28.3008 59.1742 28.3676 C 59.1464 28.4355 59.1252 28.5056 59.1107 28.5758 C 59.0963 28.6481 59.0884 28.7217 59.0884 28.7938 C 59.0884 29.0867 59.2076 29.3739 59.4147 29.5811 C 59.4659 29.6323 59.5226 29.6791 59.5839 29.7191 C 59.644 29.7592 59.7086 29.7937 59.7765 29.8215 C 59.8433 29.8494 59.9134 29.8705 59.9846 29.8849 C 60.0559 29.8994 60.1294 29.9071 60.2017 29.9071 C 60.2741 29.9071 60.3476 29.8993 60.4199 29.8849 C 60.49 29.8705 60.5602 29.8494 60.6281 29.8215 C 60.695 29.7937 60.7595 29.7592 60.8196 29.7191 C 60.8809 29.6791 60.9376 29.6323 60.9888 29.5811 C 61.1959 29.3739 61.315 29.0867 61.315 28.7938 C 61.315 28.7205 61.3083 28.6481 61.2939 28.5758 Z" fill="#395465"/>
			</g>
			<g>
				<path d="M 29.9161 60.0026 C 29.9027 59.9325 29.8804 59.8623 29.8526 59.7944 C 29.8247 59.7277 29.7902 59.663 29.7502 59.6029 C 29.7101 59.5416 29.6633 59.4849 29.6121 59.4336 C 29.5609 59.3824 29.5041 59.3356 29.4429 59.2944 C 29.3828 59.2545 29.3182 59.2198 29.2503 59.192 C 29.1835 59.1642 29.1134 59.1432 29.0421 59.1287 C 28.8985 59.0996 28.7504 59.0996 28.6068 59.1287 C 28.5367 59.1432 28.4666 59.1642 28.3986 59.192 C 28.3319 59.2198 28.2673 59.2545 28.2072 59.2944 C 28.1459 59.3356 28.0891 59.3824 28.0379 59.4336 C 27.9867 59.4849 27.94 59.5416 27.8999 59.6029 C 27.8598 59.663 27.8253 59.7277 27.7975 59.7944 C 27.7696 59.8623 27.7474 59.9325 27.734 60.0026 C 27.7196 60.0751 27.7117 60.1486 27.7117 60.2208 C 27.7117 60.2931 27.7196 60.3666 27.734 60.4379 C 27.7474 60.509 27.7696 60.5792 27.7975 60.6461 C 27.8253 60.7129 27.8598 60.7786 27.8999 60.8386 C 27.94 60.8987 27.9866 60.9567 28.0379 61.0079 C 28.0891 61.0591 28.1459 61.1058 28.2072 61.1459 C 28.2673 61.186 28.3319 61.2205 28.3986 61.2483 C 28.4666 61.2761 28.5367 61.2972 28.6068 61.3116 C 28.6792 61.3262 28.7527 61.3339 28.825 61.3339 C 28.8974 61.3339 28.9709 61.326 29.0421 61.3116 C 29.1134 61.2974 29.1835 61.2761 29.2503 61.2483 C 29.3182 61.2205 29.3828 61.1859 29.4429 61.1459 C 29.5041 61.1058 29.5609 61.0591 29.6121 61.0079 C 29.6633 60.9567 29.7101 60.8987 29.7502 60.8386 C 29.7902 60.7784 29.8247 60.7129 29.8526 60.6461 C 29.8804 60.5793 29.9027 60.509 29.9161 60.4379 C 29.9305 60.3667 29.9383 60.2931 29.9383 60.2208 C 29.9383 60.1486 29.9305 60.075 29.9161 60.0026 Z" fill="#395465"/>
			</g>
			<g>
				<path d="M 67.8355 32.4113 C 67.8354 32.4108 67.8351 32.4104 67.8351 32.4099 C 66.4957 27.8784 64.0121 23.7074 60.6523 20.3475 C 57.2931 16.9885 53.1228 14.505 48.5923 13.1656 C 48.5911 13.1653 48.59 13.1648 48.5888 13.1646 C 45.9725 12.392 43.2509 12 40.5 12 C 37.7491 12 35.0275 12.392 32.4113 13.1646 C 32.4101 13.1648 32.409 13.1653 32.4078 13.1656 C 27.8772 14.505 23.7071 16.9885 20.3477 20.3475 C 16.9879 23.7074 14.5042 27.8784 13.1649 32.4099 C 13.1648 32.4104 13.1647 32.4106 13.1645 32.4111 C 12.3919 35.0273 12 37.7488 12 40.5 C 12 43.2512 12.3919 45.9727 13.1645 48.5887 C 13.1646 48.589 13.1646 48.5891 13.1647 48.5894 C 14.504 53.121 16.9879 57.2925 20.3477 60.6523 C 23.7069 64.0114 27.8772 66.4949 32.4078 67.8344 C 32.409 67.8346 32.4101 67.8351 32.4113 67.8353 C 35.0275 68.608 37.7491 69 40.5 69 C 43.2509 69 45.9725 68.608 48.5887 67.8354 C 48.5898 67.8352 48.591 67.8347 48.5922 67.8344 C 53.1228 66.495 57.293 64.0115 60.6522 60.6525 C 64.0121 57.2925 66.496 53.1211 67.8351 48.5894 C 67.8351 48.5892 67.8353 48.5891 67.8354 48.5889 C 68.6082 45.9727 69 43.2512 69 40.5 C 69 37.7488 68.6082 35.0273 67.8355 32.4113 ZM 48.4401 20.1888 C 51.2243 21.2815 53.7926 22.9601 55.9163 25.0839 C 56.1859 25.3536 56.453 25.6351 56.7099 25.9207 C 56.9298 26.1653 57.2332 26.2896 57.538 26.2896 C 57.8032 26.2896 58.0694 26.1953 58.2821 26.004 C 58.7393 25.5929 58.7765 24.889 58.3653 24.4319 C 58.0822 24.1172 57.7878 23.8069 57.4905 23.5095 C 55.0369 21.0559 52.0442 19.141 48.8022 17.9445 L 49.1661 15.6886 C 56.7558 18.3295 62.6703 24.244 65.3117 31.8337 L 53.7202 33.7039 C 52.3002 30.9402 50.0597 28.6997 47.2963 27.2797 L 48.4401 20.1888 ZM 53.1358 40.5001 C 53.1358 42.28 52.7731 44.0002 52.0578 45.6133 C 52.0577 45.6135 52.0577 45.6138 52.0576 45.6139 C 52.0576 45.6139 52.0576 45.6139 52.0576 45.614 C 50.7821 48.4939 48.4937 50.7823 45.6138 52.0576 C 45.6136 52.0577 45.6135 52.0577 45.6132 52.0579 C 44 52.7734 42.2797 53.1361 40.5 53.1361 C 38.7203 53.1361 36.9999 52.7733 35.3868 52.0577 C 35.3866 52.0576 35.3864 52.0575 35.3861 52.0575 C 32.5062 50.7821 30.2178 48.4938 28.9425 45.6139 C 28.9423 45.6136 28.9423 45.6134 28.9422 45.6133 C 28.2269 44.0002 27.8642 42.2799 27.8642 40.5 C 27.8642 38.72 28.2269 36.9999 28.9422 35.3867 C 28.9423 35.3866 28.9423 35.3864 28.9425 35.3862 C 28.9425 35.3862 28.9425 35.3862 28.9425 35.3861 C 30.2178 32.5061 32.5063 30.2179 35.3861 28.9425 C 35.3864 28.9424 35.3866 28.9424 35.3868 28.9423 C 36.9999 28.2268 38.7203 27.864 40.5 27.864 C 42.2797 27.864 44.0002 28.2268 45.6132 28.9423 C 45.6135 28.9424 45.6136 28.9425 45.6138 28.9425 C 48.4938 30.218 50.7821 32.5065 52.0576 35.3862 C 52.0577 35.3865 52.0577 35.3866 52.0578 35.3868 C 52.7731 36.9999 53.1358 38.7201 53.1358 40.5001 ZM 40.5 14.2266 C 42.7084 14.2266 44.8954 14.5002 47.0152 15.0406 L 45.1842 26.391 C 43.6805 25.8905 42.1106 25.6375 40.5 25.6375 C 38.8894 25.6375 37.3195 25.8905 35.8158 26.391 L 33.9848 15.0406 C 36.1046 14.5002 38.2916 14.2266 40.5 14.2266 ZM 32.5599 20.1888 L 33.7038 27.2797 C 30.9403 28.6997 28.6998 30.9402 27.2798 33.7039 L 20.1888 32.5599 C 21.2814 29.7758 22.9611 27.2068 25.0838 25.0839 C 27.2062 22.9617 29.7762 21.2813 32.5599 20.1888 ZM 31.8339 15.6885 L 32.1978 17.9446 C 28.9568 19.1407 25.9615 21.0573 23.5093 23.5093 C 21.0565 25.962 19.1409 28.9562 17.9445 32.1978 L 15.6883 31.8337 C 18.3296 24.244 24.2442 18.3295 31.8339 15.6885 ZM 14.2266 40.5 C 14.2266 38.2914 14.5001 36.1045 15.0406 33.9847 L 26.3909 35.8158 C 25.8904 37.3195 25.6375 38.8893 25.6375 40.5 C 25.6375 42.1107 25.8904 43.6805 26.3909 45.1842 L 15.0406 47.0153 C 14.5001 44.8955 14.2266 42.7086 14.2266 40.5 ZM 32.1064 63.6211 L 31.8336 65.3119 C 24.2442 62.6705 18.3296 56.756 15.6883 49.1663 L 17.9443 48.8022 C 19.141 52.0442 21.0561 55.0374 23.5095 57.4908 C 23.8794 57.8607 24.2668 58.2234 24.6609 58.5691 C 24.8722 58.7543 25.1337 58.8451 25.3943 58.8451 C 25.7038 58.8451 26.0119 58.7167 26.2318 58.4657 C 26.6372 58.0034 26.591 57.2999 26.1285 56.8947 C 25.7709 56.5812 25.4193 56.2521 25.0837 55.9164 C 22.9604 53.7931 21.2815 51.2246 20.1888 48.4403 L 27.2796 47.2965 C 28.6995 50.0599 30.9401 52.3004 33.7035 53.7206 L 32.1064 63.6211 ZM 40.5 66.7734 C 38.2916 66.7734 36.1046 66.4999 33.9848 65.9594 L 35.8158 54.609 C 37.3195 55.1095 38.8894 55.3627 40.5 55.3627 C 42.1106 55.3627 43.6805 55.1096 45.1842 54.609 L 47.0152 65.9594 C 44.8954 66.4999 42.7084 66.7734 40.5 66.7734 ZM 48.44 60.8112 L 47.2963 53.7203 C 50.0597 52.3003 52.3002 50.0598 53.7202 47.2961 L 60.8109 48.4401 C 59.7181 51.2249 58.0406 53.7919 55.9161 55.9161 C 53.7928 58.0393 51.2243 59.7185 48.44 60.8112 ZM 49.1661 65.3116 L 48.8933 63.6207 L 48.8022 63.0555 C 52.0439 61.8588 55.0373 59.9437 57.4905 57.4906 C 59.9451 55.0361 61.8587 52.0449 63.0558 48.8022 L 65.3117 49.1663 C 62.6703 56.756 56.7558 62.6705 49.1661 65.3116 ZM 65.9594 47.0153 L 54.609 45.1842 C 55.1096 43.6805 55.3625 42.1107 55.3625 40.5 C 55.3625 38.8893 55.1096 37.3195 54.609 35.8158 L 65.9594 33.9847 C 66.4999 36.1045 66.7734 38.2914 66.7734 40.5 C 66.7734 42.7086 66.4999 44.8955 65.9594 47.0153 Z" fill="#395465"/>
			</g>
		</g>
	</g>
</svg>