<?xml version="1.0" standalone="no"?>
<!-- Generator: Adobe Fireworks 10, Export SVG Extension by Aaron Beall (http://fireworks.abeall.com) . Version: 0.6.1  -->
<!DOCTYPE svg PUBLIC "-//W3C//DTD SVG 1.1//EN" "http://www.w3.org/Graphics/SVG/1.1/DTD/svg11.dtd">
<svg id="Untitled-Page%201" viewBox="0 0 74 74" style="background-color:#ffffff00" version="1.1"
	xmlns="http://www.w3.org/2000/svg" xmlns:xlink="http://www.w3.org/1999/xlink" xml:space="preserve"
	x="0px" y="0px" width="74px" height="74px"
>
	<g id="Layer%201">
		<g>
			<path id="Ellipse" d="M 0 37 C 0 16.5652 16.5652 0 37 0 C 57.4348 0 74 16.5652 74 37 C 74 57.4348 57.4348 74 37 74 C 16.5652 74 0 57.4348 0 37 Z" fill="#4e4e4e"/>
			<path d="M 24.4478 51.8 L 24.9452 51.8 L 46.3296 51.8 C 47.7029 51.8 48.8161 50.6867 48.8161 49.3135 C 48.8161 47.9401 47.7029 46.8268 46.3296 46.8268 L 28.8639 46.8268 L 51.142 24.6786 C 52.1023 23.7238 51.9968 22.2903 50.9215 21.4885 C 49.8625 20.699 48.2591 20.8207 47.3252 21.7491 L 25.9398 43.0075 L 25.9398 27.4317 C 25.9398 26.0584 24.8265 24.9452 23.4532 24.9452 C 22.0799 24.9452 20.9667 26.0584 20.9667 27.4317 L 20.9667 45.8323 L 20.9667 49.3135 L 20.9667 51.8 L 23.4532 51.8 C 23.6236 51.8 23.7898 51.7829 23.9505 51.7502 C 24.1113 51.7829 24.2775 51.8 24.4478 51.8 ZM 23.4532 51.8 L 24.4478 51.8 C 24.2775 51.8 24.1113 51.7829 23.9505 51.7502 C 23.7898 51.7829 23.6236 51.8 23.4532 51.8 Z" fill="#ffffff"/>
		</g>
	</g>
</svg>