<?xml version="1.0" standalone="no"?>
<!-- Generator: Adobe Fireworks 10, Export SVG Extension by Aaron Beall (http://fireworks.abeall.com) . Version: 0.6.1  -->
<!DOCTYPE svg PUBLIC "-//W3C//DTD SVG 1.1//EN" "http://www.w3.org/Graphics/SVG/1.1/DTD/svg11.dtd">
<svg id="Untitled-Page%201" viewBox="0 0 74 74" style="background-color:#ffffff00" version="1.1"
	xmlns="http://www.w3.org/2000/svg" xmlns:xlink="http://www.w3.org/1999/xlink" xml:space="preserve"
	x="0px" y="0px" width="74px" height="74px"
>
	<g id="Layer%201">
		<g>
			<path id="Ellipse" d="M 0 37 C 0 16.5652 16.5652 0 37 0 C 57.4348 0 74 16.5652 74 37 C 74 57.4348 57.4348 74 37 74 C 16.5652 74 0 57.4348 0 37 Z" fill="#85b200"/>
			<g>
				<path d="M 46.4235 17.2667 C 46.6226 17.2667 46.8217 17.2667 47.0209 17.2667 C 47.2086 17.407 47.4299 17.5175 47.5777 17.6936 C 47.9817 18.1748 47.9207 18.8163 47.4404 19.3176 C 46.6811 20.1104 45.9133 20.894 45.1352 21.6957 C 45.9143 22.4972 46.6682 23.28 47.4305 24.0542 C 47.7463 24.3749 47.8887 24.7477 47.8254 25.2012 C 47.7935 25.4293 47.7279 25.6577 47.7322 25.8849 C 47.736 26.0852 47.7643 26.3213 47.8704 26.4772 C 48.3276 27.1488 48.8222 27.7932 49.294 28.4545 C 50.1328 29.6301 50.965 30.8109 51.8 31.9896 C 51.8 39.0299 51.8 46.0701 51.8 53.1105 C 51.7732 53.192 51.74 53.2716 51.7205 53.3551 C 51.3481 54.9436 50.416 56.0085 48.9202 56.5441 C 48.7139 56.618 48.5005 56.6707 48.2903 56.7333 C 42.4159 56.7333 36.5415 56.7333 30.6671 56.7333 C 30.6125 56.7083 30.56 56.6718 30.5029 56.66 C 28.7856 56.3042 27.5247 54.9877 27.2245 53.2115 C 27.1573 52.8137 27.2431 52.3502 27.0721 52.0198 C 26.8985 51.6841 26.4744 51.4963 26.1945 51.208 C 22.6472 47.5559 19.1156 43.8878 15.5572 40.2474 C 14.644 39.3132 13.7974 38.3658 13.5667 37 C 13.5667 36.5889 13.5667 36.1779 13.5667 35.7667 C 13.5928 35.6981 13.629 35.6321 13.6437 35.5607 C 13.8101 34.7499 14.1618 34.0371 14.7294 33.4504 C 19.3021 28.7253 23.8755 24.0006 28.4616 19.2896 C 28.6567 19.089 28.967 18.9556 29.2438 18.9022 C 30.0367 18.7493 30.8398 18.6527 31.6391 18.5354 C 33.6437 18.2408 35.6489 17.951 37.6528 17.6516 C 38.4372 17.5343 39.2186 17.3958 40.0014 17.2667 C 40.2255 17.2667 40.4494 17.2667 40.6735 17.2667 C 40.9351 17.4755 41.2185 17.6611 41.4542 17.8973 C 42.1562 18.6013 42.8393 19.3252 43.5439 20.056 C 44.2463 19.3296 44.9216 18.615 45.6161 17.9214 C 45.8608 17.6769 46.1529 17.4835 46.4235 17.2667 ZM 41.997 25.0181 C 42.2278 25.248 42.4833 25.4889 42.7235 25.7451 C 43.1828 26.2352 43.1968 26.9471 42.7662 27.4053 C 42.3306 27.8688 41.6324 27.8893 41.16 27.4113 C 40.1029 26.3413 39.0567 25.2595 38.0188 24.17 C 37.5538 23.6818 37.5605 22.9617 37.9992 22.51 C 38.4504 22.0455 39.1489 22.0569 39.6321 22.557 C 39.8749 22.8086 40.0861 23.0927 40.3012 23.3497 C 40.8963 22.7368 41.4059 22.2124 41.9324 21.6704 C 41.3254 21.0452 40.7135 20.4065 40.0882 19.782 C 40.0175 19.7117 39.8669 19.6831 39.7619 19.6984 C 36.6741 20.1439 33.5882 20.604 30.4995 21.0435 C 30.0375 21.1091 29.6838 21.2798 29.3454 21.6312 C 25.0819 26.0571 20.8019 30.4663 16.5265 34.8802 C 15.5649 35.8729 15.5633 36.946 16.523 37.937 C 20.2791 41.8153 24.0361 45.6927 27.7926 49.5704 C 28.7774 50.5873 29.7975 50.589 30.7811 49.574 C 34.9514 45.2694 39.114 40.957 43.3008 36.67 C 43.8275 36.1307 44.1313 35.5844 44.2272 34.8019 C 44.6041 31.7251 45.0593 28.6583 45.4795 25.5865 C 45.493 25.4873 45.4758 25.3444 45.415 25.2797 C 44.8039 24.6285 44.1805 23.9894 43.5906 23.3779 C 43.053 23.9313 42.5443 24.4547 41.997 25.0181 ZM 29.4189 52.6481 C 29.5891 53.7739 30.3099 54.42 31.377 54.4207 C 36.7778 54.424 42.1785 54.4242 47.5791 54.4205 C 48.7521 54.4198 49.5582 53.5967 49.559 52.3923 C 49.5633 45.9181 49.5622 39.444 49.5545 32.97 C 49.5543 32.806 49.4912 32.6155 49.3973 32.4827 C 48.7596 31.5806 48.1049 30.6909 47.4581 29.7959 C 47.4024 29.7188 47.3635 29.6292 47.2798 29.4786 C 47.2149 29.663 47.1898 29.7084 47.1831 29.7568 C 46.9008 31.8131 46.6063 33.868 46.3474 35.9275 C 46.2624 36.6039 46.0362 37.1438 45.5519 37.6401 C 41.2244 42.0741 36.9113 46.5234 32.6145 50.9894 C 31.7221 51.9171 30.7405 52.5844 29.4189 52.6481 Z" fill="#ffffff"/>
				<path d="M 34.1216 27.1595 C 34.0846 27.323 34.0585 27.5007 34.0043 27.6688 C 32.2844 33.0006 30.5605 38.3306 28.8421 43.6625 C 28.687 44.1438 28.4438 44.5251 27.9317 44.6252 C 27.0235 44.8026 26.3653 43.9729 26.668 43.026 C 27.2743 41.1295 27.8927 39.2369 28.5046 37.342 C 29.6265 33.8682 30.7469 30.3939 31.8691 26.9203 C 32.0687 26.3022 32.4615 25.9797 32.9987 25.9833 C 33.4737 25.9863 33.8816 26.2892 34.0402 26.7682 C 34.0797 26.8875 34.0926 27.0161 34.1216 27.1595 Z" fill="#ffffff"/>
				<path d="M 36.6663 38.7849 C 34.8032 38.7765 33.2831 37.1956 33.3096 35.2942 C 33.3365 33.3744 34.8617 31.8282 36.7145 31.8427 C 38.5407 31.8567 40.061 33.4418 40.0539 35.3248 C 40.0467 37.2432 38.5289 38.7932 36.6663 38.7849 ZM 37.7816 35.318 C 37.7815 34.677 37.2801 34.1578 36.6695 34.1663 C 36.0698 34.1746 35.5856 34.6796 35.5796 35.3025 C 35.5734 35.9476 36.0563 36.4613 36.6728 36.4653 C 37.2887 36.4697 37.7817 35.9595 37.7816 35.318 Z" fill="#ffffff"/>
				<path d="M 23.9865 38.7849 C 22.1145 38.771 20.636 37.2188 20.6527 35.285 C 20.6694 33.364 22.188 31.8254 24.0508 31.8425 C 25.8942 31.8593 27.3944 33.4514 27.3752 35.371 C 27.3562 37.2628 25.8317 38.7987 23.9865 38.7849 ZM 24.0193 36.4652 C 24.6199 36.4601 25.1337 35.9225 25.1251 35.308 C 25.1164 34.6902 24.5893 34.1576 23.9961 34.1667 C 23.3956 34.1763 22.891 34.7113 22.8971 35.332 C 22.9033 35.9597 23.4092 36.4703 24.0193 36.4652 Z" fill="#ffffff"/>
			</g>
		</g>
	</g>
</svg>