<?xml version="1.0" standalone="no"?>
<!-- Generator: Adobe Fireworks 10, Export SVG Extension by Aaron Beall (http://fireworks.abeall.com) . Version: 0.6.1  -->
<!DOCTYPE svg PUBLIC "-//W3C//DTD SVG 1.1//EN" "http://www.w3.org/Graphics/SVG/1.1/DTD/svg11.dtd">
<svg id="Untitled-Page%201" viewBox="0 0 74 74" style="background-color:#ffffff00" version="1.1"
	xmlns="http://www.w3.org/2000/svg" xmlns:xlink="http://www.w3.org/1999/xlink" xml:space="preserve"
	x="0px" y="0px" width="74px" height="74px"
>
	<g id="Layer%201">
		<g>
			<path id="Ellipse" d="M 0 37 C 0 16.5652 16.5652 0 37 0 C 57.4348 0 74 16.5652 74 37 C 74 57.4348 57.4348 74 37 74 C 16.5652 74 0 57.4348 0 37 Z" fill="#bea053"/>
			<path d="M 32.0584 30.1597 C 32.0584 27.9357 35.3108 27.5558 38.1321 27.5558 C 40.7912 27.5558 44.4245 28.8021 47.4624 30.3772 L 48.0579 24.2479 C 46.5385 23.3794 43.0139 22.3486 39.4339 22.1332 L 40.3015 15.895 L 34.4977 15.895 L 35.3665 22.1332 C 27.8821 22.8373 25.4408 27.1761 25.4408 30.8104 C 25.4408 39.9762 42.5243 38.0258 42.5243 43.6643 C 42.5243 45.7811 40.5192 46.5391 36.9926 46.5391 C 32.2207 46.5391 28.6396 44.8594 26.7969 43.1223 L 25.8739 50.0112 C 27.6111 51.042 31.1346 51.964 35.3665 52.1818 L 34.4977 58.202 L 40.3015 58.202 L 39.4339 52.1262 C 48.2203 51.3662 49.7929 46.7012 49.7929 43.611 C 49.7931 32.7098 32.0584 35.42 32.0584 30.1597 L 32.0584 30.1597 Z" fill="#ffffff"/>
		</g>
	</g>
</svg>