<?xml version="1.0" standalone="no"?>
<!-- Generator: Adobe Fireworks 10, Export SVG Extension by Aaron Beall (http://fireworks.abeall.com) . Version: 0.6.1  -->
<!DOCTYPE svg PUBLIC "-//W3C//DTD SVG 1.1//EN" "http://www.w3.org/Graphics/SVG/1.1/DTD/svg11.dtd">
<svg id="Untitled-Page%201" viewBox="0 0 74 74" style="background-color:#ffffff00" version="1.1"
	xmlns="http://www.w3.org/2000/svg" xmlns:xlink="http://www.w3.org/1999/xlink" xml:space="preserve"
	x="0px" y="0px" width="74px" height="74px"
>
	<g id="Layer%201">
		<g>
			<path id="Ellipse" d="M 0 37 C 0 16.5652 16.5652 0 37 0 C 57.4348 0 74 16.5652 74 37 C 74 57.4348 57.4348 74 37 74 C 16.5652 74 0 57.4348 0 37 Z" fill="#4e4e4e"/>
			<path d="M 49.5522 22.2 L 49.0548 22.2 L 27.6704 22.2 C 26.2971 22.2 25.1839 23.3133 25.1839 24.6865 C 25.1839 26.0599 26.2971 27.1732 27.6704 27.1732 L 45.1361 27.1732 L 22.858 49.3214 C 21.8977 50.2762 22.0032 51.7097 23.0785 52.5115 C 24.1375 53.301 25.7409 53.1793 26.6748 52.2509 L 48.0602 30.9925 L 48.0602 46.5683 C 48.0602 47.9416 49.1735 49.0548 50.5468 49.0548 C 51.9201 49.0548 53.0333 47.9416 53.0333 46.5683 L 53.0333 28.1677 L 53.0333 24.6865 L 53.0333 22.2 L 50.5468 22.2 C 50.3764 22.2 50.2102 22.2171 50.0495 22.2498 C 49.8887 22.2171 49.7225 22.2 49.5522 22.2 ZM 50.5468 22.2 L 49.5522 22.2 C 49.7225 22.2 49.8887 22.2171 50.0495 22.2498 C 50.2102 22.2171 50.3764 22.2 50.5468 22.2 Z" fill="#ffffff"/>
		</g>
	</g>
</svg>