<svg width="30" height="30" viewBox="0 0 30 30" fill="none" xmlns="http://www.w3.org/2000/svg">
<path d="M15 4.31247C17.1138 4.31247 19.1801 4.93928 20.9377 6.11364C22.6952 7.288 24.0651 8.95716 24.874 10.91C25.6829 12.8629 25.8945 15.0118 25.4821 17.085C25.0698 19.1582 24.0519 21.0625 22.5572 22.5572C21.0625 24.0518 19.1582 25.0697 17.085 25.4821C15.0119 25.8945 12.863 25.6828 10.9101 24.8739C8.95719 24.065 7.28803 22.6952 6.11367 20.9376C4.93931 19.1801 4.3125 17.1138 4.3125 15C4.3125 14.5276 4.12483 14.0745 3.79078 13.7404C3.45673 13.4064 3.00367 13.2187 2.53125 13.2187C2.05883 13.2187 1.60576 13.4064 1.27172 13.7404C0.937667 14.0745 0.75 14.5276 0.75 15C0.750321 18.1974 1.82596 21.3018 3.80396 23.8139C5.78195 26.3261 8.54734 28.1 11.6554 28.8505C14.7635 29.6009 18.0337 29.2843 20.9401 27.9515C23.8464 26.6186 26.2201 24.3471 27.6794 21.5021C29.1386 18.6571 29.5987 15.404 28.9855 12.266C28.3724 9.1279 26.7217 6.28722 24.2989 4.20074C21.8761 2.11425 18.822 0.903214 15.6277 0.762373C12.4334 0.621532 9.28454 1.55907 6.6875 3.42422V2.53122C6.6875 2.05881 6.49983 1.60574 6.16578 1.27169C5.83174 0.93764 5.37867 0.749974 4.90625 0.749974C4.43383 0.749974 3.98077 0.93764 3.64672 1.27169C3.31267 1.60574 3.125 2.05881 3.125 2.53122V8.46872C3.125 9.45197 3.923 10.25 4.90625 10.25H8.46875C8.94117 10.25 9.39423 10.0623 9.72828 9.72826C10.0623 9.39421 10.25 8.94114 10.25 8.46872C10.25 7.99631 10.0623 7.54324 9.72828 7.20919C9.39423 6.87514 8.94117 6.68747 8.46875 6.68747H8.28113C10.1812 5.14704 12.554 4.3083 15 4.31247ZM16.1875 9.65622C16.1875 9.18381 15.9998 8.73074 15.6658 8.39669C15.3317 8.06264 14.8787 7.87497 14.4062 7.87497C13.9338 7.87497 13.4808 8.06264 13.1467 8.39669C12.8127 8.73074 12.625 9.18381 12.625 9.65622V15.5937C12.625 16.577 13.423 17.375 14.4062 17.375H17.9688C18.4412 17.375 18.8942 17.1873 19.2283 16.8533C19.5623 16.5192 19.75 16.0661 19.75 15.5937C19.75 15.1213 19.5623 14.6682 19.2283 14.3342C18.8942 14.0001 18.4412 13.8125 17.9688 13.8125H16.1875V9.65622Z" fill="#0C56DB"/>
</svg>
