<svg width="22" height="22" viewBox="0 0 22 22" fill="none" xmlns="http://www.w3.org/2000/svg">
<path d="M2.98028 10.7317L2.98029 10.7314C2.98836 10.4562 2.8868 10.1891 2.69795 9.98886C2.50909 9.78859 2.24842 9.67155 1.97327 9.66348C1.69812 9.6554 1.43103 9.75697 1.23076 9.94582C1.03057 10.1346 0.913545 10.3951 0.905389 10.6702C0.838589 12.7146 1.39411 14.7311 2.49845 16.4529C3.60279 18.1746 5.20389 19.5205 7.08988 20.3124C8.97588 21.1043 11.0579 21.3049 13.0604 20.8876C15.0628 20.4703 16.8914 19.4549 18.3042 17.9756C19.7169 16.4963 20.6472 14.623 20.9719 12.6034C21.2966 10.5838 21.0005 8.51329 20.1227 6.66571C19.2449 4.81814 17.8268 3.28064 16.0561 2.25666C14.2854 1.2327 12.2455 0.770508 10.2064 0.931237C7.67887 1.12713 5.32159 2.26856 3.60172 4.1223L3.60283 1.94099L3.60308 1.94099L3.60259 1.93402L3.59385 1.80777L3.59406 1.80776L3.59317 1.80122C3.56265 1.57666 3.45944 1.36827 3.29932 1.2079C3.1392 1.04752 2.93097 0.943991 2.70646 0.91312L2.7065 0.912818L2.69871 0.91236L2.57121 0.90486L2.57125 0.904167L2.55946 0.90486L2.43196 0.91236L2.43194 0.912056L2.42421 0.91312C2.1997 0.943991 1.99147 1.04752 1.83135 1.2079C1.67123 1.36827 1.56802 1.57666 1.5375 1.80122L1.53728 1.80119L1.53682 1.80777L1.52807 1.93402L1.52784 1.93401V1.94094V6.94093H1.5276L1.52807 6.94778L1.53682 7.07528L1.5366 7.0753L1.5375 7.0819C1.56802 7.30646 1.67123 7.51485 1.83135 7.67522C1.99147 7.8356 2.1997 7.93913 2.42421 7.97L2.42417 7.9703L2.43196 7.97076L2.55946 7.97826L2.55945 7.97843H2.56533H6.93783V7.97861L6.9437 7.97826L7.0712 7.97076L7.07122 7.97103L7.07847 7.97007C7.32784 7.93702 7.55672 7.8145 7.7225 7.6253C7.88828 7.4361 7.97967 7.19311 7.97967 6.94156C7.97967 6.69001 7.88828 6.44702 7.7225 6.25782C7.55672 6.06862 7.32784 5.9461 7.07847 5.91305L7.0785 5.91285L7.07218 5.91242L6.94468 5.90367L6.9447 5.90343H6.93783H4.80279L4.92314 5.75653C6.15933 4.3228 7.86259 3.37224 9.73188 3.07288C11.6016 2.77345 13.5169 3.1448 15.1393 4.12126C16.7616 5.09771 17.9864 6.61638 18.5971 8.40872C19.2078 10.2011 19.165 12.1516 18.4764 13.9155C17.7877 15.6793 16.4975 17.1429 14.834 18.0473C13.1704 18.9517 11.2406 19.2388 9.38586 18.8577C7.53108 18.4766 5.87079 17.452 4.69857 15.9649C3.52635 14.4779 2.91771 12.6242 2.98028 10.7317ZM10.6934 5.90367L10.5866 5.89634V5.91039L10.5532 5.91236L10.5532 5.91205L10.5455 5.91312C10.3209 5.94399 10.1127 6.04752 9.95259 6.20789C9.79247 6.36827 9.68926 6.57666 9.65874 6.80122L9.65853 6.80119L9.65807 6.80777L9.64932 6.93402L9.64908 6.934V6.94093V11.9372H9.64885L9.64931 11.944L9.65806 12.0727L9.65783 12.0727L9.65876 12.0795C9.68956 12.3038 9.79289 12.5119 9.95299 12.672C10.1131 12.8321 10.3212 12.9355 10.5455 12.9663L10.5454 12.9665L10.5522 12.9669L10.6797 12.9757L10.6797 12.9759H10.6866H13.8116V12.9762L13.8184 12.9757L13.9459 12.9669L13.9459 12.9672L13.9527 12.9662C14.201 12.9321 14.4286 12.8092 14.5933 12.6202C14.758 12.4313 14.8488 12.1891 14.8488 11.9384C14.8488 11.6878 14.758 11.4456 14.5933 11.2566C14.4286 11.0677 14.201 10.9448 13.9527 10.9106L13.9527 10.9104L13.9459 10.9099L13.8184 10.9012L13.8184 10.9009L13.8116 10.9009L11.7241 10.8997V6.94093H11.7243L11.7238 6.93402L11.7151 6.80777L11.7153 6.80776L11.7144 6.80122C11.6839 6.57666 11.5807 6.36827 11.4206 6.20789C11.2604 6.04752 11.0522 5.94399 10.8277 5.91312L10.8277 5.91289L10.8209 5.91242L10.6934 5.90367Z" fill="white" stroke="white" stroke-width="0.2"/>
</svg>
