<?xml version="1.0" standalone="no"?>
<!-- Generator: Adobe Fireworks 10, Export SVG Extension by Aaron Beall (http://fireworks.abeall.com) . Version: 0.6.1  -->
<!DOCTYPE svg PUBLIC "-//W3C//DTD SVG 1.1//EN" "http://www.w3.org/Graphics/SVG/1.1/DTD/svg11.dtd">
<svg id="Untitled-Page%201" viewBox="0 0 60 60" style="background-color:#ffffff00" version="1.1"
	xmlns="http://www.w3.org/2000/svg" xmlns:xlink="http://www.w3.org/1999/xlink" xml:space="preserve"
	x="0px" y="0px" width="60px" height="60px"
>
	<g id="Layer%201">
		<g>
			<path id="Elipse" d="M 0 30 C 0 13.4312 13.4312 0 30 0 C 46.5688 0 60 13.4312 60 30 C 60 46.5688 46.5688 60 30 60 C 13.4312 60 0 46.5688 0 30 Z" fill="#d8b666"/>
			<g id="352521_location_on_icon">
				<path d="M 29.5 30.6042 C 27.0275 30.6042 25.0208 28.5977 25.0208 26.125 C 25.0208 23.6523 27.0275 21.6458 29.5 21.6458 C 31.9725 21.6458 33.9792 23.6523 33.9792 26.125 C 33.9792 28.5977 31.9725 30.6042 29.5 30.6042 L 29.5 30.6042 ZM 29.5 13.5833 C 22.5752 13.5833 16.9583 19.2002 16.9583 26.125 C 16.9583 35.5313 29.5 49.4167 29.5 49.4167 C 29.5 49.4167 42.0417 35.5313 42.0417 26.125 C 42.0417 19.2002 36.4248 13.5833 29.5 13.5833 L 29.5 13.5833 Z" fill="#000000"/>
				<path d="M 8 10 L 51 10 L 51 53 L 8 53 L 8 10 Z" fill="none"/>
			</g>
		</g>
	</g>
</svg>