<svg width="27" height="27" viewBox="0 0 27 27" fill="none" xmlns="http://www.w3.org/2000/svg">
<path fill-rule="evenodd" clip-rule="evenodd" d="M18.0751 10.1574C18.0751 11.4222 17.5727 12.6351 16.6784 13.5295C15.7841 14.4238 14.5711 14.9262 13.3064 14.9262C12.0416 14.9262 10.8287 14.4238 9.93434 13.5295C9.04002 12.6351 8.5376 11.4222 8.5376 10.1574C8.5376 8.89268 9.04002 7.67973 9.93434 6.78541C10.8287 5.89109 12.0416 5.38867 13.3064 5.38867C14.5711 5.38867 15.7841 5.89109 16.6784 6.78541C17.5727 7.67973 18.0751 8.89268 18.0751 10.1574ZM15.6907 10.1574C15.6907 10.7898 15.4395 11.3963 14.9924 11.8434C14.5452 12.2906 13.9387 12.5418 13.3064 12.5418C12.674 12.5418 12.0675 12.2906 11.6203 11.8434C11.1732 11.3963 10.922 10.7898 10.922 10.1574C10.922 9.52506 11.1732 8.91858 11.6203 8.47142C12.0675 8.02426 12.674 7.77305 13.3064 7.77305C13.9387 7.77305 14.5452 8.02426 14.9924 8.47142C15.4395 8.91858 15.6907 9.52506 15.6907 10.1574Z" fill="#4F4F4F"/>
<path fill-rule="evenodd" clip-rule="evenodd" d="M13.306 0.620117C6.06344 0.620117 0.191895 6.49166 0.191895 13.7342C0.191895 20.9768 6.06344 26.8483 13.306 26.8483C20.5486 26.8483 26.4201 20.9768 26.4201 13.7342C26.4201 6.49166 20.5486 0.620117 13.306 0.620117ZM2.57628 13.7342C2.57628 16.2259 3.42631 18.5197 4.85098 20.3413C5.8515 19.0274 7.14225 17.9626 8.62239 17.2301C10.1025 16.4976 11.732 16.1172 13.3835 16.1186C15.0136 16.1171 16.6226 16.4876 18.0878 17.202C19.553 17.9165 20.8358 18.9559 21.8385 20.2412C22.8715 18.8864 23.567 17.3051 23.8675 15.6281C24.168 13.9512 24.0648 12.2267 23.5666 10.5975C23.0683 8.96836 22.1893 7.48123 21.0022 6.25923C19.8151 5.03722 18.354 4.11545 16.74 3.5702C15.1259 3.02496 13.4052 2.87189 11.7202 3.12369C10.0352 3.37548 8.43445 4.02489 7.05029 5.01817C5.66613 6.01146 4.5384 7.32008 3.7604 8.83574C2.98239 10.3514 2.57649 12.0305 2.57628 13.7342ZM13.306 24.4639C10.8429 24.4676 8.4541 23.6203 6.54389 22.0653C7.31277 20.9645 8.33615 20.0658 9.52698 19.4456C10.7178 18.8254 12.0408 18.502 13.3835 18.503C14.7094 18.5019 16.0164 18.8172 17.196 19.4227C18.3756 20.0281 19.3938 20.9063 20.1659 21.9842C18.2408 23.5897 15.8127 24.4675 13.306 24.4639Z" fill="#4F4F4F"/>
</svg>
