<svg width="27" height="25" viewBox="0 0 27 25" fill="none" xmlns="http://www.w3.org/2000/svg">
<path d="M21.4104 2.24268H5.80357C3.64871 2.24268 1.90186 3.98953 1.90186 6.14439V19.1501C1.90186 21.305 3.64871 23.0518 5.80357 23.0518H21.4104C23.5653 23.0518 25.3122 21.305 25.3122 19.1501V6.14439C25.3122 3.98953 23.5653 2.24268 21.4104 2.24268Z" stroke="#4F4F4F" stroke-width="2.60114" stroke-linecap="round" stroke-linejoin="round"/>
<path d="M9.70515 12.6471C11.1417 12.6471 12.3063 11.4825 12.3063 10.046C12.3063 8.6094 11.1417 7.44482 9.70515 7.44482C8.26858 7.44482 7.104 8.6094 7.104 10.046C7.104 11.4825 8.26858 12.6471 9.70515 12.6471Z" stroke="#4F4F4F" stroke-width="2.60114" stroke-linecap="round" stroke-linejoin="round"/>
<path d="M7.104 17.8494H20.1097M17.5086 7.44482H20.1097H17.5086ZM17.5086 12.6471H20.1097H17.5086Z" stroke="#4F4F4F" stroke-width="2.60114" stroke-linecap="round" stroke-linejoin="round"/>
</svg>
