<svg width="19" height="19" viewBox="0 0 19 19" fill="none" xmlns="http://www.w3.org/2000/svg">
<path fill-rule="evenodd" clip-rule="evenodd" d="M9.18587 0.0835579C9.28154 0.0289072 9.38982 0.000162125 9.5 0.000162125C9.61018 0.000162125 9.71846 0.0289072 9.81413 0.0835579L18.6808 5.15023C18.7777 5.2056 18.8583 5.2856 18.9144 5.38214C18.9704 5.47868 19 5.58832 19 5.69996V6.61196C19 9.40619 18.0897 12.1244 16.4069 14.355C14.7241 16.5857 12.3604 18.2074 9.67353 18.9746C9.5601 19.0069 9.4399 19.0069 9.32647 18.9746C6.63985 18.207 4.27635 16.5852 2.59359 14.3546C0.91083 12.1241 0.000380437 9.40609 0 6.61196L0 5.69996C3.60076e-05 5.58832 0.0295783 5.47868 0.0856336 5.38214C0.141689 5.2856 0.222266 5.2056 0.3192 5.15023L9.18587 0.0835579ZM8.95787 14.5672L14.4273 7.72849L12.4393 5.93809L8.77547 10.766L5.472 8.01356L3.66133 9.98636L8.95787 14.5672Z" fill="#00B654"/>
</svg>
