<svg width="32" height="26" viewBox="0 0 32 26" fill="none" xmlns="http://www.w3.org/2000/svg">
<path d="M27.2 2H4.8C3.2536 2 2 3.23122 2 4.75V21.25C2 22.7688 3.2536 24 4.8 24H27.2C28.7464 24 30 22.7688 30 21.25V4.75C30 3.23122 28.7464 2 27.2 2Z" stroke="#0C56DB" stroke-width="3" stroke-linecap="round" stroke-linejoin="round"/>
<path d="M16.0002 10.3547C15.6524 9.93311 15.2162 9.59323 14.7224 9.35912C14.2286 9.12501 13.6893 9.0024 13.1428 9C11.0402 9 9.3335 10.7907 9.3335 13C9.3335 15.2093 11.0402 17 13.1428 17C14.2815 17 15.3028 16.476 16.0002 15.6453M22.6668 13C22.6668 15.2093 20.9602 17 18.8575 17C16.7535 17 15.0482 15.2093 15.0482 13C15.0482 10.7907 16.7535 9 18.8575 9C20.9602 9 22.6668 10.7907 22.6668 13Z" stroke="#0C56DB" stroke-width="3" stroke-linecap="round" stroke-linejoin="round"/>
</svg>
