<?xml version="1.0" standalone="no"?>
<!-- Generator: Adobe Fireworks 10, Export SVG Extension by Aaron Beall (http://fireworks.abeall.com) . Version: 0.6.1  -->
<!DOCTYPE svg PUBLIC "-//W3C//DTD SVG 1.1//EN" "http://www.w3.org/Graphics/SVG/1.1/DTD/svg11.dtd">
<svg id="Untitled-Page%201" viewBox="0 0 80 80" style="background-color:#ffffff00" version="1.1"
	xmlns="http://www.w3.org/2000/svg" xmlns:xlink="http://www.w3.org/1999/xlink" xml:space="preserve"
	x="0px" y="0px" width="80px" height="80px"
>
	<g id="Layer%201">
		<g>
			<path d="M 55.9102 63.9714 L 56.1159 67.1143 C 56.1159 67.1143 44.9645 68 37.7051 68 C 22.8813 67.9004 19 58.5703 19 42.5625 C 19 23.1233 27.753 17.1321 39.0961 17.1321 C 51.3368 17.1321 58 23.7117 58 40.6982 L 58 43.9404 L 22.6827 43.9404 C 22.6827 57.4934 26.2661 64.8557 37.8079 64.8557 C 44.7659 64.8557 55.9102 63.9714 55.9102 63.9714 ZM 54.3241 40.7961 C 54.3241 25.7742 49.4491 20.2764 39.0961 20.2764 C 29.144 20.2764 22.6827 25.8706 22.6827 40.7961 L 54.3241 40.7961 Z" fill="#415263"/>
			<path d="M 27.4822 10.3872 C 27.4822 9.0752 28.5272 8 29.9011 8 C 31.1857 8 32.1792 9.0276 32.1792 10.3872 C 32.1792 11.6479 31.2301 12.7725 29.8118 12.7725 C 28.4828 12.7725 27.4822 11.6479 27.4822 10.3872 ZM 43.1489 10.3872 C 43.1489 9.0752 44.1903 8 45.5127 8 C 46.849 8 47.8423 9.0276 47.8423 10.3872 C 47.8423 11.6479 46.8968 12.7725 45.475 12.7725 C 44.0978 12.7725 43.1489 11.6479 43.1489 10.3872 Z" fill="#415263"/>
		</g>
	</g>
</svg>